<?xml version="1.0" encoding="UTF-8"?>
<!-- Generator: Adobe Illustrator 17.0.0, SVG Export Plug-In . SVG Version: 6.00 Build 0)  -->
<!DOCTYPE svg PUBLIC "-//W3C//DTD SVG 1.1//EN" "http://www.w3.org/Graphics/SVG/1.1/DTD/svg11.dtd">
<svg version="1.1" id="Layer_1" xmlns="http://www.w3.org/2000/svg" xmlns:xlink="http://www.w3.org/1999/xlink" x="0px" y="0px" width="140px" height="140px" viewBox="0 0 140 140" enable-background="new 0 0 140 140" xml:space="preserve">
<circle fill="#B0A690" cx="70" cy="70" r="70"/>
<g display="none">
	<path display="inline" fill="#2E3F50" d="M27.113,110.832c0,0.723,0.586,1.309,1.309,1.309h82.655c0.723,0,1.309-0.586,1.309-1.309   V28.505c0-0.723-0.586-1.309-1.309-1.309H28.423c-0.723,0-1.309,0.586-1.309,1.309L27.113,110.832L27.113,110.832z"/>
	<path display="inline" fill="#1C242E" d="M27.113,110.832c0,0.723,0.586,1.309,1.309,1.309h34.044V27.195H28.423   c-0.723,0-1.309,0.586-1.309,1.309L27.113,110.832L27.113,110.832z"/>
	<path display="inline" fill="#2E3F50" d="M60.503,113.123c0,0.723-0.586,1.309-1.309,1.309H30.387   c-0.723,0-1.309-0.586-1.309-1.309V26.377c0-0.723,0.586-1.309,1.309-1.309h28.806c0.723,0,1.309,0.586,1.309,1.309L60.503,113.123   L60.503,113.123z"/>
	<path display="inline" fill="#374A5E" d="M60.503,69.75c0,0-5.783,2.782-15.713,2.782S29.077,69.75,29.077,69.75V26.377   c0-0.723,0.586-1.309,1.309-1.309h28.806c0.723,0,1.309,0.586,1.309,1.309V69.75H60.503z"/>
	<path display="inline" fill="#ECEFF0" d="M105.84,53.383c0,0.723-0.586,1.309-1.309,1.309H68.904c-0.723,0-1.309-0.586-1.309-1.309   V43.235c0-0.723,0.586-1.309,1.309-1.309h35.626c0.723,0,1.309,0.586,1.309,1.309L105.84,53.383L105.84,53.383z"/>
	<path display="inline" fill="#BDC3C7" d="M105.84,53.383c0,0.723-0.586,1.309-1.309,1.309H84.999l4.146-12.766h15.385   c0.723,0,1.309,0.586,1.309,1.309L105.84,53.383L105.84,53.383z"/>
	<g display="inline">
		<path fill="#ECEFF0" d="M80.18,64.403c0,0.542-0.44,0.982-0.982,0.982h-6.765c-0.542,0-0.982-0.44-0.982-0.982v-6.656    c0-0.542,0.44-0.982,0.982-0.982h6.765c0.542,0,0.982,0.44,0.982,0.982V64.403z"/>
		<g enable-background="new    ">
			<path d="M76.434,63.53h-0.575v-3.667c-0.139,0.132-0.32,0.264-0.545,0.396s-0.427,0.231-0.606,0.297V60     c0.322-0.151,0.603-0.335,0.844-0.55c0.241-0.215,0.411-0.424,0.511-0.627h0.371C76.434,58.823,76.434,63.53,76.434,63.53z"/>
		</g>
		<path fill="#ECEFF0" d="M90.901,64.403c0,0.542-0.44,0.982-0.982,0.982h-6.765c-0.542,0-0.982-0.44-0.982-0.982v-6.656    c0-0.542,0.44-0.982,0.982-0.982h6.765c0.542,0,0.982,0.44,0.982,0.982V64.403z"/>
		<g enable-background="new    ">
			<path d="M88.012,62.977v0.553h-3.098c-0.004-0.138,0.018-0.272,0.067-0.4c0.079-0.211,0.205-0.419,0.379-0.623     c0.174-0.205,0.425-0.441,0.753-0.71c0.51-0.418,0.854-0.749,1.033-0.993s0.269-0.475,0.269-0.692     c0-0.228-0.082-0.42-0.245-0.577S86.794,59.3,86.532,59.3c-0.277,0-0.499,0.083-0.665,0.249s-0.25,0.396-0.253,0.69l-0.591-0.061     c0.041-0.441,0.193-0.777,0.457-1.009c0.264-0.231,0.619-0.347,1.065-0.347c0.45,0,0.806,0.125,1.068,0.374     s0.393,0.558,0.393,0.927c0,0.188-0.038,0.372-0.115,0.553s-0.204,0.372-0.382,0.572c-0.178,0.2-0.473,0.475-0.887,0.825     c-0.345,0.29-0.567,0.487-0.665,0.59s-0.179,0.207-0.243,0.312h2.298V62.977z"/>
		</g>
		<path fill="#ECEFF0" d="M101.54,64.403c0,0.542-0.44,0.982-0.982,0.982h-6.765c-0.542,0-0.982-0.44-0.982-0.982v-6.656    c0-0.542,0.44-0.982,0.982-0.982h6.765c0.542,0,0.982,0.44,0.982,0.982V64.403z"/>
		<g enable-background="new    ">
			<path d="M95.629,62.293l0.575-0.077c0.066,0.326,0.179,0.561,0.337,0.705c0.159,0.144,0.352,0.216,0.58,0.216     c0.271,0,0.499-0.094,0.686-0.281c0.187-0.188,0.28-0.42,0.28-0.697c0-0.264-0.086-0.482-0.259-0.654     c-0.173-0.172-0.392-0.257-0.659-0.257c-0.109,0-0.244,0.021-0.406,0.064l0.064-0.505c0.038,0.004,0.069,0.006,0.093,0.006     c0.245,0,0.466-0.064,0.662-0.192c0.196-0.128,0.294-0.325,0.294-0.591c0-0.211-0.071-0.386-0.214-0.524     c-0.143-0.138-0.327-0.208-0.553-0.208c-0.224,0-0.41,0.07-0.559,0.211c-0.149,0.141-0.245,0.352-0.288,0.633l-0.575-0.102     c0.07-0.386,0.23-0.685,0.48-0.897c0.249-0.212,0.559-0.318,0.93-0.318c0.256,0,0.491,0.055,0.706,0.165     c0.215,0.11,0.38,0.26,0.494,0.449c0.114,0.19,0.171,0.391,0.171,0.604c0,0.202-0.054,0.387-0.163,0.553     s-0.269,0.298-0.483,0.396c0.277,0.064,0.492,0.197,0.646,0.398c0.153,0.201,0.23,0.453,0.23,0.756     c0,0.409-0.149,0.756-0.448,1.041c-0.298,0.285-0.675,0.427-1.132,0.427c-0.411,0-0.753-0.122-1.025-0.368     S95.668,62.683,95.629,62.293z"/>
		</g>
		<path fill="#ECEFF0" d="M80.18,75.206c0,0.542-0.44,0.982-0.982,0.982h-6.765c-0.542,0-0.982-0.44-0.982-0.982V68.55    c0-0.542,0.44-0.982,0.982-0.982h6.765c0.542,0,0.982,0.44,0.982,0.982V75.206z"/>
		<g enable-background="new    ">
			<path d="M76.111,74.333v-1.122h-2.033v-0.527l2.139-3.037h0.47v3.037h0.633v0.527h-0.633v1.122H76.111z M76.111,72.683V70.57     l-1.467,2.113H76.111z"/>
		</g>
		<path fill="#ECEFF0" d="M90.901,75.206c0,0.542-0.44,0.982-0.982,0.982h-6.765c-0.542,0-0.982-0.44-0.982-0.982V68.55    c0-0.542,0.44-0.982,0.982-0.982h6.765c0.542,0,0.982,0.44,0.982,0.982V75.206z"/>
		<g enable-background="new    ">
			<path d="M84.988,73.105l0.604-0.051c0.045,0.294,0.149,0.515,0.312,0.663c0.163,0.148,0.36,0.222,0.59,0.222     c0.277,0,0.511-0.105,0.703-0.313s0.288-0.486,0.288-0.831c0-0.328-0.092-0.587-0.277-0.777c-0.184-0.19-0.425-0.285-0.724-0.285     c-0.185,0-0.353,0.042-0.502,0.126s-0.266,0.193-0.352,0.328l-0.54-0.07l0.454-2.407h2.33v0.55h-1.87l-0.253,1.26     c0.281-0.196,0.577-0.294,0.885-0.294c0.409,0,0.754,0.142,1.036,0.425c0.281,0.284,0.422,0.648,0.422,1.093     c0,0.424-0.123,0.791-0.371,1.1c-0.3,0.379-0.711,0.569-1.231,0.569c-0.426,0-0.774-0.119-1.044-0.358     C85.18,73.816,85.026,73.499,84.988,73.105z"/>
		</g>
		<path fill="#ECEFF0" d="M101.54,75.206c0,0.542-0.44,0.982-0.982,0.982h-6.765c-0.542,0-0.982-0.44-0.982-0.982V68.55    c0-0.542,0.44-0.982,0.982-0.982h6.765c0.542,0,0.982,0.44,0.982,0.982V75.206z"/>
		<g enable-background="new    ">
			<path d="M98.612,70.794l-0.572,0.045c-0.051-0.226-0.123-0.39-0.217-0.492c-0.155-0.164-0.347-0.246-0.575-0.246     c-0.183,0-0.344,0.051-0.483,0.153c-0.181,0.132-0.324,0.325-0.428,0.579c-0.104,0.254-0.159,0.615-0.163,1.084     c0.139-0.211,0.308-0.368,0.508-0.47c0.2-0.102,0.41-0.153,0.63-0.153c0.384,0,0.71,0.141,0.98,0.424     c0.27,0.282,0.404,0.647,0.404,1.095c0,0.294-0.063,0.567-0.19,0.82s-0.301,0.446-0.523,0.58s-0.473,0.201-0.754,0.201     c-0.48,0-0.87-0.176-1.173-0.529c-0.302-0.353-0.454-0.934-0.454-1.744c0-0.906,0.168-1.564,0.502-1.976     c0.292-0.358,0.685-0.537,1.18-0.537c0.369,0,0.671,0.103,0.906,0.31C98.424,70.144,98.565,70.43,98.612,70.794z M96.262,72.814     c0,0.198,0.042,0.388,0.126,0.569s0.202,0.319,0.353,0.414c0.152,0.095,0.31,0.142,0.476,0.142c0.243,0,0.452-0.098,0.627-0.294     c0.175-0.196,0.262-0.463,0.262-0.799c0-0.324-0.086-0.579-0.259-0.766c-0.173-0.186-0.39-0.28-0.652-0.28     c-0.26,0-0.48,0.093-0.662,0.28C96.353,72.267,96.262,72.512,96.262,72.814z"/>
		</g>
		<path fill="#ECEFF0" d="M80.18,85.79c0,0.542-0.44,0.982-0.982,0.982h-6.765c-0.542,0-0.982-0.44-0.982-0.982v-6.656    c0-0.542,0.44-0.982,0.982-0.982h6.765c0.542,0,0.982,0.44,0.982,0.982V85.79z"/>
		<g enable-background="new    ">
			<path d="M74.305,80.844v-0.553h3.034v0.448c-0.299,0.317-0.594,0.739-0.887,1.266s-0.519,1.068-0.679,1.624     c-0.115,0.392-0.189,0.822-0.221,1.288h-0.591c0.006-0.369,0.079-0.814,0.217-1.336c0.138-0.522,0.337-1.026,0.596-1.51     c0.259-0.485,0.534-0.893,0.826-1.226L74.305,80.844L74.305,80.844z"/>
		</g>
		<path fill="#ECEFF0" d="M90.901,85.79c0,0.542-0.44,0.982-0.982,0.982h-6.765c-0.542,0-0.982-0.44-0.982-0.982v-6.656    c0-0.542,0.44-0.982,0.982-0.982h6.765c0.542,0,0.982,0.44,0.982,0.982V85.79z"/>
		<g enable-background="new    ">
			<path d="M85.873,82.375c-0.238-0.087-0.416-0.212-0.531-0.374s-0.173-0.356-0.173-0.582c0-0.341,0.123-0.628,0.368-0.86     c0.245-0.232,0.571-0.348,0.978-0.348c0.409,0,0.738,0.119,0.988,0.356s0.374,0.527,0.374,0.868c0,0.217-0.057,0.407-0.171,0.567     c-0.114,0.161-0.287,0.285-0.519,0.372c0.288,0.094,0.507,0.245,0.657,0.454c0.15,0.209,0.225,0.458,0.225,0.748     c0,0.401-0.142,0.737-0.425,1.01c-0.283,0.273-0.656,0.409-1.119,0.409c-0.462,0-0.835-0.137-1.119-0.411     c-0.283-0.274-0.425-0.615-0.425-1.025c0-0.305,0.077-0.56,0.232-0.766C85.368,82.59,85.588,82.45,85.873,82.375z M85.573,83.565     c0,0.164,0.039,0.323,0.117,0.476c0.078,0.153,0.193,0.272,0.347,0.356c0.153,0.084,0.319,0.126,0.495,0.126     c0.275,0,0.502-0.089,0.681-0.265s0.269-0.402,0.269-0.675c0-0.277-0.092-0.506-0.277-0.687     c-0.184-0.181-0.415-0.272-0.692-0.272c-0.27,0-0.495,0.09-0.673,0.269S85.573,83.296,85.573,83.565z M85.758,81.4     c0,0.222,0.072,0.403,0.214,0.543c0.143,0.141,0.328,0.211,0.556,0.211c0.222,0,0.403-0.07,0.545-0.209     c0.142-0.14,0.213-0.311,0.213-0.513c0-0.211-0.073-0.388-0.219-0.532s-0.328-0.216-0.545-0.216c-0.219,0-0.402,0.07-0.547,0.211     C85.83,81.036,85.758,81.205,85.758,81.4z"/>
		</g>
		<path fill="#ECEFF0" d="M80.18,96.374c0,0.542-0.44,0.982-0.982,0.982h-6.765c-0.542,0-0.982-0.44-0.982-0.982v-6.656    c0-0.542,0.44-0.982,0.982-0.982h6.765c0.542,0,0.982,0.44,0.982,0.982V96.374z"/>
		<g enable-background="new    ">
			<path d="M74.746,93.202l0.147-0.454c0.339,0.119,0.585,0.223,0.738,0.31c-0.041-0.386-0.062-0.651-0.064-0.796h0.464     c-0.006,0.211-0.031,0.475-0.074,0.793c0.219-0.111,0.471-0.213,0.754-0.307l0.147,0.454c-0.271,0.09-0.536,0.149-0.796,0.179     c0.13,0.113,0.313,0.314,0.55,0.604l-0.384,0.272c-0.124-0.168-0.27-0.397-0.438-0.687c-0.158,0.3-0.296,0.53-0.416,0.687     l-0.377-0.272c0.247-0.305,0.424-0.506,0.531-0.604C75.255,93.328,74.994,93.269,74.746,93.202z"/>
		</g>
		<path fill="#ECEFF0" d="M90.901,96.374c0,0.542-0.44,0.982-0.982,0.982h-6.765c-0.542,0-0.982-0.44-0.982-0.982v-6.656    c0-0.542,0.44-0.982,0.982-0.982h6.765c0.542,0,0.982,0.44,0.982,0.982V96.374z"/>
		<g enable-background="new    ">
			<path d="M84.988,93.19c0-0.554,0.057-1,0.171-1.338s0.284-0.598,0.508-0.782c0.225-0.183,0.508-0.275,0.849-0.275     c0.252,0,0.472,0.051,0.662,0.152s0.347,0.247,0.47,0.438c0.124,0.191,0.221,0.423,0.291,0.697s0.105,0.643,0.105,1.108     c0,0.55-0.056,0.994-0.169,1.331c-0.113,0.338-0.282,0.599-0.507,0.783c-0.225,0.184-0.509,0.277-0.852,0.277     c-0.452,0-0.807-0.162-1.065-0.486C85.142,94.705,84.988,94.07,84.988,93.19z M85.579,93.19c0,0.769,0.09,1.281,0.27,1.536     c0.18,0.255,0.402,0.382,0.667,0.382c0.264,0,0.487-0.128,0.667-0.384c0.18-0.256,0.27-0.767,0.27-1.534     c0-0.771-0.09-1.284-0.27-1.538c-0.18-0.253-0.404-0.38-0.673-0.38c-0.264,0-0.475,0.112-0.633,0.336     C85.678,91.893,85.579,92.421,85.579,93.19z"/>
		</g>
		<path fill="#ECEFF0" d="M101.54,85.79c0,0.542-0.44,0.982-0.982,0.982h-6.765c-0.542,0-0.982-0.44-0.982-0.982v-6.656    c0-0.542,0.44-0.982,0.982-0.982h6.765c0.542,0,0.982,0.44,0.982,0.982V85.79z"/>
		<g enable-background="new    ">
			<path d="M95.713,83.833l0.553-0.051c0.047,0.26,0.136,0.449,0.269,0.566c0.132,0.117,0.302,0.176,0.508,0.176     c0.177,0,0.332-0.041,0.465-0.121c0.133-0.081,0.243-0.189,0.328-0.324c0.085-0.135,0.157-0.318,0.214-0.548     s0.086-0.464,0.086-0.703c0-0.026-0.001-0.064-0.003-0.115c-0.115,0.183-0.272,0.332-0.472,0.446     c-0.199,0.114-0.415,0.171-0.647,0.171c-0.388,0-0.716-0.141-0.985-0.422s-0.403-0.652-0.403-1.112     c0-0.475,0.14-0.858,0.42-1.148s0.631-0.435,1.053-0.435c0.305,0,0.583,0.082,0.836,0.246s0.444,0.398,0.575,0.702     s0.197,0.743,0.197,1.319c0,0.599-0.065,1.076-0.195,1.431s-0.323,0.625-0.58,0.81s-0.558,0.278-0.903,0.278     c-0.366,0-0.666-0.102-0.898-0.305C95.899,84.488,95.76,84.202,95.713,83.833z M98.069,81.765c0-0.33-0.088-0.592-0.264-0.786     s-0.387-0.291-0.635-0.291c-0.256,0-0.478,0.105-0.668,0.313c-0.19,0.209-0.285,0.48-0.285,0.812c0,0.298,0.09,0.541,0.27,0.727     s0.402,0.28,0.667,0.28c0.267,0,0.486-0.093,0.657-0.28C97.983,82.354,98.069,82.095,98.069,81.765z"/>
		</g>
		<path fill="#D3483C" d="M101.54,96.374c0,0.542-0.44,0.982-0.982,0.982h-6.765c-0.542,0-0.982-0.44-0.982-0.982v-6.656    c0-0.542,0.44-0.982,0.982-0.982h6.765c0.542,0,0.982,0.44,0.982,0.982V96.374z"/>
		<g enable-background="new    ">
			<path fill="#FFFFFF" d="M95.684,95.581l0.278-1.362h-0.54v-0.476h0.636l0.237-1.16h-0.873v-0.476h0.969l0.278-1.371h0.48     l-0.278,1.371h1.007l0.278-1.371h0.483l-0.278,1.371h0.553v0.476h-0.649l-0.24,1.16h0.889v0.476h-0.985l-0.278,1.362h-0.48     l0.275-1.362h-1.004l-0.278,1.362H95.684z M96.537,93.743h1.004l0.24-1.16h-1.007L96.537,93.743z"/>
		</g>
	</g>
</g>

<g>
	<g>
		<path fill="#FFE8B8" d="M91.714,79.263c0,0-1.297-1.879-1.596-3.426s-0.698-5.189-0.698-5.189h-7.172v36.569l17.699-23.249    l-5.687-3.492L91.714,79.263z"/>
		<path fill="#FFE8B8" d="M72.78,79.263c0,0,1.297-1.879,1.596-3.426c0.299-1.547,0.698-5.189,0.698-5.189h7.172v36.569    L64.548,83.969l5.687-3.492L72.78,79.263z"/>
		<defs>
			<filter id="Adobe_OpacityMaskFilter" filterUnits="userSpaceOnUse" x="75.716" y="71.766" width="27.472" height="20.784">
				<feColorMatrix type="matrix" values="1 0 0 0 0  0 1 0 0 0  0 0 1 0 0  0 0 0 1 0"/>
			</filter>
		</defs>
		<mask maskUnits="userSpaceOnUse" x="75.716" y="71.766" width="27.472" height="20.784" id="SVGID_1_">
			<g filter="url(#Adobe_OpacityMaskFilter)">
				<path fill="#FFFFFF" d="M91.714,79.263c0,0-1.297-1.879-1.596-3.426s-0.698-5.189-0.698-5.189l-14.668-1.447l7.496,38.016      l17.699-23.249l-5.687-3.492L91.714,79.263z"/>
			</g>
		</mask>
		<g mask="url(#SVGID_1_)">
			<path fill="#F4D89F" d="M75.716,71.766c0.023,0.023,0.046,0.046,0.069,0.069C75.762,71.811,75.739,71.789,75.716,71.766z"/>
			<path fill="#F4D89F" d="M102.29,86.264l-3.74-2.046c-0.017,0.145-0.027,0.225-0.027,0.225s-0.15-0.185-0.404-0.461l-3.762-2.058     l-0.075-0.389c-0.028-0.002-0.056-0.009-0.084-0.01c-1.138-0.042-1.972-2.944-2.488-5.497l-2.196-2.54l-0.001-0.001     c-1.778,1.217-3.774,1.901-5.883,1.901c-2.648,0-5.115-1.078-7.197-2.936l-0.005,0l-0.298,0.581l0,0c0,0,1.863,4.45,5.155,9.09     s7.486,9.292,7.486,9.292l7.082,1.135l7.334-3.617L102.29,86.264z"/>
		</g>
		<path fill="#616262" d="M57.015,107.218c0,0-7.683-1.098-8.581-6.885c-0.898-5.787,0.299-15.865,16.663-19.158l7.683-1.912    l-1.098,0.815l-0.1,1.796c0,0-3.48,1.821-3.555,3.58c2.095-1.197,4.752-1.16,4.752-1.16l9.467,22.924H57.015z"/>
		<ellipse fill="#FFE8B8" cx="83.631" cy="56.43" rx="13.47" ry="18.958"/>
		<path fill="#5E4138" d="M99.646,47.549c0.299-9.13-6.286-16.763-16.389-16.763c-8.824,0-13.695,4.64-15.192,17.437    c-0.266,2.278-0.499,11.001,0.15,19.083c0.748,9.319,1.495,18.259,1.495,18.259l6.719-13.113l0.006,0    c-3.769-3.361-6.461-9.278-6.461-16.023c0-1.591,0.328-3.135,0.59-4.612c0.032-0.031,1.453-1.398,10.897-2.847    c6.058-0.929,8.511-9.236,8.52-9.263c4.238,3.194,7.383,9.483,7.383,16.722c0,6.586-2.649,12.385-6.27,15.783l0.003,0    c0,0,1.066,9.237,3.103,9.312c2.036,0.075,4.325,2.919,4.325,2.919s0.902-7.303,1.132-14.892    C99.959,59.576,99.613,48.561,99.646,47.549z"/>
		<path fill="#F1D79E" d="M98.175,50.807c-0.484-0.175-1.045-0.013-1.596,0.396c0.338,1.661,0.523,3.413,0.523,5.227    c0,1.628-0.146,3.207-0.42,4.715c0.802-1.01,1.566-3.126,2.141-4.715C99.654,54.137,99.341,51.23,98.175,50.807z"/>
		<path fill="#F1D79E" d="M70.161,56.43c0-1.617,0.145-3.187,0.415-4.685c-0.787-0.993-1.706-1.504-2.445-1.237    c-1.166,0.423-1.479,3.33-0.648,5.623c0.815,2.248,2.005,5.553,3.15,5.281C70.328,59.823,70.161,58.154,70.161,56.43z"/>
		<path fill="#616262" d="M107.479,107.218c0,0,7.683-1.098,8.581-6.885c0.898-5.787-0.299-15.865-16.663-19.158l-7.683-1.912    l1.098,0.815l0.1,1.796c0,0,3.48,1.821,3.555,3.58c-2.095-1.197-4.752-1.16-4.752-1.16l-9.467,22.924H107.479z"/>
	</g>
	<g>
		<path fill="#71B1E1" d="M55.281,107.218V80.776L46.8,79.263c0,0-11.974,1.214-16.164,8.298s-5.987,19.657-5.987,19.657H55.281z"/>
		<polygon fill="#838486" points="55.281,107.218 55.281,84.967 50.691,84.169 51.49,86.763 53.685,89.856 52.088,107.218   "/>
		<path fill="#FFFFFF" d="M55.281,80.365v4.864c0,0-1.971-0.262-3.467,1.01c-1.497,1.272-2.544,2.694-2.544,2.694    s0.112-1.16-0.412-2.993c-0.524-1.833-1.983-5.575-1.983-5.575v-3.218L55.281,80.365z"/>
		<polygon fill="#F2D8A3" points="55.281,72.058 55.281,82.871 46.875,78.307 46.875,72.058   "/>
		<path fill="#71B1E1" d="M55.281,107.218V80.776l8.481-1.513c0,0,11.974,1.214,16.164,8.298s5.987,19.657,5.987,19.657H55.281z"/>
		<polygon fill="#838486" points="55.281,107.218 55.281,84.967 59.871,84.169 59.073,86.763 56.878,89.856 58.474,107.218   "/>
		<path fill="#FFFFFF" d="M55.281,80.365v4.864c0,0,1.971-0.262,3.467,1.01c1.497,1.272,2.544,2.694,2.544,2.694    s-0.112-1.16,0.412-2.993c0.524-1.833,1.983-5.575,1.983-5.575v-3.218L55.281,80.365z"/>
		<polygon fill="#F2D8A3" points="55.281,72.058 55.281,82.871 63.688,78.307 63.688,72.058   "/>
		<path fill="#F2D8A3" d="M74.265,55.332c0-3.04-0.997-4.895-2.32-4.895s-3.891,4.138-3.891,7.178c0,3.04,1.821,3.618,3.143,3.618    S74.265,58.372,74.265,55.332z"/>
		<path fill="#F2D8A3" d="M43.507,56.729c0,2.616-3.372,4.503-4.64,4.503c-1.267,0-2.771-3.236-2.771-5.852    c0-3.965,0.63-3.94,1.898-3.94c0.521,0,1.225-0.271,1.749,0.38c0.433,0.538-0.755,2.46-0.202,3.013    C40.56,55.852,43.507,55.73,43.507,56.729z"/>
		<path fill="#FFE8B8" d="M70.598,55.557c0,10.47-6.952,20.729-15.528,20.729S39.541,66.027,39.541,55.557    S46.493,38.37,55.069,38.37c3.685,0,7.477-0.923,10.14,1.322C68.744,42.672,70.598,49.585,70.598,55.557z"/>
		<path fill="#606062" d="M54.084,30.786c-9.422,0.168-17.062,6.131-17.062,13.695c0,1.506-0.21,7.151,0.349,8.506    c1.335,1.044,2.247,0.696,2.247,0.696l0.001-0.006c0.558-0.144,0.914-0.578,1.394-1.339c0.599-0.948,0.998-4.59,2.993-6.885    c1.996-2.295,4.091,0.2,7.982,0.499c3.891,0.299,7.982-5.638,11.525-5.687c3.542-0.05,4.755,5.8,5.638,9.429    c0.648,2.662,1.122,4.158,1.33,4.769l0.117,1.093c0,0,0.544-1.514,0.923-3.667c0.394-2.236,0.624-5.14,0.624-6.585    C72.144,37.741,65.309,30.587,54.084,30.786z"/>
	</g>
</g>
</svg>