<?xml version="1.0" encoding="UTF-8"?>
<!-- Generator: Adobe Illustrator 17.0.0, SVG Export Plug-In . SVG Version: 6.00 Build 0)  -->
<!DOCTYPE svg PUBLIC "-//W3C//DTD SVG 1.1//EN" "http://www.w3.org/Graphics/SVG/1.1/DTD/svg11.dtd">
<svg version="1.1" id="Layer_1" xmlns="http://www.w3.org/2000/svg" xmlns:xlink="http://www.w3.org/1999/xlink" x="0px" y="0px" width="140px" height="140px" viewBox="0 0 140 140" enable-background="new 0 0 140 140" xml:space="preserve">
<circle fill="#BA2D37" cx="70" cy="70" r="70"/>
<g display="none">
	<g display="inline">
		<path d="M78.071-20.509h10.972c3.317,0,5.682,0.624,7.102,1.872c1.418,1.249,2.128,3.321,2.128,6.215V1.576H92.44v-13.283    c0-1.647-0.256-2.72-0.769-3.215c-0.512-0.49-1.538-0.735-3.083-0.735h-4.685V1.575H78.07L78.071-20.509L78.071-20.509z"/>
		<path d="M113.072,1.575c-3.656,0-6.424-0.93-8.3-2.794c-1.878-1.857-2.815-4.606-2.815-8.236c0-3.634,0.943-6.381,2.825-8.251    c1.882-1.869,4.646-2.803,8.289-2.803h8.516v4.605h-7.718c-2.115,0-3.539,0.302-4.267,0.903c-0.73,0.597-1.122,1.684-1.177,3.25    h13.161v4.607h-13.161c0.055,1.583,0.419,2.664,1.096,3.244c0.676,0.583,2.111,0.868,4.31,0.868h7.756v4.605L113.072,1.575    L113.072,1.575z"/>
		<path d="M125.316-20.509h9.803c2.295,0,3.9,0.414,4.817,1.239c0.923,0.825,1.381,2.271,1.381,4.327v3.687h-5.566v-2.849    c0-0.86-0.156-1.435-0.458-1.724c-0.307-0.296-1.005-0.442-2.1-0.442h-2.044V1.578h-5.838v-22.087H125.316z"/>
		<path d="M165.742,0.778c0,3.028-0.676,5.255-2.03,6.674c-1.351,1.419-3.458,2.13-6.322,2.13h-11.444V5.1h10.441    c1.118,0,1.979-0.27,2.576-0.809c0.598-0.538,0.9-1.322,0.9-2.344v-0.37h-4.748c-2.457,0-4.222-0.182-5.3-0.551    c-1.079-0.368-2.077-0.995-2.99-1.883c-1.054-0.996-1.855-2.239-2.426-3.727c-0.566-1.487-0.849-3.096-0.849-4.829    c0-1.704,0.282-3.297,0.849-4.777c0.57-1.481,1.372-2.722,2.426-3.717c0.94-0.93,2.048-1.595,3.317-1.997    c1.271-0.403,2.93-0.604,4.973-0.604h10.624V0.778H165.742z M156.837-2.985h3.028v-12.796h-3.028c-1.461,0-2.484,0.056-3.07,0.166    c-0.59,0.11-1.101,0.294-1.536,0.551c-0.902,0.547-1.561,1.267-1.977,2.161c-0.419,0.892-0.623,2.056-0.623,3.486    c0,2.362,0.524,4.025,1.575,4.984C152.258-3.473,154.135-2.985,156.837-2.985z"/>
		<path d="M190.589,1.575h-10.991c-3.234,0-5.574-0.638-7.01-1.922c-1.438-1.281-2.16-3.336-2.16-6.159v-14h5.813v13.529    c0,1.475,0.258,2.458,0.767,2.945c0.513,0.492,1.532,0.737,3.063,0.737h4.686v-17.213h5.836V1.575    C190.593,1.575,190.589,1.575,190.589,1.575z"/>
	</g>
	<g display="inline">
		<path fill="#981D20" d="M202.984-14.043L192.42-29.668h7.695l6.443,9.864l6.396-9.864h7.588l-10.056,15.176l10.775,16.07h-7.862    L206.83-9.303l-6.97,10.881h-7.804L202.984-14.043z"/>
	</g>
	
		<linearGradient id="SVGID_1_" gradientUnits="userSpaceOnUse" x1="363.4276" y1="-887.892" x2="406.3289" y2="-887.892" gradientTransform="matrix(1 0 0 -1 -336.7801 -925.5801)">
		<stop offset="0" style="stop-color:#D4E5BD"/>
		<stop offset="0.3763" style="stop-color:#6EBF4B"/>
		<stop offset="1" style="stop-color:#128A7E"/>
	</linearGradient>
	<path display="inline" fill="url(#SVGID_1_)" d="M69.504-49.883c0,0,1.412,12.101-11.687,19.75   c-9.321,5.446-24.589,6.248-29.828,1.612c-2.421-0.604-1.347-4.997,1.475-5.799c4.416,1.518,10.415,2.174,18.708-0.85   C59.583-39.333,69.504-49.883,69.504-49.883z"/>
	
		<linearGradient id="SVGID_2_" gradientUnits="userSpaceOnUse" x1="506.2142" y1="-761.2502" x2="557.6464" y2="-761.2502" gradientTransform="matrix(0.9893 0.1456 0.1456 -0.9893 -364.1054 -854.4272)">
		<stop offset="0" style="stop-color:#D4E5BD"/>
		<stop offset="0.3763" style="stop-color:#6EBF4B"/>
		<stop offset="1" style="stop-color:#128A7E"/>
	</linearGradient>
	<path display="inline" fill="url(#SVGID_2_)" d="M78.979-35.371c0,0-2.892,20.958-25.799,24.643   c-17.396,2.796-22.171-1.867-25.596-4.089c-3.429-2.217-3.813-7.089-0.901-7.475c4.147,2.147,17.458,4.631,27.786,2.167   C67.69-23.278,78.979-35.371,78.979-35.371z"/>
	
		<linearGradient id="SVGID_3_" gradientUnits="userSpaceOnUse" x1="365.3705" y1="-923.3616" x2="404.4705" y2="-923.3616" gradientTransform="matrix(1 0 0 -1 -336.7801 -925.5801)">
		<stop offset="0" style="stop-color:#D4E5BD"/>
		<stop offset="0.3763" style="stop-color:#6EBF4B"/>
		<stop offset="1" style="stop-color:#128A7E"/>
	</linearGradient>
	<path display="inline" fill="url(#SVGID_3_)" d="M67.69-7.961c0,0-4.906,11.486-20.558,11.486   C31.477,3.525,28.59-7.961,28.59-7.961s7.985,5.804,18.734,5.774C58.486-2.218,67.69-7.961,67.69-7.961z"/>
</g>
<g>
	
		<linearGradient id="SVGID_4_" gradientUnits="userSpaceOnUse" x1="360.2375" y1="-968.7488" x2="439.5174" y2="-968.7488" gradientTransform="matrix(1 0 0 -1 -336.7801 -925.5801)">
		<stop offset="0" style="stop-color:#D4E5BD"/>
		<stop offset="0.3763" style="stop-color:#6EBF4B"/>
		<stop offset="1" style="stop-color:#128A7E"/>
	</linearGradient>
	<path fill="url(#SVGID_4_)" d="M102.655,20.632c0,0,2.609,22.362-21.597,36.497c-17.225,10.064-45.44,11.546-55.121,2.979   c-4.474-1.116-2.489-9.234,2.726-10.716c8.161,2.805,19.247,4.017,34.572-1.571C84.322,40.128,102.655,20.632,102.655,20.632z"/>
	
		<linearGradient id="SVGID_5_" gradientUnits="userSpaceOnUse" x1="515.4097" y1="-850.2598" x2="610.4543" y2="-850.2598" gradientTransform="matrix(0.9893 0.1456 0.1456 -0.9893 -364.1054 -854.4272)">
		<stop offset="0" style="stop-color:#D4E5BD"/>
		<stop offset="0.3763" style="stop-color:#6EBF4B"/>
		<stop offset="1" style="stop-color:#128A7E"/>
	</linearGradient>
	<path fill="url(#SVGID_5_)" d="M120.165,47.45c0,0-5.344,38.73-47.676,45.539c-32.147,5.167-40.971-3.45-47.3-7.556   c-6.337-4.097-7.046-13.1-1.665-13.814c7.663,3.968,32.262,8.558,51.347,4.005C99.303,69.797,120.165,47.45,120.165,47.45z"/>
	
		<linearGradient id="SVGID_6_" gradientUnits="userSpaceOnUse" x1="363.8278" y1="-1034.2953" x2="436.0831" y2="-1034.2953" gradientTransform="matrix(1 0 0 -1 -336.7801 -925.5801)">
		<stop offset="0" style="stop-color:#D4E5BD"/>
		<stop offset="0.3763" style="stop-color:#6EBF4B"/>
		<stop offset="1" style="stop-color:#128A7E"/>
	</linearGradient>
	<path fill="url(#SVGID_6_)" d="M99.303,98.102c0,0-9.066,21.226-37.99,21.226c-28.93,0-34.265-21.226-34.265-21.226   s14.756,10.726,34.62,10.67C82.294,108.715,99.303,98.102,99.303,98.102z"/>
</g>
</svg>