<?xml version="1.0" encoding="windows-1252"?>
<!-- Generator: Adobe Illustrator 19.0.0, SVG Export Plug-In . SVG Version: 6.00 Build 0)  -->
<svg version="1.1" id="Layer_1" xmlns="http://www.w3.org/2000/svg" xmlns:xlink="http://www.w3.org/1999/xlink" x="0px" y="0px" viewBox="0 0 508.256 508.256" style="enable-background:new 0 0 508.256 508.256;" xml:space="preserve">
<path style="fill:#324A5E;" d="M508.117,245.787c4.8,146.8-115.2,266.8-262,262c-133.2-4-241.6-112.4-246-245.2  c-4.4-146.8,115.6-266.8,262.4-262.4C395.317,4.587,503.717,112.987,508.117,245.787z"/>
<path style="fill:#FF7058;" d="M358.117,160.987c0,62-46.4,151.2-104,151.2s-104-89.6-104-151.2s46.4-113.2,104-113.2  C311.717,48.187,358.117,99.387,358.117,160.987z"/>
<g>
	<path style="fill:#FFD05B;" d="M352.117,187.787c-6,13.6-16.4,21.2-23.6,17.2s-8-18-2-31.2c6-13.6,16.4-21.2,23.6-17.2   C357.317,160.187,358.117,174.187,352.117,187.787z"/>
	<path style="fill:#FFD05B;" d="M156.117,187.787c6,13.6,16.4,21.2,23.6,17.2c7.2-4,8-18,2-31.2c-6-13.6-16.4-21.2-23.6-17.2   C150.917,160.187,150.117,174.187,156.117,187.787z"/>
	<polygon style="fill:#FFD05B;" points="203.717,280.587 304.517,280.587 368.117,395.387 339.317,432.587 254.117,498.587    168.917,432.587 140.117,395.387  "/>
</g>
<path style="fill:#F9B54C;" d="M305.717,282.187c-0.4-0.4-0.4-1.2-0.8-1.6c0,0-0.8,4.4-6,10.8c-22.4,28-66.4,28-88.8,0  c-5.2-6.8-6-10.8-6-10.8c-0.4,0.4-0.4,0.8-0.8,1.2c2-3.2,2.8-7.2,3.2-10.8l1.2-14.8l0,0l2.8-46h87.2l4.4,60.8  c0.4,3.2,1.2,6.4,2.4,9.6C304.917,280.987,305.317,281.387,305.717,282.187z"/>
<path style="fill:#FFD05B;" d="M342.117,165.387c0,60.4-39.2,136-88,136s-88-75.6-88-136s39.2-82,88-82  S342.117,104.987,342.117,165.387z"/>
<path style="fill:#4CDBC4;" d="M208.517,371.387c0,0,36,25.6,91.6,0c0,0-21.6,111.6-45.6,127.2  C254.117,498.587,201.317,404.187,208.517,371.387z"/>
<g>
	<path style="fill:#E6E9EE;" d="M254.117,508.187L254.117,508.187c-2.8,0-5.6,0-8.4,0c-79.2-2.4-149.6-41.6-194-100.8   c20.8-50.8,56-54.8,56-54.8c56-26.8,89.2-64.8,91.6-67.2l-12,26l24,102.8L254.117,508.187z"/>
	<path style="fill:#E6E9EE;" d="M456.917,407.387c-46.4,61.2-120,100.8-202.8,100.8l0,0l43.2-94l24-102.8l-12-26   c2,2.4,35.6,40.4,91.6,67.2C400.917,352.587,435.717,356.587,456.917,407.387z"/>
</g>
<path style="fill:#FFFFFF;" d="M323.317,395.387l7.2,37.6c-28.4,15.2-48.8,48.4-67.6,75.2c-2.8,0-5.6,0-8.4,0s-5.6,0-8.4,0  c-18.8-26.8-39.2-60-67.6-75.2l7.2-37.6h-36c14.8-67.2,52.4-112.4,54.8-114.4c-1.2,2.4-19.2,38.8,7.6,97.6c0,0,23.2,66.8,42.8,120.4  c18.8-54,42-120.8,42-120.8c27.2-58.8,9.2-95.2,7.6-97.6c2.4,2,40,47.6,54.8,114.4h-36V395.387z"/>
<g>
	<path style="fill:#FF7058;" d="M353.317,351.387l-2-11.2c0,0-4.8,39.6-40.8,31.2l12-4c0,0-38.4,2-45.2-24.4   c0,0,43.6,23.6,40.4-35.2c0,0-2-19.6-12.8-35.6c4.8-6,9.2-12.4,13.2-19.6C332.917,265.787,364.117,300.987,353.317,351.387z"/>
	<path style="fill:#FF7058;" d="M238.117,83.787c0,0,42.8,88.4,104,72v-23.2C342.117,132.987,316.517,60.187,238.117,83.787z"/>
	<path style="fill:#FF7058;" d="M238.117,83.787c0,0-14.8,48.4-71.6,72.4l-6-24.8l34.4-36.8l34.4-15.6L238.117,83.787z"/>
</g>
<path style="fill:#E6E9EE;" d="M317.717,150.187c-40-22.8-87.2-22.8-127.2,0c-12.4-26.8-24.8-53.6-37.2-80.8  c63.2-35.6,138-35.6,201.2,0C342.517,96.587,330.117,123.387,317.717,150.187z"/>
<polygon style="fill:#54C0EB;" points="277.717,76.987 262.117,76.987 262.117,61.387 246.117,61.387 246.117,76.987   230.517,76.987 230.517,93.387 246.117,93.387 246.117,108.987 262.117,108.987 262.117,93.387 277.717,93.387 "/>
<g>
</g>
<g>
</g>
<g>
</g>
<g>
</g>
<g>
</g>
<g>
</g>
<g>
</g>
<g>
</g>
<g>
</g>
<g>
</g>
<g>
</g>
<g>
</g>
<g>
</g>
<g>
</g>
<g>
</g>
</svg>