<?xml version="1.0" encoding="UTF-8"?>
<!-- Generator: Adobe Illustrator 16.0.0, SVG Export Plug-In . SVG Version: 6.00 Build 0)  -->
<!DOCTYPE svg PUBLIC "-//W3C//DTD SVG 1.1//EN" "http://www.w3.org/Graphics/SVG/1.1/DTD/svg11.dtd">
<svg version="1.1" id="Layer_1" xmlns="http://www.w3.org/2000/svg" xmlns:xlink="http://www.w3.org/1999/xlink" x="0px" y="0px" width="448.407px" height="448.406px" viewBox="0 0 448.407 448.406" enable-background="new 0 0 448.407 448.406" xml:space="preserve">
<path fill="#77B058" d="M448.407,224.203c0,123.825-100.378,224.203-224.203,224.203C100.383,448.406,0,348.028,0,224.203  C0,100.382,100.383,0,224.204,0C348.029,0,448.407,100.382,448.407,224.203z"/>
<path fill="#FCFCFC" d="M414.303,224.203c0,104.995-85.109,190.104-190.099,190.104c-104.991,0-190.104-85.108-190.104-190.104  c0-104.99,85.113-190.104,190.104-190.104C329.194,34.099,414.303,119.213,414.303,224.203z"/>
<path fill="#231F20" d="M-376.611,154.505"/>
<g>
	<g>
		<path fill="#0C870C" d="M127.021,348.284c-3.952,0-7.043-1.255-9.45-3.831c-6.239-6.679-6.748-20.728-6.417-25.567l0.014-0.202    V123.171c0-30.661,14.676-33.412,16.094-33.607l180.483,1.23v124.617c4.275,2.059,8.13,4.851,11.414,8.2L319.023,86.19    l-1.85-6.354l-190.301-1.689l-0.187,0.011c-1.1,0.063-26.933,2.078-26.933,45.013v195.126c-0.147,2.497-0.989,22.707,9.448,33.92    c4.557,4.894,10.719,7.481,17.819,7.481l84.55,0.214l-4.651-11.628H127.021z"/>
		<circle fill="#0C870C" cx="294.64" cy="256.969" r="33.609"/>
		<rect x="133.363" y="126.976" fill="#0C870C" width="153.88" height="28.323"/>
		<path fill="#0C870C" d="M343.22,328.414c0,16.742-14.686,30.314-32.8,30.314H279.55c-18.115,0-32.8-13.572-32.8-30.314l0,0    c0-16.741,14.685-30.313,32.8-30.313h30.871C328.535,298.101,343.22,311.673,343.22,328.414L343.22,328.414z"/>
		<rect x="246.75" y="328.414" fill="#0C870C" width="96.47" height="32.395"/>
		<path fill="#0C870C" d="M242.248,267.23c0-26.418,19.31-48.318,44.584-52.376l1.255-87.879c0,0-124.711,13.104-154.725,0    c-30.015-13.104-7.188-38.046-7.188-38.046l-14.796,1.269l-5.917,41.429l0.845,158.952l1.692,49.038l10.146,13.53l79.476,5.072    l13.951,1.692c0,0,0-13.53,0.422-49.042c0.269-22.539,18.059-31.271,31.029-34.652    C242.522,273.294,242.248,270.296,242.248,267.23z"/>
		<path fill="#0C870C" d="M243.021,276.218c0,0-17.495,8.701-17.495,31.854c0,23.152,0,51.449,0,51.449l-16.721,0.645l-6.432-70.745    l18.651-12.863L243.021,276.218z"/>
	</g>
	<rect x="126.686" y="78.158" fill="#0C870C" width="192.337" height="8.032"/>
</g>
</svg>