<?xml version="1.0" encoding="UTF-8"?>
<!-- Generator: Adobe Illustrator 16.0.0, SVG Export Plug-In . SVG Version: 6.00 Build 0)  -->
<!DOCTYPE svg PUBLIC "-//W3C//DTD SVG 1.1//EN" "http://www.w3.org/Graphics/SVG/1.1/DTD/svg11.dtd">
<svg version="1.1" id="Layer_1" xmlns="http://www.w3.org/2000/svg" xmlns:xlink="http://www.w3.org/1999/xlink" x="0px" y="0px" width="477.438px" height="477.44px" viewBox="0 0 477.438 477.44" enable-background="new 0 0 477.438 477.44" xml:space="preserve">
<circle fill="#77B058" cx="238.719" cy="238.72" r="238.719"/>
<path fill="#FCFCFC" d="M441.129,238.72c0,111.789-90.623,202.411-202.409,202.411c-111.79,0-202.412-90.622-202.412-202.411  c0-111.792,90.623-202.413,202.412-202.413C350.506,36.307,441.129,126.928,441.129,238.72z"/>
<path fill="#0C870C" d="M240.178,234.36c-22.835-77.073-122.868-29.036-122.868-29.036v180.611  c83.739-32.765,121.877,25.574,121.877,25.574c53.09-55.143,121.877-27.971,121.877-27.971V205.324  C287.371,153.377,240.178,234.36,240.178,234.36z M334.671,260.159c0,0-37.164-8.482-65.638,29.08v-45.555  c0,0,43.872-33.565,65.638-19.181V260.159z"/>
<path fill="#0C870C" d="M338.856,166.165V125.56c-9.949-44.937-50.005-78.556-97.937-78.556c-50.877,0-92.881,37.879-99.418,86.969  l4.489,36.988l12.252,6.392h6.393v-46.351l41.557-18.382l10.221-27.971l18.89,31.535l87.569,10.272v46.103L338.856,166.165z"/>
<ellipse fill="#0C870C" cx="202.997" cy="172.958" rx="13.586" ry="14.783"/>
<ellipse fill="#0C870C" cx="274.922" cy="172.958" rx="13.586" ry="14.783"/>
<path fill="#FFFFFF" d="M323.356,229.257"/>
<g>
	<g>
		<path fill="#FFFFFF" d="M146.081,285.193c0,0,13.171-25.907-30.177-29.734c0,0-52.388-3.832-48.667,48.914    c0,0,11.141,70.412,70.053,34.533c0,0,26.941-20.147,10.673-26.541C147.963,312.365,165.261,294.784,146.081,285.193z"/>
		<path fill="#0C870C" d="M107.007,353.091c-0.001,0-0.001,0-0.001,0c-35.694-0.002-43.403-46.128-43.715-48.093l-0.039-0.344    c-1.142-16.192,2.635-29.079,11.228-38.299c12.58-13.497,31.549-14.954,39.121-14.954c1.648,0,2.597,0.071,2.597,0.071    c17.298,1.527,28.471,6.687,33.268,15.339c3.491,6.298,2.623,12.734,1.521,16.603c4.505,2.991,7.165,6.79,7.922,11.332    c1.081,6.498-2.256,12.755-4.973,16.595c2.131,1.934,2.917,4.135,3.155,5.905c1.377,10.24-14.259,22.506-17.407,24.859    l-0.313,0.212C127.632,349.466,116.744,353.091,107.007,353.091z M71.21,303.898c0.484,2.734,7.817,41.199,35.795,41.2    c8.208,0,17.64-3.199,28.04-9.505c6.313-4.766,14.657-13.346,14.125-17.283c-0.11-0.825-1.01-1.573-2.668-2.226l-5.627-2.213    l4.239-4.309c1.938-1.987,6.787-8.306,5.905-13.523c-0.478-2.832-2.741-5.281-6.726-7.271l-3.598-1.799l1.823-3.587    c0.023-0.047,3.276-6.79-0.08-12.757c-3.41-6.068-12.709-9.935-26.887-11.187l0,0c-0.01,0-0.738-0.047-1.954-0.047    c-5.092,0-22.541,0.895-33.274,12.412C73.338,279.301,70.272,290.1,71.21,303.898z"/>
	</g>
	<g>
		<line fill="#0C870C" x1="146.081" y1="281.997" x2="121.307" y2="285.992"/>
		<path fill="#0C870C" d="M121.302,289.989c0.21,0,0.426-0.017,0.642-0.051l24.774-3.996c2.177-0.353,3.659-2.403,3.308-4.582    c-0.352-2.177-2.399-3.649-4.581-3.308l-24.774,3.996c-2.178,0.352-3.659,2.401-3.307,4.58    C117.679,288.594,119.376,289.989,121.302,289.989z"/>
	</g>
	<g>
		<line fill="#0C870C" x1="147.963" y1="312.365" x2="126.995" y2="315.563"/>
		<path fill="#0C870C" d="M126.99,319.56c0.199,0,0.402-0.016,0.606-0.046l20.969-3.196c2.182-0.334,3.681-2.373,3.348-4.554    c-0.333-2.18-2.358-3.678-4.553-3.347l-20.97,3.196c-2.181,0.332-3.68,2.369-3.348,4.551    C123.345,318.142,125.048,319.56,126.99,319.56z"/>
	</g>
</g>
<g>
	<g>
		<path fill="#FFFFFF" d="M333.425,285.193c0,0-13.171-25.907,30.177-29.734c0,0,52.386-3.832,48.666,48.914    c0,0-11.139,70.412-70.052,34.533c0,0-26.941-20.147-10.673-26.541C331.542,312.365,314.244,294.784,333.425,285.193z"/>
		<path fill="#0C870C" d="M372.499,353.091c-9.739,0-20.626-3.625-32.364-10.773l-0.312-0.212    c-3.149-2.354-18.786-14.619-17.409-24.859c0.238-1.771,1.025-3.972,3.155-5.905c-2.716-3.84-6.053-10.097-4.973-16.595    c0.758-4.542,3.417-8.341,7.923-11.332c-1.102-3.868-1.97-10.305,1.52-16.603c4.798-8.652,15.971-13.812,33.209-15.332    c0.06-0.007,1.009-0.078,2.657-0.078c7.571,0,26.541,1.457,39.121,14.954c8.592,9.22,12.369,22.106,11.227,38.299l-0.039,0.344    C415.902,306.963,408.193,353.091,372.499,353.091z M344.46,335.594c10.4,6.306,19.832,9.505,28.039,9.505    c27.967,0,35.306-38.436,35.797-41.2c0.937-13.801-2.128-24.598-9.117-32.094c-10.731-11.518-28.18-12.412-33.272-12.412    c-1.22,0-1.949,0.047-2.022,0.052c-14.161,1.252-23.471,5.142-26.854,11.243c-3.296,5.949-0.077,12.631-0.044,12.695l1.823,3.587    l-3.598,1.799c-3.986,1.99-6.249,4.439-6.727,7.271c-0.881,5.218,3.968,11.536,5.912,13.532l4.196,4.305l-5.59,2.208    c-1.658,0.652-2.558,1.4-2.668,2.226C329.803,322.248,338.147,330.828,344.46,335.594z"/>
	</g>
	<g>
		<line fill="#0C870C" x1="333.425" y1="281.997" x2="358.198" y2="285.992"/>
		<path fill="#0C870C" d="M358.202,289.989c-0.209,0-0.426-0.017-0.641-0.051l-24.774-3.996c-2.177-0.353-3.659-2.403-3.308-4.582    c0.351-2.177,2.399-3.649,4.581-3.308l24.774,3.996c2.178,0.352,3.66,2.401,3.308,4.58    C361.826,288.594,360.129,289.989,358.202,289.989z"/>
	</g>
	<g>
		<line fill="#0C870C" x1="331.542" y1="312.365" x2="352.511" y2="315.563"/>
		<path fill="#0C870C" d="M352.514,319.56c-0.199,0-0.402-0.016-0.605-0.046l-20.969-3.196c-2.182-0.334-3.681-2.373-3.349-4.554    c0.333-2.18,2.36-3.678,4.553-3.347l20.97,3.196c2.182,0.332,3.68,2.369,3.347,4.551    C356.16,318.142,354.458,319.56,352.514,319.56z"/>
	</g>
</g>
<path fill="#0C870C" d="M182.464,151.705c-0.002-0.001,0.405-0.492,1.17-1.301c0.757-0.82,1.938-1.871,3.437-3.068  c0.749-0.611,1.588-1.23,2.506-1.864c0.91-0.647,1.942-1.199,2.995-1.844c2.152-1.184,4.599-2.229,7.183-2.999  c0.647-0.197,1.293-0.414,1.942-0.642l1.981-0.573c1.317-0.448,2.67-0.648,3.981-0.664c1.31-0.042,2.57,0.272,3.721,0.679  c0.576,0.189,1.131,0.396,1.656,0.621c0.518,0.261,1.008,0.553,1.467,0.843c0.92,0.58,1.72,1.171,2.374,1.792  c0.648,0.648,1.153,1.313,1.553,1.861c0.793,1.112,1.122,1.904,1.122,1.904c0.058,0.137-0.016,0.468-0.165,0.744  c-0.084,0.156-0.174,0.261-0.243,0.299c0,0-0.809,0.411-2.008,0.85c-0.598,0.213-1.302,0.472-2.038,0.654  c-0.755,0.233-1.58,0.521-2.417,0.695c-0.419,0.1-0.846,0.175-1.277,0.247c-0.44,0.11-0.885,0.205-1.33,0.275  c-0.897,0.163-1.8,0.183-2.748,0.189c-0.938-0.076-1.914-0.337-2.95-0.53l-1.579-0.315c-0.534-0.045-1.072-0.078-1.616-0.092  c-2.17-0.082-4.358,0.202-6.491,0.385c-1.042,0.17-2.098,0.265-3.059,0.487c-0.988,0.166-1.925,0.349-2.782,0.562  c-1.735,0.387-3.136,0.883-4.158,1.176c-1.008,0.315-1.572,0.534-1.572,0.535c-0.093,0.033-0.314-0.143-0.495-0.394  C182.465,151.994,182.398,151.778,182.464,151.705z"/>
<path fill="#0C870C" d="M296.27,151.705c0.001-0.001-0.405-0.492-1.17-1.301c-0.757-0.82-1.938-1.871-3.438-3.068  c-0.747-0.611-1.586-1.23-2.504-1.864c-0.91-0.647-1.943-1.199-2.996-1.844c-2.153-1.184-4.598-2.229-7.184-2.999  c-0.646-0.197-1.291-0.414-1.941-0.642l-1.981-0.573c-1.316-0.448-2.669-0.648-3.981-0.664c-1.31-0.042-2.57,0.272-3.722,0.679  c-0.574,0.189-1.13,0.396-1.656,0.621c-0.517,0.261-1.007,0.553-1.466,0.843c-0.92,0.58-1.72,1.171-2.375,1.792  c-0.646,0.648-1.152,1.313-1.553,1.861c-0.792,1.112-1.122,1.904-1.122,1.904c-0.058,0.137,0.016,0.468,0.165,0.744  c0.084,0.156,0.173,0.261,0.244,0.299c0,0,0.808,0.411,2.007,0.85c0.598,0.213,1.302,0.472,2.038,0.654  c0.756,0.233,1.58,0.521,2.417,0.695c0.42,0.1,0.847,0.175,1.277,0.247c0.44,0.11,0.885,0.205,1.329,0.275  c0.898,0.163,1.801,0.183,2.749,0.189c0.937-0.076,1.914-0.337,2.948-0.53l1.58-0.315c0.535-0.045,1.073-0.078,1.616-0.092  c2.172-0.082,4.358,0.202,6.492,0.385c1.044,0.17,2.098,0.265,3.061,0.487c0.988,0.166,1.923,0.349,2.781,0.562  c1.735,0.387,3.135,0.883,4.157,1.176c1.01,0.315,1.573,0.534,1.573,0.535c0.092,0.033,0.314-0.143,0.494-0.394  C296.269,151.994,296.335,151.778,296.27,151.705z"/>
</svg>