<svg id="Layer_1" data-name="Layer 1" xmlns="http://www.w3.org/2000/svg" viewBox="0 0 692.49 692.49"><defs><style>.cls-1{fill:#77b058;}.cls-2{fill:#fcfcfc;}.cls-3{fill:#0c870c;}.cls-4{fill:#fff;}</style></defs><title>learning-guide</title><circle class="cls-1" cx="346.24" cy="346.24" r="346.24"/><circle class="cls-2" cx="346.24" cy="346.24" r="293.58"/><path class="cls-3" d="M540.9,146.5c1.23-1.55.63-3.08-1.32-3.4L312,106.16a7.9,7.9,0,0,0-6.09,2L112.22,302.62c-1.4,1.4-1,3,.9,3.61l239,73.47a5.69,5.69,0,0,0,5.68-1.77Z"/><path class="cls-3" d="M115,304.05s-1.25,2.22-3.22,6.55A110.13,110.13,0,0,0,105,330a85,85,0,0,0-2.2,14.18,54.28,54.28,0,0,0,1.24,16.27,44.66,44.66,0,0,0,2.83,8.28,41.76,41.76,0,0,0,4.82,7.77,45.92,45.92,0,0,0,6.7,6.91c0.59,0.5,1.08.81,1.63,1.22l0.8,0.58a2,2,0,0,0,.84.47l1.87,0.47,2.71,0.73L174.6,400l53.88,14.93c37.4,10.29,77.13,21.78,116.91,33.1l12.51,3.52c0.93,0.14,1.72.22,2.42,0.26,0.31-.57.57-1.1,0.8-1.59l0.17-.35,0.07-.17a0.4,0.4,0,0,1,.08-0.15l0.33-.45,2.63-3.63L374.83,431c11.87-16.56,23.74-32.7,35.66-48s24-29.6,35.72-43,22.89-26,33.47-37.36S500.12,281,509,271.95l0.88-.9,0.43-.44,0.23-.17,0.89-.69c0.59-.46,1.17-0.89,1.68-1.23l0.66-3.44c0.2-2.18.39-4.26,0.57-6.24l1.12-10.89c2-18.16,3.74-28.55,3.74-28.55,0.3-1.77,1.36-2.72,2.36-2.13a3.18,3.18,0,0,1,1.22,2s2.39,10.26,5.52,28.26l1.8,10.8,1,6.19,1.09,10.28c-0.79,1.29-1.87,3-3.13,4.83l-2,3-0.53.78-0.34.53L525.46,285c-6.76,10.71-14.52,22.7-23.25,35.56s-18.32,26.69-28.75,41.1-21.62,29.43-33.73,44.57-25.18,30.33-38.6,45.65l-11.7,13.45-2.94,3.39-4.93,5.92-10.43,12.56L349,479.66l-12.25-4.33c-39-13.68-78.12-27.2-114.61-40.35l-52.63-18.86L122.39,399,116,396.72a3.73,3.73,0,0,1-1.51-1l-1.38-1.21c-0.89-.8-1.88-1.62-2.65-2.38a57.32,57.32,0,0,1-7.65-9.34,52.45,52.45,0,0,1-5.21-10.22A53.84,53.84,0,0,1,95,362.14a61.51,61.51,0,0,1,.14-18.85A84.26,84.26,0,0,1,99,328.16a115.48,115.48,0,0,1,9-19.51c2.47-4.27,4-6.44,4-6.44,1-1.5,2.48-2.14,3.21-1.45S115.69,302.74,115,304.05Z"/><path class="cls-3" d="M115,404.68s-1.25,2.22-3.22,6.56A110.06,110.06,0,0,0,105,430.58a85,85,0,0,0-2.2,14.17A54.27,54.27,0,0,0,104.06,461a44.55,44.55,0,0,0,2.83,8.28,41.69,41.69,0,0,0,4.82,7.76,45.66,45.66,0,0,0,6.7,6.91c0.59,0.5,1.08.81,1.63,1.22l0.8,0.59a2,2,0,0,0,.84.47l1.87,0.47,2.71,0.72,48.35,13.16,53.88,14.93c37.4,10.29,77.13,21.78,116.91,33.1l12.51,3.53c0.93,0.14,1.72.22,2.42,0.26q0.46-.86.8-1.59l0.17-.35,0.07-.17a0.36,0.36,0,0,1,.08-0.14l0.33-.46,2.63-3.63,10.43-14.45c11.87-16.56,23.74-32.7,35.66-48s24-29.61,35.72-43,22.89-26,33.47-37.36S500.12,381.6,509,372.58l0.88-.9,0.43-.44,0.23-.18,0.89-.69c0.59-.46,1.17-0.89,1.68-1.23l0.66-3.44c0.2-2.18.39-4.26,0.57-6.24l1.12-10.89c2-18.16,3.74-28.55,3.74-28.55,0.3-1.77,1.36-2.71,2.36-2.12a3.17,3.17,0,0,1,1.22,2s2.39,10.27,5.52,28.26l1.8,10.8,1,6.2,1.09,10.28c-0.79,1.29-1.87,3-3.13,4.83l-2,3-0.53.78-0.34.53-0.67,1.06c-6.76,10.71-14.52,22.7-23.25,35.56s-18.32,26.7-28.75,41.09-21.62,29.43-33.73,44.57-25.18,30.33-38.6,45.65l-11.7,13.45-2.94,3.39-4.93,5.91-10.43,12.57L349,580.29,336.73,576c-39-13.68-78.12-27.19-114.61-40.35l-52.63-18.86-47.09-17.12L116,497.35a3.75,3.75,0,0,1-1.51-1l-1.38-1.22c-0.89-.8-1.88-1.62-2.65-2.38a57.21,57.21,0,0,1-7.65-9.34,52.36,52.36,0,0,1-5.21-10.22A53.76,53.76,0,0,1,95,462.76a61.5,61.5,0,0,1,.14-18.85A84.28,84.28,0,0,1,99,428.78a115.31,115.31,0,0,1,9-19.51c2.47-4.27,4-6.44,4-6.44,1-1.5,2.48-2.15,3.21-1.46S115.69,403.36,115,404.68Z"/><polygon class="cls-4" points="320.59 142.67 430.7 162.38 407.52 197.15 290.45 169.33 320.59 142.67"/><polygon class="cls-4" points="275.85 182.13 392.99 208.66 381.56 222.95 259.93 194.79 275.85 182.13"/></svg>