<?xml version="1.0" encoding="UTF-8"?>
<!-- Generator: Adobe Illustrator 16.0.4, SVG Export Plug-In . SVG Version: 6.00 Build 0)  -->
<!DOCTYPE svg PUBLIC "-//W3C//DTD SVG 1.1//EN" "http://www.w3.org/Graphics/SVG/1.1/DTD/svg11.dtd">
<svg version="1.1" id="Layer_1" xmlns="http://www.w3.org/2000/svg" xmlns:xlink="http://www.w3.org/1999/xlink" x="0px" y="0px" width="512px" height="512px" viewBox="0 0 512 512" enable-background="new 0 0 512 512" xml:space="preserve">
<path fill="#555555" d="M256,0C114.613,0,0,114.619,0,256c0,141.383,114.613,256,256,256c141.385,0,256-114.617,256-256  C512,114.619,397.385,0,256,0z M256,496C123.451,496,16,388.545,16,256S123.451,16,256,16s240,107.455,240,240S388.549,496,256,496z  "/>
<path fill="#555555" d="M265.002,174.01v-72h-126v270h-18v18h288v-216H265.002z M229.002,372.01h-54v-36h54V372.01z M247.002,300.01  h-90v-18h90V300.01z M247.002,264.01h-90v-18h90V264.01z M247.002,228.01h-90v-18h90V228.01z M247.002,192.01h-90v-18h90V192.01z   M247.002,156.01h-90v-18h90V156.01z M323.801,354.01H279v-36h44.801V354.01z M323.801,300.01H279v-36h44.801V300.01z   M323.801,246.01H279v-36h44.801V246.01z M391.002,354.01h-44.801v-36h44.801V354.01z M391.002,300.01h-44.801v-36h44.801V300.01z   M391.002,246.01h-44.801v-36h44.801V246.01z"/>
</svg>