<svg id="Capa_1" data-name="Capa 1" xmlns="http://www.w3.org/2000/svg" viewBox="0 0 68.2 68.25"><defs><style>.cls-1{fill:#fff;}.cls-2{fill:#15a432;}</style></defs><title>correo</title><circle class="cls-1" cx="34.2" cy="34.25" r="34"/><path class="cls-2" d="M33.92,0A34,34,0,1,0,67.8,34.12V34A33.94,33.94,0,0,0,33.92,0Zm0,66a32,32,0,1,1,32-32A32,32,0,0,1,33.92,66Z" transform="translate(0.2 0)"/><path class="cls-2" d="M33.92,3.31A30.69,30.69,0,1,0,64.5,34.11V34A30.64,30.64,0,0,0,33.92,3.31Zm0,59.58A28.89,28.89,0,1,1,62.81,34,28.89,28.89,0,0,1,33.92,62.89Z" transform="translate(0.2 0)"/><path class="cls-2" d="M27.59,34.12,13.92,46.63A3.66,3.66,0,0,1,13.58,45V23a3.65,3.65,0,0,1,.3-1.47Z" transform="translate(0.2 0)"/><path class="cls-2" d="M52.63,20,33.92,37.21,15.19,20a2.74,2.74,0,0,1,1.4-.39H51.24A2.75,2.75,0,0,1,52.63,20Z" transform="translate(0.2 0)"/><path class="cls-2" d="M52.53,48a2.74,2.74,0,0,1-1.29.32H16.6A2.74,2.74,0,0,1,15.37,48l13.7-12.58,4.85,4.47,4.9-4.49Z" transform="translate(0.2 0)"/><path class="cls-2" d="M54.26,23V45a3.67,3.67,0,0,1-.34,1.58L40.28,34.07,53.92,21.52A3.71,3.71,0,0,1,54.26,23Z" transform="translate(0.2 0)"/></svg>