<?xml version="1.0" standalone="no"?>
<!DOCTYPE svg PUBLIC "-//W3C//DTD SVG 20010904//EN"
 "http://www.w3.org/TR/2001/REC-SVG-20010904/DTD/svg10.dtd">
<svg version="1.0" xmlns="http://www.w3.org/2000/svg"
 width="1740.000000pt" height="390.000000pt" viewBox="0 0 1740.000000 390.000000"
 preserveAspectRatio="xMidYMid meet">
<metadata>
Created by potrace 1.15, written by Peter Selinger 2001-2017
</metadata>
<g transform="translate(0.000000,390.000000) scale(0.100000,-0.100000)"
fill="#000000" stroke="none">
<path d="M2330 3045 l0 -805 421 0 c396 0 421 1 417 18 -9 31 -440 1106 -469
1169 -31 66 -36 93 -18 93 12 0 665 -265 824 -335 55 -24 161 -68 235 -99 74
-30 152 -62 173 -70 l37 -16 0 425 0 425 -810 0 -810 0 0 -805z"/>
<path d="M2914 3143 c51 -126 148 -363 215 -528 68 -165 124 -301 125 -303 2
-1 25 51 51 115 27 65 63 152 82 193 18 41 39 88 46 103 11 25 38 38 217 109
113 44 208 83 212 87 4 4 -120 60 -275 125 -155 66 -310 132 -344 147 -67 31
-414 179 -419 179 -2 0 39 -102 90 -227z"/>
<path d="M11335 3026 c-125 -30 -222 -110 -280 -230 -37 -76 -65 -195 -65
-274 0 -47 -1 -50 -31 -56 -17 -3 -51 -6 -75 -6 -42 0 -44 -1 -44 -29 0 -28 3
-30 75 -47 l76 -18 -3 -347 c-2 -191 -6 -351 -10 -354 -4 -4 -36 -15 -70 -25
-55 -15 -63 -20 -66 -43 l-3 -27 296 0 c267 0 297 2 291 16 -3 9 -6 20 -6 24
0 5 -33 19 -72 31 -40 12 -76 26 -80 33 -4 6 -8 163 -8 349 l0 337 120 0 120
0 0 55 0 55 -121 0 -122 0 7 118 c15 258 73 362 200 362 34 0 36 -2 50 -52 50
-177 46 -168 72 -168 16 0 25 7 28 23 11 49 46 244 46 254 0 28 -233 41 -325
19z"/>
<path d="M8021 2952 c-47 -23 -72 -61 -78 -114 -16 -136 150 -210 255 -114 33
31 36 39 40 97 3 55 1 68 -19 93 -43 55 -132 72 -198 38z"/>
<path d="M7200 2954 c-181 -34 -290 -77 -395 -156 -121 -92 -209 -238 -241
-397 -20 -102 -15 -293 11 -386 36 -134 120 -260 228 -340 139 -105 250 -140
452 -139 157 0 222 13 340 69 96 45 108 55 100 86 l-6 26 -82 -24 c-48 -15
-121 -27 -177 -30 -166 -9 -289 34 -390 136 -66 67 -111 148 -141 256 -31 110
-32 323 -1 436 69 257 230 383 467 366 129 -9 123 -4 165 -158 32 -117 39
-134 58 -137 15 -2 25 3 31 20 12 34 64 328 59 334 -23 23 -398 53 -478 38z"/>
<path d="M8060 2475 c-91 -18 -182 -36 -202 -39 -28 -5 -38 -12 -38 -26 0 -19
24 -29 108 -46 l32 -6 0 -349 0 -348 -57 -16 c-32 -9 -64 -18 -70 -20 -7 -3
-13 -16 -13 -30 l0 -25 285 0 285 0 0 25 c0 21 -8 26 -52 40 -28 8 -57 15 -64
15 -32 0 -35 41 -33 447 0 224 -3 408 -7 409 -5 1 -83 -13 -174 -31z"/>
<path d="M9770 2474 c-102 -18 -191 -33 -197 -33 -7 -1 -13 -10 -13 -21 0 -19
23 -29 107 -46 29 -6 30 -8 37 -72 10 -112 7 -611 -4 -633 -6 -10 -16 -19 -24
-19 -7 0 -36 -7 -64 -15 -44 -14 -52 -19 -52 -40 l0 -25 275 0 275 0 0 24 c0
21 -8 27 -52 41 -29 10 -59 24 -65 33 -10 12 -13 95 -13 334 l0 319 46 20
c100 45 210 34 262 -25 45 -51 52 -106 52 -390 0 -203 -3 -256 -14 -265 -7 -6
-36 -18 -63 -26 -45 -14 -50 -17 -45 -40 l4 -25 269 0 269 0 0 25 c0 21 -8 27
-69 45 -63 18 -69 23 -75 51 -3 17 -6 156 -6 308 0 159 -4 292 -10 313 -17 61
-69 120 -132 152 -112 55 -256 45 -403 -29 l-85 -42 0 58 c0 41 -4 59 -12 58
-7 -1 -96 -16 -198 -35z"/>
<path d="M11760 2475 c-91 -18 -182 -36 -202 -39 -28 -5 -38 -12 -38 -26 0
-19 24 -29 107 -46 l30 -6 7 -91 c3 -49 6 -183 6 -297 0 -232 7 -270 65 -337
44 -52 118 -83 209 -90 96 -7 176 9 266 54 41 21 78 39 82 41 3 2 14 -11 24
-28 25 -41 87 -70 153 -70 57 0 227 36 236 50 12 20 -9 38 -52 43 -28 3 -54
13 -67 26 -21 21 -21 27 -23 434 l-2 412 -23 -3 c-13 -1 -90 -15 -173 -31 -82
-16 -166 -32 -186 -35 -31 -5 -36 -10 -32 -26 5 -19 19 -25 104 -45 25 -6 26
-9 33 -112 3 -58 6 -204 6 -323 l0 -218 -42 -17 c-24 -10 -71 -20 -105 -22
-86 -8 -143 20 -175 85 -23 46 -23 53 -24 397 -1 192 -5 350 -10 351 -5 1 -83
-13 -174 -31z"/>
<path d="M8871 2480 c-89 -24 -149 -58 -217 -122 -176 -166 -194 -485 -38
-658 140 -155 436 -203 705 -114 99 32 112 42 103 77 -5 21 -11 26 -23 22 -9
-4 -66 -9 -126 -12 -300 -15 -445 80 -462 303 l-6 74 312 0 311 0 0 69 c0 126
-55 247 -138 305 -104 72 -278 95 -421 56z m190 -86 c41 -21 66 -80 75 -176
l7 -78 -168 0 -168 0 7 38 c24 145 92 231 184 232 18 0 47 -7 63 -16z"/>
<path d="M13191 2480 c-89 -24 -149 -58 -217 -122 -176 -166 -194 -485 -38
-658 140 -155 436 -203 705 -114 99 32 112 42 103 77 -5 21 -11 26 -23 22 -9
-4 -66 -9 -126 -12 -300 -15 -445 80 -462 303 l-6 74 312 0 311 0 0 69 c0 126
-55 247 -138 305 -104 72 -278 95 -421 56z m190 -86 c41 -21 66 -80 75 -176
l7 -78 -168 0 -168 0 7 38 c24 145 92 231 184 232 18 0 47 -7 63 -16z"/>
<path d="M14200 2482 c-84 -22 -148 -60 -199 -118 -111 -127 -89 -349 43 -436
l33 -22 -48 -63 c-70 -93 -94 -148 -94 -211 0 -47 4 -57 31 -82 17 -15 38 -30
45 -32 10 -4 -3 -23 -39 -61 -150 -160 -115 -294 92 -360 60 -19 93 -22 216
-22 168 1 230 14 357 77 104 50 173 114 208 191 24 51 27 68 24 141 -5 112
-33 154 -127 199 l-67 32 -278 5 c-320 6 -315 4 -286 91 19 56 26 59 99 43
175 -37 350 1 450 97 93 90 121 240 67 351 -14 29 -27 57 -27 63 -1 5 45 21
102 35 96 24 103 28 103 51 l0 24 -180 1 c-99 0 -211 6 -250 12 -98 16 -199
14 -275 -6z m201 -68 c19 -10 39 -33 52 -62 19 -41 22 -65 22 -182 0 -208 -34
-269 -142 -257 -78 9 -113 66 -127 212 -8 73 8 204 29 245 29 56 105 76 166
44z m188 -925 c130 -28 138 -170 14 -250 -77 -48 -143 -64 -273 -64 -104 0
-120 2 -165 26 -94 48 -118 127 -74 244 l20 55 214 0 c118 0 237 -5 264 -11z"/>
<path d="M15383 2485 c-98 -21 -184 -69 -251 -139 -92 -96 -132 -195 -132
-328 0 -240 139 -415 368 -464 307 -65 588 86 657 353 30 116 13 263 -42 365
-35 64 -120 143 -187 174 -113 52 -282 67 -413 39z m213 -94 c52 -24 86 -68
115 -151 20 -57 23 -84 23 -220 1 -170 -13 -241 -60 -313 -65 -99 -225 -101
-295 -4 -54 74 -74 163 -73 327 0 161 14 234 59 302 48 72 147 97 231 59z"/>
<path d="M16475 2486 c-178 -41 -265 -132 -265 -275 0 -82 22 -133 80 -185 47
-43 98 -67 245 -117 127 -43 175 -84 175 -148 0 -55 -39 -94 -111 -111 -50
-12 -175 -9 -211 5 -11 4 -29 43 -49 103 -17 54 -34 100 -38 104 -3 4 -16 5
-27 2 -18 -5 -25 -22 -43 -112 -12 -59 -24 -116 -27 -127 -4 -18 4 -23 63 -42
142 -45 272 -54 396 -28 200 42 293 141 285 300 -6 134 -70 191 -312 279 -166
61 -193 76 -207 114 -39 103 107 176 292 146 34 -6 37 -9 59 -78 37 -116 36
-114 63 -109 23 5 26 14 47 116 12 62 22 117 22 122 -1 38 -319 68 -437 41z"/>
<path d="M5113 2301 c-191 -47 -289 -103 -338 -192 -28 -51 -30 -62 -35 -199
l-5 -145 -93 -3 -93 -3 3 -87 3 -87 93 -3 92 -3 0 -429 0 -430 105 0 105 0 0
430 0 430 130 0 130 0 0 90 0 90 -131 0 -131 0 4 129 c3 122 4 131 28 156 34
36 68 53 153 74 l72 19 3 91 c3 104 11 98 -95 72z"/>
<path d="M837 2224 c-4 -4 -7 -124 -7 -267 l0 -259 -22 5 c-13 2 -70 18 -128
35 -412 121 -580 25 -621 -355 -19 -178 3 -396 52 -509 20 -49 81 -119 119
-139 50 -26 145 -37 225 -26 84 12 247 62 317 97 26 13 52 24 57 24 6 0 11
-24 13 -52 l3 -53 100 0 100 0 0 750 0 750 -101 3 c-55 1 -103 0 -107 -4z
m-177 -644 c47 -10 103 -24 125 -32 l40 -13 3 -275 2 -275 -57 -23 c-85 -33
-150 -50 -233 -62 -148 -21 -225 19 -249 131 -31 145 -22 394 18 483 41 94
136 112 351 66z"/>
<path d="M5500 1940 l0 -180 -95 0 -95 0 0 -90 0 -90 95 0 95 0 0 -312 c0
-340 7 -397 53 -467 16 -24 44 -48 74 -62 42 -21 61 -24 163 -23 63 0 132 4
153 8 l37 7 0 85 0 84 -100 -6 c-116 -8 -143 2 -159 63 -7 23 -11 158 -11 331
l0 292 135 0 135 0 0 90 0 90 -135 0 -135 0 0 180 0 180 -105 0 -105 0 0 -180z"/>
<path d="M1620 1800 c-183 -33 -299 -146 -347 -337 -23 -94 -23 -332 0 -426
47 -188 145 -282 339 -323 90 -20 291 -13 418 13 l85 18 3 84 3 83 -33 -5
c-112 -20 -227 -29 -333 -25 -109 3 -125 6 -167 30 -72 43 -102 104 -114 233
l-7 75 357 0 356 0 0 103 c-1 230 -64 367 -200 437 -82 42 -246 60 -360 40z
m245 -186 c54 -28 86 -92 93 -184 l5 -70 -242 0 -241 0 0 28 c0 15 6 51 14 79
35 131 98 175 247 170 62 -2 96 -8 124 -23z"/>
<path d="M3771 1795 c-250 -46 -373 -223 -372 -540 0 -323 108 -487 358 -540
87 -19 239 -19 326 0 254 54 359 215 358 550 -1 324 -113 485 -369 531 -95 17
-204 16 -301 -1z m314 -192 c82 -43 120 -113 137 -253 22 -178 -15 -356 -88
-420 -47 -41 -103 -55 -219 -55 -117 1 -175 22 -225 83 -48 59 -62 112 -67
267 -9 241 34 343 165 391 58 22 245 14 297 -13z"/>
<path d="M2658 1790 c-124 -21 -209 -73 -250 -154 -44 -86 -34 -274 19 -337
59 -70 130 -97 342 -129 232 -35 256 -50 255 -155 -1 -75 -19 -109 -72 -133
-68 -31 -386 -17 -549 24 -22 6 -23 4 -23 -70 0 -73 1 -77 26 -86 103 -39 453
-58 579 -31 175 38 249 134 249 322 -1 70 -5 95 -26 141 -48 104 -109 131
-393 173 -97 14 -178 31 -192 40 -29 19 -43 53 -43 105 0 89 41 125 155 135
65 6 271 -5 391 -22 l44 -6 0 81 c0 80 0 80 -27 86 -105 23 -390 32 -485 16z"/>
<path d="M100 480 c0 -7 987 -10 2940 -10 1953 0 2940 3 2940 10 0 7 -987 10
-2940 10 -1953 0 -2940 -3 -2940 -10z"/>
</g>
</svg>
