<?xml version="1.0" encoding="UTF-8" standalone="no"?>
<svg
   xmlns:dc="http://purl.org/dc/elements/1.1/"
   xmlns:cc="http://creativecommons.org/ns#"
   xmlns:rdf="http://www.w3.org/1999/02/22-rdf-syntax-ns#"
   xmlns:svg="http://www.w3.org/2000/svg"
   xmlns="http://www.w3.org/2000/svg"
   xmlns:sodipodi="http://sodipodi.sourceforge.net/DTD/sodipodi-0.dtd"
   xmlns:inkscape="http://www.inkscape.org/namespaces/inkscape"
   version="1.0"
   width="1740.000000pt"
   height="390.000000pt"
   viewBox="0 0 1740.000000 390.000000"
   preserveAspectRatio="xMidYMid meet"
   id="svg160"
   sodipodi:docname="logodesoft-cienfuegos3.svg"
   inkscape:version="0.92.2 (5c3e80d, 2017-08-06)">
  <defs
     id="defs164">
    <filter
       inkscape:collect="always"
       style="color-interpolation-filters:sRGB"
       id="filter6534"
       x="-0.020096609"
       width="1.0401932"
       y="-0.059146999"
       height="1.118294">
      <feGaussianBlur
         inkscape:collect="always"
         stdDeviation="87.05803"
         id="feGaussianBlur6536" />
    </filter>
    <filter
       inkscape:collect="always"
       style="color-interpolation-filters:sRGB"
       id="filter6584"
       x="-0.017828648"
       width="1.0356573"
       y="-0.036705557"
       height="1.0734111">
      <feGaussianBlur
         inkscape:collect="always"
         stdDeviation="5.8713598"
         id="feGaussianBlur6586" />
    </filter>
  </defs>
  <sodipodi:namedview
     pagecolor="#ffffff"
     bordercolor="#666666"
     borderopacity="1"
     objecttolerance="10"
     gridtolerance="10"
     guidetolerance="10"
     inkscape:pageopacity="0"
     inkscape:pageshadow="2"
     inkscape:window-width="1920"
     inkscape:window-height="1017"
     id="namedview162"
     showgrid="false"
     inkscape:zoom="0.34623849"
     inkscape:cx="830.94541"
     inkscape:cy="385.39439"
     inkscape:window-x="-8"
     inkscape:window-y="-8"
     inkscape:window-maximized="1"
     inkscape:current-layer="g158" />
  <metadata
     id="metadata116">
Created by potrace 1.15, written by Peter Selinger 2001-2017
<rdf:RDF>
  <cc:Work
     rdf:about="">
    <dc:format>image/svg+xml</dc:format>
    <dc:type
       rdf:resource="http://purl.org/dc/dcmitype/StillImage" />
  </cc:Work>
</rdf:RDF>
</metadata>
  <g
     transform="translate(0.000000,390.000000) scale(0.100000,-0.100000)"
     fill="#000000"
     stroke="none"
     id="g158">
    <path
       style="fill:#0080c0;fill-opacity:1;stroke:none;stroke-width:1"
       d="M 2344.9952,3610.0049 V 2805 1999.9951 h 421.0107 c 396,0 420.997,1.0029 416.997,18.003 -9,30.9999 -439.999,1106.0038 -468.999,1169.0039 -31,66 -36.0029,93.0029 -18.0029,93.0029 12,0 665.0039,-265.0098 824.0038,-335.0097 55.0001,-24.0001 160.9903,-67.9942 234.9904,-98.9942 73.9999,-30 151.9979,-62.0049 172.998,-70.0049 L 3964.9952,2760 v 424.9951 425.0098 h -810 z m 494.0038,-480.0001 c -1.9999,0 39,-102.0068 90,-227.0067 51,-126 147.9952,-363.0029 214.9951,-528.0029 68.0001,-165 124.0098,-300.9884 125.0098,-302.9883 2,-1.0001 24.9912,50.9902 50.9913,114.9902 27,65 63.0019,152.0078 82.0019,193.0077 18,41.0001 38.9961,87.9933 45.996,102.9933 11.0001,25 38.002,37.9989 217.0021,108.999 112.9999,44 208.0067,82.9971 212.0067,86.997 4.0001,4 -119.9951,60.0098 -274.995,125.0098 -155.0001,66 -310.004,131.9971 -344.004,146.9971 -66.9999,31 -414.0039,179.0038 -419.0039,179.0038 z m 2366.4258,-782.9442 c -13.9629,0.621 -37.6816,-6.3047 -77.4316,-16.0547 -191,-47.0001 -288.9981,-103.0117 -337.9981,-192.0118 -28,-51 -29.9951,-61.999 -34.9951,-198.999 l -4.9951,-144.9902 -93.003,-3.003 -93.0029,-3.0029 3.0029,-86.9971 3.003,-86.997 92.9883,-3.003 L 4755,1608.999 V 1180.0049 750 h 105 105 v 430.0049 429.9902 h 130.0049 129.9902 v 90 90 h -131.001 -131.0009 l 4.0136,129.0088 c 3.0001,122 3.9932,130.9912 27.9932,155.9913 34,35.9999 68.003,53.0038 153.0029,74.0038 l 71.9971,18.9991 3.0029,90.996 c 1.875,65.0001 5.6934,87.0313 -17.5781,88.0665 z M 919.64355,2258.3642 c -36.89062,-0.047 -64.64648,-1.3652 -67.64648,-4.3652 -3.99997,-4 -7.00192,-123.9971 -7.00192,-266.9971 v -258.999 l -22.002,4.9952 c -12.99998,1.9999 -69.99803,17.9951 -127.99803,34.9951 -412.00001,121 -579.99121,25.0098 -620.991214,-354.9903 -19,-177.9999 3.001953,-396.0039 52.001954,-509.0039 20,-48.99998 80.98926,-118.99897 118.98926,-138.999 49.99999,-26.00003 145,-37.00095 225,-26.001 84,12 247.00683,62.00198 317.0068,97.002 26.00003,12.99998 51.99713,23.99415 56.99708,23.99415 6,0 11.00783,-24.00195 13.00785,-52.002 l 2.9883,-52.998 H 960 1060.0049 v 749.99995 750.0001 l -101.00098,3.0029 c -13.75005,0.25 -27.06352,0.3818 -39.36037,0.3661 z m 4595.36135,-108.369 v -180.0001 -180 H 5419.9951 5325 v -90 -90 h 94.9951 95.0098 v -311.997 c 0,-340.00008 6.9981,-396.99227 52.998,-466.99225 16,-24 44.0039,-48.00682 74.0039,-62.00685 42,-21 60.9932,-23.99805 162.9932,-22.998 63,0 132.0029,3.99802 153.0029,7.998 l 37.002,7.002 V 846.00585 930 L 5895,923.99415 c -116,-8.00003 -142.9942,2.00295 -158.9941,63.00292 -7,23.00003 -11.001,157.99613 -11.001,330.99613 v 292.0019 h 135 135 v 90 90 h -135 -135 v 180 180.0001 h -105 z M 3937.251,1838.2471 c -51.25,-0.25 -102.7451,-4.7422 -151.2451,-13.2422 -250,-46 -373.0117,-223 -372.0118,-540 0,-323 108.0078,-487.00003 358.0078,-540.00005 87,-18.99997 239.001,-18.99997 326.001,0 254.0001,54 358.9932,214.99027 357.9932,549.99025 -1,324 -112.9941,485.0059 -368.9942,531.0059 -47.4999,8.5 -98.5009,12.4961 -149.7509,12.2461 z m -2209.4385,-0.1465 C 1695.125,1837.6318 1663.5,1835 1635,1830 c -183,-33 -299.0068,-146.002 -347.0068,-337.0019 -23,-94.0001 -23,-331.9913 0,-425.9913 47,-187.99997 145.0088,-282.01263 339.0087,-323.01265 90,-20.00002 290.9932,-12.99218 417.9932,13.00777 l 85.0049,18.00293 3.0029,83.99415 3.003,82.99807 -33.003,-4.99515 C 1991.003,917.00198 1876,907.9971 1770,911.99707 c -109,3.00001 -125.0068,6 -167.0068,30 -72,42.99998 -101.9942,103.99813 -113.9942,232.99803 l -7.0019,75 h 356.997 356.0011 v 103.0078 C 2193.9951,1583.003 2131,1719.9951 1995,1789.9951 c -61.5,31.5 -169.125,49.5117 -267.1875,48.1055 z m 1112.71,-10.0635 c -69.5508,0.4512 -131.8946,-2.0419 -167.5196,-8.042 -123.9999,-21 -209.0049,-72.999 -250.0048,-153.999 -44,-86 -34.0011,-274.002 18.999,-337.0019 59,-70 129.997,-96.9942 341.997,-128.9942 232,-35 256,-49.9951 255,-154.9951 -0.9999,-75.00005 -18.997,-109.00783 -71.997,-133.00783 -68.0001,-30.99997 -385.9942,-16.99124 -548.9942,24.00878 -21.9999,6 -22.9981,3.9951 -22.9981,-70.00485 0,-73.00005 1.0011,-77.001 26.0011,-86.001 C 2524.0058,741 2874,722.00393 3000,749.00392 c 175,37.99996 248.9941,134.0019 248.9941,322.00188 -0.9999,70 -5.0009,94.9913 -26.001,140.9913 -47.9999,104 -108.9882,130.998 -392.9883,172.998 -96.9999,14 -178.0116,31.0049 -192.0117,40.0049 -28.9999,19 -42.9931,53 -42.9931,105 0,89 40.9952,125 154.9952,135 64.9999,6 271.0107,-5.002 391.0107,-22.0019 l 43.9893,-5.9913 v 80.9913 c 0,79.9999 0,80.0009 -26.9971,86.0009 -65.625,14.375 -201.5576,23.2861 -317.4756,24.0381 z M 1729.0576,1667.3584 c 8.6548,0.08 17.626,-0.039 26.9385,-0.3516 62,-2 95.999,-8.0126 123.999,-23.0126 54,-28 86.0029,-91.9991 93.003,-183.9991 l 4.9951,-69.9902 H 1736.001 1495.0049 v 27.9932 c 0,15 5.9892,50.999 13.9892,78.999 32.8125,122.8125 90.2418,169.1674 220.0635,170.3613 z m 2179.6876,-8.6865 c 73.5156,0.6543 158.7499,-8.8037 191.25,-25.6787 81.9999,-43 120.0068,-112.9932 137.0067,-252.9932 22.0001,-178 -15.0078,-356 -88.0078,-420 -47,-41.00003 -102.9941,-55.00485 -218.9941,-55.00485 -117,0.99998 -175,21.99802 -225,82.998 -48,59.00005 -62.002,112.01175 -67.0019,267.01175 -9,241 34,342.9961 165,390.9961 21.75,8.25 61.6377,12.2783 105.7471,12.6709 z M 493.13965,1634.2675 c 48.22772,-0.2 107.9541,-8.4599 181.86035,-24.2724 47,-10 102.9951,-23.9921 124.99515,-31.9922 L 840,1564.9951 843.00293,1290 844.99515,1015.0049 787.99808,992.00685 C 702.99805,959.00685 638,942 555,930 407,909 330.00586,949.00095 306.00586,1061.001 c -31,145 -22.01172,394.0029 17.98828,483.0029 26.90625,61.6875 77.0744,90.6456 169.14551,90.2636 z"
       id="path118"
       inkscape:connector-curvature="0" />
    <path
       style="stroke-width:1.34178758"
       d="m 11223.266,3797.6807 c -54.433,0.9705 -108.761,-5.0247 -143.261,-19.878 -125,-54.0117 -222.005,-198.0348 -280.005,-414.082 -37,-136.8301 -64.995,-351.0843 -64.995,-493.3155 0,-84.6184 -1.011,-90.0227 -31.011,-100.8251 -16.999,-5.4014 -51,-10.7959 -75,-10.7959 -42,0 -43.989,-1.796 -43.989,-52.2071 0,-50.4109 3,-54.017 75,-84.624 l 75.996,-32.4023 -3.003,-624.7412 c -2,-343.8754 -6.005,-631.9376 -10.005,-637.3389 -4,-7.2016 -35.99,-27.0107 -69.99,-45.0146 -55,-27.0058 -63.006,-36.0078 -66.006,-77.417 l -3.003,-48.6035 h 296.001 c 267,0 297.006,3.5931 291.006,28.7988 -3,16.2036 -6.006,36.0113 -6.006,43.2129 0,9.002 -32.997,34.2056 -71.997,55.8105 -40,21.6047 -75.995,46.8113 -79.995,59.4141 -4,10.8024 -7.998,293.4714 -7.998,628.3447 v 606.7236 h 120 120 v 99.0235 99.0234 h -121.011 -121.992 l 7.002,212.4463 c 15,464.5016 72.995,651.7383 199.995,651.7383 34,0 35.995,-3.5985 49.995,-93.6182 50,-318.6698 46.012,-302.4609 72.012,-302.4609 16,0 24.993,12.6048 27.993,41.4111 11,88.2194 45.996,439.291 45.996,457.2949 0,31.5069 -91.006,52.4645 -181.729,54.0821 z M 7839.4193,3676.0986 c -25.3208,-0.2931 -50.7308,-10.4813 -73.4183,-31.5234 -47.0002,-41.409 -72.003,-109.8184 -78.003,-205.2393 -15.9998,-244.8535 150,-378.0916 255,-205.2539 33,55.8122 36.0052,70.2158 40.005,174.6387 3,99.0216 1.0012,122.4366 -18.999,167.4463 -28.2187,64.9829 -76.2465,100.4912 -124.5847,99.9316 z m -822.5687,-20.6543 c -31.4773,0.016 -56.8506,-2.202 -71.8506,-7.2656 -181,-61.2133 -289.9951,-138.6233 -394.9951,-280.8545 -121,-165.6361 -209.0107,-428.4934 -241.0108,-714.7558 -20,-183.6403 -14.999,-527.5291 11.001,-694.9659 36,-241.2528 120.003,-468.0974 228.003,-612.1289 139,-189.0412 250.0068,-252.0543 452.0068,-250.2539 157,0 221.9902,23.4113 339.9902,124.2334 95.9999,81.0177 108.0052,99.0216 100.0049,154.834 l -6.006,46.8018 -81.9872,-43.2129 c -48,-27.0059 -121.0117,-48.6077 -177.0117,-54.0088 -166,-16.2035 -289,61.223 -390,244.8633 -65.9999,120.6263 -110.9912,266.456 -140.9912,460.8984 -31,198.0434 -32.0107,581.5215 -1.0107,784.9659 69,462.7014 230.0068,689.5519 467.0068,658.9452 129,-16.2037 123,-7.1974 165,-284.458 32,-210.6461 38.9932,-241.2492 57.9932,-246.6504 15,-3.6008 25.0107,5.3992 31.0107,36.0059 12,61.2133 63.9893,590.5306 58.9893,601.333 -18.6875,33.6449 -269.741,75.6053 -406.1426,75.6738 z M 9712.998,2846.9971 c -6.9997,-1.8005 -96.003,-28.7957 -198.003,-63.003 -102,-32.4072 -190.992,-59.414 -196.992,-59.414 -6.9998,-1.8004 -13.008,-18.0033 -13.008,-37.8076 0,-34.2074 23.007,-52.2155 107.007,-82.8223 29.0003,-10.8023 30.0022,-14.3987 37.002,-129.624 9.9997,-201.6441 7.0013,-1100.0397 -3.999,-1139.6485 -6,-18.0038 -16.0087,-34.2187 -24.009,-34.2187 -6.9997,0 -35.9992,-12.5938 -63.999,-26.9971 -44.0002,-25.2053 -52.002,-34.2034 -52.002,-72.0117 v -45.0146 H 9580.005 9855 v 43.2128 c 0,37.8083 -8.0017,48.6082 -52.002,73.8135 -29.0003,18.0041 -58.995,43.2106 -64.995,59.4141 -9.9998,21.6046 -13.008,171.0388 -13.008,601.333 v 574.3212 l 46.011,36.0059 c 99.9998,81.0177 209.987,61.2087 261.987,-45.0146 45,-91.82 52.002,-190.8314 52.002,-702.1436 0,-365.48 -2.99,-460.9106 -13.989,-477.1142 -7,-10.8023 -36.003,-32.3985 -63.003,-46.8018 -45,-25.2053 -50,-30.6027 -45,-72.0117 l 3.999,-45.0146 h 269.004 268.989 v 45.0146 c 0,37.8082 -7.994,48.599 -68.994,81.0059 -63,32.4072 -69,41.4199 -75,91.831 -3,30.6065 -6.006,280.8567 -6.006,554.5166 0,286.2625 -3.99,525.7171 -9.99,563.5254 -17,109.8241 -69.012,216.0495 -132.012,273.6621 -112,99.0217 -255.993,81.0075 -402.993,-52.2217 l -85.005,-75.6152 v 104.4287 c 0,73.8163 -3.9967,106.2145 -11.997,104.4141 z m -1735.7813,-5.376 c -13.0222,-1.4043 -86.9092,-25.4437 -172.2217,-55.8252 -90.9998,-32.4072 -182.0017,-64.8234 -202.002,-70.2246 -27.9998,-9.002 -37.998,-21.5963 -37.998,-46.8018 0,-34.2074 24.003,-52.2156 108.003,-82.8222 l 32.007,-10.8106 v -628.33 -626.543 l -57.012,-28.7989 c -31.9995,-16.2034 -63.99,-32.4052 -69.99,-36.0058 -6.9998,-5.4012 -13.008,-28.8034 -13.008,-54.0088 v -45.0146 h 285 285 v 45.0146 c 0,37.8082 -8.0018,46.8064 -52.002,72.0117 -27.9998,14.4033 -56.9985,26.9971 -63.999,26.9971 -31.9995,0 -34.9882,73.8253 -32.988,804.7851 0,403.2883 -3.0023,734.562 -7.002,736.3624 -0.3128,0.1124 -0.9187,0.1083 -1.7873,0.015 z m 3700.0053,0 c -13.023,-1.4043 -86.91,-25.4437 -172.222,-55.8252 -91,-32.4072 -182.002,-64.8234 -202.002,-70.2246 -28,-9.002 -37.998,-21.5963 -37.998,-46.8018 0,-34.2074 24.007,-52.2156 107.007,-82.8222 l 30,-10.8106 6.987,-163.8281 c 3,-88.2193 6.006,-329.467 6.006,-534.7119 0,-417.6915 6.995,-486.112 64.995,-606.7383 44,-93.6205 118.004,-149.438 209.004,-162.0411 96,-12.6026 176.001,16.2041 266.001,97.2218 41,37.8084 78.002,70.2273 82.002,73.8281 3,3.6006 13.994,-19.8133 23.994,-50.4199 25,-73.8162 87.003,-126.0206 153.003,-126.0206 57,0 227.001,64.8091 236.001,90.0147 12,36.0078 -9.002,68.415 -52.002,77.417 -28,5.4012 -54.002,23.4113 -67.002,46.8164 -21,37.8082 -20.998,48.602 -22.998,781.3623 l -1.992,741.7676 -23.013,-5.4053 c -13,-1.8004 -89.998,-27.0042 -172.998,-55.8105 -82,-28.8064 -165.991,-57.6164 -185.991,-63.0176 -31,-9.002 -36.007,-17.9956 -32.007,-46.8018 5,-34.2074 19.004,-45.0126 104.004,-81.0205 25,-10.8022 26.003,-16.2097 33.003,-201.6504 3,-104.4228 5.991,-367.2813 5.991,-581.5283 v -392.4756 l -41.997,-30.6152 c -24,-18.0038 -71,-36.0087 -105,-39.6094 -86,-14.4032 -143.005,36.0067 -175.005,153.0322 -22.999,82.8183 -22.994,95.4204 -23.994,714.7559 -1,345.6756 -5.005,630.1479 -10.005,631.9483 -0.312,0.1124 -0.904,0.1083 -1.772,0.015 z m 3595.517,-12.8467 c -50.193,0.5282 -99.709,-7.6468 -144.741,-24.9756 -98,-37.8083 -184.001,-124.2265 -251.001,-250.2539 -92,-172.838 -131.997,-351.0848 -131.997,-590.5371 0,-432.0947 138.998,-747.1664 367.998,-835.3857 307,-117.0256 587.997,154.8316 656.997,635.5371 30,208.8456 13.003,473.5179 -41.997,657.1581 -35,115.2254 -120.002,257.4448 -187.002,313.2569 -74.156,61.4385 -172.433,94.1917 -268.257,95.2002 z m -6516.6795,-0.1465 c -47.6595,-0.8549 -95.3662,-11.8956 -140.0535,-33.8379 -89.0002,-43.2094 -149.0018,-104.4281 -217.002,-219.6533 -176.0003,-298.8654 -193.998,-873.1801 -37.998,-1184.6484 139.9995,-279.0609 435.9998,-365.489 705,-205.2539 99,57.6126 111.993,75.619 102.993,138.6328 -5.0002,37.8083 -10.998,46.811 -22.998,39.6094 -9,-7.2017 -66.006,-16.2054 -126.006,-21.6065 -300,-27.0059 -444.9967,144.0345 -461.997,545.5224 l -5.991,133.2276 h 311.997 311.001 v 124.2334 c 0,226.8498 -55.0028,444.6885 -138.003,549.1113 -71.4998,89.1195 -176.0903,136.5439 -280.9425,134.6631 z m 4319.9995,0 c -47.659,-0.8549 -95.366,-11.8956 -140.053,-33.8379 -89,-43.2094 -149.002,-104.4281 -217.002,-219.6533 -176,-298.8654 -193.998,-873.1801 -37.998,-1184.6484 139.999,-279.0609 436,-365.489 705,-205.2539 99,57.6126 111.993,75.619 102.993,138.6328 -5,37.8083 -10.998,46.811 -22.998,39.6094 -9,-7.2017 -66.006,-16.2054 -126.006,-21.6065 -300,-27.0059 -444.997,144.0345 -461.997,545.5224 l -5.991,133.2276 h 311.997 311.001 v 124.2334 c 0,226.8498 -55.003,444.6885 -138.003,549.1113 -71.5,89.1195 -176.09,136.5439 -280.943,134.6631 z m 1015.943,-0.2344 c -53.587,0.2532 -104.247,-9.7455 -146.997,-30 -84,-39.6086 -147.999,-108.0234 -198.999,-212.4462 -111,-228.65 -89.007,-628.3316 42.993,-784.9659 l 33.003,-39.6093 -48.003,-113.4375 c -70,-167.4367 -93.999,-266.4531 -93.999,-379.8779 0,-84.6184 3.996,-102.6173 30.996,-147.627 17,-27.006 38,-54.0115 45,-57.6123 10,-7.2015 -2.994,-41.4191 -38.994,-109.83402 -150,-288.06308 -115.008,-529.30875 91.992,-648.13478 60,-34.20743 93.006,-39.60938 216.006,-39.60938 168,1.80046 229.997,25.20803 356.997,138.63285 104,90.01973 173.008,205.24171 208.008,343.87208 24,91.8201 26.994,122.42865 23.994,253.85745 -5,201.644 -33.002,277.2536 -127.002,358.2715 l -67.002,57.6123 -277.998,9.0088 c -320,10.8023 -314.996,7.1939 -285.996,163.8281 19,100.8221 25.994,106.2234 98.994,77.4169 175,-66.6145 350,1.801 450,174.6387 93,162.0356 121.002,432.1045 67.002,631.9483 -14,52.2115 -26.997,102.6206 -26.997,113.4228 -1,9.002 44.997,37.8122 101.997,63.0176 96,43.2095 103.008,50.4074 103.008,91.8164 v 43.2129 l -180,1.8018 c -99,0 -211.005,10.7896 -250.005,21.5917 -42.875,12.6029 -86.319,19.0072 -127.998,19.2041 z m 2263.52,-4.1747 c -53.325,0.6008 -102.34,-4.9464 -135.527,-18.6182 -178,-73.8159 -264.99,-237.6609 -264.99,-495.1172 0,-147.6323 21.995,-239.4558 79.995,-333.0762 47,-77.4169 97.995,-120.6248 244.995,-210.6445 127,-77.417 175.005,-151.23 175.005,-266.4551 0,-99.0217 -39.006,-169.2419 -111.006,-199.8486 -49.999,-21.6046 -174.996,-16.1967 -210.996,9.0088 -11,7.2017 -28.999,77.411 -48.999,185.4345 -17,97.2215 -33.998,180.0495 -37.998,187.251 -3,7.2015 -15.997,8.9902 -26.997,3.5889 -18,-9.002 -25.008,-39.6003 -43.008,-201.6358 -12,-106.2233 -23.997,-208.8432 -26.997,-228.6474 -4,-32.4072 4.003,-41.4078 63.003,-75.6153 142,-81.0178 271.991,-97.2302 395.991,-50.4199 200,75.6164 293,253.8544 285,540.1172 -6,241.2527 -69.997,343.8751 -311.997,502.3096 -166,109.8241 -192.997,136.839 -206.997,205.2539 -39,185.4406 107.002,316.8635 292.002,262.8515 34,-10.8021 37.004,-16.2073 59.004,-140.4345 37,-208.8456 35.988,-205.2323 62.988,-196.2305 23,9.002 26.007,25.2026 47.007,208.8428 12,111.6244 22.002,210.6366 22.002,219.6387 -0.719,49.173 -165.201,90.9108 -301.48,92.4463 z m -2269.219,-120.7911 c 20.101,-0.5977 40.63,-9.4618 59.693,-27.4658 19,-18.0039 39.002,-59.4094 52.002,-111.6211 19,-73.816 22.002,-117.0249 22.002,-327.6709 0,-374.4819 -34.002,-484.3049 -142.002,-462.7002 -78,16.2035 -113.002,118.8223 -127.002,381.6797 -8,131.4288 8.004,367.2777 29.004,441.0937 19.937,69.3152 62.084,107.9998 106.303,106.6846 z m -5343.31,-34.6582 c 18,0 47.0033,-12.6098 63.003,-28.8135 41.0003,-37.808 66,-144.0223 75,-316.8603 l 7.002,-140.4346 h -168.003 -167.988 l 6.987,68.4083 c 24,261.0571 91.9995,415.8997 183.999,417.7001 z m 4320,0 c 18,0 47.003,-12.6098 63.003,-28.8135 41,-37.808 66,-144.0223 75,-316.8603 l 7.002,-140.4346 h -168.003 -167.988 l 6.987,68.4083 c 24,261.0571 92,415.8997 183.999,417.7001 z m 2196.87,-2.4316 c 27.166,-0.1055 54.888,-10.4075 81.138,-31.7871 52,-43.2096 86.005,-122.4277 115.005,-271.8604 19.999,-102.6225 22.998,-151.2255 22.998,-396.0791 1,-306.0668 -13,-433.8969 -60,-563.5254 -65,-178.2389 -225.005,-181.8451 -295.005,-7.207 -54,133.2294 -73.993,293.4707 -72.993,588.7353 0,289.8635 13.989,421.2939 58.989,543.7208 33,89.1195 90.104,138.235 149.868,138.0029 z M 13856.001,1030.4004 H 14070 c 118,0 236.994,-9.0023 263.994,-19.8047 130.001,-50.41097 138.004,-306.05635 14.004,-450.08785 -77,-86.41897 -143.003,-115.22468 -273.003,-115.22468 -104,0 -120,3.59236 -165,46.80181 -94,86.41889 -117.989,228.64589 -73.989,439.29194 z"
       id="path122"
       inkscape:connector-curvature="0" />
    <path
       d="m 115,510 c 0,-7 987,-10 2940,-10 1953,0 2940,3 2940,10 0,7 -987,10 -2940,10 -1953,0 -2940,-3 -2940,-10 z"
       id="path156"
       inkscape:connector-curvature="0" />
    <path
       inkscape:connector-curvature="0"
       id="path5920"
       d="m 11269.262,3680.5372 c -54.433,0.9705 -108.761,-5.0247 -143.261,-19.878 -125,-54.0117 -222.005,-198.0348 -280.005,-414.082 -37,-136.8301 -64.995,-351.0843 -64.995,-493.3155 0,-84.6184 -1.011,-90.0227 -31.011,-100.8251 -16.999,-5.4014 -51,-10.7959 -75,-10.7959 -42,0 -43.989,-1.796 -43.989,-52.2071 0,-50.4109 3,-54.017 75,-84.624 l 75.996,-32.4023 -3.003,-624.7412 c -2,-343.8754 -6.005,-631.9376 -10.005,-637.3389 -4,-7.2016 -35.99,-27.0107 -69.99,-45.0146 -55,-27.0058 -63.006,-36.0078 -66.006,-77.417 l -3.003,-48.6035 h 296.001 c 267,0 297.006,3.5931 291.006,28.7988 -3,16.2036 -6.006,36.0113 -6.006,43.2129 0,9.002 -32.997,34.2056 -71.997,55.8105 -40,21.6047 -75.995,46.8113 -79.995,59.4141 -4,10.8024 -7.998,293.4714 -7.998,628.3447 v 606.7236 h 120 120 v 99.0235 99.0234 h -121.011 -121.992 l 7.002,212.4463 c 15,464.5016 72.995,651.7383 199.995,651.7383 34,0 35.995,-3.5985 49.995,-93.6182 50,-318.6698 46.012,-302.4609 72.012,-302.4609 16,0 24.993,12.6048 27.993,41.4111 11,88.2194 45.996,439.291 45.996,457.2949 0,31.5069 -91.006,52.4645 -181.729,54.0821 z M 7885.4153,3558.9551 c -25.3208,-0.2931 -50.7308,-10.4813 -73.4183,-31.5234 -47.0002,-41.409 -72.003,-109.8184 -78.003,-205.2393 -15.9998,-244.8535 150,-378.0916 255,-205.2539 33,55.8122 36.0052,70.2158 40.005,174.6387 3,99.0216 1.0012,122.4366 -18.999,167.4463 -28.2187,64.9829 -76.2465,100.4912 -124.5847,99.9316 z m -822.5687,-20.6543 c -31.4773,0.016 -56.8506,-2.202 -71.8506,-7.2656 -181,-61.2133 -289.9951,-138.6233 -394.9951,-280.8545 -121,-165.6361 -209.0107,-428.4934 -241.0108,-714.7558 -20,-183.6403 -14.999,-527.5291 11.001,-694.9659 36,-241.2528 120.003,-468.0974 228.003,-612.1289 139,-189.0412 250.0068,-252.0543 452.0068,-250.25385 157,0 221.9902,23.41125 339.9902,124.23335 95.9999,81.0177 108.0052,99.0216 100.0049,154.834 l -6.006,46.8018 -81.9872,-43.2129 c -48,-27.0059 -121.0117,-48.6077 -177.0117,-54.0088 -166,-16.2035 -289,61.223 -390,244.8633 -65.9999,120.6263 -110.9912,266.456 -140.9912,460.8984 -31,198.0434 -32.0107,581.5215 -1.0107,784.9659 69,462.7014 230.0068,689.5519 467.0068,658.9452 129,-16.2037 123,-7.1974 165,-284.458 32,-210.6461 38.9932,-241.2492 57.9932,-246.6504 15,-3.6008 25.0107,5.3992 31.0107,36.0059 12,61.2133 63.9893,590.5306 58.9893,601.333 -18.6875,33.6449 -269.741,75.6053 -406.1426,75.6738 z M 9758.994,2729.8536 c -6.9997,-1.8005 -96.003,-28.7957 -198.003,-63.003 -102,-32.4072 -190.992,-59.414 -196.992,-59.414 -6.9998,-1.8004 -13.008,-18.0033 -13.008,-37.8076 0,-34.2074 23.007,-52.2155 107.007,-82.8223 29.0003,-10.8023 30.0022,-14.3987 37.002,-129.624 9.9997,-201.6441 7.0013,-1100.0397 -3.999,-1139.6485 -6,-18.0038 -16.0087,-34.2187 -24.009,-34.2187 -6.9997,0 -35.9992,-12.5938 -63.999,-26.9971 -44.0002,-25.2053 -52.002,-34.2034 -52.002,-72.0117 v -45.0146 h 275.01 274.995 v 43.2128 c 0,37.8083 -8.0017,48.6082 -52.002,73.8135 -29.0003,18.0041 -58.995,43.2106 -64.995,59.4141 -9.9998,21.6046 -13.008,171.0388 -13.008,601.333 v 574.3212 l 46.011,36.0059 c 99.9998,81.0177 209.987,61.2087 261.987,-45.0146 45,-91.82 52.002,-190.8314 52.002,-702.1436 0,-365.48 -2.99,-460.9106 -13.989,-477.1142 -7,-10.8023 -36.003,-32.3985 -63.003,-46.8018 -45,-25.2053 -50,-30.6027 -45,-72.0117 l 3.999,-45.0146 h 269.004 268.989 v 45.0146 c 0,37.8082 -7.994,48.599 -68.994,81.0059 -63,32.4072 -69,41.4199 -75,91.831 -3,30.6065 -6.006,280.8567 -6.006,554.5166 0,286.2625 -3.99,525.7171 -9.99,563.5254 -17,109.8241 -69.012,216.0495 -132.012,273.6621 -112,99.0217 -255.993,81.0075 -402.993,-52.2217 l -85.005,-75.6152 v 104.4287 c 0,73.8163 -3.9967,106.2145 -11.997,104.4141 z m -1735.7813,-5.376 c -13.0222,-1.4043 -86.9092,-25.4437 -172.2217,-55.8252 -90.9998,-32.4072 -182.0017,-64.8234 -202.002,-70.2246 -27.9998,-9.002 -37.998,-21.5963 -37.998,-46.8018 0,-34.2074 24.003,-52.2156 108.003,-82.8222 l 32.007,-10.8106 v -628.33 -626.543 l -57.012,-28.7989 c -31.9995,-16.2034 -63.99,-32.4052 -69.99,-36.0058 -6.9998,-5.4012 -13.008,-28.8034 -13.008,-54.0088 v -45.0146 h 285 285 v 45.0146 c 0,37.8082 -8.0018,46.8064 -52.002,72.0117 -27.9998,14.4033 -56.9985,26.9971 -63.999,26.9971 -31.9995,0 -34.9882,73.8253 -32.988,804.7851 0,403.2883 -3.0023,734.562 -7.002,736.3624 -0.3128,0.1124 -0.9187,0.1083 -1.7873,0.015 z m 3700.0053,0 c -13.023,-1.4043 -86.91,-25.4437 -172.222,-55.8252 -91,-32.4072 -182.002,-64.8234 -202.002,-70.2246 -28,-9.002 -37.998,-21.5963 -37.998,-46.8018 0,-34.2074 24.007,-52.2156 107.007,-82.8222 l 30,-10.8106 6.987,-163.8281 c 3,-88.2193 6.006,-329.467 6.006,-534.7119 0,-417.6915 6.995,-486.112 64.995,-606.7383 44,-93.6205 118.004,-149.438 209.004,-162.0411 96,-12.60257 176.001,16.2041 266.001,97.2218 41,37.8084 78.002,70.2273 82.002,73.8281 3,3.6006 13.994,-19.8133 23.994,-50.4199 25,-73.8162 87.003,-126.02057 153.003,-126.02057 57,0 227.001,64.80907 236.001,90.01467 12,36.0078 -9.002,68.415 -52.002,77.417 -28,5.4012 -54.002,23.4113 -67.002,46.8164 -21,37.8082 -20.998,48.602 -22.998,781.3623 l -1.992,741.7676 -23.013,-5.4053 c -13,-1.8004 -89.998,-27.0042 -172.998,-55.8105 -82,-28.8064 -165.991,-57.6164 -185.991,-63.0176 -31,-9.002 -36.007,-17.9956 -32.007,-46.8018 5,-34.2074 19.004,-45.0126 104.004,-81.0205 25,-10.8022 26.003,-16.2097 33.003,-201.6504 3,-104.4228 5.991,-367.2813 5.991,-581.5283 v -392.4756 l -41.997,-30.6152 c -24,-18.0038 -71,-36.0087 -105,-39.6094 -86,-14.4032 -143.005,36.0067 -175.005,153.0322 -22.999,82.8183 -22.994,95.4204 -23.994,714.7559 -1,345.6756 -5.005,630.1479 -10.005,631.9483 -0.312,0.1124 -0.904,0.1083 -1.772,0.015 z m 3595.517,-12.8467 c -50.193,0.5282 -99.709,-7.6468 -144.741,-24.9756 -98,-37.8083 -184.001,-124.2265 -251.001,-250.2539 -92,-172.838 -131.997,-351.0848 -131.997,-590.5371 0,-432.0947 138.998,-747.1664 367.998,-835.3857 307,-117.0256 587.997,154.8316 656.997,635.5371 30,208.8456 13.003,473.5179 -41.997,657.1581 -35,115.2254 -120.002,257.4448 -187.002,313.2569 -74.156,61.4385 -172.433,94.1917 -268.257,95.2002 z m -6516.6795,-0.1465 c -47.6595,-0.8549 -95.3662,-11.8956 -140.0535,-33.8379 -89.0002,-43.2094 -149.0018,-104.4281 -217.002,-219.6533 -176.0003,-298.8654 -193.998,-873.1801 -37.998,-1184.6484 139.9995,-279.0609 435.9998,-365.48903 705,-205.2539 99,57.6126 111.993,75.619 102.993,138.6328 -5.0002,37.8083 -10.998,46.811 -22.998,39.6094 -9,-7.2017 -66.006,-16.2054 -126.006,-21.6065 -300,-27.0059 -444.9967,144.0345 -461.997,545.5224 l -5.991,133.2276 H 8910 9221.001 V 2027.71 c 0,226.8498 -55.0028,444.6885 -138.003,549.1113 -71.4998,89.1195 -176.0903,136.5439 -280.9425,134.6631 z m 4319.9995,0 c -47.659,-0.8549 -95.366,-11.8956 -140.053,-33.8379 -89,-43.2094 -149.002,-104.4281 -217.002,-219.6533 -176,-298.8654 -193.998,-873.1801 -37.998,-1184.6484 139.999,-279.0609 436,-365.48903 705,-205.2539 99,57.6126 111.993,75.619 102.993,138.6328 -5,37.8083 -10.998,46.811 -22.998,39.6094 -9,-7.2017 -66.006,-16.2054 -126.006,-21.6065 -300,-27.0059 -444.997,144.0345 -461.997,545.5224 l -5.991,133.2276 H 13230 13541.001 V 2027.71 c 0,226.8498 -55.003,444.6885 -138.003,549.1113 -71.5,89.1195 -176.09,136.5439 -280.943,134.6631 z m 1015.943,-0.2344 c -53.587,0.2532 -104.247,-9.7455 -146.997,-30 -84,-39.6086 -147.999,-108.0234 -198.999,-212.4462 -111,-228.65 -89.007,-628.3316 42.993,-784.9659 l 33.003,-39.6093 -48.003,-113.4375 c -70,-167.4367 -93.999,-266.4531 -93.999,-379.8779 0,-84.6184 3.996,-102.6173 30.996,-147.627 17,-27.00605 38,-54.01152 45,-57.61235 10,-7.2015 -2.994,-41.41905 -38.994,-109.83397 -150,-288.06308 -115.008,-529.30875 91.992,-648.13478 60,-34.20743 93.006,-39.60938 216.006,-39.60938 168,1.80046 229.997,25.20803 356.997,138.63285 104,90.01973 173.008,205.24171 208.008,343.87208 24,91.8201 26.994,122.42865 23.994,253.85745 -5,201.644 -33.002,277.2536 -127.002,358.2715 l -67.002,57.6123 -277.998,9.0088 c -320,10.8023 -314.996,7.1939 -285.996,163.8281 19,100.8221 25.994,106.2234 98.994,77.4169 175,-66.6145 350,1.801 450,174.6387 93,162.0356 121.002,432.1045 67.002,631.9483 -14,52.2115 -26.997,102.6206 -26.997,113.4228 -1,9.002 44.997,37.8122 101.997,63.0176 96,43.2095 103.008,50.4074 103.008,91.8164 v 43.2129 l -180,1.8018 c -99,0 -211.005,10.7896 -250.005,21.5917 -42.875,12.6029 -86.319,19.0072 -127.998,19.2041 z m 2263.52,-4.1747 c -53.325,0.6008 -102.34,-4.9464 -135.527,-18.6182 -178,-73.8159 -264.99,-237.6609 -264.99,-495.1172 0,-147.6323 21.995,-239.4558 79.995,-333.0762 47,-77.4169 97.995,-120.6248 244.995,-210.6445 127,-77.417 175.005,-151.23 175.005,-266.4551 0,-99.0217 -39.006,-169.2419 -111.006,-199.8486 -49.999,-21.6046 -174.996,-16.1967 -210.996,9.0088 -11,7.2017 -28.999,77.411 -48.999,185.4345 -17,97.2215 -33.998,180.0495 -37.998,187.251 -3,7.2015 -15.997,8.9902 -26.997,3.5889 -18,-9.002 -25.008,-39.6003 -43.008,-201.6358 -12,-106.2233 -23.997,-208.8432 -26.997,-228.6474 -4,-32.4072 4.003,-41.4078 63.003,-75.6153 142,-81.0178 271.991,-97.23025 395.991,-50.4199 200,75.6164 293,253.8544 285,540.1172 -6,241.2527 -69.997,343.8751 -311.997,502.3096 -166,109.8241 -192.997,136.839 -206.997,205.2539 -39,185.4406 107.002,316.8635 292.002,262.8515 34,-10.8021 37.004,-16.2073 59.004,-140.4345 37,-208.8456 35.988,-205.2323 62.988,-196.2305 23,9.002 26.007,25.2026 47.007,208.8428 12,111.6244 22.002,210.6366 22.002,219.6387 -0.719,49.173 -165.201,90.9108 -301.48,92.4463 z m -2269.219,-120.7911 c 20.101,-0.5977 40.63,-9.4618 59.693,-27.4658 19,-18.0039 39.002,-59.4094 52.002,-111.6211 19,-73.816 22.002,-117.0249 22.002,-327.6709 0,-374.4819 -34.002,-484.3049 -142.002,-462.7002 -78,16.2035 -113.002,118.8223 -127.002,381.6797 -8,131.4288 8.004,367.2777 29.004,441.0937 19.937,69.3152 62.084,107.9998 106.303,106.6846 z m -5343.31,-34.6582 c 18,0 47.0033,-12.6098 63.003,-28.8135 41.0003,-37.808 66,-144.0223 75,-316.8603 l 7.002,-140.4346 h -168.003 -167.988 l 6.987,68.4083 c 24,261.0571 91.9995,415.8997 183.999,417.7001 z m 4320,0 c 18,0 47.003,-12.6098 63.003,-28.8135 41,-37.808 66,-144.0223 75,-316.8603 l 7.002,-140.4346 h -168.003 -167.988 l 6.987,68.4083 c 24,261.0571 92,415.8997 183.999,417.7001 z m 2196.87,-2.4316 c 27.166,-0.1055 54.888,-10.4075 81.138,-31.7871 52,-43.2096 86.005,-122.4277 115.005,-271.8604 19.999,-102.6225 22.998,-151.2255 22.998,-396.0791 1,-306.0668 -13,-433.8969 -60,-563.5254 -65,-178.2389 -225.005,-181.8451 -295.005,-7.207 -54,133.2294 -73.993,293.4707 -72.993,588.7353 0,289.8635 13.989,421.2939 58.989,543.7208 33,89.1195 90.104,138.235 149.868,138.0029 z M 13901.997,913.2569 h 213.999 c 118,0 236.994,-9.00232 263.994,-19.80473 130.001,-50.41094 138.004,-306.05632 14.004,-450.08782 -77,-86.41897 -143.003,-115.22468 -273.003,-115.22468 -104,0 -120,3.59236 -165,46.80181 -94,86.41889 -117.989,228.64589 -73.989,439.29194 z"
       style="opacity:1;fill:#000000;fill-opacity:1;stroke:#000000;stroke-width:1.34178758;stroke-opacity:1;filter:url(#filter6534)" />
    <path
       id="path6578"
       transform="matrix(7.5,0,0,-7.5,60.00005,3915)"
       d="M 310.66602,42.666016 V 150 257.33398 h 56.13476 c 52.8,0 56.13294,-0.13372 55.59961,-2.40039 -1.2,-4.13333 -58.66654,-147.46718 -62.5332,-155.867184 -4.13334,-8.8 -4.80039,-12.40039 -2.40039,-12.40039 1.6,0 88.66718,35.334634 109.86718,44.667964 7.33334,3.2 21.46537,9.06589 31.33204,13.19922 9.86666,4 20.2664,8.26732 23.0664,9.33399 L 526.66602,156 V 99.333984 42.666016 h -108 z m 65.86718,64.000004 c -0.26666,0 5.2,13.60091 12,30.26757 6.8,16.8 19.73269,48.40039 28.66602,70.40039 9.06667,22 16.53463,40.13178 16.66797,40.39844 0.26666,0.13334 3.33216,-6.7987 6.79883,-15.33203 3.6,-8.66667 8.40026,-20.26771 10.93359,-25.73437 2.4,-5.46667 5.19948,-11.73243 6.13281,-13.73243 1.46667,-3.33333 5.06693,-5.06653 28.9336,-14.5332 15.06666,-5.86667 27.73424,-11.06628 28.26757,-11.59961 0.53334,-0.53333 -15.99935,-8.0013 -36.66601,-16.66797 -20.66667,-8.8 -41.33386,-17.59961 -45.86719,-19.59961 -8.93333,-4.13333 -55.20052,-23.86718 -55.86719,-23.86718 z m 315.52344,104.39257 c -1.86172,-0.0828 -5.02422,0.84063 -10.32422,2.14063 -25.46666,6.26667 -38.53307,13.73489 -45.0664,25.60156 -3.73334,6.8 -3.99935,8.26654 -4.66602,26.5332 l -0.66602,19.33204 -12.40039,0.40039 -12.40039,0.40039 0.40039,11.59961 0.40039,11.59961 12.39844,0.40039 L 632,309.4668 V 366.66602 424 h 14 14 v -57.33398 -57.33204 h 17.33398 17.33204 v -12 -12 h -17.4668 -17.4668 l 0.53516,-17.20117 c 0.4,-16.26666 0.53242,-17.46549 3.73242,-20.79883 4.53333,-4.8 9.06706,-7.06718 20.40039,-9.86718 L 694,234.93359 l 0.40039,-12.13281 c 0.25,-8.66667 0.75912,-11.60417 -2.34375,-11.74219 z m -571.4375,11.82618 c -4.91875,0.006 -8.61953,0.18203 -9.01953,0.58203 -0.53333,0.53333 -0.93359,16.53294 -0.93359,35.59961 v 34.5332 l -2.9336,-0.66602 c -1.73333,-0.26666 -9.333071,-2.39935 -17.066404,-4.66601 -54.933334,-16.13334 -77.332162,-3.33464 -82.7988285,47.33203 -2.5333333,23.73333 0.4002604,52.80052 6.9335935,67.86719 2.666667,6.53333 10.798568,15.86653 15.865235,18.5332 6.666666,3.46667 19.333333,4.93346 30,3.4668 11.2,-1.6 32.934244,-8.26693 42.267574,-12.9336 3.46667,-1.73333 6.93295,-3.19922 7.59961,-3.19922 0.8,0 1.46771,3.20026 1.73438,6.9336 l 0.39844,7.0664 H 126 139.33398 v -100 -100 l -13.46679,-0.40039 c -1.83334,-0.0333 -3.60847,-0.0509 -5.24805,-0.0488 z m 612.71484,14.44921 v 24 24 H 720.66602 708 v 12 12 h 12.66602 12.66796 v 41.59961 c 0,45.33334 0.93308,52.9323 7.06641,62.26563 2.13333,3.2 5.86719,6.40091 9.86719,8.26758 5.6,2.8 8.13242,3.19974 21.73242,3.0664 8.4,0 17.60039,-0.53307 20.40039,-1.0664 l 4.93359,-0.9336 V 411.19922 400 L 784,400.80078 c -15.46667,1.06667 -19.06589,-0.26706 -21.19922,-8.40039 -0.93333,-3.06667 -1.4668,-21.06615 -1.4668,-44.13281 v -38.9336 h 18 18 v -12 -12 h -18 -18 v -24 -24 h -14 z M 522.9668,278.90039 c -6.83334,0.0333 -13.69935,0.63229 -20.16602,1.76563 -33.33333,6.13333 -49.73489,29.73333 -49.60156,72 0,43.06666 14.40104,64.93333 47.73437,72 11.6,2.53333 31.8668,2.53333 43.4668,0 33.86667,-7.2 47.86576,-28.66537 47.73242,-73.33204 -0.13333,-43.2 -15.06588,-64.66744 -49.19922,-70.80078 -6.33333,-1.13333 -13.13346,-1.66614 -19.96679,-1.63281 z m -294.5918,0.0195 C 224.01667,278.98242 219.8,279.33333 216,280 c -24.4,4.4 -39.86758,19.46693 -46.26758,44.93359 -3.06666,12.53334 -3.06666,44.2655 0,56.79883 6.26667,25.06667 19.33451,37.60169 45.20117,43.06836 12,2.66667 38.79909,1.73229 55.73243,-1.73437 L 282,420.66602 l 0.40039,-11.19922 0.40039,-11.06641 -4.40039,0.66602 c -14.93333,2.66666 -30.26706,3.86731 -44.40039,3.33398 -14.53333,-0.4 -16.66758,-0.8 -22.26758,-4 -9.6,-5.73333 -13.59922,-13.86641 -15.19922,-31.06641 l -0.93359,-10 h 47.59961 47.4668 V 343.59961 C 290.53268,312.93294 282.13333,294.66732 264,285.33398 c -8.2,-4.2 -22.55,-6.60156 -35.625,-6.41406 z m 148.36133,1.3418 c -9.27344,-0.0602 -17.58594,0.27226 -22.33594,1.07226 -16.53333,2.8 -27.86732,9.73321 -33.33398,20.53321 -5.86667,11.46666 -4.53347,36.53359 2.5332,44.93359 7.86667,9.33333 17.33294,12.93255 45.59961,17.19922 30.93333,4.66667 34.13333,6.66602 34,20.66602 -0.13333,10 -2.53294,14.53437 -9.59961,17.73437 -9.06667,4.13333 -51.46589,2.2655 -73.19922,-3.20117 -2.93333,-0.8 -3.06641,-0.53268 -3.06641,9.33398 0,9.73334 0.13347,10.2668 3.4668,11.4668 13.73333,5.2 60.39922,7.73281 77.19922,4.13281 23.33333,-5.06666 33.19922,-17.86692 33.19922,-42.93359 -0.13333,-9.33333 -0.6668,-12.6655 -3.4668,-18.79883 -6.4,-13.86667 -14.53177,-17.46641 -52.39844,-23.06641 C 362.40065,337.46732 351.59909,335.2 349.73242,334 345.86576,331.46667 344,326.93333 344,320 c 0,-11.86667 5.46602,-16.66667 20.66602,-18 8.66666,-0.8 36.13476,0.66693 52.13476,2.93359 l 5.86524,0.79883 v -10.79883 c 0,-10.66666 3.9e-4,-10.66679 -3.59961,-11.46679 -8.75,-1.91667 -26.87435,-3.10482 -42.33008,-3.20508 z m -148.19531,21.42383 c 1.15397,-0.0106 2.35013,0.005 3.59179,0.0469 8.26667,0.26667 12.79987,1.06836 16.53321,3.06836 7.2,3.73333 11.46705,12.26654 12.40039,24.5332 l 0.66601,9.33204 H 229.4668 197.33398 v -3.73243 c 0,-2 0.79857,-6.79987 1.86524,-10.5332 4.375,-16.375 12.03223,-22.55566 29.3418,-22.71484 z m 290.625,1.1582 c 9.80208,-0.0872 21.16666,1.17383 25.5,3.42383 10.93333,5.73333 16.00091,15.06575 18.26757,33.73242 2.93334,23.73333 -2.00104,47.46667 -11.73437,56 -6.26667,5.46667 -13.73255,7.33398 -29.19922,7.33398 -15.6,-0.13333 -23.33333,-2.93307 -30,-11.0664 -6.4,-7.86667 -8.26693,-14.9349 -8.93359,-35.60156 -1.2,-32.13334 4.53333,-45.73282 22,-52.13282 2.9,-1.1 8.21836,-1.63711 14.09961,-1.68945 z m -455.414067,3.25391 c 6.430363,0.0267 14.39388,1.12799 24.248047,3.23632 6.266667,1.33334 13.73268,3.19896 16.66602,4.26563 L 110,315.33398 110.40039,352 l 0.26563,36.66602 -7.59961,3.0664 C 91.733073,396.13242 83.066667,398.4 72,400 c -19.733333,2.8 -29.999219,-2.53346 -33.199219,-17.4668 -4.133333,-19.33333 -2.934896,-52.53372 2.398438,-64.40039 3.5875,-8.225 10.276587,-12.08608 22.552734,-12.03515 z"
       style="fill:#0080c0;fill-opacity:1;stroke:none;stroke-width:0.13333334;filter:url(#filter6584)"
       inkscape:connector-curvature="0" />
  </g>
</svg>
