<?xml version="1.0" encoding="iso-8859-1"?>
<!-- Generator: Adobe Illustrator 16.0.0, SVG Export Plug-In . SVG Version: 6.00 Build 0)  -->
<!DOCTYPE svg PUBLIC "-//W3C//DTD SVG 1.1//EN" "http://www.w3.org/Graphics/SVG/1.1/DTD/svg11.dtd">
<svg version="1.1" id="Layer_1" xmlns="http://www.w3.org/2000/svg" xmlns:xlink="http://www.w3.org/1999/xlink" x="0px" y="0px"
	 width="512px" height="512px" viewBox="0 0 512 512" style="enable-background:new 0 0 512 512;" xml:space="preserve">
<g id="social_x5F_6">
	<g>
		<g>
			<g>
				<g>
					<path style="fill:#F05D4A;" d="M511.672,255.932c0-141.385-114.614-256.002-255.997-256.002
						C114.286-0.07-0.328,114.547-0.328,255.932c0,141.389,114.614,255.998,256.003,255.998
						C397.058,511.93,511.672,397.319,511.672,255.932z"/>
				</g>
			</g>
		</g>
		<path style="fill:#D95443;" d="M255.672,511.93c141.386,0,256-114.612,256-256c0-68.157-26.688-130.044-70.113-175.918
			L77.413,439.58C123.51,484.332,186.352,511.93,255.672,511.93z"/>
		<path style="fill:#FFFFFF;" d="M364.682,108.006H146.708c-21.901,0-39.598,17.52-39.598,39.094v217.646
			c0,21.592,17.695,39.109,39.598,39.109h217.974c21.868,0,39.551-17.519,39.551-39.109V147.1
			C404.232,125.523,386.55,108.006,364.682,108.006z M255.842,200.886c30.739,0,55.722,24.694,55.722,55.044
			c0,30.353-24.981,55.03-55.722,55.03c-30.727,0-55.737-24.679-55.737-55.03C200.104,225.58,225.116,200.886,255.842,200.886z
			 M372.321,356.974c0,7.208-5.944,13.033-13.213,13.033H152.267c-7.284,0-13.182-5.825-13.182-13.033V235.799
			c0.54,0.062,1.06,0.152,1.599,0.152h21.994c-1.416,6.447-2.187,13.122-2.187,19.979c0,51.898,42.783,94.128,95.35,94.128
			c52.595,0,95.35-42.229,95.35-94.128c0-6.855-0.771-13.531-2.188-19.979h23.318V356.974L372.321,356.974z M373.906,191.699
			c0,7.209-5.884,13.047-13.199,13.047h-36.668c-7.284,0-13.186-5.838-13.186-13.047v-36.206c0-7.192,5.9-13.03,13.186-13.03h36.668
			c7.315,0,13.199,5.838,13.199,13.03V191.699L373.906,191.699z"/>
		<path style="fill:#F1F2F2;" d="M373.906,155.493v36.206c0,7.209-5.884,13.047-13.199,13.047h-36.668
			c-2.515,0-4.839-0.732-6.84-1.939l-18.368,18.138c7.951,9.518,12.731,21.711,12.731,34.985c0,30.353-24.981,55.03-55.722,55.03
			c-13.441,0-25.791-4.723-35.433-12.58l-28.052,27.699c16.873,14.896,39.124,23.979,63.483,23.979
			c52.595,0,95.35-42.229,95.35-94.128c0-6.855-0.771-13.531-2.188-19.979h23.318v121.021c0,7.208-5.944,13.033-13.213,13.033
			H152.266c-1.322,0-2.574-0.25-3.778-0.608l-26.334,26c6.748,5.281,15.263,8.457,24.554,8.457h217.974
			c21.868,0,39.551-17.519,39.551-39.109V147.1c0-8.529-2.796-16.403-7.489-22.834l-24.791,24.479
			C373.169,150.717,373.906,153.014,373.906,155.493z"/>
	</g>
</g>
<g id="Layer_1_1_">
</g>
</svg>
