<?xml version="1.0" encoding="iso-8859-1"?>
<!-- Generator: Adobe Illustrator 16.0.0, SVG Export Plug-In . SVG Version: 6.00 Build 0)  -->
<!DOCTYPE svg PUBLIC "-//W3C//DTD SVG 1.1//EN" "http://www.w3.org/Graphics/SVG/1.1/DTD/svg11.dtd">
<svg version="1.1" id="Layer_1" xmlns="http://www.w3.org/2000/svg" xmlns:xlink="http://www.w3.org/1999/xlink" x="0px" y="0px"
	 width="512px" height="512px" viewBox="0 0 512 512" style="enable-background:new 0 0 512 512;" xml:space="preserve">
<g id="social_x5F_1">
	<g>
		<circle style="fill:#59C5C6;" cx="255.672" cy="255.93" r="256"/>
		<path style="fill:#4DACAE;" d="M255.672,511.93c141.386,0,256-114.612,256-256c0-68.156-26.688-130.045-70.116-175.919
			L77.416,439.583C123.512,484.332,186.354,511.93,255.672,511.93z"/>
		<g>
			<path style="fill:#FFFFFF;" d="M346.136,115.763v190.261h70.104c5.064-15.802,7.808-32.638,7.808-50.078
				C424.048,197.002,392.966,145.289,346.136,115.763z"/>
			<path style="fill:#FFFFFF;" d="M190.988,409.463c19.926,8.177,41.765,12.707,64.67,12.707c68.364,0,127.137-40.223,153.53-98.001
				h-218.2V409.463z"/>
			<path style="fill:#FFFFFF;" d="M173.291,110.949c-51.316,28.493-85.996,82.723-85.996,144.995
				c0,17.878,2.875,35.118,8.183,51.272L233.781,170.67L173.291,110.949z"/>
			<path style="fill:#FFFFFF;" d="M102.666,325.287c14.313,30.739,37.832,56.443,67.13,73.646V260.39h-1.436L102.666,325.287z"/>
			<path style="fill:#FFFFFF;" d="M331.786,107.604c-22.862-11.442-48.711-17.916-76.13-17.916c-21.909,0-42.827,4.176-62.03,11.694
				l138.16,136.432V107.604z"/>
		</g>
		<path style="fill:#F1F2F2;" d="M378.481,142.294l-32.345,31.94v131.787h70.104c5.064-15.801,7.808-32.637,7.808-50.077
			C424.048,211.96,406.726,172.012,378.481,142.294z M331.786,188.403l-25.019,24.704l25.019,24.704V188.403z M169.796,398.934
			v-50.57l-29.21,28.844C149.474,385.438,159.252,392.743,169.796,398.934z M190.988,327.438v82.025
			c19.926,8.177,41.765,12.707,64.67,12.707c68.364,0,127.137-40.223,153.53-98.001H194.296L190.988,327.438z"/>
	</g>
</g>
<g id="Layer_1_1_">
</g>
</svg>
