<svg xmlns="http://www.w3.org/2000/svg" viewBox="0 0 260.46 357.14"><defs><style>.cls-1{fill:#263238;}.cls-2{fill:#3cb16a;}.cls-3{fill:#03a747;}.cls-4{fill:#04e762;}.cls-5{fill:#04cd57;}.cls-6{fill:#212121;}.cls-7{fill:#fff;}.cls-8{fill:#37474f;}</style></defs><title>logo-green_5</title><g id="Layer_2" data-name="Layer 2"><g id="Layer_1-2" data-name="Layer 1"><path class="cls-1" d="M240.46,110.35H203.61a73.5,73.5,0,1,0-147,0H19.75a110.35,110.35,0,0,1,220.7,0Z"/><path class="cls-2" d="M248.54,110.12c-8.83-4-79.11-9-118.49-9s-109.67,5-118.5,9S0,116.62,0,125.1V255c0,4.49,3,14,3.4,15,5.43,12,34,37,72.66,58.94s48.21,24.47,54,24.47,15.28-2.5,54-24.47,67.23-46.95,72.66-58.94c.43-.94,3.39-10.49,3.39-15V125.1C260.08,116.62,257.36,114.12,248.54,110.12Z"/><path class="cls-3" d="M260.46,125.11V255c0,4.49-3.15,14-3.58,15-5.44,12-34.06,36.85-72.76,58.83-37.79,21.44-47.83,24.26-53.66,24.36v-252c39.47,0,109.48,5,118.27,9S260.46,116.62,260.46,125.11Z"/><path class="cls-3" d="M130.46,353.13h0Z"/><path class="cls-4" d="M27.34,125.09c7.69-3.48,68.77-7.83,103.12-7.84V337.14h0c-5,0-13.29-2.17-47-21.34S25,274.87,20.22,264.42c-.37-.82-2.76-9.15-2.76-13.06V138.15C17.46,130.75,19.65,128.57,27.34,125.09Z"/><path class="cls-5" d="M243.46,138.09V251.3c0,3.91-2.4,12.24-2.77,13.06-4.73,10.45-29.51,32.22-63.25,51.38s-41.95,21.33-47,21.34V117.14h.09c34.34,0,95.38,4.38,103.08,7.86S243.46,130.69,243.46,138.09Z"/><path class="cls-6" d="M130,179.14a23.34,23.34,0,0,0-12.38,43.12v27.28h24.77V222.26A23.34,23.34,0,0,0,130,179.14Z"/><circle class="cls-7" cx="202.65" cy="307.14" r="50"/><g id="block"><path class="cls-8" d="M202.65,267.63a40.64,40.64,0,1,0,40.64,40.64A40.76,40.76,0,0,0,202.65,267.63Zm-32.51,40.64a32.61,32.61,0,0,1,32.51-32.51,32,32,0,0,1,19.91,6.91L177,328.18A32,32,0,0,1,170.14,308.27Zm32.51,32.51a32,32,0,0,1-19.91-6.91l45.52-45.52a32,32,0,0,1,6.91,19.91A32.61,32.61,0,0,1,202.65,340.78Z"/></g><path class="cls-4" d="M18.35,257.46c.38,1.72.82,3.41,1.18,4.69C19.16,260.87,18.73,259.18,18.35,257.46Z"/><path class="cls-4" d="M19.53,262.15c.11.39.21.73.3,1C19.74,262.88,19.63,262.54,19.53,262.15Z"/><path class="cls-4" d="M35.14,281.76c-7.78-7-13-13.16-14.92-17.4,0-.08-.09-.22-.15-.42a4.46,4.46,0,0,0,.16.42C22.15,268.6,27.37,274.71,35.14,281.76Z"/><path class="cls-4" d="M83.4,315.74c28.93,16.43,39.15,20.37,44.64,21.17-5.49-.78-15.66-4.7-44.66-21.17C64.4,305,48.29,293.37,37,283.41,48.3,293.36,64.42,305,83.4,315.74Z"/></g></g></svg>