<?xml version="1.0" encoding="utf-8"?>
<!-- Svg Vector Icons : http://www.onlinewebfonts.com/icon -->
<!DOCTYPE svg PUBLIC "-//W3C//DTD SVG 1.1//EN" "http://www.w3.org/Graphics/SVG/1.1/DTD/svg11.dtd">
<svg version="1.1" xmlns="http://www.w3.org/2000/svg" xmlns:xlink="http://www.w3.org/1999/xlink" x="0px" y="0px" viewBox="0 0 1000 1000" enable-background="new 0 0 1000 1000" xml:space="preserve">
<metadata> Svg Vector Icons : http://www.onlinewebfonts.com/icon </metadata>
<g><g transform="translate(0.000000,511.000000) scale(0.100000,-0.100000)"><path d="M3302.1,4340.8C2256.6,4218.2,1306.8,3638,720.9,2762.9C-6.8,1679.1-100.6,311.8,470-856.3c457.7-936.4,1313.6-1641.1,2313.2-1903.4c287.2-76.6,404-95.8,704.7-116.8c915.3-65.1,1840.2,235.5,2564.1,834.9c88.1,72.8,166.6,130.2,176.2,126.4c9.6-1.9,522.8-392.5,1137.5-865.5c614.7-473,1127.9-863.6,1139.4-865.5c11.5-3.8,174.2,193.4,361.9,434.7c317.9,409.8,340.9,442.3,310.2,471.1c-17.2,19.1-520.8,409.8-1122.1,869.4c-599.4,461.5-1103,848.3-1118.3,863.6c-23,21.1-23,30.6,3.8,70.8c17.2,26.8,69,137.9,116.8,248.9c417.5,978.5,386.8,2073.9-84.3,3029.4c-183.8,375.3-365.7,630-676,946c-578.3,589.8-1340.4,959.4-2167.7,1055.1C3930.2,4363.8,3501.3,4363.8,3302.1,4340.8z M4234.7,3404.4c997.7-191.5,1817.2-938.3,2096.8-1905.3c88.1-302.6,111.1-501.7,99.6-852.1c-15.3-448.1-76.6-698.9-271.9-1101.1c-363.8-752.6-1039.8-1279.2-1888.1-1468.7c-266.2-59.4-794.7-63.2-1060.8-7.7c-540,113-1018.7,369.6-1397.9,748.7c-321.7,323.6-536.2,670.2-668.3,1080c-91.9,287.2-128.3,524.7-128.3,848.3c1.9,428.9,78.5,777.4,252.8,1143.2c425.1,894.3,1237,1457.2,2248.1,1560.6C3664.1,3465.7,4050.9,3440.8,4234.7,3404.4z"/><path d="M3432.4,2833.8c-208.7-105.3-264.3-404-116.8-639.6l55.5-91.9l-72.8-137.9c-67-124.5-135.9-348.5-114.9-367.7c3.8-3.8,59.4,0,122.6,11.5c130.2,21.1,997.7,11.5,1049.4-11.5c78.5-36.4,13.4,252.8-99.6,425.1l-55.5,86.2l55.5,86.2c191.5,302.6,44,674.1-270,674.1c-51.7,0-76.6-7.7-76.6-26.8c0-46,70.9-118.7,151.3-155.1c72.8-32.6,74.7-36.4,49.8-74.7c-34.5-46-38.3-118.7-7.7-137.9c11.5-5.7-3.8-26.8-38.3-47.9c-57.4-34.5-78.5-99.6-40.2-122.5c11.5-5.7,19.2-19.2,19.2-28.7s-36.4,0-80.4,19.2c-113,51.7-233.6,47.9-354.3-9.6l-101.5-46l44,57.5l42.1,59.4l-65.1,55.5c-55.5,46-61.3,59.4-42.1,82.3c21.1,24.9,19.2,42.1-13.4,95.7l-38.3,65.1l76.6,34.5c78.5,34.5,149.4,109.1,149.4,153.2C3660.2,2879.7,3512.8,2875.9,3432.4,2833.8z"/><path d="M2358.1,2268.9c-46-23-109.2-76.6-141.7-114.9c-49.8-63.2-59.4-91.9-65.1-204.9c-9.6-162.8,42.1-287.2,197.2-480.6l105.3-132.1l-51.7-11.5c-178.1-40.2-176.2-38.3-63.2-53.6c57.4-7.7,172.3-30.6,254.7-53.6c136-36.4,149.4-44,137.9-80.4c-5.7-21.1-23-93.8-36.4-158.9c-32.6-147.4-36.4-151.3-111.1-166.6c-38.3-7.7-95.7-47.9-153.2-107.2c-70.9-74.7-99.6-122.5-132.1-231.7c-51.7-170.4-42.1-302.5,38.3-541.9c32.6-93.8,63.2-210.6,70.9-258.5c23-178.1-76.6-298.7-316-379.2c-122.5-42.1-124.5-42.1-49.8-44c222.1,0,473,78.5,555.3,176.2c63.2,74.7,61.3,145.5-11.5,427c-67,262.3-76.6,430.9-30.6,520.9c28.7,55.5,101.5,114.9,118.7,97.7c3.8-3.8,21.1-78.5,38.3-166.6c47.9-233.6,113-423.2,224-653l99.6-201.1v-277.7c1.9-273.8,1.9-279.6,59.4-373.4l57.4-95.7l5.7,68.9l5.7,67l147.5-143.6c82.3-80.4,187.7-166.6,233.6-191.5l86.2-47.9l-126.4,136c-155.1,164.7-250.8,346.6-262.3,499.8l-9.6,107.2l93.8-80.4c103.4-86.2,250.9-164.7,348.5-185.8l61.3-13.4V223.8v1304h-170.4c-195.3,0-419.4-38.3-524.7-88.1c-72.8-34.5-72.8-34.5-262.3,28.7c-224,72.8-337,149.4-396.4,270c-53.6,105.3-55.5,208.7-5.7,304.5c42.1,84.3,178.1,208.7,243.2,224c82.3,21.1,44,46-67,46C2473,2312.9,2417.5,2299.5,2358.1,2268.9z"/><path d="M4904.9,2297.6c0-9.6,19.1-23,44-30.6c65.1-15.3,214.5-153.2,250.8-229.8c68.9-145.5,11.5-335.1-135.9-444.3c-44-34.5-160.9-88.1-260.4-120.6l-180-61.3l-151.3,51.7c-118.7,40.2-203,51.7-384.9,61.3l-235.5,9.6V225.7v-1306l53.6,13.4c103.4,24.9,245.1,101.5,354.3,189.6l109.2,90v-95.7c0-174.3-95.7-361.9-285.3-555.3c-53.6-53.6-90-97.7-86.2-97.7c15.3,0,180,114.9,268.1,185.7c44,36.4,99.6,93.8,124.5,130.2c61.3,88.1,82.3,84.3,69-13.4c-11.5-90-3.8-82.3,76.6,70.9c47.9,90,51.7,111.1,51.7,383c1.9,271.9,5.8,293,55.5,411.7c97.7,222.1,199.2,522.8,226,666.4c13.4,74.7,30.6,137.9,38.3,137.9c30.6,0,74.7-139.8,74.7-239.4c0-59.4-24.9-210.6-57.5-335.1c-74.7-293-74.7-379.1-3.8-444.3c28.7-26.8,80.4-63.2,114.9-82.3c82.3-40.2,294.9-86.2,406-84.2h86.2l-122.6,45.9c-145.5,53.6-206.8,95.8-264.3,181.9c-61.3,88.1-55.5,193.4,23,436.6c84.2,264.3,95.8,337,67,474.9c-42.1,201.1-164.7,381.1-285.3,419.4c-30.6,9.6-40.2,28.7-40.2,76.6c0,34.5-15.3,114.9-36.4,178.1l-34.5,116.8l145.5,38.3c80.4,21.1,193.4,44,250.9,51.7c113,15.3,114.9,13.4-63.2,53.6l-51.7,11.5l103.4,130.2c262.3,323.6,273.8,608.9,34.5,777.5c-67,47.9-105.3,59.4-214.5,65.1C4956.6,2314.8,4904.9,2309.1,4904.9,2297.6z"/><path d="M9087.1-3263.3c-155.1-203-312.1-406-346.6-448.1l-63.2-78.5l176.2-134c225.9-172.3,283.4-199.1,427-212.5c164.7-11.5,304.5,32.6,419.4,132.1c231.7,204.9,268.1,557.2,78.5,777.5c-59.4,70.9-375.3,331.3-400.2,331.3C9374.3-2895.6,9242.2-3062.2,9087.1-3263.3z"/></g></g>
</svg>