<svg viewBox="0 0 144 144" style="background-color:#ffffff00" xmlns="http://www.w3.org/2000/svg" width="144" height="144"><defs><linearGradient id="a" x1="61.6%" y1="5.2%" x2="95%" y2="37.6%"><stop offset="0%"/><stop stop-opacity="0" offset="100%"/></linearGradient><filter id="b" x="-100%" y="-100%" width="300%" height="300%"><feOffset result="out" in="SourceGraphic" dx="2.8" dy="2.8"/><feColorMatrix result="out" in="out" values="0 0 0 0 0 0 0 0 0 0 0 0 0 0 0 0 0 0 0.2 0"/><feGaussianBlur result="out" in="out" stdDeviation="4"/><feBlend in="SourceGraphic" in2="out" result="Sombra1"/></filter><filter id="c" x="-100%" y="-100%" width="300%" height="300%"><feOffset result="out" in="SourceGraphic" dx="2.8" dy="2.8"/><feColorMatrix result="out" in="out" values="0 0 0 0 0 0 0 0 0 0 0 0 0 0 0 0 0 0 0.2 0"/><feGaussianBlur result="out" in="out" stdDeviation="4"/><feBlend in="SourceGraphic" in2="out" result="Sombra2"/></filter></defs><g stroke="#ffffff00"><path d="M2 72C2 33.3 33.3 2 72 2s70 31.3 70 70-31.3 70-70 70S2 110.7 2 72z" fill="#c0ca33"/><path d="M11.5 72c0-33.4 27.1-60.5 60.5-60.5s60.5 27.1 60.5 60.5-27.1 60.5-60.5 60.5S11.5 105.4 11.5 72z" fill="#558b2f"/><path opacity=".2" d="M43.4 103.8L72 132.5s23.9 1.5 44.5-19.1c13.6-13.6 16-35 16-35L94.3 40.2 43.4 59.3l3.1 22.2-3.1 22.3z" fill="url(#a)"/><path filter="url(#b)" d="M40.2 63.1c0 6.6 2 12.7 5.4 17.7l-2.5 22.8 20 8.6-2.6-37h-4.4c-6.2 0-9.6-9.6-9.6-9.6h9.6c6.2 0 12.7 3.2 12.7 3.2v9.6l-2.6 4.9 5.8 4.6 5.8-4.6-2.6-4.9v-9.6s6.5-3.2 12.7-3.2h9.6s-3.4 9.6-9.6 9.6h-4.4l-2.6 37 20-8.6-2.5-22.8c3.4-5 5.4-11.1 5.4-17.7 0-16.2-12.9-31.7-28.6-33.7L72 27.5l-3.2 1.9c-15.7 2-28.6 17.5-28.6 33.7z" fill="#fff"/><path opacity=".1" filter="url(#c)" d="M72 87.9l5.8-4.6-2.6-4.9v-9.6s6.5-3.2 12.7-3.2h9.6s-3.4 9.6-9.6 9.6h-4.4l-2.6 37 20-8.6-2.5-22.8c3.4-5 5.4-11.1 5.4-17.7 0-16.2-12.9-31.7-28.6-33.7L72 27.5v60.4z"/></g></svg>