<?xml version="1.0" encoding="iso-8859-1"?>
<!-- Generator: Adobe Illustrator 19.0.0, SVG Export Plug-In . SVG Version: 6.00 Build 0)  -->
<svg version="1.1" id="Layer_1" xmlns="http://www.w3.org/2000/svg" xmlns:xlink="http://www.w3.org/1999/xlink" x="0px" y="0px"
	 viewBox="0 0 512 512" style="enable-background:new 0 0 512 512;" xml:space="preserve">
<path style="fill:#FFC843;" d="M256.001,512c-23.604,0-50.316-9.492-79.392-28.211c-23.61-15.2-47.608-35.687-69.397-59.247
	c-23.516-25.425-43.421-53.458-57.561-81.069c-17.582-34.327-26.495-67.9-26.495-99.788V70.281C23.157,31.528,54.685,0,93.437,0
	h325.126c38.753,0,70.281,31.528,70.281,70.281v173.404c0,31.888-8.913,65.461-26.494,99.788
	c-14.141,27.611-34.045,55.645-57.561,81.069C385.814,445.059,319.003,512,256.001,512z"/>
<path style="fill:#D49000;" d="M77.382,243.686V70.281c0-8.83,7.226-16.056,16.055-16.056h325.126
	c8.83,0,16.054,7.226,16.054,16.056v173.404c0,98.648-126.164,214.088-178.618,214.088
	C203.547,457.774,77.382,342.334,77.382,243.686z"/>
<path style="fill:#333E48;" d="M256.001,266.254c-39.788,0-72.157-32.37-72.157-72.157s32.369-72.157,72.157-72.157
	c39.787,0,72.157,32.369,72.157,72.157S295.788,266.254,256.001,266.254z M256.001,157.104c-20.399,0-36.994,16.595-36.994,36.994
	s16.595,36.994,36.994,36.994c20.398,0,36.994-16.596,36.994-36.994S276.398,157.104,256.001,157.104z"/>
<path style="opacity:0.2;enable-background:new    ;" d="M326.699,179.63h-36.654c1.898,4.446,2.949,9.337,2.949,14.469
	c0,20.398-16.596,36.994-36.994,36.994c-20.399,0-36.994-16.596-36.994-36.994c0-5.132,1.052-10.021,2.949-14.469h-36.654
	c-0.955,4.676-1.458,9.514-1.458,14.469c0,39.787,32.369,72.157,72.157,72.157c39.787,0,72.157-32.37,72.157-72.157
	C328.158,189.144,327.654,184.306,326.699,179.63z"/>
<path style="fill:#5C6670;" d="M346.093,210.58c0-9.066-7.417-16.483-16.483-16.483H182.39c-9.066,0-16.483,7.417-16.483,16.483
	v111.716c0,9.065,7.417,16.483,16.483,16.483H329.61c9.065,0,16.483-7.417,16.483-16.483L346.093,210.58L346.093,210.58z"/>
<path style="fill:#333E48;" d="M256.001,232.009c-12.34,0-22.343,10.004-22.343,22.343c0,9.426,5.845,17.472,14.102,20.754v30.16
	h16.483v-30.16c8.257-3.282,14.102-11.328,14.102-20.754C278.343,242.012,268.34,232.009,256.001,232.009z"/>
<g>
	<path style="fill:#FFFFFF;" d="M93.437,54.226c-8.83,0-16.055,7.226-16.055,16.056v59.8c41.894,0,75.857-33.962,75.857-75.857
		H93.437z"/>
	<path style="fill:#FFFFFF;" d="M418.563,54.226c8.83,0,16.055,7.226,16.055,16.056v59.8c-41.894,0-75.856-33.962-75.856-75.857
		H418.563z"/>
	<path style="fill:#FFFFFF;" d="M256.001,407.393c-22.813,0-43.258,10.085-57.165,26.023c21.915,15.263,42.443,24.358,57.165,24.358
		c14.72,0,35.249-9.095,57.163-24.358C299.258,417.478,278.814,407.393,256.001,407.393z"/>
</g>
<path style="opacity:0.1;enable-background:new    ;" d="M418.563,54.226H93.437c-8.83,0-16.055,7.226-16.055,16.056v13.054
	c0-8.83,7.226-16.056,16.055-16.056h325.126c8.83,0,16.054,7.226,16.054,16.056V70.282
	C434.618,61.451,427.395,54.226,418.563,54.226z"/>
<g>
</g>
<g>
</g>
<g>
</g>
<g>
</g>
<g>
</g>
<g>
</g>
<g>
</g>
<g>
</g>
<g>
</g>
<g>
</g>
<g>
</g>
<g>
</g>
<g>
</g>
<g>
</g>
<g>
</g>
</svg>
