<?xml version="1.0" encoding="iso-8859-1"?>
<!-- Generator: Adobe Illustrator 19.0.0, SVG Export Plug-In . SVG Version: 6.00 Build 0)  -->
<svg version="1.1" id="Layer_1" xmlns="http://www.w3.org/2000/svg" xmlns:xlink="http://www.w3.org/1999/xlink" x="0px" y="0px"
	 viewBox="0 0 512 512" style="enable-background:new 0 0 512 512;" xml:space="preserve">
<path style="fill:#E04F5F;" d="M256,0C201.824,56.96,122.944,65.816,79.104,65.816c-19.8,0-32.432-1.808-32.432-1.808s0,92,0,224
	S256,512,256,512s209.328-92,209.328-224s0-224,0-224s-12.632,1.808-32.432,1.808C389.056,65.816,310.208,56.96,256,0L256,0z"/>
<path style="fill:#ED6982;" d="M256,512c0,0,209.328-92,209.328-224s0-224,0-224s-12.632,1.808-32.432,1.808
	C389.056,65.816,310.208,56.96,256,0l0,0"/>
<polygon style="fill:#FFFFFF;" points="340.176,134.728 222.8,279.552 173.472,230.832 140.952,266.672 226.608,351.256 
	376.296,166.584 "/>
<g>
</g>
<g>
</g>
<g>
</g>
<g>
</g>
<g>
</g>
<g>
</g>
<g>
</g>
<g>
</g>
<g>
</g>
<g>
</g>
<g>
</g>
<g>
</g>
<g>
</g>
<g>
</g>
<g>
</g>
</svg>
