<?xml version="1.0" encoding="utf-8"?>
<!-- Generator: Adobe Illustrator 18.1.0, SVG Export Plug-In . SVG Version: 6.00 Build 0)  -->
<!DOCTYPE svg PUBLIC "-//W3C//DTD SVG 1.1//EN" "http://www.w3.org/Graphics/SVG/1.1/DTD/svg11.dtd">
<svg version="1.1" id="Layer_1" xmlns="http://www.w3.org/2000/svg" xmlns:xlink="http://www.w3.org/1999/xlink" x="0px" y="0px"
	 viewBox="0 0 127.6 127.3" enable-background="new 0 0 127.6 127.3" xml:space="preserve">
<rect x="-800.7" y="-659.8" fill-rule="evenodd" clip-rule="evenodd" fill="#D19AFD" width="1" height="142"/>
<circle fill-rule="evenodd" clip-rule="evenodd" fill="#434351" stroke="#A64DFF" stroke-width="2" stroke-linecap="round" stroke-linejoin="round" stroke-miterlimit="10" cx="-800.2" cy="-723.8" r="62.5"/>
<circle fill-rule="evenodd" clip-rule="evenodd" fill="#434351" stroke="#4DD2FF" stroke-width="2" stroke-linecap="round" stroke-linejoin="round" stroke-miterlimit="10" cx="-800.2" cy="-183.8" r="62.5"/>
<circle fill-rule="evenodd" clip-rule="evenodd" fill="#434351" stroke="#517CFF" stroke-width="2" stroke-linecap="round" stroke-linejoin="round" stroke-miterlimit="10" cx="-800.2" cy="-453.8" r="62.5"/>
<circle fill-rule="evenodd" clip-rule="evenodd" fill="#434351" stroke="#4DFF7A" stroke-width="2" stroke-linecap="round" stroke-linejoin="round" stroke-miterlimit="10" cx="-800.2" cy="86.2" r="62.5"/>
<rect x="-800.7" y="-389.8" fill-rule="evenodd" clip-rule="evenodd" fill="#91B1FC" width="1" height="142"/>
<rect x="-800.7" y="-659.8" fill-rule="evenodd" clip-rule="evenodd" fill="#A84FFF" width="1" height="142"/>
<rect x="-800.7" y="-119.8" fill-rule="evenodd" clip-rule="evenodd" fill="#52E7FF" width="1" height="142"/>
<rect x="-800.7" y="151.2" fill-rule="evenodd" clip-rule="evenodd" fill="#58FB9C" width="1" height="142"/>
<rect x="-800.7" y="421.2" fill-rule="evenodd" clip-rule="evenodd" fill="#FCFC50" width="1" height="142"/>
<rect x="-800.7" y="683.2" fill-rule="evenodd" clip-rule="evenodd" fill="#F4A250" width="1" height="142"/>
<rect x="-800.7" y="954.2" fill-rule="evenodd" clip-rule="evenodd" fill="#FF8B35" width="1" height="142"/>
<rect x="-800.7" y="1225.2" fill-rule="evenodd" clip-rule="evenodd" fill="#FF0B0B" width="1" height="142"/>
<g>
	<path fill="#BB69FC" d="M-784.4-750c-10.2,0-15.8-6.8-15.8-6.8s-5.6,6.8-15.8,6.8c-9.4,0-15.8-5.6-15.8-5.6v36.7
		c0.3,24.2,31.5,34.2,31.5,34.2s31.5-10,31.5-34.2v-36.7C-768.7-755.6-775-750-784.4-750z"/>
</g>
<g>
	<path fill-rule="evenodd" clip-rule="evenodd" fill="#6A97FC" d="M-798-454.8l-2.5,1.7l-5.2-2.9L-798-454.8z M-797-416.2l-2.6-14
		l-5.5-8.6l1.2-8.1l-7.7-4.7l-5.5-2.2l-5.4-10.4c0,0,1.7-7.4,2.2-7.6c0.5-0.2-0.3-6-0.3-6l-9.4,1.7l-0.1-0.3c1.6-2.1,3.3-4,5.3-5.7
		c2.6-1.6,5.1-3,5-2.7c-0.2,0.5,10.6,1.5,10.6,1.5l5.7-2.5l10.1-1.3l4.4-2.4h1c5.2,1.7,9.9,4.6,13.8,8.2l-3.3,1l-1.9,2.5l-2.2-0.5
		l0.5-6.4l-3.9-2.5l-4.7,1.9l3.9,2.5l-1.7,2.5h-2.9l-3-1.2l-7.7,3.9l3,2.4l4.2-3h5.4l2,4.9l-6.7,4.4l-6.4,4.2l-3.5,3.7l-0.2,3.4
		l-5.7-2.5l-4,2l1.3,4.5l3.7-1.5l4.5,7.1l4.9-2.2l10.4,5.5l8.2,6.7l-3.4,8.4c0,0-7.2,10.6-7,9.9c0.1-0.4-0.9,1.5-1.7,3
		C-793.8-416.5-795.4-416.3-797-416.2z M-763.5-445.1c-2.2-0.2-4.1-0.4-4.1-0.4l-3.9-10.4l6.6-8.1l-1.8-4l1.1-0.9
		c2,4.6,3.2,9.8,3.2,15.2C-762.4-450.8-762.8-447.9-763.5-445.1z M-800.2-494.3c-22.3,0-40.5,18.2-40.5,40.5
		c0,22.3,18.2,40.5,40.5,40.5c22.3,0,40.5-18.2,40.5-40.5C-759.7-476.1-777.8-494.3-800.2-494.3z"/>
</g>
<g>
	<g>
		<path fill="#5DD5FD" d="M-799.7-182.3l39-19.5v-1.8c0-1.8-1.4-3.2-3.1-3.2h-71.7c-1.7,0-3.1,1.4-3.1,3.2v1.8L-799.7-182.3z"/>
	</g>
	<g>
		<path fill="#5DD5FD" d="M-798.7-177.9c-0.3,0.2-0.6,0.2-1,0.2c-0.3,0-0.7-0.1-1-0.2l-38-19v33.9c0,1.7,1.4,3.2,3.1,3.2h71.7
			c1.7,0,3.1-1.4,3.1-3.2v-33.9L-798.7-177.9z"/>
	</g>
</g>
<linearGradient id="SVGID_1_" gradientUnits="userSpaceOnUse" x1="-781.889" y1="74.216" x2="-822.0756" y2="114.6393">
	<stop  offset="0" style="stop-color:#5FFA9E"/>
	<stop  offset="1" style="stop-color:#34D57C"/>
</linearGradient>
<path fill-rule="evenodd" clip-rule="evenodd" fill="url(#SVGID_1_)" d="M-805.5,112.7l-8.3-9.2l4.7-4.1l3.6,4.1l16.2-15.1l4.6,5.3
	L-805.5,112.7z M-811.5,65.4c0-3.4,1.1-11.5,11.6-11.5c10.5,0,11.6,8,11.6,11.5v15.4h-23.2V65.4L-811.5,65.4z M-774.7,80.8h-5.8
	V65.4c0-1.7-0.3-6.1-2.6-10.3c-2.3-4-7-8.8-16.8-8.8c-9.7,0-14.5,4.8-16.8,8.8c-2.4,4.2-2.6,8.6-2.6,10.3v15.4h-4.4
	c-2.2,0-4,1.8-4,4v31.5c0,2.2,1.8,4,4,4h49c2.2,0,4-1.8,4-4V84.8C-770.7,82.6-772.5,80.8-774.7,80.8z"/>
<circle fill-rule="evenodd" clip-rule="evenodd" fill="#434351" stroke="#FFB255" stroke-width="2" stroke-linecap="round" stroke-linejoin="round" stroke-miterlimit="10" cx="-799.2" cy="619.7" r="62.5"/>
<g>
	<g>
		<g>
			<path fill="#F4964A" d="M-761.8,619.4c0-16.9-11.3-31.1-26.8-35l5.5,5.5l-7.6,7.7c9.3,2.8,15.6,11.5,15.6,21.8
				c0,10.7-7.3,19.7-17.7,22.2v-7.4l-17.3,14.8l17.3,14.8v-8.5C-775.7,652.5-761.8,637.5-761.8,619.4z"/>
			<path fill="#F4964A" d="M-806.8,641.1c-9.2-2.8-16.5-11.5-16.5-21.8c0-10.5,6-19.4,16.4-22v8.5l17.3-16l-17.3-13.5v7.4
				c-17.1,2.8-29.6,17.7-29.6,35.6c0,16.9,11.9,31.1,27.3,35l-5.3-5.5L-806.8,641.1z"/>
		</g>
	</g>
</g>
<circle fill-rule="evenodd" clip-rule="evenodd" fill="#434351" stroke="#FF0000" stroke-width="2" stroke-linecap="round" stroke-linejoin="round" stroke-miterlimit="10" cx="-799.2" cy="1160.7" r="62.5"/>
<g>
	<path fill="#FF3939" d="M-809.9,1143c4.4,0,7.9,3.5,7.9,7.9c0,4.4-3.6,7.9-8,7.9c-4.4,0-7.9-3.5-7.9-7.9
		C-817.8,1146.5-814.2,1143-809.9,1143z"/>
	<path fill-rule="evenodd" clip-rule="evenodd" fill="#FF3939" d="M-816.2,1138.5c6.9-3.5,15.4-0.8,18.9,6
		c3.5,6.8,0.7,15.3-6.2,18.8c-7,3.6-15.4,0.8-18.9-6C-826,1150.4-823.2,1142-816.2,1138.5z M-834.1,1163.2c0.7,1.3,1.4,2.5,2.2,3.6
		l6.5-0.6c1,1,2.1,1.9,3.3,2.7l0.4,6.3c2.4,1.1,4.9,1.9,7.5,2.3l4.1-4.9l0.2,0c1.3,0,2.6-0.1,3.8-0.3l4.7,4.1
		c1.2-0.4,2.5-0.9,3.7-1.6c1.2-0.6,2.4-1.3,3.4-2.1l-0.5-6c1.1-1,2-2.1,2.9-3.2l6.1-0.5c1.2-2.3,2-4.8,2.5-7.4l-4.4-3.7
		c0-0.4,0.1-0.8,0.1-1.2c0-1.3-0.1-2.5-0.3-3.8l3.8-4.4c-0.4-1.3-1-2.6-1.6-3.9c-0.5-1-1.1-1.9-1.7-2.8l-5.7,0.5
		c-1.3-1.4-2.7-2.7-4.3-3.7l-0.4-5.7c-2.2-1.1-4.5-1.8-6.8-2.2l-3.8,4.4c-0.4,0-0.8-0.1-1.2-0.1c-1.6,0-3.2,0.2-4.8,0.5l-4.4-3.8
		c-1.1,0.4-2.2,0.9-3.3,1.4c-1.1,0.6-2.1,1.2-3.1,1.8l0.5,6c-1.4,1.3-2.6,2.7-3.6,4.3l-6.1,0.5c-1,2.2-1.8,4.5-2.2,6.8l4.8,4l0,0.2
		c0,1.6,0.1,3.2,0.5,4.8l-4.2,4.7C-835.1,1161.2-834.6,1162.2-834.1,1163.2z"/>
	<path fill="#FF3939" d="M-777.8,1174c2.6,0,4.7,2.1,4.7,4.7c0,2.6-2.1,4.7-4.8,4.7c-2.6,0-4.7-2.1-4.7-4.7
		C-782.6,1176.1-780.4,1174-777.8,1174z"/>
	<path fill-rule="evenodd" clip-rule="evenodd" fill="#FF3939" d="M-777,1187c-4.6,0.5-8.7-2.9-9.2-7.4c-0.5-4.6,2.9-8.7,7.5-9.1
		c4.6-0.5,8.7,2.8,9.2,7.4C-769.1,1182.4-772.4,1186.5-777,1187z M-769.3,1165.2l-3,1.7c-0.2-0.1-0.4-0.2-0.6-0.3
		c-0.9-0.3-1.8-0.6-2.8-0.7l-1.6-3.1c-0.7,0-1.4,0-2.1,0.1c-0.7,0.1-1.4,0.2-2.1,0.4l-1,3.4c-1,0.4-2,1-2.9,1.7l-3.5-1.1
		c-1,1-1.9,2.1-2.7,3.4l1.8,3.3l0,0.1c-0.4,0.9-0.6,1.8-0.8,2.8l-3.3,1.7c0,0.6,0,1.3,0.1,1.9c0.1,0.9,0.2,1.7,0.4,2.5l3.7,1.1
		c0.3,0.8,0.8,1.5,1.2,2.2l-1.1,3.6c1.1,1.1,2.3,2.1,3.6,2.9l3.3-1.8l0.1,0.1c0.7,0.3,1.4,0.5,2.2,0.6l1.7,3.3c0.8,0,1.6,0,2.4-0.1
		c0.8-0.1,1.6-0.2,2.3-0.4l1-3.5c0.8-0.3,1.5-0.7,2.3-1.2l3.5,1c1.2-1,2.2-2.2,3-3.6l-1.7-3c0.1-0.2,0.2-0.4,0.3-0.7
		c0.3-0.7,0.5-1.5,0.6-2.2l3.1-1.6c0-0.8,0-1.7-0.1-2.5c-0.1-0.7-0.2-1.3-0.3-1.9l-3.2-0.9c-0.4-1.1-0.9-2.1-1.6-3l1-3.3
		C-767,1166.9-768.1,1166-769.3,1165.2z"/>
</g>
<circle fill-rule="evenodd" clip-rule="evenodd" fill="#434351" stroke="#FF8CDE" stroke-width="2" stroke-linecap="round" stroke-linejoin="round" stroke-miterlimit="10" cx="-799.2" cy="1430.7" r="62.5"/>
<g>
	<g>
		<path fill="#FF4DFF" d="M-809.2,1418c-0.8,5.5-1.3,11.1-1.3,16.7c0.8,0.2,1.5,0.4,2.2,0.8c7.1-5.5,14.8-9.5,22.9-12
			c0.1-0.5,0.2-0.9,0.3-1.4c-5.7-3.8-11.8-6.7-18-8.5C-804.4,1415.8-806.6,1417.5-809.2,1418z"/>
		<path fill="#FF4DFF" d="M-805.5,1401.5c2.1,1.6,3.5,4.1,3.7,6.9c6.9,2,13.6,5.1,19.9,9.3c1.6-1.2,3.5-2,5.7-2c3.6,0,6.6,2,8.2,5
			c0.6,0,1.2,0,1.9,0c1.4,0,2.9,0.1,4.3,0.2c-4.4-16.4-19.5-28.6-37.3-28.6c-1.1,0-2.1,0-3.2,0.1
			C-803.5,1395.3-804.6,1398.4-805.5,1401.5z"/>
		<path fill="#FF4DFF" d="M-767.1,1426c-0.1,1.2-0.5,2.4-1.1,3.4c2.5,2.6,4.8,5.4,7,8.4c0.4-2.2,0.6-4.5,0.6-6.9
			c0-1.6-0.1-3.1-0.3-4.6c-1.8-0.2-3.6-0.3-5.4-0.3C-766.5,1426-766.8,1426-767.1,1426z"/>
		<path fill="#FF4DFF" d="M-819.9,1405.9c1.2-3.7,4.7-6.3,8.8-6.3c0.2,0,0.4,0,0.6,0c0.6-2.1,1.3-4.2,2.1-6.3
			c-8.3,2.1-15.5,6.8-20.7,13.2C-826.1,1406.1-823,1405.9-819.9,1405.9z"/>
		<path fill="#FF4DFF" d="M-772,1433.3c-1.3,0.7-2.7,1.1-4.3,1.1c-3.7,0-6.9-2.2-8.4-5.4c-6.9,2.2-13.6,5.7-19.7,10.3
			c0.8,1.3,1.2,2.9,1.2,4.6c0,4.1-2.6,7.5-6.2,8.8c0.8,5.6,1.9,11.1,3.5,16.5c2.2,0.4,4.5,0.6,6.8,0.6c16.5,0,30.7-10.5,36.2-25.2
			C-765.8,1440.4-768.8,1436.7-772,1433.3z"/>
		<path fill="#FF4DFF" d="M-820.9,1447.6c-0.5-1.2-0.8-2.4-0.8-3.8c0-3.9,2.4-7.2,5.8-8.6c0-6,0.5-11.9,1.3-17.7
			c-2.7-1.1-4.8-3.4-5.5-6.2c-4.4,0-8.9,0.6-13.2,1.6c-2.9,5.4-4.5,11.6-4.5,18.1c0,9.9,3.7,19,9.9,25.9
			C-825.7,1453.5-823.4,1450.4-820.9,1447.6z"/>
		<path fill="#FF4DFF" d="M-817.4,1451.7c-2.3,2.8-4.5,5.8-6.6,8.9c3.5,3,7.6,5.3,12,6.9c-1.2-4.8-2.2-9.7-2.9-14.7
			C-815.7,1452.6-816.6,1452.2-817.4,1451.7z"/>
	</g>
</g>
<circle fill-rule="evenodd" clip-rule="evenodd" fill="#434351" stroke="#FF842C" stroke-width="2" stroke-linecap="round" stroke-linejoin="round" stroke-miterlimit="10" cx="-799.2" cy="889.7" r="62.5"/>
<g>
	<path fill="#FF711C" d="M-797.7,908.2c-2.3,0-4.2,1.9-4.2,4.2c0,2.3,1.9,4.2,4.2,4.2s4.2-1.9,4.2-4.2
		C-793.5,910-795.4,908.2-797.7,908.2z"/>
	<path fill-rule="evenodd" clip-rule="evenodd" fill="#FF711C" d="M-797.7,919.2c-3.7,0-6.7-2.7-7.2-6.2l2-24.6h2.9v-5.1h4.3v5.1
		h3.2l2,24.9C-791,916.8-794,919.2-797.7,919.2z M-802.2,862.3h3.6v2.2h-3.6V862.3z M-797.8,879v2.2h-3.6V879H-797.8z M-797.8,872.5
		h-3.6v-2.2h3.6V872.5z M-794.2,874.6v2.2h-3.6v-2.2H-794.2z M-797.8,866h3.6v2.2h-3.6V866z M-776.9,858h-43.3
		c-6,0-10.8,4.9-10.8,10.9v43.5c0,6,4.8,10.9,10.8,10.9h43.3c6,0,10.8-4.9,10.8-10.9v-43.5C-766.1,862.8-770.9,858-776.9,858z"/>
</g>
<rect x="-801.2" y="861.3" fill-rule="evenodd" clip-rule="evenodd" fill="#434351" width="4.9" height="3.7"/>
<rect x="-796.3" y="865" fill-rule="evenodd" clip-rule="evenodd" fill="#434351" width="4.9" height="3.7"/>
<rect x="-801.2" y="868.6" fill-rule="evenodd" clip-rule="evenodd" fill="#434351" width="4.9" height="3.7"/>
<rect x="-796.3" y="872.3" fill-rule="evenodd" clip-rule="evenodd" fill="#434351" width="4.9" height="3.7"/>
<rect x="-796.3" y="876" fill-rule="evenodd" clip-rule="evenodd" fill="#FF711C" width="4.9" height="3.7"/>
<rect x="-801.2" y="879.7" fill-rule="evenodd" clip-rule="evenodd" fill="#FF711C" width="4.9" height="2.5"/>
<rect x="-801.2" y="876" fill-rule="evenodd" clip-rule="evenodd" fill="#434351" width="4.9" height="3.7"/>
<circle fill-rule="evenodd" clip-rule="evenodd" fill="#434351" stroke="#FFFF4D" stroke-width="2" stroke-linecap="round" stroke-linejoin="round" stroke-miterlimit="10" cx="-800.2" cy="356.2" r="62.5"/>
<polygon fill="#FEFE84" points="-767.7,389.2 -767.7,389.2 -767.7,323.5 -790.9,316.7 -832.6,332.6 -832.7,332.6 -832.7,380.1 
	-818.4,374.4 -818.4,335.8 -790.9,329.2 -790.9,385.9 -832.6,380.1 -790.9,395.7 -790.9,395.7 -767.7,389.2 -767.7,389.2 "/>
<circle fill-rule="evenodd" clip-rule="evenodd" fill="#434351" stroke="#A64DFF" stroke-width="2" stroke-linecap="round" stroke-linejoin="round" stroke-miterlimit="10" cx="63.8" cy="63.7" r="62.5"/>
<g>
	<path fill="#BB69FC" d="M79.6,37.5c-10.2,0-15.8-6.8-15.8-6.8s-5.5,6.8-15.8,6.8c-9.4,0-15.8-5.6-15.8-5.6v36.7
		c0.3,24.2,31.5,34.2,31.5,34.2s31.5-10,31.5-34.2V31.9C95.3,31.9,89,37.5,79.6,37.5z"/>
</g>
</svg>
