<?xml version="1.0" encoding="utf-8"?>
<!-- Generator: Adobe Illustrator 16.0.0, SVG Export Plug-In . SVG Version: 6.00 Build 0)  -->
<!DOCTYPE svg PUBLIC "-//W3C//DTD SVG 1.1//EN" "http://www.w3.org/Graphics/SVG/1.1/DTD/svg11.dtd">
<svg version="1.1" id="Layer_1" xmlns="http://www.w3.org/2000/svg" xmlns:xlink="http://www.w3.org/1999/xlink" x="0px" y="0px"
	 width="118px" height="48px" viewBox="0 0 118 48" enable-background="new 0 0 118 48" xml:space="preserve">
<g>
	<g>
		<path d="M31.89,22.174h6.599c1.995,0,3.417,0.375,4.271,1.126c0.853,0.751,1.28,1.997,1.28,3.737v8.419h-3.508v-7.988
			c0-0.992-0.154-1.636-0.462-1.934c-0.308-0.295-0.925-0.442-1.854-0.442h-2.818v10.364H31.89V22.174z"/>
		<path d="M52.941,35.456c-2.199,0-3.864-0.559-4.992-1.68c-1.129-1.118-1.693-2.771-1.693-4.954c0-2.185,0.567-3.837,1.699-4.962
			c1.132-1.124,2.794-1.686,4.985-1.686h5.122v2.769H53.42c-1.272,0-2.128,0.182-2.566,0.543c-0.439,0.36-0.675,1.013-0.708,1.955
			h7.915v2.771h-7.915c0.033,0.952,0.252,1.602,0.659,1.951c0.407,0.35,1.27,0.523,2.592,0.523h4.665v2.769H52.941z"/>
		<path d="M60.304,22.174H66.2c1.38,0,2.346,0.249,2.898,0.745c0.554,0.496,0.83,1.365,0.83,2.603v2.216H66.58v-1.712
			c0-0.518-0.093-0.864-0.275-1.038c-0.185-0.177-0.605-0.266-1.263-0.266h-1.23v10.735h-3.51V22.174H60.304z"/>
		<path d="M84.617,34.977c0,1.821-0.406,3.16-1.22,4.013c-0.813,0.854-2.08,1.281-3.803,1.281h-6.882v-2.696h6.279
			c0.673,0,1.19-0.162,1.55-0.486c0.36-0.324,0.541-0.795,0.541-1.409v-0.223h-2.855c-1.478,0-2.539-0.11-3.188-0.331
			c-0.648-0.222-1.249-0.599-1.798-1.133c-0.633-0.599-1.116-1.346-1.459-2.241c-0.34-0.894-0.51-1.862-0.51-2.905
			c0-1.024,0.17-1.982,0.51-2.873c0.343-0.89,0.826-1.636,1.459-2.235c0.566-0.559,1.231-0.959,1.995-1.201
			c0.765-0.242,1.762-0.363,2.991-0.363h6.389V34.977L84.617,34.977z M79.262,32.713h1.821v-7.695h-1.821
			c-0.879,0-1.494,0.033-1.847,0.099c-0.354,0.066-0.662,0.177-0.924,0.331c-0.543,0.329-0.938,0.762-1.188,1.3
			c-0.252,0.536-0.375,1.236-0.375,2.097c0,1.42,0.315,2.421,0.947,2.998C76.508,32.42,77.636,32.713,79.262,32.713z"/>
		<path d="M99.56,35.456h-6.61c-1.945,0-3.352-0.384-4.216-1.156c-0.865-0.771-1.299-2.006-1.299-3.704v-8.42h3.496v8.137
			c0,0.886,0.156,1.478,0.462,1.771c0.308,0.296,0.921,0.443,1.842,0.443h2.818V22.175h3.509v13.281H99.56z"/>
	</g>
	<g>
		<path fill="#981D20" d="M107.016,26.063l-6.354-9.397h4.628l3.875,5.932l3.846-5.932h4.564l-6.047,9.127l6.48,9.665h-4.729
			l-3.951-6.544l-4.192,6.544h-4.692L107.016,26.063z"/>
	</g>
	
		<linearGradient id="SVGID_1_" gradientUnits="userSpaceOnUse" x1="354.4229" y1="-236.502" x2="380.2246" y2="-236.502" gradientTransform="matrix(1 0 0 -1 -353.46 -224.6602)">
		<stop  offset="0" style="stop-color:#D4E5BD"/>
		<stop  offset="0.3763" style="stop-color:#6EBF4B"/>
		<stop  offset="1" style="stop-color:#128A7E"/>
	</linearGradient>
	<path fill="url(#SVGID_1_)" d="M26.738,4.508c0,0,0.849,7.277-7.029,11.878c-5.606,3.275-14.788,3.757-17.939,0.969
		c-1.456-0.363-0.81-3.005,0.887-3.488c2.656,0.913,6.264,1.308,11.251-0.511C20.771,10.853,26.738,4.508,26.738,4.508z"/>
	
		<linearGradient id="SVGID_2_" gradientUnits="userSpaceOnUse" x1="400.6016" y1="-184.7422" x2="431.5332" y2="-184.7422" gradientTransform="matrix(0.9893 0.1456 0.1456 -0.9893 -368.9302 -223.1945)">
		<stop  offset="0" style="stop-color:#D4E5BD"/>
		<stop  offset="0.3763" style="stop-color:#6EBF4B"/>
		<stop  offset="1" style="stop-color:#128A7E"/>
	</linearGradient>
	<path fill="url(#SVGID_2_)" d="M32.436,13.236c0,0-1.739,12.605-15.516,14.82C6.458,29.738,3.586,26.933,1.526,25.598
		c-2.062-1.334-2.293-4.264-0.542-4.496c2.494,1.291,10.5,2.785,16.711,1.303C25.647,20.509,32.436,13.236,32.436,13.236z"/>
	
		<linearGradient id="SVGID_3_" gradientUnits="userSpaceOnUse" x1="355.5918" y1="-257.835" x2="379.1074" y2="-257.835" gradientTransform="matrix(1 0 0 -1 -353.46 -224.6602)">
		<stop  offset="0" style="stop-color:#D4E5BD"/>
		<stop  offset="0.3763" style="stop-color:#6EBF4B"/>
		<stop  offset="1" style="stop-color:#128A7E"/>
	</linearGradient>
	<path fill="url(#SVGID_3_)" d="M25.647,29.721c0,0-2.95,6.908-12.364,6.908c-9.415,0-11.151-6.908-11.151-6.908
		s4.802,3.49,11.267,3.472C20.112,33.175,25.647,29.721,25.647,29.721z"/>
</g>
</svg>
