<?xml version="1.0" encoding="utf-8"?>
<!-- Generator: Adobe Illustrator 16.0.0, SVG Export Plug-In . SVG Version: 6.00 Build 0)  -->
<!DOCTYPE svg PUBLIC "-//W3C//DTD SVG 1.1//EN" "http://www.w3.org/Graphics/SVG/1.1/DTD/svg11.dtd">
<svg version="1.1" id="Layer_1" xmlns="http://www.w3.org/2000/svg" xmlns:xlink="http://www.w3.org/1999/xlink" x="0px" y="0px"
	 width="115px" height="48px" viewBox="0 0 115 48" enable-background="new 0 0 115 48" xml:space="preserve">
<g>
	<g>
		<path fill="#949694" d="M16.793,12.826l-2.929,22.135H5.121L1.795,12.826h6.07c0.706,6.097,1.209,11.256,1.511,15.477
			c0.297-4.266,0.613-8.052,0.947-11.36l0.4-4.116H16.793z"/>
		<path fill="#949694" d="M23.52,12.826v22.135h-5.756V12.826H23.52z"/>
		<path fill="#949694" d="M38.682,12.826v22.135h-5.045l-2.994-10.063v10.063H25.83V12.826h4.813l3.227,9.967v-9.967H38.682z"/>
		<path fill="#949694" d="M40.992,12.826h4.307c2.78,0,4.66,0.128,5.64,0.383c0.979,0.255,1.725,0.675,2.235,1.258
			c0.511,0.583,0.829,1.233,0.957,1.948c0.128,0.716,0.191,2.122,0.191,4.218v7.752c0,1.987-0.094,3.315-0.28,3.985
			s-0.513,1.194-0.978,1.572s-1.039,0.643-1.723,0.793s-1.714,0.226-3.09,0.226h-7.26V12.826z M46.748,16.613v14.561
			c0.829,0,1.34-0.166,1.531-0.499s0.287-1.237,0.287-2.714v-8.6c0-1.002-0.032-1.645-0.096-1.928
			c-0.064-0.282-0.21-0.49-0.438-0.622C47.805,16.68,47.377,16.613,46.748,16.613z"/>
	</g>
</g>
<g>
	<path fill="#949694" d="M98.256,25.787c0,2.225-0.053,3.799-0.157,4.724s-0.433,1.771-0.984,2.536s-1.297,1.354-2.235,1.764
		s-2.032,0.615-3.281,0.615c-1.185,0-2.249-0.193-3.192-0.581s-1.702-0.968-2.276-1.743c-0.574-0.774-0.916-1.617-1.025-2.529
		c-0.109-0.911-0.164-2.506-0.164-4.785V22c0-2.224,0.053-3.798,0.157-4.724c0.104-0.925,0.433-1.771,0.984-2.536
		s1.297-1.354,2.235-1.764s2.032-0.615,3.281-0.615c1.185,0,2.249,0.194,3.192,0.581c0.943,0.388,1.702,0.969,2.276,1.743
		c0.574,0.775,0.916,1.618,1.025,2.529c0.109,0.912,0.164,2.507,0.164,4.785V25.787z M92.5,18.514c0-1.03-0.057-1.688-0.171-1.976
		s-0.349-0.431-0.704-0.431c-0.301,0-0.531,0.116-0.69,0.349s-0.239,0.918-0.239,2.058V28.85c0,1.285,0.053,2.078,0.157,2.379
		s0.349,0.451,0.731,0.451c0.392,0,0.643-0.173,0.752-0.52c0.109-0.346,0.164-1.171,0.164-2.475V18.514z"/>
	<path fill="#949694" d="M100.402,12.826h4.074c2.716,0,4.555,0.105,5.517,0.314c0.962,0.21,1.745,0.745,2.352,1.606
		s0.909,2.235,0.909,4.122c0,1.723-0.214,2.88-0.643,3.473c-0.429,0.593-1.271,0.948-2.529,1.066
		c1.14,0.283,1.905,0.661,2.297,1.135c0.392,0.475,0.636,0.909,0.731,1.306s0.144,1.488,0.144,3.274v5.838h-5.346v-7.355
		c0-1.185-0.094-1.918-0.28-2.201c-0.187-0.282-0.677-0.424-1.47-0.424v9.98h-5.756V12.826z M106.158,16.613v4.922
		c0.647,0,1.101-0.089,1.36-0.267s0.39-0.754,0.39-1.729v-1.217c0-0.702-0.125-1.162-0.376-1.381S106.823,16.613,106.158,16.613z"/>
</g>
<g>
	<path fill="#949694" d="M70.004,10.348c7.625,0,13.807,6.181,13.807,13.806s-6.182,13.807-13.807,13.807l1.943-6.678l-1.943-7.22
		l-2.166-6.905L70.004,10.348z"/>
	<path fill="#1D4588" d="M70.012,10.348c-7.625,0-13.807,6.181-13.807,13.806s6.182,13.807,13.807,13.807l1.943-6.678l-1.943-7.22
		l-2.182-6.905L70.012,10.348z"/>
</g>
<g>
	<g>
		<path fill="#FFFFFF" d="M76.98,19.07h-6.109v-1.875c0-0.875-0.078-1.432-0.234-1.672c-0.156-0.239-0.416-0.359-0.781-0.359
			c-0.396,0-0.695,0.162-0.898,0.485s-0.305,0.813-0.305,1.47c0,0.844,0.115,1.48,0.344,1.908c0.217,0.427,0.836,0.943,1.857,1.546
			c2.93,1.738,4.773,3.165,5.533,4.279c0.76,1.115,1.141,2.912,1.141,5.391c0,1.803-0.211,3.131-0.633,3.984
			c-0.422,0.854-1.236,1.57-2.445,2.148c-1.063,0.509-2.28,0.793-3.65,0.854c-0.187,0.009-0.376,0.013-0.568,0.013
			c-0.431,0-0.847-0.02-1.247-0.061c-1.233-0.123-2.321-0.436-3.261-0.939c-1.244-0.666-2.061-1.516-2.445-2.547
			s-0.578-2.494-0.578-4.391v-1.656h6.109v3.078c0,0.948,0.086,1.558,0.258,1.828c0.172,0.271,0.477,0.406,0.914,0.406
			s0.764-0.172,0.977-0.516s0.32-0.854,0.32-1.531c0-1.489-0.203-2.463-0.609-2.922c-0.416-0.458-1.443-1.224-3.078-2.297
			c-1.635-1.083-2.719-1.87-3.25-2.359c-0.531-0.489-0.971-1.167-1.32-2.031c-0.35-0.864-0.523-1.969-0.523-3.313
			c0-1.938,0.248-3.354,0.742-4.25c0.494-0.896,1.295-1.596,2.398-2.102c1.104-0.505,2.438-0.758,4-0.758
			c1.709,0,3.164,0.276,4.367,0.828c1.203,0.552,2,1.248,2.391,2.086c0.391,0.839,0.586,2.263,0.586,4.273V19.07z"/>
	</g>
	<rect x="68.955" y="36.523" fill="#FFFFFF" width="2" height="1.641"/>
	<rect x="68.955" y="10.063" fill="#FFFFFF" width="2" height="1.641"/>
</g>
<g>
</g>
<g>
</g>
<g>
</g>
<g>
</g>
<g>
</g>
<g>
</g>
</svg>
