<?xml version="1.0" encoding="utf-8"?>
<!-- Generator: Adobe Illustrator 16.0.0, SVG Export Plug-In . SVG Version: 6.00 Build 0)  -->
<!DOCTYPE svg PUBLIC "-//W3C//DTD SVG 1.1//EN" "http://www.w3.org/Graphics/SVG/1.1/DTD/svg11.dtd">
<svg version="1.1" id="Layer_1" xmlns="http://www.w3.org/2000/svg" xmlns:xlink="http://www.w3.org/1999/xlink" x="0px" y="0px"
	 width="159px" height="48px" viewBox="0 0 159 48" enable-background="new 0 0 159 48" xml:space="preserve">
<g>
	<g>
		
			<path fill="#95ACBC" stroke="#94ACBC" stroke-width="0.4564" stroke-linecap="round" stroke-linejoin="round" stroke-miterlimit="10" d="
			M42.822,47.392c1.193-11.888,6.997-17.17,8.519-29.208C45.941,27.141,42.289,37.507,42.822,47.392z"/>
		
			<path fill="#95ACBC" stroke="#94ACBC" stroke-width="0.4564" stroke-linecap="round" stroke-linejoin="round" stroke-miterlimit="10" d="
			M15.438,16.74c2.661,0.608,4.626,9.36,5.871,12.863c1.813,5.107,3.485,10.719,2.267,17.789
			C22.741,36.287,15.057,27.769,15.438,16.74z"/>
		
			<path fill="#95ACBC" stroke="#94ACBC" stroke-width="0.4564" stroke-linecap="round" stroke-linejoin="round" stroke-miterlimit="10" d="
			M12.69,19.782c11.495,1.064,14.803-3.804,20.585-3.88c4.882-0.065,16.239,6.085,19.967,4.336c-6.532-1-15.118-5.848-19.997-5.848
			C28.987,14.391,23.178,18.184,12.69,19.782z"/>
		
			<path fill="#95ACBC" stroke="#94ACBC" stroke-width="0.4564" stroke-linecap="round" stroke-linejoin="round" stroke-miterlimit="10" d="
			M20.609,42.449c6.733,0.799,9.613-1.733,12.277-1.733c3.384,0,9.251,3.367,12.295,2.075c-4.186-0.876-9.519-3.233-12.295-3.233
			C30.109,39.558,23.197,41.322,20.609,42.449z"/>
		
			<path fill="#95ACBC" stroke="#94ACBC" stroke-width="0.4564" stroke-linecap="round" stroke-linejoin="round" stroke-miterlimit="10" d="
			M32.841,48c0,0,2.107-23.85,1.148-31.527c-0.193-1.543-2.109-1.486-2.276-0.285C30.736,23.204,32.841,48,32.841,48z"/>
		<path fill="#174990" d="M48.05,17.471c-2.425-2.14-4.51-5.728-5.331-7.244h1.822V9.769h-2.064
			c-0.085-0.163-0.131-0.257-0.131-0.257l-0.103-0.04l-0.791-1.747h-0.174l0.085,1.411l-4.522-1.734c0,0-1.74-1.341-1.769-2.082
			c-0.027-0.742,0.705-0.771,0.686-1.456c-0.03-0.998-1.52-0.969-1.52-0.969s-0.077-0.653-0.815-0.852c0-0.021,0-0.044,0-0.062
			c-0.086,0-0.154,0.013-0.228,0.023c-0.075-0.01-0.144-0.023-0.229-0.023c0,0.018,0,0.041,0,0.062
			c-0.739,0.199-0.816,0.852-0.816,0.852s-1.49-0.029-1.518,0.969c-0.021,0.685,0.712,0.713,0.684,1.456
			c-0.027,0.741-1.769,2.082-1.769,2.082l-4.065,1.734l0.085-1.411h-0.174l-0.733,1.417l-0.104,0.04c0,0-0.045,0.092-0.132,0.256
			H22.36v0.457h1.823c-0.821,1.518-2.171,4.705-4.598,6.845c2.269-0.308,9.38-3.565,13.603-3.899
			C37.45,13.192,45.781,17.163,48.05,17.471z"/>
	</g>
	<g>
		<path fill="#154A91" d="M59.062,33.156v7.563c0,0.318,0.058,0.562,0.174,0.73c0.116,0.169,0.313,0.3,0.594,0.392v0.492h-5.111
			v-0.492c0.288-0.103,0.488-0.235,0.6-0.399c0.112-0.164,0.168-0.404,0.168-0.723V22.965c0-0.318-0.056-0.559-0.168-0.723
			c-0.112-0.164-0.312-0.297-0.6-0.399v-0.492h14.494c0.24,0,0.424-0.071,0.552-0.212s0.232-0.398,0.312-0.772h0.384v5.427h-0.384
			c-0.08-0.375-0.184-0.633-0.312-0.773s-0.312-0.211-0.552-0.211h-10.15v5.012h6.635c0.248,0,0.436-0.073,0.563-0.22
			s0.232-0.401,0.312-0.765h0.384v5.304h-0.384c-0.08-0.364-0.184-0.619-0.312-0.766c-0.128-0.146-0.316-0.219-0.563-0.219H59.062z"
			/>
	</g>
	<g>
		<path fill="#154A91" d="M78.072,38.589h-5.536l-0.82,2.066c-0.113,0.287-0.17,0.513-0.17,0.678c0,0.316,0.199,0.535,0.597,0.656
			v0.345h-4.029v-0.345c0.238-0.057,0.419-0.157,0.544-0.301s0.268-0.423,0.428-0.84l4.479-11.287
			c0.143-0.359,0.214-0.646,0.214-0.861c0-0.33-0.173-0.566-0.518-0.71v-0.345h4.319v0.345c-0.351,0.122-0.526,0.333-0.526,0.635
			c0,0.208,0.057,0.444,0.17,0.71l4.64,11.32c0.196,0.48,0.369,0.809,0.518,0.984s0.348,0.293,0.598,0.35v0.345h-4.483v-0.345
			c0.394-0.078,0.591-0.301,0.591-0.667c0-0.15-0.06-0.373-0.179-0.667L78.072,38.589z M77.307,36.577l-1.975-5.232l-2.007,5.232
			H77.307z"/>
		<path fill="#154A91" d="M88.032,36.34v4.875c0,0.215,0.043,0.382,0.129,0.5c0.087,0.119,0.233,0.21,0.442,0.274v0.345h-3.802
			v-0.345c0.214-0.071,0.362-0.165,0.446-0.279c0.083-0.115,0.125-0.28,0.125-0.495V28.775c0-0.222-0.042-0.391-0.125-0.506
			c-0.084-0.114-0.232-0.208-0.446-0.279v-0.345h7.621c0.928,0,1.664,0.064,2.208,0.193c0.544,0.13,1.019,0.355,1.424,0.679
			c0.47,0.373,0.82,0.879,1.053,1.517c0.22,0.617,0.33,1.277,0.33,1.98c0,2.396-1.104,3.799-3.311,4.207l2.364,4.057
			c0.417,0.711,0.722,1.168,0.915,1.372c0.193,0.205,0.43,0.317,0.709,0.339v0.345h-4.4v-0.345c0.303-0.057,0.454-0.187,0.454-0.387
			c0-0.13-0.14-0.441-0.419-0.937l-2.467-4.326H88.032z M88.032,33.919h4.104c0.606,0,1.035-0.021,1.285-0.064
			s0.479-0.133,0.688-0.269c0.451-0.295,0.678-0.825,0.678-1.593s-0.227-1.299-0.678-1.593c-0.215-0.144-0.442-0.235-0.684-0.274
			c-0.24-0.039-0.67-0.06-1.289-0.06h-4.104V33.919z"/>
		<path fill="#154A91" d="M106.83,27.388c2.125,0,3.81,0.692,5.054,2.076c1.315,1.449,1.974,3.322,1.974,5.617
			c0,1.406-0.315,2.719-0.946,3.938c-1.232,2.382-3.254,3.572-6.063,3.572c-2.107,0-3.783-0.691-5.027-2.076
			c-0.667-0.739-1.173-1.625-1.518-2.658c-0.304-0.911-0.455-1.868-0.455-2.873c0-1.471,0.312-2.815,0.938-4.035
			C101.981,28.618,103.996,27.431,106.83,27.388z M106.839,29.884c-1.161,0-2.129,0.416-2.903,1.247
			c-0.917,0.981-1.376,2.268-1.376,3.859c0,1.591,0.459,2.877,1.376,3.858c0.774,0.831,1.748,1.247,2.921,1.247
			s2.144-0.416,2.912-1.247c0.459-0.494,0.81-1.1,1.055-1.816c0.214-0.638,0.321-1.297,0.321-1.978c0-1.663-0.459-2.971-1.376-3.924
			C108.988,30.313,108.012,29.898,106.839,29.884z"/>
		<path fill="#154A91" d="M119.783,39.913h7.486c0.185,0,0.324-0.051,0.42-0.151c0.095-0.1,0.172-0.279,0.231-0.537h0.286v3.798
			h-0.286c-0.06-0.258-0.137-0.438-0.231-0.538c-0.096-0.101-0.235-0.15-0.42-0.15h-10.717v-0.345
			c0.214-0.071,0.362-0.165,0.446-0.279c0.083-0.115,0.125-0.283,0.125-0.506V28.775c0-0.222-0.042-0.391-0.125-0.506
			c-0.084-0.114-0.232-0.208-0.446-0.279v-0.345h3.802v0.345c-0.215,0.064-0.363,0.156-0.446,0.274
			c-0.084,0.118-0.125,0.289-0.125,0.511V39.913z"/>
		<path fill="#154A91" d="M139.86,38.589h-5.536l-0.82,2.066c-0.112,0.287-0.169,0.513-0.169,0.678c0,0.316,0.198,0.535,0.597,0.656
			v0.345h-4.029v-0.345c0.238-0.057,0.419-0.157,0.544-0.301s0.268-0.423,0.429-0.84l4.479-11.287
			c0.143-0.359,0.214-0.646,0.214-0.861c0-0.33-0.172-0.566-0.518-0.71v-0.345h4.319v0.345c-0.351,0.122-0.526,0.333-0.526,0.635
			c0,0.208,0.057,0.444,0.17,0.71l4.64,11.32c0.196,0.48,0.369,0.809,0.518,0.984s0.348,0.293,0.598,0.35v0.345h-4.483v-0.345
			c0.394-0.078,0.591-0.301,0.591-0.667c0-0.15-0.06-0.373-0.179-0.667L139.86,38.589z M139.095,36.577l-1.975-5.232l-2.008,5.232
			H139.095z"/>
	</g>
</g>
<g>
</g>
<g>
</g>
<g>
</g>
<g>
</g>
<g>
</g>
<g>
</g>
</svg>
