<?xml version="1.0" encoding="utf-8"?>
<!-- Generator: Adobe Illustrator 16.0.0, SVG Export Plug-In . SVG Version: 6.00 Build 0)  -->
<!DOCTYPE svg PUBLIC "-//W3C//DTD SVG 1.1//EN" "http://www.w3.org/Graphics/SVG/1.1/DTD/svg11.dtd">
<svg version="1.1" id="Layer_1" xmlns="http://www.w3.org/2000/svg" xmlns:xlink="http://www.w3.org/1999/xlink" x="0px" y="0px"
	 width="113.5px" height="48px" viewBox="0 0 113.5 48" enable-background="new 0 0 113.5 48" xml:space="preserve">
<g>
	<g>
		<path fill="#312C80" d="M21.804,22.352v4.035H8.29v9.363H3.476V23.913c0.033-3.397,0.359-5.633,0.979-6.707
			c0.764-1.483,1.878-2.54,3.345-3.171c1.466-0.631,3.522-0.946,6.167-0.946h7.836v4.034h-7.222
			c-2.247,0.033-3.691,0.216-4.333,0.548c-1.273,0.521-1.926,1.677-1.959,3.47v1.212H21.804z"/>
		<path fill="#312C80" d="M35.948,25.689c0-1.162-0.235-1.945-0.706-2.35c-0.471-0.404-1.392-0.606-2.764-0.606h-7.703v-3.536h7.703
			c1.372,0,2.321,0.025,2.847,0.075c0.525,0.05,1.054,0.158,1.585,0.324c2.512,0.952,3.708,3.227,3.586,6.824v9.33h-9.596
			c-1.716,0-2.903-0.051-3.561-0.15c-0.659-0.1-1.237-0.314-1.735-0.646c-1.351-0.908-2.025-2.275-2.025-4.102
			c0-1.117,0.268-2.11,0.805-2.979c0.537-0.868,1.242-1.458,2.117-1.769c0.774-0.275,2.064-0.414,3.868-0.414H35.948z
			 M35.948,29.225h-5.263l-0.764-0.016c-0.521,0-0.933,0.139-1.237,0.414c-0.305,0.277-0.457,0.648-0.457,1.113
			c0,0.542,0.185,0.924,0.556,1.145c0.371,0.223,1.004,0.332,1.901,0.332h5.263V29.225z"/>
		<path fill="#312C80" d="M59.107,19.198v3.536h-8.068c-0.919,0-1.505,0.044-1.76,0.133c-0.521,0.177-0.78,0.62-0.78,1.329
			c0,0.586,0.249,1.035,0.747,1.344c0.266,0.178,1.001,0.266,2.208,0.266h2.689c1.715,0,3.071,0.371,4.067,1.113
			c1.106,0.818,1.66,2.02,1.66,3.602c0,1.195-0.332,2.297-0.996,3.305c-0.51,0.774-1.123,1.289-1.843,1.543
			c-0.72,0.256-1.909,0.383-3.569,0.383H44.05v-3.537h8.102c1.007,0,1.693-0.016,2.059-0.049c0.808-0.089,1.212-0.543,1.212-1.361
			c0-0.687-0.266-1.156-0.797-1.412c-0.288-0.143-0.952-0.215-1.992-0.215h-2.756c-1.074,0-1.901-0.066-2.482-0.199
			s-1.121-0.377-1.619-0.73c-0.609-0.443-1.09-1.041-1.444-1.793c-0.354-0.753-0.531-1.566-0.531-2.441
			c0-1.66,0.603-2.977,1.81-3.951c0.719-0.575,1.976-0.863,3.769-0.863H59.107z"/>
		<path fill="#312C80" d="M64.403,19.198v-6.109h4.549v6.109h4.217v3.536h-4.217v6.01c0,1.405,0.127,2.291,0.382,2.656
			c0.387,0.542,1.068,0.813,2.042,0.813h1.793v3.537h-3.304c-1.971,0-3.373-0.477-4.209-1.428c-0.836-0.952-1.253-2.546-1.253-4.781
			v-6.807h-2.889v-3.536H64.403z"/>
		<path fill="#312C80" d="M83.628,18.949c3.055,0,5.313,0.886,6.773,2.656c1.339,1.616,2.009,3.641,2.009,6.077
			c0,2.59-0.842,4.654-2.523,6.191c-1.539,1.418-3.646,2.125-6.325,2.125c-2.767,0-4.937-0.791-6.508-2.373
			c-1.438-1.45-2.158-3.537-2.158-6.26c0-2.324,0.691-4.255,2.075-5.793C78.509,19.856,80.729,18.982,83.628,18.949z M83.661,22.435
			c-2.733,0-4.101,1.7-4.101,5.096c0,1.385,0.221,2.436,0.664,3.154c0.741,1.219,1.898,1.826,3.47,1.826
			c2.7,0,4.051-1.688,4.051-5.063C87.745,24.14,86.384,22.468,83.661,22.435z"/>
		<path fill="#312C80" d="M110.157,19.198v3.536h-8.068c-0.919,0-1.505,0.044-1.76,0.133c-0.521,0.177-0.78,0.62-0.78,1.329
			c0,0.586,0.249,1.035,0.747,1.344c0.266,0.178,1.001,0.266,2.208,0.266h2.689c1.715,0,3.071,0.371,4.067,1.113
			c1.106,0.818,1.66,2.02,1.66,3.602c0,1.195-0.332,2.297-0.996,3.305c-0.509,0.774-1.124,1.289-1.843,1.543
			c-0.72,0.256-1.909,0.383-3.569,0.383H95.1v-3.537h8.102c1.007,0,1.693-0.016,2.059-0.049c0.808-0.089,1.212-0.543,1.212-1.361
			c0-0.687-0.266-1.156-0.797-1.412c-0.288-0.143-0.952-0.215-1.992-0.215h-2.756c-1.073,0-1.901-0.066-2.481-0.199
			c-0.582-0.133-1.121-0.377-1.619-0.73c-0.609-0.443-1.09-1.041-1.444-1.793c-0.354-0.753-0.531-1.566-0.531-2.441
			c0-1.66,0.603-2.977,1.81-3.951c0.719-0.575,1.976-0.863,3.769-0.863H110.157z"/>
	</g>
</g>
</svg>
