<?xml version="1.0" standalone="no"?>
<!DOCTYPE svg PUBLIC "-//W3C//DTD SVG 20010904//EN"
 "http://www.w3.org/TR/2001/REC-SVG-20010904/DTD/svg10.dtd">
<svg version="1.0" xmlns="http://www.w3.org/2000/svg"
 width="1920.000000pt" height="1080.000000pt" viewBox="0 0 1920.000000 1080.000000"
 preserveAspectRatio="xMidYMid meet">
<metadata>
Created by potrace 1.15, written by Peter Selinger 2001-2017
</metadata>
<g transform="translate(0.000000,1080.000000) scale(0.100000,-0.100000)"
fill="#000000" stroke="none">
<path d="M9824 9869 l-38 -120 -44 2 c-39 3 -46 0 -53 -19 -8 -20 -5 -22 31
-22 21 0 41 -4 44 -8 3 -5 -2 -32 -11 -60 l-17 -52 -47 0 c-33 0 -49 -4 -53
-16 -11 -29 -6 -34 40 -34 33 0 45 -4 42 -12 -3 -7 -20 -57 -38 -112 -26 -80
-30 -100 -19 -107 22 -13 35 9 69 119 l32 102 33 0 33 0 -34 -107 c-18 -60
-34 -112 -34 -116 0 -5 10 -7 22 -5 19 3 28 20 58 116 l35 114 42 -6 c31 -4
42 -2 47 10 11 29 6 34 -35 34 -34 0 -40 3 -35 16 4 9 11 36 17 60 l11 44 49
0 c27 0 49 4 49 9 0 5 3 16 6 25 5 13 -2 16 -41 16 -41 0 -46 2 -40 18 29 71
65 216 57 224 -19 19 -32 -3 -68 -118 l-36 -114 -33 0 -33 0 38 120 38 120
-23 0 c-21 0 -27 -12 -61 -121z"/>
<path d="M10294 9913 c-4 -21 -33 -175 -64 -343 -32 -168 -56 -307 -54 -309 4
-5 307 -62 310 -58 1 1 5 12 8 24 8 26 14 23 -143 53 -57 11 -105 21 -106 22
-3 3 46 271 51 276 1 2 52 -6 112 -17 60 -12 112 -21 115 -21 4 0 7 13 7 28 0
28 0 28 -110 47 -87 14 -110 21 -110 34 0 24 39 223 45 229 2 3 56 -5 119 -17
141 -26 136 -26 136 3 0 29 2 28 -150 55 -63 12 -125 24 -137 26 -19 4 -23 0
-29 -32z"/>
<path d="M10840 9821 c0 -5 -3 -16 -6 -24 -4 -11 12 -21 63 -37 37 -13 71 -24
75 -26 3 -3 -4 -37 -17 -77 -109 -333 -175 -540 -173 -543 2 -1 15 -5 30 -9
l26 -7 97 299 c53 164 100 301 104 306 4 4 35 -2 69 -14 68 -23 92 -20 92 10
0 17 -27 28 -174 75 -190 61 -186 60 -186 47z"/>
<path d="M8900 9784 c-50 -21 -70 -51 -70 -107 0 -87 32 -120 156 -161 70 -23
107 -63 107 -116 0 -58 -32 -90 -89 -90 -35 0 -47 5 -68 31 -14 17 -26 37 -26
45 0 15 -18 18 -43 8 -16 -6 -11 -39 12 -83 25 -47 114 -64 191 -38 94 32 107
173 24 250 -16 15 -61 39 -102 53 -86 32 -117 63 -108 109 17 84 130 86 159 3
9 -25 57 -24 57 1 0 26 -41 83 -70 98 -33 17 -87 16 -130 -3z"/>
<path d="M8415 9690 c-86 -35 -98 -160 -33 -368 13 -44 32 -78 60 -108 36 -39
45 -44 85 -44 94 0 147 53 147 147 0 59 -4 67 -33 58 -18 -5 -21 -15 -21 -56
0 -62 -11 -84 -50 -98 -36 -12 -66 -3 -94 28 -21 23 -68 150 -60 162 2 4 28
12 56 19 29 6 79 19 112 28 l58 15 -6 39 c-9 58 -44 124 -82 158 -27 24 -44
30 -77 29 -23 0 -51 -4 -62 -9z m127 -86 c14 -21 29 -53 33 -69 l6 -31 -88
-21 c-101 -25 -103 -24 -103 57 0 117 90 155 152 64z"/>
<path d="M11350 9413 c-51 -109 -118 -249 -147 -312 -30 -62 -51 -117 -46
-121 4 -4 68 -36 142 -71 128 -61 134 -63 147 -44 8 10 14 21 14 25 0 3 -52
30 -115 59 -63 30 -115 57 -115 61 0 7 109 241 116 249 2 2 50 -17 106 -43 96
-45 103 -47 115 -30 7 10 13 21 13 24 0 4 -47 29 -104 56 l-104 49 53 113 c61
128 41 123 184 53 47 -23 91 -41 97 -41 16 0 30 43 17 47 -6 2 -66 31 -134 63
-68 33 -128 60 -134 60 -6 0 -53 -89 -105 -197z"/>
<path d="M8036 9567 c-19 -14 -22 -5 83 -277 35 -91 39 -110 31 -141 -24 -87
-130 -118 -160 -46 -5 12 -41 103 -79 202 -63 164 -72 180 -92 177 -13 -1 -25
-4 -27 -7 -4 -4 131 -360 154 -407 43 -85 157 -74 220 20 21 30 23 31 29 12 5
-16 12 -19 28 -14 12 3 23 8 25 9 3 3 -54 155 -155 418 -14 37 -29 67 -33 67
-3 0 -14 -6 -24 -13z"/>
<path d="M7497 9339 c-14 -8 -15 -14 -6 -30 10 -19 8 -20 -13 -13 -38 12 -76
7 -112 -15 -71 -44 -73 -129 -7 -268 79 -164 154 -234 235 -219 41 8 106 64
106 92 1 17 3 17 20 -4 23 -28 35 -82 26 -117 -13 -50 -116 -86 -146 -51 -9
12 -17 13 -36 4 -29 -13 -27 -25 8 -51 63 -47 196 1 226 82 19 53 -5 117 -130
349 -68 124 -124 232 -126 239 -4 15 -21 16 -45 2z m21 -113 c53 -48 143 -226
144 -284 1 -77 -61 -114 -130 -78 -32 17 -78 78 -119 161 -54 106 -59 177 -18
213 38 32 78 28 123 -12z"/>
<path d="M12018 9270 c-66 -20 -134 -87 -224 -222 -142 -212 -152 -336 -35
-414 60 -39 118 -43 185 -10 56 27 120 89 113 109 -2 6 -11 15 -20 21 -13 9
-25 3 -59 -31 -81 -79 -152 -88 -209 -27 -36 38 -33 129 5 204 47 91 135 217
182 260 67 62 109 73 168 45 62 -30 81 -97 49 -176 -16 -40 -15 -42 2 -55 28
-21 34 -18 55 29 38 82 21 167 -43 224 -52 46 -111 61 -169 43z"/>
<path d="M7031 9074 c-12 -15 -21 -40 -21 -55 0 -31 -17 -39 -26 -14 -7 18
-14 18 -37 1 -17 -13 -15 -18 29 -82 165 -242 247 -355 257 -351 36 12 27 35
-68 172 -136 196 -143 215 -100 279 20 29 23 41 15 57 -14 26 -25 24 -49 -7z"/>
<path d="M12543 8863 c-36 -7 -120 -90 -133 -129 -17 -52 -8 -100 39 -202 53
-114 53 -148 5 -202 -61 -67 -138 -70 -201 -8 -47 48 -53 93 -19 154 25 44 25
48 10 66 -24 26 -30 23 -58 -24 -47 -83 -42 -157 16 -224 87 -99 213 -103 297
-8 66 75 67 139 7 265 -45 94 -52 130 -36 170 19 46 84 89 133 89 33 0 46 -7
79 -40 38 -38 40 -43 35 -86 -2 -24 -12 -53 -21 -63 -15 -16 -14 -19 9 -41
l25 -23 25 54 c31 67 31 93 3 149 -40 78 -131 122 -215 103z"/>
<path d="M6655 8776 c-90 -41 -126 -139 -75 -206 18 -24 20 -24 36 -8 15 14
16 22 6 43 -19 40 -14 74 13 100 36 37 75 33 119 -12 20 -21 36 -43 36 -50 0
-7 -18 -47 -41 -90 -34 -65 -40 -85 -36 -119 7 -69 89 -154 146 -154 51 0 112
54 126 113 6 22 11 25 34 21 18 -4 32 0 44 14 23 26 13 54 -18 46 -19 -5 -40
15 -145 136 -117 136 -167 180 -200 180 -8 -1 -28 -7 -45 -14z m250 -261 c22
-31 37 -65 37 -84 1 -36 -27 -80 -59 -92 -30 -11 -83 26 -106 74 l-19 38 36
76 c35 74 37 75 56 58 10 -9 35 -41 55 -70z"/>
<path d="M6264 8421 c-34 -21 -64 -75 -64 -116 0 -48 42 -114 121 -189 95 -92
157 -129 214 -130 69 -2 132 56 142 130 4 33 -1 47 -29 88 -38 58 -52 65 -68
36 -9 -17 -6 -26 14 -53 41 -54 43 -82 8 -117 -59 -59 -127 -33 -259 98 -85
85 -105 130 -79 180 24 47 94 55 137 16 14 -12 18 -12 33 5 22 24 17 34 -28
55 -45 21 -104 20 -142 -3z"/>
<path d="M9440 8379 c-36 -4 -110 -13 -165 -20 -55 -6 -113 -15 -130 -21 -16
-5 -61 -16 -100 -23 -122 -24 -149 -31 -172 -43 -12 -7 -31 -12 -42 -12 -12 0
-29 -4 -39 -9 -9 -5 -62 -23 -117 -41 -55 -17 -104 -35 -110 -39 -5 -4 -37
-18 -70 -31 -86 -33 -356 -168 -381 -191 -11 -10 -24 -19 -29 -19 -5 0 -35
-18 -66 -40 -32 -22 -60 -40 -63 -40 -3 0 -25 -14 -48 -30 -24 -17 -64 -45
-90 -63 -27 -17 -48 -37 -48 -44 0 -7 -7 -13 -16 -13 -9 0 -45 -28 -81 -62
-36 -35 -68 -62 -72 -61 -17 5 -381 -379 -381 -402 0 -3 -12 -18 -26 -33 -14
-15 -38 -44 -52 -66 -44 -64 -81 -119 -100 -149 -9 -16 -38 -62 -64 -103 -27
-41 -48 -81 -48 -89 0 -8 -4 -15 -9 -15 -9 0 -94 -167 -106 -210 -4 -14 -18
-45 -30 -70 -24 -47 -55 -128 -76 -195 -6 -22 -15 -49 -19 -60 -19 -54 -30
-93 -30 -113 0 -11 -4 -23 -9 -26 -5 -3 -11 -23 -14 -43 -3 -21 -10 -58 -16
-83 -25 -100 -32 -145 -55 -350 -13 -117 -14 -509 -1 -549 3 -12 11 -56 16
-99 10 -80 21 -148 39 -242 6 -30 13 -70 17 -88 3 -18 9 -35 14 -38 5 -3 9
-17 9 -31 0 -25 34 -142 51 -175 5 -10 9 -25 9 -33 0 -8 4 -23 9 -33 9 -18 28
-63 41 -97 4 -11 22 -50 40 -88 36 -74 33 -74 96 -13 18 17 62 58 100 91 37
33 113 104 168 157 185 178 237 227 246 230 5 2 51 44 102 94 51 50 120 114
153 144 33 29 109 101 170 159 60 58 128 121 150 140 46 38 201 182 379 352
251 239 282 268 321 301 22 18 74 67 115 108 42 41 114 109 160 150 47 41 127
117 179 167 52 51 98 94 102 95 8 3 194 177 333 311 32 31 60 57 61 57 1 0 31
28 66 63 35 34 98 92 139 127 40 36 112 102 158 148 46 45 86 82 88 82 4 0 49
42 249 233 72 68 153 143 180 167 28 25 100 92 160 150 61 58 155 146 209 195
179 165 200 185 193 191 -8 9 -71 42 -197 104 -120 60 -274 120 -307 120 -13
0 -23 5 -23 10 0 6 -13 10 -30 10 -16 0 -30 5 -30 10 0 6 -10 10 -23 10 -13 0
-27 4 -32 9 -6 6 -21 12 -35 15 -14 3 -52 12 -85 19 -203 47 -239 54 -425 77
-98 12 -365 11 -460 -1z"/>
<path d="M13025 8314 c-49 -25 -191 -93 -315 -151 -124 -59 -227 -108 -229
-110 -3 -2 4 -13 15 -24 l21 -20 99 46 99 47 57 -64 c90 -99 89 -94 26 -179
-74 -101 -72 -96 -50 -124 l20 -25 42 63 c24 34 117 169 207 300 l165 238 -23
25 c-12 13 -27 24 -33 23 -6 0 -51 -20 -101 -45z m59 -46 c-9 -15 -137 -198
-172 -247 l-25 -34 -29 34 c-16 19 -42 51 -59 72 l-31 37 154 75 c161 78 174
83 162 63z"/>
<path d="M5939 8017 c-72 -49 -73 -139 -2 -217 41 -46 151 -129 210 -159 90
-45 175 -24 213 55 20 41 21 50 10 87 -11 39 -63 107 -82 107 -4 0 -12 -9 -18
-21 -10 -17 -6 -26 24 -60 39 -43 42 -55 24 -95 -28 -62 -98 -60 -194 3 l-54
36 47 66 c26 36 57 80 70 97 l23 31 -23 20 c-12 12 -45 33 -74 47 -67 33 -128
34 -174 3z m134 -41 c73 -32 74 -34 16 -114 -29 -39 -57 -72 -64 -72 -14 0
-68 57 -84 88 -7 13 -9 36 -6 53 12 54 71 74 138 45z"/>
<path d="M13177 7809 c-92 -37 -234 -146 -263 -200 -45 -87 17 -199 110 -199
38 0 126 28 126 41 0 3 -6 13 -13 23 -11 16 -15 16 -49 1 -56 -23 -93 -19
-117 11 -42 53 -21 108 64 174 32 25 59 39 64 34 5 -5 36 -51 70 -102 l62 -92
43 29 c128 88 156 195 70 270 -42 37 -93 40 -167 10z m135 -43 c32 -24 40 -64
22 -102 -16 -34 -71 -84 -90 -84 -14 1 -105 141 -98 152 11 17 87 48 119 47
17 0 38 -5 47 -13z"/>
<path d="M5699 7679 c-7 -13 -9 -40 -5 -66 5 -41 4 -43 -14 -33 -15 8 -21 6
-31 -11 -6 -12 -7 -25 -2 -29 12 -11 426 -250 434 -250 3 0 10 10 16 22 9 21
0 28 -156 119 -190 110 -214 136 -195 207 9 34 8 41 -8 51 -24 15 -25 14 -39
-10z"/>
<path d="M13460 7392 c-61 -30 -80 -72 -80 -174 0 -109 -13 -139 -70 -162 -53
-21 -87 -7 -114 47 -15 32 -16 42 -6 68 7 16 22 36 33 44 18 13 19 18 8 41
-11 24 -13 25 -34 12 -36 -24 -67 -78 -67 -117 1 -74 78 -161 143 -161 46 0
109 35 137 77 22 32 25 49 28 137 4 109 12 127 61 144 37 13 68 -2 88 -42 14
-29 14 -39 3 -66 -7 -17 -21 -35 -31 -41 -15 -8 -17 -14 -9 -29 15 -29 34 -25
69 15 37 42 40 80 11 142 -21 46 -69 83 -110 83 -14 0 -41 -8 -60 -18z"/>
<path d="M5490 7228 c-45 -31 -74 -108 -59 -161 27 -98 289 -233 405 -207 92
21 143 137 95 216 -27 44 -73 77 -177 125 -71 34 -103 43 -159 47 -61 3 -74 1
-105 -20z m171 -47 c202 -69 286 -166 210 -242 -47 -47 -117 -37 -266 38 -117
58 -150 104 -120 166 28 59 82 71 176 38z"/>
<path d="M13856 7002 c-55 -25 -59 -25 -71 -8 -20 27 -51 16 -47 -16 2 -24 -4
-29 -79 -60 -247 -100 -313 -133 -323 -159 -16 -48 9 -105 42 -95 18 6 20 10
10 31 -6 13 -8 30 -5 38 4 10 359 167 380 167 2 0 10 -14 17 -30 10 -25 17
-29 34 -24 28 9 28 8 16 38 -5 15 -10 31 -10 35 0 4 29 20 65 36 36 15 65 29
65 32 0 11 -21 43 -28 42 -4 0 -33 -13 -66 -27z"/>
<path d="M5107 6804 c-4 -4 -7 -18 -7 -30 0 -19 9 -25 53 -37 28 -9 155 -44
281 -80 126 -35 222 -66 215 -69 -8 -3 -151 -23 -318 -44 l-304 -39 -14 -33
c-8 -19 -12 -36 -10 -39 6 -6 670 -194 673 -190 1 1 5 14 9 29 6 24 3 28 -27
36 -18 5 -141 40 -273 77 -132 37 -243 70 -247 74 -4 4 135 26 309 49 174 23
318 44 320 46 2 2 6 19 9 37 l5 34 -322 90 c-383 107 -343 97 -352 89z"/>
<path d="M13807 6642 c-21 -3 -27 -8 -23 -19 3 -8 6 -19 6 -24 0 -5 16 -9 36
-9 49 0 70 -14 84 -55 16 -49 5 -74 -43 -96 -67 -30 -77 -26 -140 50 -63 77
-103 98 -165 86 -54 -10 -117 -50 -131 -83 -18 -42 1 -103 43 -144 30 -29 33
-35 21 -51 -10 -14 -11 -26 -3 -48 5 -16 13 -29 16 -29 15 0 30 16 33 34 3 15
43 32 190 80 103 34 196 69 208 80 41 38 36 131 -11 189 -24 29 -72 45 -121
39z m-122 -184 l57 -63 -69 -22 c-90 -29 -125 -29 -161 2 -52 44 -48 100 10
128 18 9 49 17 70 17 32 0 43 -7 93 -62z"/>
<path d="M14009 6213 c-1 -5 -2 -19 -3 -32 -1 -23 -11 -27 -221 -77 -121 -29
-221 -53 -222 -53 -10 -2 -1 -43 10 -47 7 -2 106 18 220 46 114 27 214 50 221
50 8 0 17 -13 21 -29 5 -22 10 -28 26 -24 14 4 19 14 19 38 0 30 3 33 44 44
65 16 76 14 89 -18 10 -24 16 -27 35 -20 22 8 22 10 7 46 -9 20 -21 41 -28 46
-13 9 -122 3 -149 -8 -13 -5 -19 0 -24 19 -6 24 -42 38 -45 19z"/>
<path d="M4952 6109 c2 -17 27 -31 116 -66 110 -44 113 -46 107 -72 -4 -14 -8
-28 -11 -30 -2 -2 -49 15 -104 38 -112 46 -130 49 -130 23 0 -14 27 -29 113
-63 l112 -45 -1 -46 c0 -38 4 -48 22 -57 20 -9 22 -6 27 31 3 22 7 42 10 44 2
3 28 -6 57 -18 l53 -24 1 -49 c1 -39 5 -50 18 -53 14 -3 19 6 24 37 4 23 10
41 14 41 4 0 51 -18 105 -40 54 -22 102 -40 107 -40 5 0 8 9 6 21 -2 16 -27
31 -108 64 -84 35 -106 48 -108 65 -7 43 12 43 118 0 83 -34 104 -40 111 -29
5 8 7 18 6 23 -2 4 -50 27 -107 50 l-105 42 -3 44 c-3 40 -14 59 -34 60 -3 0
-9 -18 -13 -40 -4 -22 -8 -40 -11 -40 -2 0 -28 11 -58 24 l-54 24 5 40 c4 33
2 42 -15 51 -22 12 -32 -1 -32 -45 0 -13 -6 -24 -13 -24 -8 0 -57 18 -110 40
-110 46 -120 48 -115 19z"/>
<path d="M14002 5818 c2 -14 11 -24 23 -26 49 -8 75 -25 83 -56 18 -64 -16
-101 -98 -108 -32 -3 -37 1 -65 44 -16 26 -38 60 -47 77 -21 37 -73 71 -111
71 -51 0 -116 -22 -142 -47 -41 -42 -31 -141 20 -183 14 -12 14 -14 0 -31 -24
-25 -16 -73 13 -77 17 -3 22 2 22 17 0 25 -6 23 214 57 228 34 246 45 246 144
0 89 -43 140 -120 140 -37 0 -41 -2 -38 -22z m-176 -66 c16 -11 96 -133 91
-138 -3 -3 -37 -10 -77 -15 -112 -16 -170 14 -170 86 0 35 7 47 35 63 22 13
104 16 121 4z"/>
<path d="M10347 5812 l-1017 -2 -42 -30 c-22 -16 -115 -101 -206 -187 -90 -87
-205 -196 -254 -243 -50 -47 -119 -113 -154 -147 -35 -34 -68 -63 -73 -65 -6
-1 -70 -62 -143 -133 -73 -72 -171 -164 -217 -205 -46 -41 -119 -109 -161
-150 -43 -41 -99 -95 -126 -119 -27 -24 -107 -101 -179 -171 -71 -70 -152
-146 -180 -170 -27 -24 -108 -97 -179 -164 -71 -67 -163 -152 -204 -191 -42
-38 -98 -91 -125 -117 l-48 -46 61 -90 c33 -49 69 -97 80 -107 11 -10 20 -24
20 -31 0 -7 29 -41 65 -76 36 -36 65 -69 65 -74 0 -13 284 -294 297 -294 5 0
41 -32 79 -70 38 -39 76 -70 85 -70 9 0 19 -6 22 -14 6 -15 141 -126 153 -126
5 0 23 -14 40 -31 l33 -32 103 93 c57 51 157 145 222 208 66 64 149 141 185
172 36 31 120 109 185 174 66 64 122 116 125 116 3 0 51 43 106 96 55 52 143
133 195 179 52 47 130 120 172 164 43 43 82 81 87 83 6 1 63 53 127 113 64 61
134 126 156 145 21 19 83 78 136 130 120 116 243 230 249 230 3 0 54 48 115
108 60 59 120 114 134 122 13 8 24 20 24 28 0 7 8 16 18 19 9 4 53 41 97 84
44 42 107 100 140 129 33 29 117 108 187 174 131 125 216 204 470 437 80 73
145 139 144 144 -2 6 -14 10 -27 10 -13 0 -482 -1 -1042 -3z"/>
<path d="M11401 4222 l-1084 -2 -74 -67 c-41 -36 -133 -123 -203 -192 -70 -69
-156 -151 -191 -181 -35 -30 -102 -94 -149 -141 -47 -47 -130 -128 -185 -179
-55 -51 -99 -97 -97 -101 1 -5 -5 -9 -13 -9 -8 0 -68 -53 -134 -117 -66 -65
-154 -149 -196 -188 -130 -119 -138 -126 -296 -280 -85 -82 -190 -182 -234
-221 l-79 -72 39 -17 c22 -9 45 -18 51 -19 7 -1 18 -7 25 -13 8 -6 30 -14 49
-18 19 -4 55 -16 80 -27 25 -11 60 -24 78 -29 17 -5 49 -14 70 -20 121 -34
264 -67 347 -79 181 -26 300 -35 475 -35 221 0 329 8 480 35 58 10 119 21 135
24 42 7 100 21 165 40 30 9 62 18 70 19 8 2 26 8 40 14 14 6 68 24 121 41 52
17 122 43 155 57 32 15 75 34 94 42 19 8 44 20 55 26 11 6 58 31 105 55 47 25
102 56 122 69 21 12 41 23 46 23 5 0 17 9 27 20 11 12 34 28 52 36 18 9 52 34
77 55 24 21 48 39 53 39 5 0 24 16 43 35 19 19 39 35 44 35 13 0 185 154 249
223 31 34 93 100 137 147 44 46 80 88 80 92 0 4 14 21 30 38 17 17 30 35 30
40 0 5 14 24 30 42 17 18 30 38 30 45 0 7 4 13 10 13 10 0 80 104 80 118 0 5
8 17 18 28 22 26 42 61 42 75 0 7 6 17 14 23 18 13 86 141 86 160 0 8 7 16 15
20 8 3 15 14 15 24 0 11 9 31 20 45 11 14 20 29 20 34 0 5 9 28 20 51 11 22
20 48 20 56 0 8 5 18 10 21 13 8 13 45 1 45 -5 0 -15 1 -23 3 -7 1 -501 1
-1097 -1z"/>
<path d="M5840 3350 c-63 -43 -186 -127 -272 -186 l-158 -107 46 -86 c26 -47
50 -90 54 -94 7 -8 617 178 633 193 12 10 -40 110 -57 110 -7 0 -39 -9 -71
-20 -76 -26 -79 -26 -98 15 l-16 34 64 42 c36 23 65 47 65 54 0 15 -60 125
-68 125 -4 0 -59 -36 -122 -80z"/>
<path d="M13267 3312 l-36 -67 237 -124 c130 -68 242 -128 249 -134 9 -7 7
-20 -12 -56 l-24 -48 45 -21 c50 -24 54 -26 54 -14 0 5 34 72 75 150 94 176
90 166 63 184 -53 35 -65 32 -90 -16 l-23 -45 -60 31 c-33 17 -145 75 -248
129 -104 55 -190 99 -191 99 -2 0 -19 -30 -39 -68z"/>
<path d="M13126 3059 c-39 -31 -58 -78 -46 -119 9 -32 9 -32 -15 -16 -23 15
-24 15 -65 -46 -22 -34 -37 -64 -32 -67 229 -155 432 -291 435 -291 8 0 78
112 75 120 -2 4 -68 52 -148 105 -80 54 -154 106 -164 115 -22 21 -15 50 11
50 10 0 89 -47 175 -105 87 -58 162 -105 166 -105 8 0 82 103 82 113 0 2 -85
61 -189 131 -207 139 -238 152 -285 115z"/>
<path d="M6115 2887 c-96 -46 -137 -120 -149 -272 -3 -39 -10 -84 -16 -101
-20 -58 -92 -74 -98 -22 -3 23 5 33 47 63 l51 37 -42 61 c-22 34 -43 64 -44
66 -6 7 -114 -79 -131 -105 -38 -58 -10 -154 69 -240 70 -76 145 -79 232 -11
52 41 75 97 85 211 11 108 29 154 70 179 27 16 30 16 51 -1 32 -26 20 -51 -45
-92 -30 -19 -55 -38 -55 -42 0 -3 19 -34 42 -67 l41 -60 30 17 c17 9 52 37 79
62 64 58 72 102 36 182 -62 134 -152 182 -253 135z"/>
<path d="M12831 2659 c-23 -29 -41 -55 -41 -59 0 -4 32 -34 72 -66 39 -33 88
-73 107 -89 33 -29 192 -158 217 -177 7 -5 27 11 57 47 l46 56 -37 33 c-65 57
-370 306 -375 306 -3 0 -24 -23 -46 -51z"/>
<path d="M6450 2460 c-19 -11 -54 -36 -78 -57 l-42 -38 52 -58 53 -58 50 45
c55 50 88 58 106 25 13 -26 11 -29 -173 -195 -147 -134 -181 -151 -194 -97 -6
23 -1 33 39 68 l46 40 -53 59 -52 59 -43 -38 c-47 -42 -81 -101 -81 -138 0
-70 93 -185 167 -207 85 -26 115 -8 327 185 116 106 156 160 156 210 0 32 -38
107 -73 143 -67 70 -141 88 -207 52z"/>
<path d="M12644 2429 c-10 -4 -43 -32 -72 -62 l-54 -54 38 -31 c34 -28 40 -30
54 -17 9 8 23 15 30 15 7 0 64 -50 126 -112 l114 -112 -22 -23 -22 -23 34 -35
34 -35 25 25 25 25 33 -32 33 -32 52 52 52 52 -34 35 c-32 33 -33 35 -16 54
17 18 16 20 -18 46 -30 23 -37 24 -55 13 -18 -11 -31 -2 -153 118 -132 130
-162 149 -204 133z"/>
<path d="M12344 2156 c-26 -26 -34 -42 -34 -71 l0 -37 -19 23 -18 23 -57 -49
c-56 -48 -56 -48 -38 -69 10 -12 71 -84 135 -161 120 -145 155 -175 204 -175
45 0 126 46 163 92 55 67 52 157 -6 210 -18 16 -22 14 -71 -25 -29 -23 -52
-46 -52 -50 -1 -5 8 -20 19 -34 24 -31 26 -59 4 -67 -23 -9 -54 21 -54 51 0
13 11 49 24 81 51 120 46 152 -37 237 -46 48 -58 55 -91 55 -30 0 -45 -7 -72
-34z"/>
<path d="M6839 2124 l-34 -35 63 -57 62 -57 -65 -75 c-37 -41 -69 -76 -73 -78
-4 -1 -34 20 -66 47 l-58 49 -33 -37 -34 -36 61 -55 61 -55 -49 -53 -49 -53
-58 51 c-32 27 -62 50 -67 50 -4 0 -20 -16 -35 -36 l-28 -36 24 -22 c13 -11
68 -59 122 -105 l97 -83 19 23 c10 13 27 33 37 45 26 28 249 284 318 364 31
36 56 68 56 71 0 5 -128 118 -221 196 -13 11 -20 8 -50 -23z"/>
<path d="M11955 1854 c-60 -41 -117 -79 -125 -84 -12 -7 -11 -13 5 -45 11 -20
23 -39 28 -42 4 -2 34 14 67 36 58 40 60 40 65 18 3 -12 21 -95 40 -185 30
-144 62 -232 83 -232 3 0 58 35 121 77 64 43 118 78 119 79 7 4 -8 39 -28 64
l-19 25 -46 -33 c-25 -18 -51 -33 -57 -35 -6 -1 -27 72 -49 175 -28 131 -45
188 -65 218 -15 22 -27 40 -28 39 0 0 -50 -34 -111 -75z"/>
<path d="M7151 1570 c-85 -127 -157 -230 -160 -230 -4 0 -22 11 -41 25 -19 14
-37 25 -42 25 -10 0 -58 -72 -53 -79 2 -4 70 -51 151 -106 l147 -99 28 34 c16
19 29 38 29 42 0 4 -18 20 -40 34 -22 15 -40 30 -40 34 0 4 70 111 155 238
l155 231 -61 40 c-34 23 -64 41 -68 41 -3 -1 -75 -104 -160 -230z"/>
<path d="M11550 1620 c-60 -33 -96 -77 -106 -129 -6 -28 4 -53 62 -168 38 -75
85 -154 105 -175 33 -35 41 -38 88 -38 88 0 190 66 210 138 13 44 1 78 -75
222 -84 160 -96 173 -171 177 -50 3 -66 -1 -113 -27z m89 -102 c7 -12 43 -77
78 -145 53 -101 63 -127 53 -138 -29 -35 -35 -26 -144 177 -48 91 -54 113 -33
121 23 10 32 7 46 -15z"/>
<path d="M7603 1557 l-21 -43 73 -38 73 -39 -45 -91 c-25 -50 -47 -93 -49 -95
-3 -3 -36 10 -74 29 -38 19 -71 32 -74 29 -2 -2 -13 -22 -24 -44 l-20 -40 69
-34 c38 -19 69 -38 69 -43 0 -10 -60 -118 -66 -118 -3 0 -36 16 -74 35 l-70
35 -20 -40 c-11 -21 -20 -43 -20 -47 0 -10 277 -149 284 -143 7 8 296 578 296
584 0 5 -274 146 -283 146 -2 0 -12 -19 -24 -43z"/>
<path d="M10792 1312 c-105 -38 -139 -100 -108 -198 9 -30 19 -54 22 -54 14 0
120 33 127 39 4 4 1 27 -6 52 -17 54 -13 69 18 69 22 0 28 -11 65 -131 53
-168 57 -194 35 -203 -23 -8 -42 9 -50 45 -4 16 -10 31 -14 34 -7 4 -128 -32
-140 -41 -1 -1 8 -28 23 -59 20 -45 33 -59 63 -71 78 -33 203 4 250 75 33 48
29 89 -21 252 -54 173 -75 200 -158 206 -35 2 -71 -3 -106 -15z"/>
<path d="M8270 1097 c-29 -110 -53 -213 -52 -228 2 -79 80 -139 190 -146 99
-6 135 21 166 124 6 20 2 24 -46 37 -89 25 -90 25 -100 -14 -12 -45 -21 -54
-47 -45 -29 9 -27 49 4 73 14 11 54 25 89 32 111 21 140 51 168 169 6 27 8 60
4 75 -14 55 -114 85 -165 49 -24 -16 -24 -16 -19 10 5 25 1 28 -36 38 -23 5
-55 14 -72 18 l-31 8 -53 -200z"/>
<path d="M10339 1199 c-56 -9 -96 -28 -129 -64 -21 -23 -25 -35 -24 -88 2 -78
48 -301 69 -333 27 -42 60 -56 130 -56 119 -1 198 59 197 147 -2 70 -51 314
-69 342 -30 45 -95 65 -174 52z m50 -136 c5 -21 19 -94 32 -162 22 -121 22
-124 4 -138 -31 -22 -43 2 -70 146 -32 173 -32 191 0 191 20 0 26 -7 34 -37z"/>
<path d="M9005 1099 c-20 -155 -46 -331 -52 -344 -3 -9 -15 -15 -27 -13 -19 3
-21 9 -19 63 1 33 4 72 7 86 5 25 3 27 -47 33 -29 4 -62 9 -73 12 -20 5 -23 0
-35 -83 -17 -117 -16 -156 4 -187 32 -48 118 -47 164 2 l26 27 -7 -36 -6 -37
72 -10 c40 -6 73 -10 74 -9 1 1 16 108 33 237 18 129 34 247 37 262 6 30 0 33
-87 43 l-57 7 -7 -53z"/>
<path d="M9922 1133 l-53 -4 6 -57 c13 -135 25 -344 20 -353 -8 -12 -42 -12
-50 1 -3 6 -10 65 -15 133 -5 67 -12 155 -16 195 l-6 73 -72 -3 -71 -3 2 -45
c8 -147 24 -370 29 -400 9 -61 45 -90 110 -90 29 0 43 7 70 36 l34 35 0 -28 0
-29 68 4 c37 2 70 7 73 11 4 3 -2 116 -12 251 -10 135 -18 253 -19 263 0 11
-7 16 -22 15 -13 -1 -47 -3 -76 -5z"/>
<path d="M9280 1082 c0 -48 2 -51 28 -54 l27 -3 0 -110 c1 -60 -1 -136 -3
-167 -4 -55 -5 -57 -35 -60 -29 -3 -31 -5 -31 -48 -1 -44 0 -45 32 -48 33 -3
34 -4 30 -50 l-3 -47 72 -3 72 -3 6 35 c4 19 4 39 0 45 -4 7 4 11 18 11 28 0
37 16 37 66 0 30 -3 34 -26 34 l-26 0 7 185 c7 191 2 236 -31 249 -8 3 -51 8
-94 12 l-80 6 0 -50z"/>
</g>
</svg>
