<?xml version="1.0" encoding="UTF-8"?>
<!-- Generator: Adobe Illustrator 14.0.0, SVG Export Plug-In . SVG Version: 6.00 Build 43363)  -->
<!DOCTYPE svg PUBLIC "-//W3C//DTD SVG 1.1//EN" "http://www.w3.org/Graphics/SVG/1.1/DTD/svg11.dtd">
<svg version="1.1" id="Capa_1" xmlns="http://www.w3.org/2000/svg" xmlns:xlink="http://www.w3.org/1999/xlink" x="0px" y="0px" width="596px" height="595.281px" viewBox="0 0 596 595.281" enable-background="new 0 0 596 595.281" xml:space="preserve">
<g id="Layer_2">
	<path fill="#ED751E" d="M297.494,2.281c162.647,0,294.5,131.852,294.5,294.5c0,162.647-131.853,294.5-294.5,294.5   C134.851,591.281,3,459.429,3,296.781C3,134.133,134.851,2.281,297.494,2.281z"/>
</g>
<path fill-rule="evenodd" clip-rule="evenodd" fill="#FFFFFF" d="M128.257,129.954c112.822,0,225.691,0,338.494,0  c23.841,2.611,37.035,15.905,42.326,37.037c0,74.264,0,148.531,0,222.829c-3.397,24.725-17.407,38.769-41.901,42.359  c-51.894,0-103.725,0-155.587,0c-54.557-0.39-111.938-0.227-167.426-0.227c-12.215,0-21.521,0.063-30.094-3.431  c-15.727-6.468-25.801-19.137-28.151-38.702c0-19.235,0-38.536,0-57.806c0.342-43.793,0.342-89.059,0-132.823  c0-8.916,0-17.895,0-26.846C89.328,147.558,103.47,133.447,128.257,129.954z M151.903,175.153  c20.755,20.707,41.281,41.019,62.101,61.858c23.498,23.513,47.715,49.15,72.404,72.24c3.365,3.104,7.119,8.95,11.824,9.013  c4.897,0.035,8.621-5.582,11.854-8.815c51.372-51.407,101.799-101.8,153.203-153.204c0.783-0.784,2.81-1.958,1.764-2.417  c-1.697-0.653-6.858,0-10.32,0c-108.525,0-216.283,0-323.912,0C137.044,160.751,144.865,168.099,151.903,175.153z M362.08,289.884  c-1.274,1.274-4.084,3.659-4.084,4.083c0.033,0.393,2.646,2.451,3.658,3.431c18.095,18.125,36.056,36.217,53.756,53.952  c16.559,16.656,33.249,33.475,50.036,50.296c1.861,1.826,5.68,6.497,7.51,6.435c1.896-0.066,5.031-2.027,6.662-3.431  c7.576-6.368,6.925-18.812,6.925-32.658c0-68.226,0-139.715,0-206.079c-0.032-0.164-0.066-0.261-0.262-0.194  C445.554,206.113,403.131,248.833,362.08,289.884z M111.489,166.727c-0.018-0.226-0.279-0.163-0.198,0.264  c0,63.879,0,133.149,0,197.879c0,9.502-0.8,19.3,0,28.414c0.163,2.153,0.785,4.44,1.503,6.236c1.306,3.333,5.226,8.264,8.802,8.329  c1.665,0.066,5.29-4.639,7.298-6.632c36.546-36.578,72.438-72.306,108.543-108.328C195.748,250.531,153.536,208.728,111.489,166.727  z M155.545,406.347c-0.98,1.013-2.661,2.318-2.369,3.231c96.002,0,192.02,0,287.971,0c-1.373-2.447-3.789-4.212-5.748-6.204  c-29.196-29.196-58.101-58.102-87.297-87.231c-1.372-1.403-5.258-6.337-6.238-6.271c-0.163,0-1.764,1.83-2.547,2.611  c-9.994,9.961-18.909,18.877-28.609,28.577c-3.267,3.233-7.577,10.156-13.718,9.213c-4.277-0.657-8.621-6.663-11.626-9.701  c-10.713-10.712-21.685-22.371-31.809-31.975C221.124,340.93,187.844,374.08,155.545,406.347z"/>
</svg>