<svg xmlns="http://www.w3.org/2000/svg" xmlns:xlink="http://www.w3.org/1999/xlink" viewBox="0 0 30 30"><defs><style>.cls-1{fill:none;}.cls-2{fill:#fff;}.cls-3{clip-path:url(#clip-path);}.cls-4{clip-path:url(#clip-path-2);}.cls-5{clip-path:url(#clip-path-3);}.cls-6{clip-path:url(#clip-path-4);}.cls-7{isolation:isolate;}.cls-8{clip-path:url(#clip-path-5);}.cls-9{clip-path:url(#clip-path-6);}.cls-10{fill-rule:evenodd;opacity:0.4;mix-blend-mode:soft-light;fill:url(#New_Pattern_Swatch_1);}.cls-11{fill:#646569;}</style><clipPath id="clip-path"><circle class="cls-2" cx="1.19" cy="66.96" r="1.02" transform="translate(-65.48 60.65) rotate(-83.58)"/></clipPath><clipPath id="clip-path-2"><circle class="cls-2" cx="33.21" cy="1.19" r="1.02" transform="translate(28.31 34.06) rotate(-83.58)"/></clipPath><clipPath id="clip-path-3"><circle class="cls-2" cx="98.97" cy="33.21" r="1.02" transform="translate(54.9 127.84) rotate(-83.58)"/></clipPath><clipPath id="clip-path-4"><circle class="cls-2" cx="66.96" cy="98.97" r="1.02" transform="translate(-38.88 154.44) rotate(-83.58)"/></clipPath><clipPath id="clip-path-5"><rect class="cls-1" x="-453.26" y="-926.44" width="1025" height="900.5"/></clipPath><clipPath id="clip-path-6"><rect class="cls-1" x="-450.94" y="-925.68" width="1022.97" height="897.63"/></clipPath><pattern id="New_Pattern_Swatch_1" data-name="New Pattern Swatch 1" width="100.17" height="100.17" patternTransform="translate(443.38)" patternUnits="userSpaceOnUse" viewBox="0 0 100.17 100.17"><rect class="cls-1" width="100.17" height="100.17"/><path class="cls-2" d="M45.66,55.48c-.78,1.72-3.28,4.68-7.2,7C32.52,66,24.29,64.21,19,59.06,14.87,55,12.94,50.59,9.23,48.74s-8.15.63-9,5.4A10.56,10.56,0,0,0,4.08,64.71C20.15,78,39.77,69.69,45.66,55.48Z"/><path class="cls-2" d="M41.18,66.1S30,83.16,16.95,81.14c-4.75-.74-4.91-8.37,2.11-7.33A24.12,24.12,0,0,0,41.18,66.1Z"/><path class="cls-2" d="M40.11,56.65c-1.65,3-6.6,6.84-8.89,4.27-1-1.1-.49-3,1.65-2.7C34.31,58.44,36.84,59.37,40.11,56.65Z"/><path class="cls-2" d="M14.39,73.18c-5.06,1.65-9.06,1.57-11.51-.38C.75,71.11,2.47,68,5.69,69.64,8.73,71.22,10.81,72.59,14.39,73.18Z"/><circle class="cls-2" cx="27.43" cy="60.79" r="1.29" transform="translate(-36.05 81.25) rotate(-83.58)"/><circle class="cls-2" cx="1.19" cy="66.96" r="1.02" transform="translate(-65.48 60.65) rotate(-83.58)"/><g class="cls-3"><rect class="cls-2" x="0.12" y="65.89" width="2.15" height="2.15"/><circle class="cls-2" cx="1.19" cy="66.96" r="1.02" transform="translate(-65.48 60.65) rotate(-83.58)"/><circle class="cls-2" cx="1.19" cy="66.96" r="0.69" transform="translate(-65.48 60.65) rotate(-83.58)"/></g><circle class="cls-2" cx="10.74" cy="79.12" r="1.52" transform="translate(-69.09 80.94) rotate(-83.58)"/><circle class="cls-2" cx="1.74" cy="46.65" r="1.25" transform="matrix(0.11, -0.99, 0.99, 0.11, -44.81, 43.17)"/><circle class="cls-2" cx="5.38" cy="46.22" r="0.78" transform="translate(-41.16 46.39) rotate(-83.58)"/><circle class="cls-2" cx="36.49" cy="56.47" r="0.71" transform="translate(-23.71 86.41) rotate(-83.58)"/><polygon class="cls-2" points="43.29 66.31 44.38 65.5 45.67 65.94 45.24 64.65 46.06 63.57 44.7 63.58 43.92 62.47 43.51 63.76 42.21 64.16 43.32 64.95 43.29 66.31"/><path class="cls-2" d="M44.68,45.66c-1.72-.78-4.68-3.28-7-7.2C34.19,32.52,36,24.29,41.11,19c4.06-4.15,8.47-6.08,10.32-9.79s-.63-8.15-5.4-9A10.56,10.56,0,0,0,35.46,4.08C22.2,20.15,30.47,39.77,44.68,45.66Z"/><path class="cls-2" d="M34.07,41.18S17,30,19,16.95c.74-4.75,8.37-4.91,7.33,2.11A24.12,24.12,0,0,0,34.07,41.18Z"/><path class="cls-2" d="M43.52,40.11c-3-1.65-6.84-6.6-4.27-8.89,1.1-1,3-.49,2.7,1.65C41.73,34.31,40.8,36.84,43.52,40.11Z"/><path class="cls-2" d="M27,14.39c-1.65-5.06-1.57-9.06.38-11.51,1.69-2.13,4.84-.41,3.17,2.81C28.95,8.73,27.58,10.81,27,14.39Z"/><circle class="cls-2" cx="39.37" cy="27.43" r="1.29" transform="translate(7.71 63.49) rotate(-83.58)"/><circle class="cls-2" cx="33.21" cy="1.19" r="1.02" transform="translate(28.31 34.06) rotate(-83.58)"/><g class="cls-4"><rect class="cls-2" x="32.13" y="0.12" width="2.15" height="2.15"/><circle class="cls-2" cx="33.21" cy="1.19" r="1.02" transform="translate(28.31 34.06) rotate(-83.58)"/><circle class="cls-2" cx="33.21" cy="1.19" r="0.69" transform="translate(28.31 34.06) rotate(-83.58)"/></g><circle class="cls-2" cx="21.05" cy="10.74" r="1.52" transform="translate(8.02 30.45) rotate(-83.58)"/><circle class="cls-2" cx="53.51" cy="1.74" r="1.25" transform="translate(45.79 54.72) rotate(-83.58)"/><circle class="cls-2" cx="53.95" cy="5.38" r="0.78" transform="translate(42.57 58.38) rotate(-83.58)"/><circle class="cls-2" cx="43.7" cy="36.49" r="0.71" transform="translate(2.55 75.83) rotate(-83.58)"/><polygon class="cls-2" points="33.86 43.29 34.67 44.38 34.23 45.67 35.52 45.24 36.6 46.06 36.59 44.7 37.7 43.92 36.41 43.51 36.01 42.21 35.22 43.32 33.86 43.29"/><polygon class="cls-2" points="46.03 48.14 47.74 50.46 46.8 53.19 49.54 52.28 51.85 54.02 51.83 51.13 54.19 49.47 51.44 48.6 50.59 45.84 48.92 48.19 46.03 48.14"/><path class="cls-2" d="M54.51,44.68c.78-1.72,3.28-4.68,7.2-7,5.94-3.5,14.17-1.73,19.43,3.42,4.15,4.06,6.08,8.47,9.79,10.32s8.15-.63,9-5.4a10.56,10.56,0,0,0-3.87-10.56C80,22.2,60.4,30.47,54.51,44.68Z"/><path class="cls-2" d="M59,34.07S70.21,17,83.22,19c4.75.74,4.91,8.37-2.11,7.33A24.12,24.12,0,0,0,59,34.07Z"/><path class="cls-2" d="M60.05,43.52c1.65-3,6.6-6.84,8.89-4.27,1,1.1.49,3-1.65,2.7C65.86,41.73,63.32,40.8,60.05,43.52Z"/><path class="cls-2" d="M85.78,27c5.06-1.65,9.06-1.57,11.51.38,2.13,1.69.41,4.84-2.81,3.17C91.43,28.95,89.36,27.58,85.78,27Z"/><circle class="cls-2" cx="72.73" cy="39.37" r="1.29" transform="translate(25.47 107.25) rotate(-83.58)"/><circle class="cls-2" cx="98.97" cy="33.21" r="1.02" transform="translate(54.9 127.84) rotate(-83.58)"/><g class="cls-5"><rect class="cls-2" x="97.9" y="32.13" width="2.15" height="2.15"/><circle class="cls-2" cx="98.97" cy="33.21" r="1.02" transform="translate(54.9 127.84) rotate(-83.58)"/><circle class="cls-2" cx="98.97" cy="33.21" r="0.69" transform="translate(54.9 127.84) rotate(-83.58)"/></g><circle class="cls-2" cx="89.43" cy="21.05" r="1.52" transform="translate(58.51 107.56) rotate(-83.58)"/><circle class="cls-2" cx="98.43" cy="53.51" r="1.25" transform="translate(34.24 145.33) rotate(-83.58)"/><circle class="cls-2" cx="94.79" cy="53.95" r="0.78" transform="translate(30.58 142.11) rotate(-83.58)"/><circle class="cls-2" cx="63.68" cy="43.7" r="0.71" transform="matrix(0.11, -0.99, 0.99, 0.11, 13.13, 102.09)"/><polygon class="cls-2" points="56.88 33.86 55.78 34.67 54.5 34.23 54.93 35.52 54.11 36.6 55.47 36.59 56.25 37.7 56.66 36.41 57.96 36.01 56.85 35.22 56.88 33.86"/><path class="cls-2" d="M55.48,54.51c1.72.78,4.68,3.28,7,7.2,3.5,5.94,1.73,14.17-3.42,19.43C55,85.3,50.59,87.23,48.74,90.94s.63,8.15,5.4,9a10.56,10.56,0,0,0,10.56-3.87C78,80,69.69,60.4,55.48,54.51Z"/><path class="cls-2" d="M66.1,59s17.06,11.22,15,24.23c-.74,4.75-8.37,4.91-7.33-2.11A24.12,24.12,0,0,0,66.1,59Z"/><path class="cls-2" d="M56.65,60.05c3,1.65,6.84,6.6,4.27,8.89-1.1,1-3,.49-2.7-1.65C58.44,65.86,59.37,63.32,56.65,60.05Z"/><path class="cls-2" d="M73.18,85.78c1.65,5.06,1.57,9.06-.38,11.51-1.69,2.13-4.84.41-3.17-2.81C71.22,91.43,72.59,89.36,73.18,85.78Z"/><circle class="cls-2" cx="60.79" cy="72.73" r="1.29" transform="translate(-18.29 125.01) rotate(-83.58)"/><circle class="cls-2" cx="66.96" cy="98.97" r="1.02" transform="translate(-38.88 154.44) rotate(-83.58)"/><g class="cls-6"><rect class="cls-2" x="65.89" y="97.9" width="2.15" height="2.15"/><circle class="cls-2" cx="66.96" cy="98.97" r="1.02" transform="translate(-38.88 154.44) rotate(-83.58)"/><circle class="cls-2" cx="66.96" cy="98.97" r="0.69" transform="translate(-38.88 154.44) rotate(-83.58)"/></g><circle class="cls-2" cx="79.12" cy="89.43" r="1.52" transform="translate(-18.6 158.05) rotate(-83.58)"/><circle class="cls-2" cx="46.65" cy="98.43" r="1.25" transform="translate(-56.37 133.77) rotate(-83.58)"/><circle class="cls-2" cx="46.22" cy="94.79" r="0.78" transform="translate(-53.15 130.12) rotate(-83.58)"/><circle class="cls-2" cx="56.47" cy="63.68" r="0.71" transform="translate(-13.13 112.67) rotate(-83.58)"/><polygon class="cls-2" points="66.31 56.88 65.5 55.78 65.94 54.5 64.65 54.93 63.57 54.11 63.58 55.47 62.47 56.25 63.76 56.66 64.16 57.96 64.95 56.85 66.31 56.88"/></pattern></defs><title>Mesa de trabajo 5</title><g class="cls-7"><g id="FONDO"><g class="cls-8"><g class="cls-9"><polygon class="cls-10" points="913.28 389.01 913.28 -925.95 -450.94 -925.07 -450.94 389.89 913.28 389.01"/></g></g></g><g id="PORTADA"><path class="cls-11" d="M14.6,16.88l-2-1.6c-.1-.08-1.24.92-1.35,1l-4.49,3.5c.6.52,1.91.29,2.63.29H19.63c.75,0,2.18.25,2.81-.29l-4.3-3.36c-.26-.2-1.17-1.18-1.51-1.18S15,16.55,14.6,16.88Z"/><path class="cls-11" d="M22.44,9.69c-.59-.52-1.92-.29-2.63-.29H9.56c-.75,0-2.18-.25-2.81.29l3.92,3.06,2.7,2.1c.21.17.94,1,1.22,1s1-.79,1.23-1l2.7-2.1Z"/><path class="cls-11" d="M6.38,10.34v8.87l5.67-4.39Z"/><path class="cls-11" d="M17.14,14.82l5.67,4.39V10.33Z"/><path id="facebook-circle-outline-icon" class="cls-11" d="M15,2.91a12.09,12.09,0,0,1,8.55,20.63A12.09,12.09,0,0,1,6.45,6.45,12,12,0,0,1,15,2.91M15,0A15,15,0,1,0,30,15,15,15,0,0,0,15,0Z"/></g></g></svg>