<svg xmlns="http://www.w3.org/2000/svg" xmlns:xlink="http://www.w3.org/1999/xlink" version="1.1" id="Capa_1" x="0" y="0" viewBox="0 0 960 560" xml:space="preserve" enable-background="new 0 0 960 560"><style type="text/css">
	.st0{fill:#1659A2;}&gt;</style>
	<g id="_x32_"><g id="XMLID_39_"><path class="st0" fill="#1659A2" d="M652.7 550.7H307.3c-23.3 0-42-18.7-42-42V51.3c0-23.3 18.7-42 42-42h345.3c23.3 0 42 18.7 42 42v456.4C694.7 532 676 550.7 652.7 550.7zM307.3 36.4c-8.4 0-14.9 6.5-14.9 14.9v456.4c0 8.4 6.5 14.9 14.9 14.9h345.3c8.4 0 14.9-6.5 14.9-14.9V51.3c0-8.4-6.5-14.9-14.9-14.9H307.3z"/><rect x="343.7" y="417.2" class="st0" fill="#1659A2" width="272.5" height="18.7"/><rect x="369.9" y="450.8" class="st0" fill="#1659A2" width="219.3" height="18.7"/><path class="st0" fill="#1659A2" d="M343.7 380.8h272.5v-280H343.7V380.8zM480 205.4c26.8 0 48.5 21.7 48.5 48.5 0 26.8-21.7 48.5-48.5 48.5 -26.8 0-48.5-21.7-48.5-48.5C431.5 227.1 453.2 205.4 480 205.4zM480 317.3c36.4 0 70 24.3 90.5 62.5H390.4C410 341.6 443.6 317.3 480 317.3z"/></g></g></svg>