<?xml version="1.0" encoding="UTF-8"?>
<!-- Generator: Adobe Illustrator 16.0.0, SVG Export Plug-In . SVG Version: 6.00 Build 0)  -->
<!DOCTYPE svg PUBLIC "-//W3C//DTD SVG 1.1//EN" "http://www.w3.org/Graphics/SVG/1.1/DTD/svg11.dtd">
<svg version="1.1" id="Layer_1" xmlns="http://www.w3.org/2000/svg" xmlns:xlink="http://www.w3.org/1999/xlink" x="0px" y="0px" width="415.426px" height="415.425px" viewBox="0 0 415.426 415.425" enable-background="new 0 0 415.426 415.425" xml:space="preserve">
<circle fill="#77B058" cx="207.713" cy="207.713" r="207.713"/>
<path fill="#FCFCFC" d="M383.832,207.713c0,97.271-78.851,176.119-176.119,176.119c-97.269,0-176.122-78.849-176.122-176.119  c0-97.271,78.853-176.125,176.122-176.125C304.981,31.589,383.832,110.442,383.832,207.713z"/>
<path fill="#0C870C" d="M278.516,278.606c0,10.703-8.677,19.379-19.379,19.379H87.719c-10.703,0-19.379-8.676-19.379-19.379V137.373  c0-10.703,8.676-19.379,19.379-19.379h171.418c10.702,0,19.379,8.676,19.379,19.379V278.606z"/>
<circle fill="#FFFFFF" cx="106.908" cy="156.561" r="15.092"/>
<polygon fill="#0C870C" points="287.457,169.757 287.457,240.327 345.158,284.881 345.158,124.632 "/>
</svg>