<svg id="Capa_1" data-name="Capa 1" xmlns="http://www.w3.org/2000/svg" viewBox="0 0 48 48"><defs><style>.cls-1{fill:#999;fill-rule:evenodd;}</style></defs><title>other</title><path class="cls-1" d="M11.29,44.74A4.36,4.36,0,0,0,15.68,48H32.32a4.36,4.36,0,0,0,4.4-3.26L40,12.8H8ZM30.4,17.6a1.6,1.6,0,1,1,3.2,0L32,41.6a1.6,1.6,0,0,1-3.2,0Zm-8,0a1.6,1.6,0,1,1,3.2,0v24a1.6,1.6,0,1,1-3.2,0v-24ZM16,16a1.6,1.6,0,0,1,1.6,1.6l1.6,24a1.6,1.6,0,0,1-3.2,0l-1.6-24A1.6,1.6,0,0,1,16,16h0ZM39,6.4H32V3.2C32,0.77,31.21,0,28.8,0H19.2C17,0,16,1.07,16,3.2V6.4H9A2.48,2.48,0,0,0,6.4,8.8,2.48,2.48,0,0,0,9,11.2H39A2.48,2.48,0,0,0,41.6,8.8,2.48,2.48,0,0,0,39,6.4h0ZM28.8,6.4H19.2V3.2h9.6V6.4Zm0,0"/></svg>