<?xml version="1.0" encoding="windows-1252"?>
<!-- Generator: Adobe Illustrator 18.0.0, SVG Export Plug-In . SVG Version: 6.00 Build 0)  -->
<!DOCTYPE svg PUBLIC "-//W3C//DTD SVG 1.1//EN" "http://www.w3.org/Graphics/SVG/1.1/DTD/svg11.dtd">
<svg version="1.1" xmlns="http://www.w3.org/2000/svg" xmlns:xlink="http://www.w3.org/1999/xlink" x="0px" y="0px" viewBox="0 0 60.756 42" style="enable-background:new 0 0 60.756 42;" xml:space="preserve">
<g id="computers-tablets">
	<path style="fill:#123C64;" d="M1.332,37.492c-0.197,0-1.201-0.037-1.323-0.103L0,37.6c0,0.709,0.189,1.478,1.332,1.478h34.795   c-0.053-0.277-0.059-0.476-0.059-0.476v-1.11H1.332z M20.821,34.37c-0.01-0.137,0.017-0.288,0.13-0.457l0.093-0.137l0.105-0.153   c0.352-0.523,1.212-0.951,1.907-0.951h8.151c0.697,0,1.555,0.428,1.911,0.951l0.101,0.151l0.096,0.139   c0.11,0.167,0.137,0.316,0.13,0.452c-0.013,0.214-0.164,0.372-0.434,0.443c-0.098,0.027-0.194,0.055-0.321,0.055H21.574   c-0.123,0-0.212-0.028-0.309-0.052C20.991,34.741,20.836,34.585,20.821,34.37 M5.557,28.309l-4.834,7.254   c-0.336,0.506-0.064,0.92,0.609,0.92h34.736v-9.096H7.39C6.72,27.387,5.893,27.801,5.557,28.309 M45.584,10.546h3.325V2.849   C48.907,1.275,47.443,0.001,45.637,0H8.984C7.179,0.001,5.716,1.275,5.711,2.849v20.678c0.005,1.571,1.468,2.846,3.273,2.849   h27.084v-2.432H10.491c-0.398,0-0.758-0.142-1.026-0.374c-0.266-0.232-0.427-0.546-0.427-0.894V3.701   c0-0.351,0.161-0.663,0.427-0.895c0.268-0.233,0.628-0.374,1.026-0.374H44.13c0.4,0,0.761,0.141,1.027,0.374   c0.264,0.232,0.427,0.544,0.427,0.895V10.546z M58.552,35.737c0,1.258-1.259,1.258-1.259,1.258H40.411   c-1.259,0-1.259-1.258-1.259-1.258V14.818c0-1.259,1.259-1.259,1.259-1.259h16.882c1.259,0,1.259,1.259,1.259,1.259V35.737z    M47.724,39.415c0-0.623,0.506-1.126,1.127-1.126c0.622,0,1.127,0.503,1.127,1.126c0,0.622-0.505,1.127-1.127,1.127   C48.23,40.542,47.724,40.037,47.724,39.415 M60.756,39.481V13.942c0,0,0-2.518-2.518-2.518H39.465c0,0-2.518,0-2.518,2.518v25.539   c0,0,0,2.519,2.518,2.519h18.773C58.238,42,60.756,42,60.756,39.481"/>
</g>
<g id="Layer_1">
</g>
</svg>