<?xml version="1.0" encoding="UTF-8"?>
<!-- Generator: Adobe Illustrator 17.0.0, SVG Export Plug-In . SVG Version: 6.00 Build 0)  -->
<!DOCTYPE svg PUBLIC "-//W3C//DTD SVG 1.1//EN" "http://www.w3.org/Graphics/SVG/1.1/DTD/svg11.dtd">
<svg version="1.1" id="Layer_1" xmlns="http://www.w3.org/2000/svg" xmlns:xlink="http://www.w3.org/1999/xlink" x="0px" y="0px" width="140px" height="140px" viewBox="0 0 140 140" enable-background="new 0 0 140 140" xml:space="preserve">
<circle fill="#1F77B4" cx="70" cy="70" r="70"/>
<g>
	<rect x="88.208" y="43.2" fill="#F79421" width="27.729" height="66.274"/>
	<rect x="55.876" y="29.344" fill="#079247" width="27.729" height="80.13"/>
	<rect x="24.063" y="69.409" fill="#C1282D" width="27.729" height="40.065"/>
	<path fill="#B3B4B4" d="M102.072,50.302c-1.484,0-2.823,0.574-3.849,1.49L75.496,42.72c-0.248-2.977-2.715-5.323-5.755-5.323   c-3.205,0-5.804,2.598-5.804,5.804c0,0.795,0.162,1.552,0.451,2.243l-25.024,28.92c-0.462-0.118-0.938-0.201-1.436-0.201   c-3.205,0-5.804,2.599-5.804,5.804s2.599,5.804,5.804,5.804c3.205,0,5.804-2.598,5.804-5.804c0-0.796-0.162-1.553-0.451-2.244   l25.024-28.919c0.462,0.118,0.938,0.201,1.437,0.201c1.484,0,2.823-0.574,3.849-1.49l22.727,9.072   c0.248,2.977,2.715,5.324,5.755,5.324c3.205,0,5.804-2.598,5.804-5.804C107.876,52.901,105.278,50.302,102.072,50.302z"/>
</g>
</svg>