<svg id="Capa_1" data-name="Capa 1" xmlns="http://www.w3.org/2000/svg" xmlns:xlink="http://www.w3.org/1999/xlink" viewBox="0 0 48 48"><defs><style>.cls-1{fill:none;}.cls-2{clip-path:url(#clip-path);}.cls-3{fill:#999;}</style><clipPath id="clip-path"><rect class="cls-1" y="1.14" width="48" height="45.71"/></clipPath></defs><title>two</title><g class="cls-2"><path class="cls-3" d="M33,39c1.22-2.1,3.18-14.13-12.66-19.61A18.5,18.5,0,0,0,16.6,9.12S16,6.33,15.82,5.3s-2-3.86-3.52-4.16a9.89,9.89,0,0,0-.44,3.08s-2.1-2.08-3.4-2.07c0,0-.28,2.49,0,2.89,0,0-2.34,1.59-2.14,2.67,0,0-7.13,2.46-6.25,3.54a3.94,3.94,0,0,0,1.27,1.23S2.74,15.19,6.77,15c3,0.11,1.58.77,1.47,1.76s0.18,2.64.15,3.26a15.28,15.28,0,0,0,0,7.59C9.56,31.36,7.36,42,6,42.75s-2.27,2.77-1.1,2.77H11S12,44,12.76,44s1-2.48,1-3.14,0.47-5.15,0-7.06,0.12-2.4.37-2.48a1.5,1.5,0,0,0-2.49-1.07c-0.8.49-1.8-1.34-1.8-1.34a0.8,0.8,0,0,1,.48-0.83c0.51-.83-1.25-1.36,1.17-3.23a3.66,3.66,0,0,1,1-2.63,0.8,0.8,0,0,1,.51.37s0.5-1.3,1.21-1.3S15.57,23,15.72,24c0,0,4.84,1.44,5.52,7.84,0,0,3.77.68,4.84,2.69a20.62,20.62,0,0,1,1.27-3.76c0.59-1.13.78-4.06-1.91-3.91s-1.3,2.18-1.17,2.49a1.21,1.21,0,0,1-1.81,1.52c-1.55-.84-1-5.87,2.93-6.36s5.08,3.33,4.35,6.21-2.2,4.76-1.57,6.48,1.91,6.5-2.59,8.33h1.86s3.33-2.08,3.47-2.76,9.53,7.64,15.69.4c1.94-2.62.15-6.5,0-6.79S41.48,41.73,33,39h0Zm0,0"/></g><path class="cls-3" d="M18.43,39.88c-0.22-.48-1.54-0.28-1.54-0.28-0.15,2-2.45,5.92-2.45,5.92h1.5c0.25-3.66,4.25-.93,3.15-2.4s-0.44-2.76-.66-3.24h0Zm0,0"/></svg>