<?xml version="1.0" encoding="utf-8"?>
<!-- Generator: Adobe Illustrator 19.0.0, SVG Export Plug-In . SVG Version: 6.00 Build 0)  -->
<svg version="1.1" xmlns="http://www.w3.org/2000/svg" xmlns:xlink="http://www.w3.org/1999/xlink" x="0px" y="0px"
	 viewBox="0 0 200 200" enable-background="new 0 0 200 200" xml:space="preserve">
<g id="diseno-web" display="none">
	<g id="XMLID_51_" display="inline">
		<path id="XMLID_191_" fill="#1D9DD9" d="M100,7.1c51.2,0,92.9,41.7,92.9,92.9s-41.7,92.9-92.9,92.9S7.1,151.2,7.1,100
			S48.8,7.1,100,7.1 M100,0C44.8,0,0,44.8,0,100s44.8,100,100,100s100-44.8,100-100S155.2,0,100,0L100,0z"/>
	</g>
	<g id="XMLID_450_" display="inline">
		<g id="XMLID_2_">
			<g id="XMLID_3_">
				<rect id="XMLID_93_" x="52.6" y="53.5" fill="#1D9DD9" width="79.2" height="14.3"/>
			</g>
			<g id="XMLID_4_">
				<rect id="XMLID_92_" x="52.6" y="73.3" fill="#1D9DD9" width="36.2" height="14.3"/>
			</g>
			<g id="XMLID_5_">
				<rect id="XMLID_91_" x="96" y="73.3" fill="#1D9DD9" width="35.8" height="14.3"/>
			</g>
			<g id="XMLID_6_">
				<path id="XMLID_7_" fill="#1D9DD9" d="M101.5,111.7H46.4c-0.7,0-1.2-0.5-1.2-1.2V48.3c0-0.7,0.5-1.2,1.2-1.2h93.4
					c0.7,0,1.2,0.5,1.2,1.2v39.5h4.8V48.3c0-3.3-2.7-5.9-6-5.9l-93.4,0c-3.3,0-6,2.7-6,5.9V120c0,3.3,2.7,5.9,6,5.9h32.2
					c-1.4,2.1-3.4,5.2-5.7,8.7c-3.9,5.9,0,6.7,1.5,6.7c1.5,0,27.3,0,27.3,0V112l-0.1,0V111.7z M92.4,122.8c-2.1,0-3.8-1.7-3.8-3.8
					s1.7-3.8,3.8-3.8c2.1,0,3.8,1.7,3.8,3.8S94.5,122.8,92.4,122.8z"/>
			</g>
			<g id="XMLID_8_">
				<path id="XMLID_9_" fill="#1D9DD9" d="M153.6,92.1h-40.8c-3.3,0-6,2.7-6,5.9v57.7c0,3.3,2.7,5.9,6,5.9h40.8c3.3,0,6-2.7,6-5.9
					V98C159.6,94.7,156.9,92.1,153.6,92.1z M133.3,158.7c-1.5,0-2.6-1.2-2.6-2.6c0-1.4,1.2-2.6,2.6-2.6c1.5,0,2.6,1.2,2.6,2.6
					C135.9,157.5,134.7,158.7,133.3,158.7z M154.8,150.3c0,0.7-0.5,1.2-1.2,1.2h-40.8c-0.7,0-1.2-0.5-1.2-1.2V98
					c0-0.7,0.6-1.2,1.2-1.2h40.8c0.7,0,1.2,0.5,1.2,1.2V150.3z"/>
			</g>
		</g>
		<g id="XMLID_10_">
			<rect id="XMLID_85_" x="116" y="101.7" fill="#1D9DD9" width="34.2" height="9.4"/>
		</g>
		<g id="XMLID_11_">
			<rect id="XMLID_84_" x="116" y="115.9" fill="#1D9DD9" width="34.2" height="9.4"/>
		</g>
		<g id="XMLID_12_">
			<rect id="XMLID_83_" x="116" y="130.1" fill="#1D9DD9" width="34.2" height="9.4"/>
		</g>
	</g>
</g>
<g id="tiendas-online" display="none">
	<g id="XMLID_27_" display="inline">
		<path id="XMLID_172_" fill="#1D9DD9" d="M100,7.1c51.2,0,92.9,41.7,92.9,92.9s-41.7,92.9-92.9,92.9S7.1,151.2,7.1,100
			S48.8,7.1,100,7.1 M100,0C44.8,0,0,44.8,0,100s44.8,100,100,100s100-44.8,100-100S155.2,0,100,0L100,0z"/>
	</g>
	<g id="XMLID_441_" display="inline">
		<path id="XMLID_449_" fill="#1D9DD9" d="M87.3,142.9c-5.3,0-9.6,4.3-9.6,9.6c0,5.3,4.3,9.6,9.6,9.6c5.3,0,9.6-4.3,9.6-9.6
			C96.8,147.2,92.6,142.9,87.3,142.9z"/>
		<path id="XMLID_448_" fill="#1D9DD9" d="M132.2,142.9c-5.3,0-9.6,4.3-9.6,9.6c0,5.3,4.3,9.6,9.6,9.6c5.3,0,9.6-4.3,9.6-9.6
			C141.8,147.2,137.5,142.9,132.2,142.9z"/>
		<path id="XMLID_447_" fill="#1D9DD9" d="M139,128.6H83.7L59.1,56.6c-0.7-2-2.6-3.4-4.7-3.4H35.6c-2.8,0-5,2.2-5,5c0,2.8,2.2,5,5,5
			h15.2l24.7,71.9c0.7,2,2.6,3.4,4.7,3.4H139c2.8,0,5-2.2,5-5C144,130.8,141.7,128.6,139,128.6z"/>
		<path id="XMLID_446_" fill="#1D9DD9" d="M140.7,103.7c-12.5,0-22.6-10.1-22.6-22.6c0-4,1-7.7,2.8-10.9H76.4c0,0-4,0.5-2.5,4.5
			c1.2,3.1,11,29.4,15.2,40.5c1.3,5.4,6.2,5,6.2,5h42.9c0,0,3.3-0.1,4.8-3.5c0.5-1.2,3-7.3,6-14.7
			C146.5,103.1,143.7,103.7,140.7,103.7z"/>
		<path id="XMLID_443_" fill="#1D9DD9" d="M140.7,105.9c-13.6,0-24.7-11.1-24.7-24.7s11.1-24.7,24.7-24.7
			c13.6,0,24.7,11.1,24.7,24.7S154.3,105.9,140.7,105.9z M140.7,60.8c-11.2,0-20.4,9.1-20.4,20.4c0,11.2,9.1,20.4,20.4,20.4
			c11.2,0,20.4-9.1,20.4-20.4C161.1,69.9,151.9,60.8,140.7,60.8z"/>
		<path id="XMLID_442_" fill="#1D9DD9" d="M150.1,78.4h-6.6v-6.6c0-1.4-1.2-2.6-2.6-2.6c-1.4,0-2.6,1.2-2.6,2.6v6.6h-6.6
			c-1.4,0-2.6,1.2-2.6,2.6c0,1.4,1.2,2.6,2.6,2.6h6.6v6.6c0,1.4,1.2,2.6,2.6,2.6c1.4,0,2.6-1.1,2.6-2.6v-6.6h6.6
			c1.4,0,2.6-1.2,2.6-2.6C152.7,79.6,151.5,78.4,150.1,78.4z"/>
	</g>
</g>
<g id="programacion-a-medida" display="none">
	<g id="XMLID_25_" display="inline">
		<path id="XMLID_167_" fill="#1D9DD9" d="M100,7.1c51.2,0,92.9,41.7,92.9,92.9s-41.7,92.9-92.9,92.9S7.1,151.2,7.1,100
			S48.8,7.1,100,7.1 M100,0C44.8,0,0,44.8,0,100s44.8,100,100,100s100-44.8,100-100S155.2,0,100,0L100,0z"/>
	</g>
	<g id="XMLID_120_" display="inline">
		<g id="XMLID_133_">
			<polygon id="XMLID_65_" fill="#1D9DD9" points="42.2,100.4 72.4,85.5 72.4,71.2 23.5,96.8 23.5,105.1 72.4,127.8 72.4,113.5 			
				"/>
		</g>
		<g id="XMLID_131_">
			<polygon id="XMLID_64_" fill="#1D9DD9" points="105.7,61.8 78,138.2 94.9,138.2 122.6,61.8 			"/>
		</g>
		<g id="XMLID_126_">
			<polygon id="XMLID_63_" fill="#1D9DD9" points="127.6,113.5 127.6,127.8 176.5,105.1 176.5,96.8 127.6,71.2 127.6,85.5 
				157.8,100.4 			"/>
		</g>
	</g>
</g>
<g id="posicionamiento-web">
	<g id="XMLID_23_">
		<path id="XMLID_162_" fill="#1D9DD9" d="M100,7.1c51.2,0,92.9,41.7,92.9,92.9s-41.7,92.9-92.9,92.9S7.1,151.2,7.1,100
			S48.8,7.1,100,7.1 M100,0C44.8,0,0,44.8,0,100s44.8,100,100,100s100-44.8,100-100S155.2,0,100,0L100,0z"/>
	</g>
	<g id="XMLID_413_">
		<g id="XMLID_414_">
			<g id="XMLID_423_">
				<path id="XMLID_424_" fill="#1D9DD9" d="M58.6,135.2H44.8c-2,0-3.7,1.7-3.7,3.7v14.8c0,2,1.7,3.7,3.7,3.7h13.8
					c2,0,3.7-1.7,3.7-3.7v-14.8C62.3,136.8,60.7,135.2,58.6,135.2z"/>
			</g>
			<g id="XMLID_421_">
				<path id="XMLID_422_" fill="#1D9DD9" d="M90,107.9H76.2c-2,0-3.7,1.7-3.7,3.7v42.1c0,2,1.7,3.7,3.7,3.7H90c2,0,3.7-1.7,3.7-3.7
					v-42.1C93.7,109.5,92.1,107.9,90,107.9z"/>
			</g>
			<g id="XMLID_419_">
				<path id="XMLID_420_" fill="#1D9DD9" d="M121.1,122.3h-13.8c-2,0-3.7,1.7-3.7,3.7v27.6c0,2,1.7,3.7,3.7,3.7h13.8
					c2,0,3.7-1.7,3.7-3.7V126C124.8,124,123.1,122.3,121.1,122.3z"/>
			</g>
			<g id="XMLID_417_">
				<path id="XMLID_418_" fill="#1D9DD9" d="M150.8,94.2h-13.8c-2,0-3.7,1.7-3.7,3.7v55.7c0,2,1.7,3.7,3.7,3.7h13.8
					c2,0,3.7-1.7,3.7-3.7V97.9C154.5,95.9,152.9,94.2,150.8,94.2z"/>
			</g>
			<g id="XMLID_415_">
				<path id="XMLID_416_" fill="#1D9DD9" d="M154,37.4c-0.6-0.7-1.7-0.8-3.4-0.6c-0.2,0-35.6,4.1-35.6,4.1v0c-2,0.3-3.5,1.7-1.1,4.1
					c0.8,0.8,4.9,4.9,9.8,9.8l-20.9,20.9L90,63c0,0-0.1-0.1-0.1-0.1l-7.6-7.6c-1.4-1.4-3.8-1.4-5.2,0L36.4,96
					c-1.4,1.4-1.4,3.8,0,5.2l7.6,7.6c1.4,1.4,3.8,1.4,5.2,0l30.5-30.5l20.1,20.1c0,0,0,0,0,0l0.3,0.3c1.4,1.4,3.8,1.4,5.2,0
					l31.1-31.1c5,5,9.1,9.1,9.9,9.9c2.4,2.4,3.8,0.9,4.1-1.1l0,0c0,0,4.1-35.4,4.1-35.6C154.8,39.1,154.6,38,154,37.4z"/>
			</g>
		</g>
	</g>
</g>
<g id="sevicio-publicidad-adwords" display="none">
	<g id="XMLID_22_" display="inline">
		<path id="XMLID_153_" fill="#1D9DD9" d="M100,7.1c51.2,0,92.9,41.7,92.9,92.9s-41.7,92.9-92.9,92.9S7.1,151.2,7.1,100
			S48.8,7.1,100,7.1 M100,0C44.8,0,0,44.8,0,100s44.8,100,100,100s100-44.8,100-100S155.2,0,100,0L100,0z"/>
	</g>
	<g id="XMLID_95_" display="inline">
		<g id="XMLID_104_">
			<path id="XMLID_15_" fill="#1D9DD9" d="M99.9,156.9c-31.6,0.1-57.3-25.5-57.4-57.1c-0.1-31.6,25.5-57.3,57.1-57.4
				C131.2,42.4,157,68,157,99.5c0,8.3-1.7,16.1-4.9,23.2l11.5,4.2c3.7-8.6,5.6-17.9,5.6-27.5c0-18.6-7.3-36-20.5-49.1
				c-13.1-13.1-30.6-20.3-49.2-20.2c-18.6,0-36,7.3-49.1,20.5C37.5,63.8,30.3,81.3,30.3,99.8c0,18.6,7.3,36,20.5,49.1
				c13.2,13.1,30.6,20.3,49.2,20.2c9.4,0,18.4-1.9,26.8-5.4l-4.3-11.5C115.6,155.2,107.9,156.9,99.9,156.9z"/>
		</g>
		<g id="XMLID_102_">
			<path id="XMLID_16_" fill="#1D9DD9" d="M137.5,117.4c2.5-5.4,4-11.4,4-17.8c-0.1-23-18.8-41.7-41.8-41.6
				C76.7,58,58,76.8,58.1,99.8c0.1,23,18.8,41.7,41.8,41.6c6.1,0,11.9-1.3,17.1-3.7l-4.3-11.5c-3.9,1.9-8.3,3-12.9,3
				c-16.3,0-29.5-13.1-29.5-29.4c0-16.3,13.1-29.5,29.4-29.5c16.3,0,29.5,13.1,29.5,29.4c0,4.9-1.2,9.5-3.3,13.5L137.5,117.4z"/>
		</g>
		<g id="XMLID_100_">
			<polygon id="XMLID_17_" fill="#1D9DD9" points="175.7,164.1 155.2,143.7 168.8,135.5 115.6,116 135.4,169 143.6,155.4 
				164.1,175.8 			"/>
		</g>
		<g id="XMLID_98_">
			<path id="XMLID_18_" fill="#1D9DD9" d="M86.3,99.7c0,7.4,6.1,13.5,13.5,13.4c7.4,0,13.5-6.1,13.5-13.5c0-7.4-6.1-13.5-13.5-13.4
				C92.3,86.2,86.3,92.3,86.3,99.7z"/>
		</g>
	</g>
</g>
<g id="sevicio-logotipos" display="none">
	<g id="XMLID_21_" display="inline">
		<path id="XMLID_145_" fill="#1D9DD9" d="M100,7.1c51.2,0,92.9,41.7,92.9,92.9s-41.7,92.9-92.9,92.9S7.1,151.2,7.1,100
			S48.8,7.1,100,7.1 M100,0C44.8,0,0,44.8,0,100s44.8,100,100,100s100-44.8,100-100S155.2,0,100,0L100,0z"/>
	</g>
	<g id="XMLID_337_" display="inline">
		<rect id="XMLID_391_" x="161.8" y="48.9" fill="#1D9DD9" width="5.2" height="1.4"/>
		<rect id="XMLID_390_" x="151.4" y="48.9" fill="#1D9DD9" width="5.2" height="1.4"/>
		<rect id="XMLID_389_" x="141.1" y="48.9" fill="#1D9DD9" width="5.2" height="1.4"/>
		<rect id="XMLID_388_" x="130.7" y="48.9" fill="#1D9DD9" width="5.2" height="1.4"/>
		<rect id="XMLID_387_" x="120.4" y="48.9" fill="#1D9DD9" width="5.2" height="1.4"/>
		<rect id="XMLID_386_" x="68.6" y="48.9" fill="#1D9DD9" width="5.2" height="1.4"/>
		<rect id="XMLID_385_" x="58.2" y="48.9" fill="#1D9DD9" width="5.2" height="1.4"/>
		<rect id="XMLID_384_" x="47.8" y="48.9" fill="#1D9DD9" width="5.2" height="1.4"/>
		<rect id="XMLID_383_" x="37.5" y="48.9" fill="#1D9DD9" width="5.2" height="1.4"/>
		<rect id="XMLID_382_" x="161.8" y="109.2" fill="#1D9DD9" width="5.2" height="1.4"/>
		<rect id="XMLID_381_" x="151.4" y="109.2" fill="#1D9DD9" width="5.2" height="1.4"/>
		<rect id="XMLID_380_" x="47.8" y="109.2" fill="#1D9DD9" width="5.2" height="1.4"/>
		<rect id="XMLID_379_" x="37.5" y="109.2" fill="#1D9DD9" width="5.2" height="1.4"/>
		<rect id="XMLID_378_" x="27.1" y="109.2" fill="#1D9DD9" width="5.2" height="1.4"/>
		<rect id="XMLID_377_" x="161.8" y="137.2" fill="#1D9DD9" width="5.2" height="1.4"/>
		<rect id="XMLID_376_" x="110" y="137.2" fill="#1D9DD9" width="5.2" height="1.4"/>
		<rect id="XMLID_375_" x="99.6" y="137.2" fill="#1D9DD9" width="5.2" height="1.4"/>
		<rect id="XMLID_374_" x="89.3" y="137.2" fill="#1D9DD9" width="5.2" height="1.4"/>
		<rect id="XMLID_373_" x="78.9" y="137.2" fill="#1D9DD9" width="5.2" height="1.4"/>
		<rect id="XMLID_372_" x="27.1" y="137.2" fill="#1D9DD9" width="5.2" height="1.4"/>
		<rect id="XMLID_371_" x="161.8" y="125.5" fill="#1D9DD9" width="5.2" height="1.4"/>
		<path id="XMLID_368_" fill="#1D9DD9" d="M156.6,126.9v-1.4h-5.2v1.2l-7.5-16.1h2.3v-1.4h-3l-28.4-60.8H82.8l-0.2,0.5h-3.7v1.4h3
			l-40.5,86.9h-3.9v1.4h3.3l0,0.1h31.6l5.1-10.8h42.9l4.4,9.4h-4.5v1.4h5.1l0,0.1H157l-5.5-11.8H156.6z M86.6,108.6L99,82.4
			l12.4,26.3H86.6z"/>
		<rect id="XMLID_367_" x="37.5" y="125.5" fill="#1D9DD9" width="5.2" height="1.4"/>
		<rect id="XMLID_366_" x="27.1" y="125.5" fill="#1D9DD9" width="5.2" height="1.4"/>
		<polygon id="XMLID_365_" fill="#1D9DD9" points="53.5,175.6 54.7,176.1 57,171.4 55.8,170.8 		"/>
		<polygon id="XMLID_364_" fill="#1D9DD9" points="58,166.1 59.2,166.7 61.5,161.9 60.2,161.3 		"/>
		<polygon id="XMLID_363_" fill="#1D9DD9" points="62.5,156.6 63.7,157.2 65.9,152.4 64.7,151.9 		"/>
		<polygon id="XMLID_362_" fill="#1D9DD9" points="67,147.1 68.2,147.7 70.4,143 69.2,142.4 		"/>
		<polygon id="XMLID_361_" fill="#1D9DD9" points="119.6,38.7 118.4,38.1 116.2,42.9 117.4,43.5 		"/>
		<polygon id="XMLID_360_" fill="#1D9DD9" points="124.1,29.2 122.9,28.7 120.6,33.4 121.9,34 		"/>
		<polygon id="XMLID_359_" fill="#1D9DD9" points="128.6,19.8 127.4,19.2 125.1,23.9 126.3,24.5 		"/>
		<polygon id="XMLID_358_" fill="#1D9DD9" points="36.7,148.2 37.9,148.8 40.1,144.2 38.9,143.6 		"/>
		<polygon id="XMLID_357_" fill="#1D9DD9" points="87.9,42.2 86.7,41.7 84.5,46.3 85.7,46.9 		"/>
		<polygon id="XMLID_356_" fill="#1D9DD9" points="92.2,33 91,32.4 88.8,37 90.1,37.6 		"/>
		<polygon id="XMLID_355_" fill="#1D9DD9" points="96.6,23.7 95.4,23.1 93.2,27.8 94.4,28.3 		"/>
		<polygon id="XMLID_354_" fill="#1D9DD9" points="97.5,18.5 98.7,19.1 99.1,18.3 99.4,19.1 100.7,18.5 99.8,16.7 100.9,14.4 
			99.7,13.9 99.1,15.2 98.5,13.9 97.3,14.4 98.3,16.7 		"/>
		<polygon id="XMLID_353_" fill="#1D9DD9" points="141.1,171.4 143.3,176.1 144.5,175.6 142.3,170.8 		"/>
		<polygon id="XMLID_352_" fill="#1D9DD9" points="136.6,161.9 138.8,166.7 140.1,166.1 137.8,161.3 		"/>
		<polygon id="XMLID_351_" fill="#1D9DD9" points="132.1,152.5 134.4,157.2 135.6,156.6 133.3,151.9 		"/>
		<polygon id="XMLID_350_" fill="#1D9DD9" points="127.6,143 129.9,147.7 131.1,147.1 128.9,142.4 		"/>
		<polygon id="XMLID_349_" fill="#1D9DD9" points="81.9,42.9 79.6,38.1 78.4,38.7 80.7,43.5 		"/>
		<polygon id="XMLID_348_" fill="#1D9DD9" points="77.4,33.4 75.2,28.7 74,29.2 76.2,34 		"/>
		<polygon id="XMLID_347_" fill="#1D9DD9" points="72.9,23.9 70.7,19.2 69.5,19.8 71.7,24.5 		"/>
		<polygon id="XMLID_346_" fill="#1D9DD9" points="158.1,144.2 160.2,148.8 161.5,148.2 159.3,143.6 		"/>
		<polygon id="XMLID_345_" fill="#1D9DD9" points="113.7,46.3 111.5,41.7 110.3,42.2 112.5,46.9 		"/>
		<polygon id="XMLID_344_" fill="#1D9DD9" points="109.3,37 107.2,32.4 106,33 108.1,37.6 		"/>
		<polygon id="XMLID_343_" fill="#1D9DD9" points="105,27.8 102.8,23.1 101.6,23.7 103.8,28.3 		"/>
		<path id="XMLID_342_" fill="#1D9DD9" d="M172.2,138.5h0.9c0.1-0.5,0.3-0.9,0.4-1.4h-1.3V138.5z"/>
		<path id="XMLID_341_" fill="#1D9DD9" d="M172.2,126.9h3.4c0-0.4,0.1-0.9,0.1-1.4h-3.6V126.9z"/>
		<path id="XMLID_340_" fill="#1D9DD9" d="M172.2,109.2v1.4h4.6c0-0.5,0.1-0.9,0.1-1.4H172.2z"/>
		<path id="XMLID_339_" fill="#1D9DD9" d="M162.4,153.4l1.6,3.4c0.3-0.4,0.6-0.9,0.9-1.3l-1.3-2.7L162.4,153.4z"/>
		<path id="XMLID_338_" fill="#1D9DD9" d="M33.9,154.2c0.3,0.5,0.6,0.9,0.8,1.4l1-2.1l-1.2-0.6L33.9,154.2z"/>
	</g>
</g>
<g id="sevicio-creacion-apps" display="none">
	<g id="XMLID_20_" display="inline">
		<path id="XMLID_139_" fill="#1D9DD9" d="M100,7.1c51.2,0,92.9,41.7,92.9,92.9s-41.7,92.9-92.9,92.9S7.1,151.2,7.1,100
			S48.8,7.1,100,7.1 M100,0C44.8,0,0,44.8,0,100s44.8,100,100,100s100-44.8,100-100S155.2,0,100,0L100,0z"/>
	</g>
	<g id="XMLID_142_" display="inline">
		<g id="XMLID_146_">
			<g id="XMLID_158_">
				<path id="XMLID_159_" fill="#1D9DD9" d="M165,77.4l-36.7-29.5c-6.3-5-15.1-4.4-19.7,1.3l-55.4,69c-4.6,5.8-3.3,14.5,3,19.5
					l36.7,29.5c6.3,5,15.1,4.4,19.7-1.3l55.4-69C172.6,91.2,171.2,82.4,165,77.4z M88.9,148.1c-1.4,1.8-5.2,1.1-8.5-1.6
					c-3.3-2.6-4.8-6.2-3.4-8c1.4-1.8,5.2-1.1,8.5,1.6C88.8,142.8,90.3,146.4,88.9,148.1z M155.6,99.4l-34.3,42.7
					c-5,6.3-11.5,9.4-14.5,7l-36.1-29c-3-2.4-1.3-9.4,3.7-15.6l34.3-42.7c5-6.3,11.5-9.4,14.5-7l36.1,29
					C162.3,86.2,160.7,93.2,155.6,99.4z"/>
			</g>
			<g id="XMLID_155_">
				<g id="XMLID_156_">
					<path id="XMLID_59_" fill="#1D9DD9" d="M86.4,37.1C76.1,37.4,64,44.3,54.1,55.4c-10.4,11.7-16,25.3-15,36.5
						c0.2,2,1.9,3.5,3.9,3.3c0,0,0.1,0,0.1,0c2-0.2,3.4-2,3.2-3.9c-0.8-9.1,4.3-20.9,13.2-31c8.5-9.5,18.8-15.7,27-15.9
						c2-0.1,3.6-1.7,3.5-3.8C90.1,38.6,88.4,37,86.4,37.1z"/>
				</g>
			</g>
			<g id="XMLID_149_">
				<g id="XMLID_152_">
					<path id="XMLID_58_" fill="#1D9DD9" d="M86.9,51.8c-7.5,0.2-15.8,5-22.4,12.9c-6.7,8-9.9,17.4-8.7,25.1c0.3,1.9,2.1,3.3,4,3.1
						c0.1,0,0.1,0,0.2,0c2-0.3,3.3-2.2,3-4.2c-0.9-5.6,1.9-13,7.1-19.3c5.2-6.2,11.7-10.1,17-10.3c2,0,3.6-1.7,3.5-3.7
						C90.6,53.3,88.9,51.8,86.9,51.8z"/>
				</g>
			</g>
		</g>
	</g>
</g>
<g id="sevicio-hosting" display="none">
	<g id="XMLID_14_" display="inline">
		<path id="XMLID_134_" fill="#1D9DD9" d="M100,7.1c51.2,0,92.9,41.7,92.9,92.9s-41.7,92.9-92.9,92.9S7.1,151.2,7.1,100
			S48.8,7.1,100,7.1 M100,0C44.8,0,0,44.8,0,100s44.8,100,100,100s100-44.8,100-100S155.2,0,100,0L100,0z"/>
	</g>
	<g id="XMLID_217_" display="inline">
		<g id="XMLID_248_">
			<g id="XMLID_267_">
				<path id="XMLID_268_" fill="#1D9DD9" d="M46,153.1c0,1.5,1.2,2.7,2.7,2.7h33.9v-5.5H48.7C47.2,150.3,46,151.6,46,153.1z"/>
			</g>
			<g id="XMLID_265_">
				<path id="XMLID_266_" fill="#1D9DD9" d="M150.7,150.3h-33.9v5.5h33.9c1.5,0,2.7-1.2,2.7-2.7
					C153.4,151.6,152.2,150.3,150.7,150.3z"/>
			</g>
			<g id="XMLID_258_">
				<path id="XMLID_259_" fill="#1D9DD9" d="M75.1,118.8h49.5c2.7,0,4.9-2.2,4.9-4.8v-7.6c0-2.7-2.2-4.8-4.9-4.8H75.1
					c-2.7,0-4.9,2.2-4.9,4.8v7.6C70.2,116.6,72.4,118.8,75.1,118.8z M120.1,106c2.3,0,4.2,1.9,4.2,4.2c0,2.3-1.9,4.2-4.2,4.2
					c-2.3,0-4.2-1.9-4.2-4.2C115.9,107.9,117.8,106,120.1,106z"/>
			</g>
			<g id="XMLID_253_">
				<path id="XMLID_254_" fill="#1D9DD9" d="M75.1,98.8h49.5c2.7,0,4.9-2.2,4.9-4.8v-7.6c0-2.7-2.2-4.8-4.9-4.8H75.1
					c-2.7,0-4.9,2.2-4.9,4.8V94C70.2,96.6,72.4,98.8,75.1,98.8z M120.1,86c2.3,0,4.2,1.9,4.2,4.2c0,2.3-1.9,4.2-4.2,4.2
					c-2.3,0-4.2-1.9-4.2-4.2C115.9,87.9,117.8,86,120.1,86z"/>
			</g>
			<g id="XMLID_249_">
				<path id="XMLID_250_" fill="#1D9DD9" d="M110.9,146.5h-8.4v-7.7h22.1c2.7,0,4.9-2.2,4.9-4.8v-7.6c0-2.7-2.2-4.8-4.9-4.8H75.1
					c-2.7,0-4.9,2.2-4.9,4.8v7.6c0,2.7,2.2,4.8,4.9,4.8h22.1v7.7h-8.4c-1.3,0-2.4,1.1-2.4,2.4v7.9c0,1.3,1.1,2.4,2.4,2.4h22.2
					c1.3,0,2.4-1.1,2.4-2.4V149C113.3,147.6,112.2,146.5,110.9,146.5z M120.1,126.1c2.3,0,4.2,1.9,4.2,4.2c0,2.3-1.9,4.2-4.2,4.2
					c-2.3,0-4.2-1.9-4.2-4.2C115.9,127.9,117.8,126.1,120.1,126.1z"/>
			</g>
		</g>
		<g id="XMLID_218_">
			<path id="XMLID_236_" fill="#1D9DD9" d="M171.2,84.2c-1.8-4.4-4.5-8.3-7.8-11.6c-3.4-3.4-7.3-6-11.6-7.8
				c-4.4-1.9-9.1-2.8-13.9-2.9c-1-3-2.4-5.8-4.1-8.5c-2.4-3.7-5.4-7.1-8.8-9.8c-3.5-2.8-7.4-5-11.6-6.5c-4.4-1.6-8.9-2.3-13.6-2.3
				c-4.7,0-9.3,0.8-13.6,2.4c-4.2,1.5-8.1,3.7-11.7,6.5c-3.5,2.8-6.5,6.1-8.8,9.9c-1.7,2.7-3.1,5.5-4.1,8.4c-4.6,0.1-9,1.1-13.3,2.9
				c-4.4,1.8-8.3,4.5-11.6,7.8c-3.4,3.4-6,7.3-7.8,11.6c-1.9,4.5-2.9,9.3-2.9,14.2c0,4.9,1,9.7,2.9,14.2c1.8,4.4,4.5,8.3,7.8,11.6
				c3.4,3.4,7.3,6,11.6,7.8c4.5,1.9,9.3,2.9,14.2,2.9c0.2,0,0.3,0,0.5,0v-9.2c-0.2,0-0.4,0-0.5,0c-15.1,0-27.4-12.3-27.4-27.4
				C35.1,83.3,47.3,71,62.4,71c2.1,0,4.1,0.2,6,0.7l0.9-3.7c3.3-14.2,15.8-24,30.4-24c14.5,0,27,9.9,30.4,24l0.9,3.9
				c2.1-0.5,4.2-0.8,6.5-0.8c13.5,0,24.7,9.7,27,22.5c0.3,1.6,0.4,3.2,0.4,4.8c0,4.5-1.1,8.8-3,12.5c-4.5,8.8-13.7,14.8-24.3,14.8
				c-0.2,0-0.5,0-0.7,0v9.2c0.3,0,0.5,0,0.8,0c4.9,0,9.7-1,14.2-2.9c4.4-1.8,8.3-4.5,11.6-7.8c3.4-3.4,6-7.3,7.8-11.6
				c1.9-4.5,2.9-9.3,2.9-14.2C174.1,93.5,173.1,88.7,171.2,84.2z"/>
		</g>
	</g>
</g>
<g id="sevicio-mantenimiento-web" display="none">
	<g id="XMLID_19_" display="inline">
		<path id="XMLID_70_" fill="#1D9DD9" d="M100,7.1c51.2,0,92.9,41.7,92.9,92.9s-41.7,92.9-92.9,92.9S7.1,151.2,7.1,100
			S48.8,7.1,100,7.1 M100,0C44.8,0,0,44.8,0,100s44.8,100,100,100s100-44.8,100-100S155.2,0,100,0L100,0z"/>
	</g>
	<g id="XMLID_108_" display="inline">
		<g id="XMLID_129_">
			<path id="XMLID_33_" fill="#1D9DD9" d="M122.1,142c0,0,0,0.6,0,1.4c0,0.8-0.6,1.4-1.4,1.4H79.3c-0.8,0-1.4-0.6-1.4-1.4
				c0-0.8,0-1.4,0-1.4H30.5c0,0,0,1.9,0,4.3c0,2.4,1.9,4.3,4.3,4.3h130.3c2.4,0,4.3-1.9,4.3-4.3c0-2.4,0-4.3,0-4.3H122.1z"/>
		</g>
		<g id="XMLID_127_">
			<path id="XMLID_32_" fill="#1D9DD9" stroke="#0AAC94" stroke-width="0.1003" stroke-miterlimit="10" d="M66.8,108.5"/>
		</g>
		<g id="XMLID_124_">
			<path id="XMLID_31_" fill="#1D9DD9" d="M126.9,87c-2.2,0-4.2,0.4-6.1,1.2l-14.9-14.9l17.4-17.5l4.6,0L137,42l0.1-0.1l-5-5.1l0,0
				l0,0l0,0.1l-13.8,9.2l0,4.6l0,0l-17.5,17.5L86.2,53.6c0.8-1.9,1.2-4,1.2-6.1c0-8.9-7.3-16.2-16.2-16.2c-1.6,0-3.1,0.2-4.6,0.7
				l10.2,10.2l-1.8,9l-9.2,2L55.6,42.9c-0.4,1.5-0.7,3-0.7,4.6c0,8.9,7.3,16.2,16.2,16.2c2.2,0,4.2-0.4,6.1-1.2l12.4,12.4
				l-29.6,29.9c0,0-2.7,3.8,1.9,7.8c2,1.8,3.7,2.2,4.9,2.2c1.6,0,2.4-0.8,2.4-0.8L99,84.2l12.9,12.9c-0.8,1.9-1.2,4-1.2,6.1
				c0,8.9,7.3,16.2,16.2,16.2c1.6,0,3.1-0.2,4.6-0.7l-10.2-10.2l1.8-9l9.2-2l10.2,10.2c0.4-1.5,0.7-3,0.7-4.6
				C143.1,94.2,135.8,87,126.9,87z"/>
		</g>
		<g id="XMLID_112_">
			<g id="XMLID_116_">
				<path id="XMLID_30_" fill="#1D9DD9" d="M156.8,60.6l-30.9,0l-6.7,6.7h31.4c0.9,0,1.6,0.7,1.6,1.6v57.4c0,0.9-0.7,1.6-1.6,1.6
					H49.4c-0.9,0-1.6-0.7-1.6-1.6V68.9c0-0.9,0.7-1.6,1.6-1.6h13.4c-3.4-1.5-6.4-3.8-8.6-6.7h-11c-1.1,0-2,0.9-2,2v70
					c0,1.1,0.9,2,2,2h113.7c1.1,0,2-0.9,2-2v-70C158.8,61.5,157.9,60.6,156.8,60.6z"/>
			</g>
		</g>
	</g>
</g>
<g id="sevicio-diseno-grafico" display="none">
	<g id="XMLID_13_" display="inline">
		<path id="XMLID_57_" fill="#1D9DD9" d="M100,7.1c51.2,0,92.9,41.7,92.9,92.9s-41.7,92.9-92.9,92.9S7.1,151.2,7.1,100
			S48.8,7.1,100,7.1 M100,0C44.8,0,0,44.8,0,100s44.8,100,100,100s100-44.8,100-100S155.2,0,100,0L100,0z"/>
	</g>
	<g id="XMLID_173_" display="inline">
		<g id="XMLID_185_">
			<path id="XMLID_186_" fill="#1D9DD9" d="M104.2,164.2c-13.1,0-22.9-10.6-33.6-24l-2-2.5c-10.7-13.6-24-30.4-40.4-20.6l-1.9-3.2
				c19.2-11.5,34.2,7.6,45.2,21.5l1.9,2.5c15.6,19.6,27.5,31.2,50.6,14.6l2.1,3C117.9,161.6,110.7,164.2,104.2,164.2z"/>
		</g>
		<g id="XMLID_183_">
			
				<rect id="XMLID_184_" x="64.9" y="132.1" transform="matrix(-0.7072 -0.707 0.707 -0.7072 23.3973 285.8055)" fill="#1D9DD9" width="11.9" height="11.9"/>
		</g>
		<g id="XMLID_181_">
			<path id="XMLID_182_" fill="#1D9DD9" d="M121,151.6c1.4-2.5,4.6-3.4,7.1-1.9c2.5,1.4,3.4,4.6,1.9,7.1c-1.4,2.5-4.6,3.4-7.1,1.9
				C120.4,157.3,119.5,154.1,121,151.6z"/>
		</g>
		<g id="XMLID_179_">
			<path id="XMLID_180_" fill="#1D9DD9" d="M22.9,112.9c1.4-2.5,4.6-3.4,7.1-1.9c2.5,1.4,3.4,4.6,1.9,7.1c-1.4,2.5-4.6,3.4-7.1,1.9
				C22.3,118.6,21.4,115.4,22.9,112.9z"/>
		</g>
		<g id="XMLID_174_">
			<g id="XMLID_177_">
				<path id="XMLID_178_" fill="#1D9DD9" d="M90.8,69.6c1.8,10-7.9,43.6-11.6,55.9l30.9-30.9c-0.7-1.9-0.3-4.1,1.2-5.6
					c2-2,5.4-2,7.4,0c2,2.1,2,5.4,0,7.4c-1.5,1.5-3.7,1.9-5.6,1.2l-31.2,31.2c11.9-3.6,46-13.6,56.2-11.8
					c1.7-23.9,20.8-43.5,20.8-43.5l-24.6-24.6C134.3,48.8,114.7,67.9,90.8,69.6z"/>
			</g>
			<g id="XMLID_175_">
				
					<rect id="XMLID_176_" x="147.3" y="31.5" transform="matrix(0.7071 -0.7071 0.7071 0.7071 4.6089 123.5542)" fill="#1D9DD9" width="8.2" height="49.4"/>
			</g>
		</g>
	</g>
</g>
<g id="sevicio-dominios" display="none">
	<g id="XMLID_1_" display="inline">
		<path id="XMLID_52_" fill="#1D9DD9" d="M100,7.1c51.2,0,92.9,41.7,92.9,92.9s-41.7,92.9-92.9,92.9S7.1,151.2,7.1,100
			S48.8,7.1,100,7.1 M100,0C44.8,0,0,44.8,0,100s44.8,100,100,100s100-44.8,100-100S155.2,0,100,0L100,0z"/>
	</g>
	<g id="XMLID_99_" display="inline">
		<path id="XMLID_101_" fill="#1D9DD9" d="M111.8,102.3h-9.4v23.9h22.7c2.2-3.1,3.8-6.2,5-9c0.3-1.8,0.5-3.6,0.7-5.5l-8.8-4.4
			L111.8,102.3z M121.7,55.7c-5.4-10.3-12.3-16.3-19.3-17.3v30.3h24.5C125.4,63.9,123.7,59.5,121.7,55.7z M102.4,73.5v24h16.3
			l4.2-1.2l8.1-2.4c-0.4-7.2-1.4-14.1-2.9-20.4H102.4z M102.4,143.3c8.3-2.7,14.4-7.2,18.9-12.2h-18.9V143.3z M63.1,102.3H38.7
			c0.3,8.5,2.2,16.6,5.6,23.9h21.5C64.1,118.8,63.2,110.8,63.1,102.3z M66,73.5H44.7c-3.5,7.3-5.6,15.4-6,24h24.4
			C63.3,89,64.3,80.9,66,73.5z M46.7,131.1c0.1,0.1,0.2,0.2,0.2,0.4c8.1,7.7,17.1,11.2,24.8,12.9c-1.8-4-3.4-8.5-4.7-13.2
			L46.7,131.1z M69.1,97.5h27.2v-24H72.2C70.4,80.8,69.3,88.9,69.1,97.5z M118.8,41.1c3.1,3.2,5.9,7.2,8.2,11.8
			c2.5,4.7,4.5,10,6.2,15.8h20C145.4,55.7,133.3,45.7,118.8,41.1z M155.7,73.5h-21.3c1.4,5.8,2.2,12.1,2.7,18.7l19.4-5.7l3.4-1
			C158.9,81.2,157.5,77.3,155.7,73.5z M78.7,55.7c-2,3.8-3.8,8.2-5.2,13h22.8V38.7C89.9,40.4,83.7,46.2,78.7,55.7z M73.4,52.9
			c2.4-4.5,5.1-8.5,8.2-11.8c-14.5,4.6-26.7,14.6-34.3,27.6h19.9C68.9,62.9,70.9,57.5,73.4,52.9z M78.7,145c0,0.1,0.1,0.2,0.2,0.4
			c2.9,0.3,5.3,0.3,7.1,0.3c3.7,0,7.2-0.3,10.4-0.9v-13.7H73.2C74.7,136.2,76.6,141,78.7,145z M72,126.3h24.4v-23.9H69.1
			C69.2,110.9,70.3,118.9,72,126.3z M139,109.3l-14.3-7.2l35.7-9.5l12.9,35.1c0,0-9.9-5.1-14.1-7.5c-12.5,36-56,61.3-97.9,28
			C128.5,166.4,139,109.3,139,109.3z"/>
	</g>
</g>
<g id="sevicio-soporte-tecnico" display="none">
	<g id="XMLID_247_" display="inline">
		<path id="XMLID_28_" fill="#1D9DD9" d="M100,7.1c51.2,0,92.9,41.7,92.9,92.9s-41.7,92.9-92.9,92.9S7.1,151.2,7.1,100
			S48.8,7.1,100,7.1 M100,0C44.8,0,0,44.8,0,100s44.8,100,100,100s100-44.8,100-100S155.2,0,100,0L100,0z"/>
	</g>
	<g id="XMLID_74_" display="inline">
		<g id="XMLID_109_">
			<g id="XMLID_128_">
				<path id="XMLID_130_" fill="#1D9DD9" d="M87.9,109.9c0.8,1,2,1.8,3.3,2.2l13.7,4.3l-1.6-11.9L87.9,109.9z"/>
			</g>
			<g id="XMLID_123_">
				<path id="XMLID_125_" fill="#1D9DD9" d="M132.1,98.1c1.8,0.5,3.5,0.6,5,0.1L177.4,86c-0.5-0.5-1.2-0.9-1.9-1.2l-71.3-22.1
					c-0.8-0.3-1.7-0.3-2.5-0.2l26.2,32.8C128.9,96.6,130.4,97.5,132.1,98.1z"/>
			</g>
			<g id="XMLID_121_">
				<path id="XMLID_122_" fill="#1D9DD9" d="M86.1,105c0,0.4,0,0.8,0,1.1l5.1-1.8L86.1,105z"/>
			</g>
			<g id="XMLID_118_">
				<path id="XMLID_119_" fill="#1D9DD9" d="M97.3,67.8L92.3,84l2.5,19l8-2.8l-4.5-34.3C97.9,66.5,97.6,67.1,97.3,67.8z"/>
			</g>
			<g id="XMLID_115_">
				<path id="XMLID_117_" fill="#1D9DD9" d="M178.1,90.5l-34,10.3l21.6,29.7c0.6-0.7,1-1.5,1.3-2.5L178,92.8
					c0.2-0.8,0.3-1.6,0.3-2.4L178.1,90.5z"/>
			</g>
			<g id="XMLID_113_">
				<path id="XMLID_114_" fill="#1D9DD9" d="M139.9,102.1l-2,0.6c-2.1,0.7-4.7,0.7-7.1-0.1l0,0c-2.5-0.8-4.6-2.2-6-4.1l-1-1.3
					l-17.4,6.2l1.8,13.9l49.9,15.5c1.4,0.4,2.9,0.4,4.3,0L140,102.2C139.9,102.2,139.9,102.1,139.9,102.1z"/>
			</g>
			<g id="XMLID_110_">
				<polygon id="XMLID_111_" fill="#1D9DD9" points="101.8,69.9 105.7,99.2 120.9,93.8 				"/>
			</g>
		</g>
		<g id="XMLID_75_">
			<path id="XMLID_76_" fill="#1D9DD9" d="M108,139.8L97.7,61.6c-1.1-8.3-8.3-14.5-16.5-14.5c-0.7,0-1.4,0-2.2,0.1l-32.9,4.3
				c-9.1,1.2-15.5,9.6-14.3,18.6l10.2,78.2c1.1,8.3,8.3,14.5,16.5,14.5c0.7,0,1.4,0,2.1-0.1l32.9-4.3
				C102.7,157.2,109.2,148.9,108,139.8z M72,56.6l0.5,4.1L56,62.9l-0.5-4.1L72,56.6z M45.5,110.3l-4.8-37L90,66.8l4.8,37L45.5,110.3
				z M51.7,120.3l8.2-1.1l0.9,7.1l-8.2,1.1L51.7,120.3z M53.4,132.6l8.2-1.1l0.9,7.1l-8.2,1.1L53.4,132.6z M55.9,152L55,145l8.2-1.1
				l0.9,7.1L55.9,152z M68.2,118.1l8.2-1.1l0.9,7.1l-8.2,1.1L68.2,118.1z M69.8,130.5l8.2-1.1l0.9,7.1l-8.2,1.1L69.8,130.5z
				 M72.4,149.9l-0.9-7.1l8.2-1.1l0.9,7.1L72.4,149.9z M84.7,116l8.2-1.1l0.9,7.1l-8.2,1.1L84.7,116z M86.3,128.3l8.2-1.1l0.9,7.1
				l-8.2,1.1L86.3,128.3z M87.9,140.7l8.2-1.1l0.9,7.1l-8.2,1.1L87.9,140.7z"/>
		</g>
	</g>
</g>
</svg>
