<?xml version="1.0" encoding="UTF-8"?>
<!-- Generator: Adobe Illustrator 17.0.0, SVG Export Plug-In . SVG Version: 6.00 Build 0)  -->
<!DOCTYPE svg PUBLIC "-//W3C//DTD SVG 1.1//EN" "http://www.w3.org/Graphics/SVG/1.1/DTD/svg11.dtd">
<svg version="1.1" id="Layer_1" xmlns="http://www.w3.org/2000/svg" xmlns:xlink="http://www.w3.org/1999/xlink" x="0px" y="0px" width="140px" height="140px" viewBox="0 0 140 140" enable-background="new 0 0 140 140" xml:space="preserve">
<circle fill="#25B7D3" cx="70" cy="70" r="70"/>
<g>
	<path fill="#F0F1F1" d="M114.081,78.953c0-8.107-5.007-15.033-12.092-17.884c-5.614-13.729-14.684-19.308-25.79-19.308   c-10.44,0-19.489,5.95-23.927,14.653c-7.059-3.006-15.018,1.987-15.311,9.719C30.535,68.399,25.92,74.507,25.92,81.71   c0,9.13,7.402,16.529,16.529,16.529H97.55C97.55,98.239,114.081,95.172,114.081,78.953z"/>
	<path fill="#FFFFFF" d="M76.198,41.761c-10.44,0-19.489,5.95-23.927,14.653c-7.059-3.006-15.018,1.987-15.311,9.719   c-6.425,2.265-11.041,8.373-11.041,15.576c0,8.668,6.678,15.767,15.168,16.461L92.185,47.07   C87.598,43.408,82.199,41.761,76.198,41.761z"/>
</g>
</svg>