<svg xmlns="http://www.w3.org/2000/svg" viewBox="-11807.001 -19343.336 52.409 52.451"><defs><style>.a{fill:#2875a3;}</style></defs><g transform="translate(-11807.009 -19343.311)"><path class="a" d="M83.669,1.465,69.3,15.833l7.227,7.227L90.937,8.691a5.127,5.127,0,0,0,0-7.227A5.178,5.178,0,0,0,83.669,1.465Z" transform="translate(-40.009)"/><path class="a" d="M35.391,26.007l-7.269-7.227L26.939,17.6a2.037,2.037,0,0,1-.549-2.028,11.5,11.5,0,0,0,.338-4.015,11.857,11.857,0,0,0-1.268-4.48A12.108,12.108,0,0,0,22.67,3.483a11.948,11.948,0,0,0-3.93-2.324A12.246,12.246,0,0,0,12.824.609a1.264,1.264,0,0,0-.676,2.155l4.944,4.944a5.284,5.284,0,0,1,.127,7.353A5.153,5.153,0,0,1,9.95,15.02L4.879,10.033a1.289,1.289,0,0,0-.887-.38,1.27,1.27,0,0,0-1.268,1.1A10.824,10.824,0,0,0,2.6,12.4,12.433,12.433,0,0,0,13.542,24.613a10.3,10.3,0,0,0,1.141.042,11.677,11.677,0,0,0,3-.38,2.2,2.2,0,0,1,2.071.592L20.9,26.007l2.028,2.028,3,3,2.2,2.2,16.4,16.4A5.125,5.125,0,0,0,51.788,42.4Z" transform="translate(-1.493 -0.285)"/><path class="a" d="M12.894,83.555,12.81,82.5a1.819,1.819,0,0,1,.549-1.437L18.3,76.117a.332.332,0,0,1,.465,0,2.551,2.551,0,0,0,3.634,0l1.648-1.648L22.023,72.44l-1.606-1.606-1.606-1.606L16.782,67.2l-1.648,1.648a2.551,2.551,0,0,0,0,3.634.332.332,0,0,1,0,.465l-4.987,4.944a1.819,1.819,0,0,1-1.437.549l-1.057-.085a1.262,1.262,0,0,0-1.1.465L.3,86.513a1.3,1.3,0,0,0,.085,1.733l1.31,1.31,1.31,1.31a1.293,1.293,0,0,0,1.733.085L12.429,84.7A1.711,1.711,0,0,0,12.894,83.555Z" transform="translate(0 -38.815)"/></g></svg>