<svg id="Capa_1" data-name="Capa 1" xmlns="http://www.w3.org/2000/svg" xmlns:xlink="http://www.w3.org/1999/xlink" viewBox="0 0 40 40"><defs><style>.cls-1{fill:none;}.cls-2{clip-path:url(#clip-path);}.cls-3{fill:#2a3963;}</style><clipPath id="clip-path"><rect class="cls-1" x="1.2" y="2.87" width="37.6" height="34.26"/></clipPath></defs><title>Mesa de trabajo 1</title><g class="cls-2"><path class="cls-3" d="M24.39,17.41l1.75,1,3.51-2-5.26-3.13Zm0,0"/><path class="cls-3" d="M35,11l1.25-2.26C37.3,7,34.41,5,33,4.25s-4.51-2.38-5.51-.5l-1.75,3A28,28,0,0,0,20,6.13C9.6,6.13,1.2,11.77,1.2,18.66S9.6,31.19,20,31.19h.13c.13,1.5-1.63,4-4.14,5.26a17.3,17.3,0,0,0,14.41-7.4c5-2.26,8.27-6,8.27-10.4.25-2.88-1.25-5.51-3.64-7.64ZM9.85,22.17a1.76,1.76,0,1,1,1.75-1.75,1.79,1.79,0,0,1-1.75,1.75Zm4.64,0a1.76,1.76,0,1,1,1.75-1.75,1.71,1.71,0,0,1-1.75,1.75Zm4.64,0a1.76,1.76,0,1,1,1.75-1.75,1.71,1.71,0,0,1-1.75,1.75Zm11.16-5.39-3.63,2-3,1.63V12.89l5-8.65c.25-.5,2,0,3.89,1S35.67,7.5,35.29,8Zm0,0"/></g></svg>