<svg id="Capa_1" data-name="Capa 1" xmlns="http://www.w3.org/2000/svg" viewBox="0 0 40 40"><defs><style>.cls-1{fill:#263469;}</style></defs><title>Mesa de trabajo 1</title><path class="cls-1" d="M31.22,20.66a8.09,8.09,0,0,0,3.36-6.35,6.06,6.06,0,0,0-11.52-2.66,2.84,2.84,0,0,1,.64,1.78v5a7.37,7.37,0,0,0,2.09,2.23,11.82,11.82,0,0,0-2.09.76V25.7a2.85,2.85,0,0,1-2.84,2.84h-2L20,29.68v1.17c5.76,1.66,19.46,1.06,19.46-1.8,0-3.06-3.52-7.19-8.28-8.39Zm-2.71,11.1-3.08-3.08L28,22.42h0l-1-1.16a4.44,4.44,0,0,0,1.52.28A4.5,4.5,0,0,0,30,21.27l-1,1.15h0l2.59,6.27Zm0,0"/><path class="cls-1" d="M20.86,11.5H2.42A1.93,1.93,0,0,0,.5,13.43V25.7a1.93,1.93,0,0,0,1.92,1.93h8.43v1.64H5l-.78.78v.78H19.12v-.78l-.79-.78h-5.9V27.63h8.43a1.93,1.93,0,0,0,1.93-1.93V13.43a1.93,1.93,0,0,0-1.93-1.92Zm0,0"/></svg>