<?xml version="1.0" encoding="windows-1252"?>
<!-- Generator: Adobe Illustrator 16.0.0, SVG Export Plug-In . SVG Version: 6.00 Build 0)  -->
<!DOCTYPE svg PUBLIC "-//W3C//DTD SVG 1.1//EN" "http://www.w3.org/Graphics/SVG/1.1/DTD/svg11.dtd">
<svg version="1.1" id="Capa_1" xmlns="http://www.w3.org/2000/svg" xmlns:xlink="http://www.w3.org/1999/xlink" x="0px" y="0px" width="500px" height="500px" viewBox="0 0 500 500" enable-background="new 0 0 500 500" xml:space="preserve">
<g>
	<path d="M494.343,482.033L428.5,311.516c-0.975-2.526-2.953-4.538-5.459-5.557l-97.982-39.896   c-2.229-0.908-4.707-0.966-6.973-0.173l-3.583,1.263c29.097-45.318,62.265-106.533,62.265-150.216   c0-61.938-50.48-112.326-112.552-112.326c-62.065,0-112.557,50.389-112.557,112.321c0,53.522,50.183,133.327,81.53,177.972   l-95.259-32.184c-3.584-1.21-7.578-0.254-10.219,2.469L7.773,388.781c-2.11,2.171-3.1,5.196-2.677,8.183   c0.418,2.997,2.195,5.638,4.814,7.141l155.848,89.872c0.005,0,0.01,0,0.014,0l0.137,0.086c0.103,0.059,0.216,0.082,0.319,0.125   c0.432,0.23,0.862,0.461,1.333,0.634c0.123,0.044,0.257,0.058,0.379,0.097c0.173,0.058,0.343,0.096,0.521,0.134   c0.596,0.154,1.191,0.245,1.784,0.284c0.12,0.004,0.242,0.028,0.36,0.028c0.074,0,0.142,0.024,0.216,0.024   c0.197,0,0.384-0.082,0.581-0.097c0.667-0.038,1.328-0.13,1.981-0.307c0.319-0.087,0.62-0.202,0.929-0.312   c0.286-0.11,0.586-0.163,0.867-0.303l136.539-67.374c0.913,0.317,1.873,0.553,2.891,0.596c0.13,0.01,0.26,0.01,0.38,0.01   c0.768,0,1.513-0.11,2.229-0.288l164.198,67.325c1.2,0.505,2.478,0.735,3.736,0.735c2.525,0,5.009-0.966,6.872-2.8   C494.852,489.837,495.754,485.693,494.343,482.033z M240.649,216.747c0-13.371,11.064-24.666,24.191-24.666   c13.402,0,24.711,11.295,24.711,24.666c0,13.104-11.319,24.167-24.711,24.167C251.713,240.914,240.649,229.851,240.649,216.747z    M217.453,85.193c-2.055-1.806-1.798-4.879,0-6.68c0,0,19.064-22.618,52.286-22.618c27.276,0,52.526,19.02,52.526,44.97   c0,33.903-38.619,34.931-38.619,62.687c0,2.831-2.324,4.887-4.898,4.887h-27.55c-2.583,0-4.884-2.051-4.884-4.887v-10.78   c0-21.603,35.545-31.097,35.545-47.536c0-7.977-8.255-15.165-19.324-15.165c-18.027,0-22.914,16.197-29.355,10.543L217.453,85.193z    M163.717,404.052c6.415,2.368,13.124,4.12,19.938,5.167c0.257,0.039,0.506,0.058,0.754,0.058c1.337,0,2.552-0.581,3.45-1.493   l-22.364,63.369L30.667,393.4l60.783-62.639c1.422,3.18,3.415,7.348,6.099,12.197c0.9,1.619,2.572,2.536,4.308,2.536   c0.802,0,1.618-0.197,2.37-0.61c2.375-1.311,3.241-4.298,1.928-6.67c-3.791-6.857-6.161-12.337-7.277-15.098l38.631-39.814   l84.233,28.462l-32.532,92.191c-0.192-2.199-1.772-4.087-4.058-4.438c-6.157-0.937-12.214-2.521-18.018-4.667   c-2.533-0.932-5.374,0.355-6.32,2.905C159.871,400.287,161.169,403.111,163.717,404.052z M308.04,342.143   c-1.858,1.58-2.348,4.294-0.96,6.378c0.202,0.308,0.446,0.557,0.696,0.797l-2.243,58.836l-117.378,57.923l53.899-152.722   l3.522-1.234c6.716,9.104,11.253,14.877,12.089,15.943c1.69,2.137,4.27,3.381,7.002,3.381h0.019c2.742-0.01,5.321-1.264,7.007-3.41   c1.287-1.642,11.304-14.512,24.649-33.711l13.725-4.812L308.04,342.143z M325.169,409.344l2.501-65.602   c0.798-0.178,1.595-0.37,2.401-0.523c2.67-0.499,4.418-3.063,3.919-5.725c-0.51-2.67-3.068-4.398-5.743-3.918   c-0.067,0.01-0.125,0.033-0.192,0.053l1.695-44.453l81.924,33.355l56.104,145.298L325.169,409.344z"/>
	<path d="M125.317,365.399c-1.811-2.017-4.917-2.194-6.944-0.394c-2.027,1.806-2.202,4.903-0.394,6.935   c4.648,5.19,9.6,9.945,14.714,14.133c0.92,0.739,2.017,1.108,3.112,1.108c1.426,0,2.838-0.609,3.806-1.791   c1.726-2.104,1.412-5.195-0.687-6.9C134.203,374.615,129.625,370.226,125.317,365.399z"/>
	<path d="M234.418,388.325c-5.945,2.617-11.969,4.903-17.89,6.81c-2.581,0.835-4.002,3.597-3.176,6.18   c0.674,2.084,2.603,3.4,4.682,3.4c0.502,0,1.009-0.077,1.51-0.24c6.246-2.002,12.584-4.418,18.839-7.175   c2.483-1.095,3.609-3.99,2.516-6.463C239.807,388.363,236.911,387.226,234.418,388.325z"/>
	<path d="M383.961,340.52c-6.473-2.795-13.062-4.945-19.583-6.357c-2.632-0.576-5.263,1.109-5.849,3.76   c-0.567,2.637,1.118,5.259,3.774,5.84c5.892,1.282,11.86,3.217,17.739,5.776c0.647,0.278,1.311,0.403,1.954,0.403   c1.906,0,3.712-1.109,4.519-2.958C387.592,344.486,386.449,341.596,383.961,340.52z"/>
	<path d="M280.312,361.745c-5.82,4.062-11.103,7.568-16.168,10.719c-2.306,1.431-3.002,4.461-1.57,6.761   c0.932,1.489,2.545,2.315,4.188,2.315c0.888,0,1.776-0.24,2.593-0.74c5.215-3.246,10.642-6.857,16.596-10.996   c2.228-1.552,2.766-4.615,1.21-6.844C285.604,360.728,282.541,360.189,280.312,361.745z"/>
	<path d="M407.454,359.776c-1.672,2.142-1.302,5.22,0.845,6.887c4.808,3.755,9.643,7.976,14.401,12.581   c0.946,0.922,2.176,1.373,3.415,1.373c1.286,0,2.563-0.499,3.539-1.493c1.887-1.944,1.839-5.052-0.11-6.938   c-4.999-4.822-10.104-9.288-15.18-13.244C412.217,357.265,409.125,357.64,407.454,359.776z"/>
</g>
</svg>