<?xml version="1.0" encoding="UTF-8"?>
<!-- Generator: Adobe Illustrator 21.1.0, SVG Export Plug-In . SVG Version: 6.00 Build 0)  -->
<svg version="1.1" id="Capa_1" xmlns="http://www.w3.org/2000/svg" xmlns:xlink="http://www.w3.org/1999/xlink" x="0px" y="0px" viewBox="0 0 30 30" style="enable-background:new 0 0 30 30;" xml:space="preserve">
<title>Mesa de trabajo 1</title>
<g id="XMLID_1989_">
	<path id="XMLID_1990_" d="M24.2,22.1l-4-4c1-1.4,1.4-2.9,1.4-4.6c0-1.1-0.2-2.1-0.6-3.2c-0.4-1-1-1.9-1.7-2.6   c-0.7-0.7-1.6-1.3-2.6-1.7c-1-0.4-2.1-0.6-3.2-0.6s-2.1,0.2-3.2,0.6c-1,0.4-1.9,1-2.6,1.7c-0.7,0.7-1.3,1.6-1.7,2.6   c-0.4,1-0.6,2.1-0.6,3.2c0,1.1,0.2,2.1,0.6,3.1c0.4,1,1,1.9,1.7,2.6c0.7,0.7,1.6,1.3,2.6,1.7c1,0.4,2.1,0.6,3.2,0.6   c1.7,0,3.2-0.5,4.6-1.4l4,3.9c0.3,0.3,0.6,0.4,1,0.4c0.4,0,0.7-0.1,1-0.4c0.3-0.3,0.4-0.6,0.4-1C24.6,22.7,24.4,22.4,24.2,22.1   L24.2,22.1z M17.2,17.2c-1,1-2.2,1.5-3.6,1.5c-1.4,0-2.6-0.5-3.6-1.5c-1-1-1.5-2.2-1.5-3.6s0.5-2.6,1.5-3.6c1-1,2.2-1.5,3.6-1.5   c1.4,0,2.6,0.5,3.6,1.5c1,1,1.5,2.2,1.5,3.6S18.2,16.2,17.2,17.2L17.2,17.2z M17.2,17.2"/>
</g>
</svg>