<?xml version="1.0" encoding="windows-1252"?>
<!-- Generator: Adobe Illustrator 19.0.0, SVG Export Plug-In . SVG Version: 6.00 Build 0)  -->
<svg version="1.1" id="Layer_1" xmlns="http://www.w3.org/2000/svg" xmlns:xlink="http://www.w3.org/1999/xlink" x="0px" y="0px" viewBox="0 0 508 508" style="enable-background:new 0 0 508 508;" xml:space="preserve">
<circle style="fill:#54C0EB;" cx="254" cy="254" r="254"/>
<path style="fill:#324A5E;" d="M358,138.8c0,59.2-46.4,246-104,246S150,198,150,138.8S196.4,31.6,254,31.6S358,79.6,358,138.8z"/>
<g>
	<path style="fill:#FFD05B;" d="M304.4,280.4L304.4,280.4c0.4,0.4,0.8,0.8,0.8,1.2C305.2,281.2,304.8,280.8,304.4,280.4   c-1.2-3.2-2.4-6.4-2.4-9.6l-4.4-60.8h-87.2l-3.2,45.6l0,0l-1.2,15.2c-0.4,4-1.2,7.6-3.2,10.8c0.4-0.4,0.4-0.8,0.8-1.2l0,0   L140,395.2l28.8,37.6l85.2,65.6l85.2-66l28.8-37.6L304.4,280.4z"/>
	<path style="fill:#FFD05B;" d="M368,395.2l-28.8,37.6L254,498.4l-85.2-66L140,394.8l63.6-114.4l0,0c-0.4,0.4-0.4,0.8-0.8,1.2   c1.2-1.6,2-3.6,2.4-5.6c0.4-1.6,0.8-3.6,0.8-5.2l1.2-14.8l0,0l3.2-46h87.2l4.4,60.8c0,2,0.4,4,1.2,5.6c0.4,1.2,0.8,2.8,1.6,4   c0,0.4,0.4,0.4,0.4,0.8c0-0.4-0.4-0.4-0.4-0.8c0,0,0,0,0,0.4L368,395.2z"/>
</g>
<path style="fill:#2C9984;" d="M208.4,371.2c0,0,36,25.6,91.6,0c0,0-21.6,111.6-45.6,127.2C254,498.4,201.2,404,208.4,371.2z"/>
<g>
	<path style="fill:#E6E9EE;" d="M254,508L254,508c-2.8,0-5.6,0-8.4,0c-79.2-2.4-149.6-41.6-194-100.8c20.8-50.8,56-54.8,56-54.8   c56-26.8,89.2-64.8,91.2-67.2l-12,26l24,102.8L254,508z"/>
	<path style="fill:#E6E9EE;" d="M456.8,407.2C410.4,468.4,336.8,508,254,508l0,0l43.2-94l24-102.8l-12-26c2,2.4,35.6,40.4,91.6,67.2   C400.8,352.4,435.6,356.4,456.8,407.2z"/>
</g>
<path style="fill:#FFFFFF;" d="M323.2,395.2l7.2,37.6C302,448,281.6,481.2,262.8,508c-2.8,0-5.6,0-8.4,0c-2.8,0-5.6,0-8.4,0  c-18.8-26.8-39.2-60-67.6-75.2l7.2-37.6h-36c14.8-67.2,52.4-112.4,54.8-114.4c-1.2,2.4-19.2,38.8,7.6,97.6c0,0,23.2,66.8,42.8,120.4  c18.8-54,42-120.8,42-120.8c27.2-58.8,9.2-95.2,7.6-97.6c2.4,2,40,47.6,54.8,114.4h-36V395.2z"/>
<g>
	<path style="fill:#324A5E;" d="M276.8,437.2l-0.4,6l-3.6,64c-6.4,0.4-12.4,0.8-18.8,0.8s-12.8-0.4-18.8-0.8l-3.6-64l-0.4-6H276.8z"/>
	<circle style="fill:#324A5E;" cx="254" cy="340.8" r="36"/>
</g>
<path style="fill:#FF7058;" d="M292.4,443.2h-76.8c-5.6,0-10-4.4-10-10V380c0-5.6,4.4-10,10-10h77.2c5.6,0,10,4.4,10,10v53.6  C302.4,438.8,298,443.2,292.4,443.2z"/>
<g>
	<path style="fill:#FFFFFF;" d="M220.8,388.4v7.2h10.4v29.6h8v-29.6h10.4v-7.2H220.8z"/>
	<path style="fill:#FFFFFF;" d="M278.4,388.4l-9.2,23.2l-9.2-23.2h-8.8l14.8,36.4h6.8l14.8-36.4H278.4z"/>
</g>
<path style="fill:#F9B54C;" d="M303.2,276.4c-14,12.8-30.8,20.4-49.2,20.4s-35.2-7.6-49.2-20.8c0.4-1.6,0.8-3.6,0.8-5.2l1.2-14.8  l0,0l3.6-46h87.2l4.4,60.8C302,272.8,302.4,274.4,303.2,276.4z"/>
<path style="fill:#FFD05B;" d="M339.6,192c-9.2,53.6-44,93.2-85.6,93.2c-43.2,0-79.2-44-86.4-100c14-17.6,26.8-42.4,34-61.2  c4.4-11.6,20-12.8,26.4-2.4C245.6,149.6,283.2,190.8,339.6,192z"/>
<g>
</g>
<g>
</g>
<g>
</g>
<g>
</g>
<g>
</g>
<g>
</g>
<g>
</g>
<g>
</g>
<g>
</g>
<g>
</g>
<g>
</g>
<g>
</g>
<g>
</g>
<g>
</g>
<g>
</g>
</svg>