<?xml version="1.0" encoding="iso-8859-1"?>
<!-- Generator: Adobe Illustrator 19.0.0, SVG Export Plug-In . SVG Version: 6.00 Build 0)  -->
<svg version="1.1" id="Layer_1" xmlns="http://www.w3.org/2000/svg" xmlns:xlink="http://www.w3.org/1999/xlink" x="0px" y="0px"
	 viewBox="0 0 512 512" style="enable-background:new 0 0 512 512;" xml:space="preserve">
<circle style="fill:#FFD15D;" cx="256" cy="256" r="256"/>
<path style="fill:#F9B54C;" d="M512,256c0-6.704-0.26-13.346-0.767-19.921l-95.534-95.534c0,0-103.815-59.952-179.236-46.161
	S101.998,184.027,98.981,233.589c-3.017,49.562-2.37,111.192,63.736,166.571L273.384,511.4C406.659,502.46,512,391.54,512,256z"/>
<circle style="fill:#324A5E;" cx="264.62" cy="268.067" r="143.619"/>
<path style="fill:#2B3B4E;" d="M264.621,124.449c-3.091,0-6.151,0.131-9.194,0.324V411.36c3.043,0.193,6.103,0.324,9.194,0.324
	c79.319,0,143.619-64.3,143.619-143.619S343.938,124.449,264.621,124.449z"/>
<path style="fill:#31BAFD;" d="M162.718,400.16c0,0-1.796-1.376-5.163-3.953c-1.643-1.339-3.667-3.01-6.013-5.013
	c-2.286-2.065-4.956-4.406-7.758-7.228c-5.658-5.584-12.174-12.778-18.742-21.773c-6.587-8.975-13.091-19.844-18.73-32.444
	c-2.836-6.315-5.298-13.033-7.518-20.251c-0.51-1.758-1.026-3.531-1.545-5.316c-0.459-1.869-0.919-3.751-1.384-5.649
	c-0.505-1.905-0.8-3.806-1.212-5.735c-0.193-0.964-0.386-1.931-0.579-2.901c-0.153-0.977-0.309-1.958-0.462-2.943
	c-2.613-15.738-2.996-32.775-0.914-50.192c2.051-17.391,6.958-35.25,14.534-52.096c7.718-17.111,18.185-33.096,31.023-47.252
	c6.408-7.066,13.383-13.648,20.818-19.644l5.668-4.375l5.827-4.146c1.967-1.345,3.984-2.607,5.975-3.908l0.748-0.484l0.188-0.121
	l0.378-0.219l0.36-0.214l1.439-0.855l2.874-1.707c8.354-4.798,16.915-8.845,25.61-12.198c8.713-3.36,17.589-6.027,26.483-8.016
	c17.791-4.032,35.645-5.136,52.481-4.068c1.052,0.079,2.101,0.16,3.146,0.24l1.565,0.121l0.781,0.06l0.195,0.016
	c0.2,0.024-0.172-0.033,0.498,0.059l0.357,0.041c1.903,0.221,3.794,0.44,5.67,0.657c0.891,0.086,1.958,0.26,3.01,0.429
	c1.046,0.167,2.088,0.334,3.125,0.502c1.038,0.171,2.07,0.34,3.098,0.509c0.983,0.198,1.962,0.398,2.936,0.595
	c7.818,1.505,15.253,3.562,22.288,5.863c7.063,2.241,13.621,5.006,19.816,7.737c6.122,2.888,11.878,5.794,17.074,8.913
	c10.462,6.127,19.013,12.483,25.729,18.11c3.401,2.77,6.237,5.48,8.761,7.783l0.467,0.429c0.302,0.314,0.602,0.626,0.896,0.934
	c0.257,0.265,0.51,0.526,0.757,0.781c0.495,0.51,0.971,0.998,1.424,1.467c0.907,0.934,1.733,1.784,2.47,2.544
	c2.953,3.043,4.529,4.667,4.529,4.667l-28.058,25.517c0,0-1.465-1.722-4.213-4.953c-1.233-1.452-2.753-3.241-4.539-5.344
	c-1.901-1.962-4.015-4.299-6.609-6.699c-5.099-4.882-11.673-10.49-19.894-16.067c-4.075-2.843-8.647-5.523-13.534-8.252
	c-4.963-2.574-10.237-5.249-15.984-7.485c-5.718-2.298-11.807-4.436-18.263-6.118c-0.805-0.221-1.614-0.443-2.424-0.667
	c-0.781-0.181-1.565-0.362-2.353-0.545c-0.788-0.184-1.577-0.369-2.372-0.555c-0.788-0.188-1.564-0.381-2.544-0.543
	c-1.858-0.34-3.729-0.683-5.615-1.027l-0.353-0.064c0.552,0.072,0.06,0.007,0.14,0.017l-0.162-0.022l-0.652-0.091l-1.307-0.186
	c-0.874-0.126-1.75-0.252-2.629-0.378c-14.086-1.826-29.329-1.927-44.842,0.536c-7.754,1.207-15.572,3.001-23.323,5.417
	c-7.768,2.42-15.436,5.46-22.787,9.044l-2.981,1.515l-1.491,0.759l-0.374,0.19c0.026-0.017-0.322,0.174,0.012-0.017l-0.171,0.097
	l-0.684,0.383c-1.817,1.031-3.67,2.02-5.479,3.089l-5.379,3.315l-5.265,3.537c-6.932,4.875-13.529,10.324-19.678,16.27
	c-12.293,11.855-22.819,25.852-30.741,40.722c-8.042,15.141-13.598,31.149-16.598,47.285c-3.003,16.1-3.722,32.165-2.22,47.237
	c0.084,0.945,0.169,1.884,0.253,2.822c0.124,0.933,0.248,1.862,0.371,2.788c0.271,1.841,0.434,3.722,0.788,5.496
	c0.315,1.796,0.628,3.577,0.938,5.346c0.4,1.814,0.798,3.613,1.191,5.398c1.634,6.882,3.598,13.609,5.925,19.84
	c4.639,12.503,10.268,23.505,16.134,32.704c5.847,9.223,11.798,16.732,17.029,22.618c2.589,2.974,5.079,5.463,7.216,7.664
	c2.193,2.136,4.093,3.924,5.644,5.37C161.016,398.67,162.718,400.16,162.718,400.16z"/>
<path style="fill:#2B9ED8;" d="M411.17,135.246c-0.738-0.76-1.564-1.61-2.47-2.544c-0.453-0.467-0.929-0.957-1.424-1.467
	c-0.248-0.255-0.5-0.515-0.757-0.781c-0.297-0.309-0.595-0.619-0.896-0.934l-0.467-0.429c-2.522-2.303-5.36-5.013-8.761-7.783
	c-6.716-5.627-15.265-11.983-25.729-18.11c-5.196-3.12-10.952-6.025-17.074-8.913c-6.196-2.731-12.753-5.496-19.816-7.737
	c-7.034-2.301-14.469-4.36-22.288-5.863c-0.974-0.198-1.953-0.396-2.936-0.595c-1.029-0.169-2.062-0.34-3.098-0.509
	c-1.038-0.165-2.079-0.334-3.125-0.502c-1.052-0.169-2.119-0.343-3.01-0.429c-1.876-0.217-3.767-0.436-5.67-0.657l-0.357-0.041
	c-0.669-0.091-0.298-0.034-0.498-0.059l-0.195-0.016l-0.781-0.06l-1.565-0.121c-1.045-0.079-2.095-0.16-3.146-0.24
	c-10.262-0.65-20.906-0.481-31.679,0.653v27.231c9.964-0.519,19.685-0.081,28.906,1.114c0.879,0.126,1.755,0.252,2.629,0.378
	l1.307,0.186l0.652,0.091l0.162,0.022c-0.081-0.01,0.41,0.055-0.14-0.017l0.353,0.064c1.886,0.345,3.756,0.688,5.615,1.027
	c0.981,0.162,1.757,0.355,2.544,0.543c0.793,0.186,1.584,0.371,2.372,0.555c0.788,0.183,1.572,0.364,2.353,0.545
	c0.812,0.222,1.62,0.445,2.424,0.667c6.456,1.683,12.545,3.82,18.263,6.118c5.747,2.236,11.021,4.911,15.984,7.485
	c4.887,2.729,9.459,5.41,13.534,8.252c8.221,5.577,14.795,11.185,19.894,16.067c2.594,2.4,4.708,4.737,6.609,6.699
	c1.788,2.103,3.306,3.894,4.539,5.344c2.748,3.231,4.213,4.953,4.213,4.953l28.058-25.517
	C415.699,139.912,414.125,138.288,411.17,135.246z"/>
<circle style="fill:#FFFFFF;" cx="264.62" cy="268.067" r="115.174"/>
<path style="fill:#E6F3FF;" d="M264.621,152.893c-3.098,0-6.158,0.159-9.194,0.398v229.55c3.036,0.24,6.096,0.398,9.194,0.398
	c63.609,0,115.174-51.565,115.174-115.174S328.228,152.893,264.621,152.893z"/>
<g>
	<path style="fill:#324A5E;" d="M172.99,321.424c-1.931-3.291-0.81-7.514,2.465-9.43l0,0c3.293-1.931,7.516-0.81,9.447,2.467l0,0
		c1.914,3.291,0.793,7.514-2.482,9.43l0,0c-1.103,0.638-2.293,0.948-3.465,0.948l0,0
		C176.576,324.837,174.266,323.613,172.99,321.424z M347.157,323.424c-3.31-1.912-4.448-6.12-2.534-9.43l0,0
		c1.896-3.293,6.103-4.43,9.413-2.534l0,0c3.293,1.896,4.43,6.12,2.534,9.413l0,0c0,0,0,0,0,0.017l0,0
		c-1.276,2.207-3.603,3.448-5.982,3.448l0,0C349.415,324.337,348.243,324.044,347.157,323.424z M158.596,268.483
		c0-0.069,0-0.155,0-0.224l0,0c0-0.069,0-0.119,0-0.188l0,0c0-3.81,3.086-6.896,6.896-6.896l0,0c3.81,0,6.896,3.086,6.896,6.896l0,0
		c0,0.069,0,0.119,0,0.188l0,0c0,0.052,0,0.121,0,0.174l0,0c0.017,3.81-3.051,6.913-6.861,6.913l0,0c-0.017,0-0.017,0-0.034,0l0,0
		C161.699,275.344,158.613,272.275,158.596,268.483z M356.845,267.879c0-3.81,3.069-6.896,6.878-6.896l0,0
		c3.81-0.017,6.913,3.069,6.913,6.878l0,0c0,3.81-3.069,6.896-6.878,6.896l0,0C359.948,274.775,356.862,271.689,356.845,267.879z
		 M175.301,224.489c-3.31-1.914-4.43-6.12-2.517-9.413l0,0c1.896-3.31,6.12-4.43,9.413-2.517l0,0c3.293,1.896,4.43,6.12,2.517,9.413
		l0,0c-1.276,2.207-3.586,3.448-5.982,3.448l0,0C177.559,225.42,176.387,225.127,175.301,224.489z M344.433,221.818
		c-1.914-3.293-0.793-7.516,2.5-9.431l0,0c3.293-1.912,7.516-0.793,9.43,2.5l0,0c1.914,3.293,0.793,7.516-2.5,9.431l0,0
		c-1.086,0.636-2.276,0.931-3.448,0.931l0,0C348.036,225.249,345.709,224.023,344.433,221.818z M209.037,185.701
		c-1.914-3.293-0.793-7.516,2.5-9.43l0,0c3.293-1.914,7.516-0.793,9.43,2.498l0,0c1.914,3.312,0.776,7.516-2.517,9.431l0,0
		c-1.086,0.638-2.276,0.931-3.448,0.931l0,0C212.623,189.133,210.313,187.909,209.037,185.701z M310.627,188.116
		c-3.293-1.898-4.43-6.122-2.517-9.413l0,0c1.896-3.312,6.12-4.43,9.413-2.536l0,0c3.293,1.898,4.43,6.12,2.534,9.413l0,0
		c-1.276,2.224-3.603,3.467-5.982,3.467l0,0C312.903,189.047,311.713,188.735,310.627,188.116z M257.634,168.946
		c-0.017-3.81,3.069-6.896,6.878-6.896l0,0c3.81,0,6.896,3.067,6.913,6.877l0,0c0,3.81-3.086,6.915-6.896,6.915l0,0
		C260.72,175.842,257.634,172.756,257.634,168.946z"/>
	<path style="fill:#324A5E;" d="M165.492,275.344c0.017,0,0.017,0,0.034,0c3.81,0,6.878-3.103,6.861-6.913c0-0.052,0-0.121,0-0.174
		c0-0.069,0-0.119,0-0.188c0-3.81-3.086-6.896-6.896-6.896s-6.896,3.086-6.896,6.896c0,0.069,0,0.119,0,0.188s0,0.155,0,0.224"/>
	<path style="fill:#324A5E;" d="M218.45,188.201c3.293-1.914,4.43-6.12,2.517-9.431c-1.914-3.291-6.137-4.413-9.43-2.498
		c-3.293,1.912-4.413,6.137-2.5,9.43"/>
</g>
<g>
	<path style="fill:#2B3B4E;" d="M350.415,225.249c1.172,0,2.362-0.295,3.448-0.931c3.293-1.914,4.413-6.139,2.5-9.431
		s-6.137-4.413-9.43-2.5c-3.293,1.914-4.413,6.139-2.5,9.432C345.709,224.023,348.036,225.249,350.415,225.249z"/>
	<path style="fill:#2B3B4E;" d="M363.723,260.984c-3.81,0-6.878,3.086-6.878,6.896c0.017,3.81,3.103,6.896,6.913,6.878
		c3.81,0,6.878-3.086,6.878-6.896S367.533,260.967,363.723,260.984z"/>
	<path style="fill:#2B3B4E;" d="M354.035,311.46c-3.31-1.898-7.516-0.759-9.413,2.534c-1.914,3.31-0.776,7.516,2.534,9.43
		c1.086,0.621,2.258,0.914,3.431,0.914c2.379,0,4.706-1.241,5.982-3.448c0-0.017,0-0.017,0-0.017
		C358.466,317.58,357.328,313.356,354.035,311.46z"/>
	<path style="fill:#2B3B4E;" d="M264.513,162.049c-3.81,0-6.896,3.086-6.878,6.896c0,3.81,3.086,6.896,6.896,6.896
		s6.896-3.105,6.896-6.915C271.408,165.117,268.322,162.049,264.513,162.049z"/>
	<path style="fill:#2B3B4E;" d="M317.523,176.168c-3.293-1.896-7.516-0.776-9.413,2.536c-1.914,3.291-0.776,7.514,2.517,9.413
		c1.086,0.619,2.276,0.931,3.448,0.931c2.379,0,4.706-1.243,5.982-3.467C321.953,182.288,320.815,178.066,317.523,176.168z"/>
</g>
<path style="fill:#2B9ED8;" d="M330.471,228.802l-68.725,49.435c-4.825,3.47-11.581,2.084-14.645-3.007l0,0
	c-3.063-5.091-1.127-11.716,4.194-14.362l75.804-37.671C330.711,221.403,333.746,226.445,330.471,228.802z"/>
<path style="fill:#2888AD;" d="M327.099,223.198l-71.671,35.618v21.318c2.176,0.084,4.399-0.515,6.318-1.896l68.725-49.435
	C333.746,226.445,330.711,221.403,327.099,223.198z"/>
<g>
</g>
<g>
</g>
<g>
</g>
<g>
</g>
<g>
</g>
<g>
</g>
<g>
</g>
<g>
</g>
<g>
</g>
<g>
</g>
<g>
</g>
<g>
</g>
<g>
</g>
<g>
</g>
<g>
</g>
</svg>
