<?xml version="1.0" encoding="windows-1252"?>
<!-- Generator: Adobe Illustrator 18.1.1, SVG Export Plug-In . SVG Version: 6.00 Build 0)  -->
<svg version="1.1" id="Capa_1" xmlns="http://www.w3.org/2000/svg" xmlns:xlink="http://www.w3.org/1999/xlink" x="0px" y="0px" viewBox="0 0 285 285" style="enable-background:new 0 0 285 285;" xml:space="preserve">
<g>
	<g>
		<path d="M121.918,224.353c-1.145,0.848-2.487,1.45-4.015,1.45H89.842c-3.804,0-6.877-3.074-6.877-6.868v-28.061    c0-3.794,3.073-6.869,6.877-6.869h23.695c0.346-6.269,1.348-12.413,3.099-18.308H89.842c-3.804,0-6.877-3.077-6.877-6.875v-28.055    c0-3.8,3.073-6.875,6.877-6.875h28.062c3.785,0,6.853,3.074,6.853,6.875v16.755c3.304-5.458,7.206-10.598,11.839-15.225    c15.011-15.008,34.957-23.277,56.19-23.277c5.35,0,10.619,0.532,15.74,1.568l-70.131-60.511c-2.573-2.22-6.401-2.22-8.969,0    l-90.548,78.119c-1.516,1.308-2.394,3.201-2.394,5.205v112.966c0,3.788,3.074,6.862,6.878,6.862h103.499    c-3.612-2.573-7.082-5.396-10.267-8.591C130.558,238.609,125.685,231.744,121.918,224.353z"/>
		<path d="M280.989,257.26l-18.79-18.806c-3.588-3.59-8.653-4.725-13.236-3.516l-5.121-5.118    c20.911-25.785,19.39-63.832-4.589-87.817c-12.413-12.41-28.915-19.248-46.468-19.248s-34.073,6.838-46.475,19.248    c-12.419,12.419-19.26,28.915-19.26,46.461c0,17.556,6.841,34.054,19.26,46.464c12.401,12.426,28.922,19.267,46.475,19.267    c15.228,0,29.675-5.171,41.347-14.668l5.127,5.13c-1.206,4.568-0.08,9.624,3.501,13.208l18.79,18.802    c2.678,2.694,6.197,4.03,9.716,4.03c3.514,0,7.033-1.333,9.711-4.02C286.339,271.321,286.339,262.625,280.989,257.26z     M156.021,225.222c-9.828-9.822-15.228-22.872-15.228-36.757c0-13.876,5.399-26.926,15.228-36.748    c9.821-9.813,22.872-15.224,36.764-15.224c13.885,0,26.923,5.412,36.764,15.224c20.255,20.262,20.255,53.228,0.006,73.49    c0,0.003-0.006,0.003-0.006,0.013c0,0.003,0,0.006-0.013,0.006c-9.834,9.819-22.872,15.233-36.751,15.233    C178.899,240.458,165.843,235.043,156.021,225.222z"/>
		<path d="M245.135,131.792c2.585,2.229,5.776,3.321,8.949,3.321c3.859,0,7.7-1.624,10.409-4.778    c4.948-5.758,4.299-14.427-1.453-19.375L142.859,7.625c-5.146-4.429-12.759-4.429-17.898,0L4.786,110.96    c-5.764,4.948-6.407,13.616-1.466,19.375c4.954,5.752,13.619,6.389,19.365,1.457L133.91,36.15L245.135,131.792z"/>
	</g>
</g>
<g>
</g>
<g>
</g>
<g>
</g>
<g>
</g>
<g>
</g>
<g>
</g>
<g>
</g>
<g>
</g>
<g>
</g>
<g>
</g>
<g>
</g>
<g>
</g>
<g>
</g>
<g>
</g>
<g>
</g>
</svg>