<?xml version="1.0" encoding="windows-1252"?>
<!-- Generator: Adobe Illustrator 16.0.0, SVG Export Plug-In . SVG Version: 6.00 Build 0)  -->
<!DOCTYPE svg PUBLIC "-//W3C//DTD SVG 1.1//EN" "http://www.w3.org/Graphics/SVG/1.1/DTD/svg11.dtd">
<svg version="1.1" id="Capa_1" xmlns="http://www.w3.org/2000/svg" xmlns:xlink="http://www.w3.org/1999/xlink" x="0px" y="0px" width="431.579px" height="431.579px" viewBox="0 0 431.579 431.579" style="enable-background:new 0 0 431.579 431.579;" xml:space="preserve">
<g>
	<path d="M374.052,366.976v-89.005c0-40.229-25.7-74.354-61.543-87.122v-43.24c0-15.75-12.791-28.52-28.537-28.52   c-15.771,0-28.555,12.77-28.555,28.52c0,0,2.943,37.793-35.075,37.793c-38.042,0-42.058-37.793-42.058-37.793   c0-15.75-12.755-28.52-28.528-28.52c-15.761,0-28.537,12.77-28.537,28.52v44.803c-33.585,13.89-57.216,46.95-57.216,85.552v89.749   c-6.783,3.896-11.419,11.101-11.419,19.482c0,12.43,10.095,22.514,22.508,22.514h289.214c12.454,0,22.538-10.084,22.538-22.514   C386.849,378.265,381.6,370.616,374.052,366.976z M219.024,327.976c-27.807,0-50.36-22.543-50.36-50.348   c0-27.816,22.559-50.354,50.36-50.354c27.798,0,50.372,22.537,50.372,50.354C269.396,305.438,246.828,327.976,219.024,327.976z    M245.469,277.309c0,14.931-12.094,27.013-27.027,27.013c-14.919,0-27.012-12.082-27.012-27.013s12.093-27.023,27.012-27.023   C233.375,250.285,245.469,262.378,245.469,277.309z M430.754,137.212l0.047,0.018c-0.112,0.521-0.225,1.005-0.319,1.52   c-0.177,0.913-0.36,1.755-0.538,2.58c-0.082,0.337-0.147,0.694-0.23,1.058c-1.081,4.43-2.109,7.01-2.109,7.01   s-0.071-0.068-0.16-0.136c-7.654,19.201-24.535,31.239-41.653,24.988l-37.864-15.767c-20.428-7.454-33.349-35.216-28.897-62.016   l0.366-2.175c-46.316-12.886-138.714-17.898-207.562,1.581l0.84,5.098c4.457,26.799-8.497,54.55-28.901,61.995L45.93,174.822   c-19.919,7.271-39.531-5.556-44.626-31.153c-4.74-15.058-7.492-117.674,199.772-121.652   C419.564,17.812,436.298,104.522,430.754,137.212z"/>
</g>
<g>
</g>
<g>
</g>
<g>
</g>
<g>
</g>
<g>
</g>
<g>
</g>
<g>
</g>
<g>
</g>
<g>
</g>
<g>
</g>
<g>
</g>
<g>
</g>
<g>
</g>
<g>
</g>
<g>
</g>
</svg>