<?xml version="1.0" encoding="iso-8859-1"?>
<!-- Generator: Adobe Illustrator 19.0.0, SVG Export Plug-In . SVG Version: 6.00 Build 0)  -->
<svg version="1.1" id="Layer_1" xmlns="http://www.w3.org/2000/svg" xmlns:xlink="http://www.w3.org/1999/xlink" x="0px" y="0px"
	 viewBox="0 0 492 492" style="enable-background:new 0 0 492 492;" xml:space="preserve">
<rect x="54" y="396" style="fill:#F9BDA0;" width="384" height="96"/>
<path style="fill:#542F08;" d="M150,138.4l76-15.2l4.8,104.8L202,260.8l4,36.8c0,0-33.6,20-44.8-0.8s-15.2-148-16.8-151.2
	C143.6,143.2,150,138.4,150,138.4z"/>
<path style="fill:#3D1F03;" d="M144.4,146.4c-1.6-2.4,4.8-8,4.8-8l76-15.2l5.6,104.8L202,260.8l4,36.8"/>
<path style="fill:#542F08;" d="M342,138.4l-76-15.2L261.2,228l28.8,32.8l-4,36.8c0,0,33.6,20,44.8-0.8
	c11.2-20.8,15.2-148,16.8-151.2C348.4,143.2,342,138.4,342,138.4z"/>
<path style="fill:#3D1F03;" d="M347.6,146.4c1.6-2.4-4.8-8-4.8-8l-76-15.2L261.2,228l28.8,32.8l-4,36.8"/>
<rect x="198" y="196" style="fill:#F9BDA0;" width="96" height="208"/>
<polygon style="fill:#EAA78C;" points="294,296.8 294,196 198,196 246.8,335.2 "/>
<path style="fill:#FCCCB9;" d="M322,116c0,73.6-36.8,140-76,140s-76-66.4-76-140s36.8-85.6,76-85.6S322,42.4,322,116z"/>
<g>
	<path style="fill:#F9BDA0;" d="M246,30.4c39.2,0,76,12,76,85.6s-36.8,140-76,140"/>
	<polygon style="fill:#F9BDA0;" points="201.2,302.4 42.8,351.2 50.8,488 242.8,440 	"/>
</g>
<polyline style="fill:#FCCCB9;" points="42.8,351.2 50.8,488 242.8,440 "/>
<polygon style="fill:#F9BDA0;" points="290.8,302.4 449.2,351.2 441.2,488 249.2,440 "/>
<polyline style="fill:#EAA78C;" points="449.2,351.2 441.2,488 249.2,440 "/>
<path style="fill:#663D0C;" d="M228.4,16c0,0,23.2,116.8,119.2,128.8c0,0,3.2-72-23.2-103.2c-26.4-31.2-67.2-27.2-67.2-27.2
	L228.4,16z"/>
<path style="fill:#894D0C;" d="M282,16c0,0,19.2,91.2-137.6,134.4c0,0-12-76.8,19.2-110.4c31.2-32.8,87.2-27.2,87.2-27.2L282,16z"/>
<path style="fill:#663D0C;" d="M250.8,12.8l31.2,4c0,0,19.2,91.2-137.6,134.4"/>
<rect x="54" y="396" style="fill:#24D1FF;" width="384" height="96"/>
<rect x="54" y="404" style="fill:#0CAAEF;" width="384" height="88"/>
<polygon style="fill:#037193;" points="239.6,492 190.8,306.4 42,354.4 46,492 "/>
<polygon style="fill:#0C537A;" points="239.6,492 190.8,306.4 42,354.4 62.8,492 "/>
<g>
	<polygon style="fill:#00233F;" points="239.6,492 190.8,306.4 42,354.4 94.8,492 	"/>
	<polygon style="fill:#00233F;" points="252.4,492 301.2,306.4 450,354.4 446,492 	"/>
</g>
<path style="fill:#0CAAEF;" d="M312.4,220h-15.2c-2.4,0-4-1.6-4-4s1.6-4,4-4h15.2c11.2,0,21.6-8.8,21.6-20v-16c0-2.4,1.6-4,4-4
	s4,1.6,4,4v16C342,207.2,327.6,220,312.4,220z"/>
<path style="fill:#24D1FF;" d="M301.2,213.6c0,8-6.4,13.6-13.6,13.6l0,0c-8,0-13.6-6.4-13.6-13.6l0,0c0-8,6.4-13.6,13.6-13.6l0,0
	C294.8,200,301.2,206.4,301.2,213.6L301.2,213.6z"/>
<g>
	<path style="fill:#0CAAEF;" d="M286.8,228L286.8,228c-8,0-13.6-6.4-13.6-13.6l0,0c0-8,6.4-13.6,13.6-13.6l0,0"/>
	<path style="fill:#0CAAEF;" d="M346,127.2c-2.4,0-4-1.6-4-4C342,59.2,298.8,8,246,8s-96,51.2-96,115.2c0,2.4-1.6,4-4,4s-4-1.6-4-4
		C142,55.2,188.4,0,246,0s104,55.2,104,123.2C350,124.8,348.4,127.2,346,127.2z"/>
</g>
<path style="fill:#24D1FF;" d="M174,168c0,10.4-9.6,19.2-20,19.2l0,0c-10.4,0-20-8.8-20-19.2v-31.2c0-10.4,9.6-19.2,20-19.2l0,0
	c10.4,0,20,8.8,20,19.2V168z"/>
<path style="fill:#0CAAEF;" d="M153.2,117.6L153.2,117.6c10.4,0,20.8,8.8,20.8,19.2V168c0,10.4-9.6,19.2-20,19.2l0,0"/>
<path style="fill:#24D1FF;" d="M318,136.8c0-10.4,9.6-19.2,20-19.2l0,0c10.4,0,20,8.8,20,19.2V168c0,10.4-9.6,19.2-20,19.2l0,0
	c-10.4,0-20-8.8-20-19.2V136.8z"/>
<path style="fill:#0CAAEF;" d="M338.8,187.2L338.8,187.2c-10.4,0-20.8-8.8-20.8-19.2v-31.2c0-10.4,9.6-19.2,20-19.2l0,0"/>
<g>
</g>
<g>
</g>
<g>
</g>
<g>
</g>
<g>
</g>
<g>
</g>
<g>
</g>
<g>
</g>
<g>
</g>
<g>
</g>
<g>
</g>
<g>
</g>
<g>
</g>
<g>
</g>
<g>
</g>
</svg>
