<?xml version="1.0" encoding="windows-1252"?>
<!-- Generator: Adobe Illustrator 17.1.0, SVG Export Plug-In . SVG Version: 6.00 Build 0)  -->
<!DOCTYPE svg PUBLIC "-//W3C//DTD SVG 1.1//EN" "http://www.w3.org/Graphics/SVG/1.1/DTD/svg11.dtd">
<svg version="1.1" id="Capa_1" xmlns="http://www.w3.org/2000/svg" xmlns:xlink="http://www.w3.org/1999/xlink" x="0px" y="0px" viewBox="0 0 201.544 201.544" style="enable-background:new 0 0 201.544 201.544;" xml:space="preserve">
<path d="M196.301,10.93c-3.382-3.382-7.879-5.245-12.663-5.245c-4.784,0-9.281,1.863-12.664,5.245L90.984,90.92l25.327,25.327  l79.991-79.991C203.285,29.274,203.285,17.912,196.301,10.93z M189.07,25.232L120.322,93.98c-0.976,0.976-2.256,1.464-3.535,1.464  s-2.56-0.488-3.535-1.464c-1.953-1.953-1.953-5.119,0-7.071l68.748-68.748c1.951-1.952,5.119-1.952,7.07,0  C191.023,20.114,191.023,23.28,189.07,25.232z M193.812,159.51l-53.311-53.311l-17.119,17.119l2.636,2.636  c1.953,1.953,1.953,5.119,0,7.071c-0.976,0.976-2.256,1.464-3.535,1.464c-1.279,0-2.56-0.488-3.535-1.464l-6.17-6.17  c-0.001-0.001-0.002-0.001-0.002-0.002l-12.664-12.664l0,0l-7.071-7.071l0,0L80.377,94.456c0,0,0,0,0,0l-6.172-6.172  c-1.953-1.953-1.953-5.119,0-7.071c1.951-1.952,5.119-1.952,7.07,0l2.637,2.637l17.119-17.119L85.7,51.399  c2.669-13.993-1.75-28.605-11.881-38.736C65.655,4.497,54.796,0,43.246,0c-4.118,0-8.206,0.583-12.15,1.734  c-1.696,0.495-3.005,1.848-3.443,3.559c-0.439,1.711,0.059,3.527,1.309,4.776L45.45,26.559c3.492,3.493,3.492,9.176,0,12.67  l-6.22,6.22c-1.692,1.692-3.942,2.624-6.335,2.624s-4.643-0.932-6.335-2.624L10.071,28.959c-1.249-1.25-3.064-1.747-4.775-1.308  c-1.712,0.438-3.065,1.748-3.56,3.443c-4.813,16.492,0.609,34.298,13.811,45.364c7.791,6.529,17.621,10.126,27.68,10.126  c2.771,0,5.537-0.27,8.255-0.803l31.449,31.449L31.59,168.57l-2.765-2.766c-1.054-1.054-2.512-1.583-4.01-1.442  c-1.484,0.142-2.828,0.938-3.665,2.173L6.547,188.091c-1.345,1.985-1.091,4.645,0.604,6.34l5.649,5.648  c0.967,0.967,2.247,1.464,3.537,1.464c0.972,0,1.949-0.283,2.803-0.86l21.555-14.602c1.234-0.836,2.031-2.181,2.173-3.665  c0.142-1.485-0.388-2.955-1.442-4.01l-2.765-2.765l51.341-51.34l69.51,69.51c4.581,4.581,10.672,7.104,17.149,7.104  c6.479,0,12.569-2.523,17.15-7.104C203.268,184.354,203.268,168.967,193.812,159.51z M183.794,183.793  c-2.392,2.392-5.572,3.709-8.954,3.709c-3.383,0-6.563-1.317-8.954-3.71c-4.937-4.937-4.937-12.97,0.001-17.907  c2.391-2.392,5.57-3.709,8.953-3.709c3.382,0,6.563,1.317,8.954,3.709C188.732,170.822,188.732,178.856,183.794,183.793z"/>
<g>
</g>
<g>
</g>
<g>
</g>
<g>
</g>
<g>
</g>
<g>
</g>
<g>
</g>
<g>
</g>
<g>
</g>
<g>
</g>
<g>
</g>
<g>
</g>
<g>
</g>
<g>
</g>
<g>
</g>
</svg>