<?xml version="1.0" encoding="iso-8859-1"?>
<!-- Generator: Adobe Illustrator 19.0.0, SVG Export Plug-In . SVG Version: 6.00 Build 0)  -->
<svg version="1.1" id="Layer_1" xmlns="http://www.w3.org/2000/svg" xmlns:xlink="http://www.w3.org/1999/xlink" x="0px" y="0px"
	 viewBox="0 0 512 512" style="enable-background:new 0 0 512 512;" xml:space="preserve">
<circle style="fill:#FC6F58;" cx="256" cy="256" r="256"/>
<path style="fill:#F1543F;" d="M511.228,275.99L357.71,122.473L229.567,276.109L154.29,382.626l125.59,128.255
	C403.497,499.445,501.639,400.134,511.228,275.99z"/>
<path style="fill:#FFFFFF;" d="M357.71,382.626c0,7.184-45.537,13.007-101.71,13.007s-101.71-5.823-101.71-13.007v-52.031H357.71
	V382.626z"/>
<path style="fill:#E6F3FF;" d="M256.288,330.597v65.038c56.041-0.021,101.423-5.835,101.423-13.007v-52.031H256.288z"/>
<path style="fill:#324A5E;" d="M357.71,335.72c0,7.184-45.537,13.007-101.71,13.007s-101.71-5.823-101.71-13.007v-52.031H357.71
	V335.72z"/>
<path style="fill:#2B3B4E;" d="M256.288,283.689v65.038c56.041-0.021,101.423-5.835,101.423-13.007v-52.031L256.288,283.689
	L256.288,283.689z"/>
<path style="fill:#E6F3FF;" d="M357.71,330.597c0,7.184-45.537,13.007-101.71,13.007s-101.71-5.823-101.71-13.007v-52.031H357.71
	V330.597z"/>
<path style="fill:#CFDBE6;" d="M256.288,278.566v65.038c56.041-0.021,101.423-5.835,101.423-13.007v-52.031H256.288z"/>
<path style="fill:#324A5E;" d="M357.71,283.689c0,7.184-45.537,13.007-101.71,13.007s-101.71-5.823-101.71-13.007v-52.031H357.71
	V283.689z"/>
<path style="fill:#2B3B4E;" d="M256.288,231.658v65.038c56.041-0.021,101.423-5.835,101.423-13.007v-52.031H256.288z"/>
<path style="fill:#FFFFFF;" d="M357.71,278.566c0,7.184-45.537,13.007-101.71,13.007s-101.71-5.823-101.71-13.007v-52.031H357.71
	V278.566z"/>
<path style="fill:#E6F3FF;" d="M256.288,226.535v65.038c56.041-0.021,101.423-5.835,101.423-13.007v-52.031L256.288,226.535
	L256.288,226.535z"/>
<path style="fill:#324A5E;" d="M357.71,231.658c0,7.184-45.537,13.007-101.71,13.007s-101.71-5.823-101.71-13.007v-52.031H357.71
	V231.658z"/>
<path style="fill:#2B3B4E;" d="M256.288,179.629v65.038c56.041-0.021,101.423-5.835,101.423-13.007v-52.031H256.288z"/>
<path style="fill:#E6F3FF;" d="M357.71,226.535c0,7.184-45.537,13.007-101.71,13.007s-101.71-5.823-101.71-13.007v-52.031H357.71
	V226.535z"/>
<path style="fill:#CFDBE6;" d="M256.288,174.504v65.038c56.041-0.021,101.423-5.835,101.423-13.007v-52.031L256.288,174.504
	L256.288,174.504z"/>
<path style="fill:#324A5E;" d="M357.71,179.629c0,7.184-45.537,13.007-101.71,13.007s-101.71-5.823-101.71-13.007v-52.031H357.71
	V179.629z"/>
<path style="fill:#2B3B4E;" d="M256.288,127.598v65.038c56.041-0.021,101.423-5.835,101.423-13.007v-52.031H256.288z"/>
<path style="fill:#FFFFFF;" d="M357.71,174.504c0,7.184-45.537,13.007-101.71,13.007s-101.71-5.823-101.71-13.007v-52.031H357.71
	V174.504z"/>
<g>
	<path style="fill:#E6F3FF;" d="M256.288,122.473v65.038c56.041-0.021,101.423-5.835,101.423-13.007v-52.031H256.288z"/>
	<ellipse style="fill:#E6F3FF;" cx="256" cy="122.466" rx="101.71" ry="13.007"/>
</g>
<path style="fill:#CFDBE6;" d="M357.71,122.473c0-7.171-45.382-12.986-101.423-13.007v26.014
	C312.329,135.461,357.71,129.645,357.71,122.473z"/>
<g>
</g>
<g>
</g>
<g>
</g>
<g>
</g>
<g>
</g>
<g>
</g>
<g>
</g>
<g>
</g>
<g>
</g>
<g>
</g>
<g>
</g>
<g>
</g>
<g>
</g>
<g>
</g>
<g>
</g>
</svg>
