<?xml version="1.0" encoding="utf-8"?>
<!-- Generator: Adobe Illustrator 21.0.1, SVG Export Plug-In . SVG Version: 6.00 Build 0)  -->
<svg version="1.1" id="Capa_1" xmlns="http://www.w3.org/2000/svg" xmlns:xlink="http://www.w3.org/1999/xlink" x="0px" y="0px"
	 viewBox="0 0 78.1 92.6" style="enable-background:new 0 0 78.1 92.6;" xml:space="preserve">
<style type="text/css">
	.st0{fill-rule:evenodd;clip-rule:evenodd;fill:#037DB3;}
</style>
<g>
	<g>
		<path class="st0" d="M31.2,59.5c-0.6,0-0.9,0-1.3,0c-3.1,0-6.2,0.2-9.3-0.1c-4.5-0.4-7.5-3.9-7.5-8.3c-0.1-6.2-0.1-12.5,0-18.7
			c0-4.9,3.7-8.5,8.6-8.5c11.6,0,23.3,0,34.9,0c4.8,0,8.4,3.7,8.4,8.5c0,6.2,0,12.4,0,18.5c0,5-3.6,8.6-8.7,8.6c-3.1,0-6.1,0-9.4,0
			c0.3,0.4,0.5,0.6,0.6,0.9c1.7,2.1,3.3,4.3,5,6.4c0.5,0.6,0.6,1-0.1,1.5c-1,0.7-1,0.8-1.7-0.1c-2.1-2.7-4.2-5.3-6.3-8
			c-0.3-0.5-0.7-0.6-1.3-0.6c-2.7,0-5.5,0-8.2,0c-0.6,0-0.9,0.1-1.3,0.6c-2.1,2.7-4.2,5.4-6.3,8.2c-0.6,0.8-1,0.5-1.6,0.1
			c-0.6-0.5-0.9-0.8-0.3-1.6c1.7-2.1,3.3-4.2,5-6.4C30.7,60.2,30.9,59.9,31.2,59.5z M39.1,26.2C39.1,26.2,39.1,26.2,39.1,26.2
			c-5.8,0-11.7,0-17.5,0c-3.6,0-6.1,2.6-6.1,6.2c0,6.1,0,12.2,0,18.4c0,3.9,2.6,6.4,6.4,6.4c11.4,0,22.7,0,34.1,0
			c4.2,0,6.7-2.5,6.7-6.6c0-5.9,0-11.9,0-17.8c0-4-2.5-6.5-6.5-6.5C50.5,26.2,44.8,26.2,39.1,26.2z"/>
		<path class="st0" d="M27.4,50.6c0.1,1.4-0.7,2.3-2.1,2.4c-1.2,0.1-2.3-0.9-2.4-2.1c-0.1-1.3,0.8-2.3,2.1-2.5
			c0.4-0.1,0.8-0.3,1-0.5c1.8-2,3.5-4.1,5.2-6.2c0.2-0.3,0.4-0.7,0.4-1.1c0-1.3,0.7-2.3,1.9-2.5c1.2-0.2,2.2,0.5,2.7,1.6
			c0.1,0.4,0.5,0.8,0.8,1c1.3,0.8,2.6,1.5,4,2.2c1.5,0.8,2.3,0.6,3.3-0.7c2-2.7,3.9-5.3,5.8-8c0.3-0.4,0.4-1,0.4-1.5
			c0-1.3,0.8-2.4,2-2.5c1.3-0.2,2.4,0.7,2.6,1.9c0.2,1.4-0.6,2.4-1.9,2.7c-0.3,0.1-0.7,0.3-0.9,0.6c-2.1,2.9-4.3,5.7-6.4,8.6
			c-0.2,0.3-0.3,0.8-0.3,1.1c0.1,1.2-0.6,2.4-1.8,2.7c-1.2,0.3-2.3-0.4-2.7-1.6c-0.2-0.4-0.5-0.8-0.9-1.1c-1.2-0.7-2.4-1.3-3.5-2
			c-0.9-0.6-1.8-0.7-2.8-0.4c-0.3,0.1-0.5,0.3-0.7,0.5c-1.8,2.1-3.6,4.2-5.3,6.3C27.6,49.8,27.6,50.3,27.4,50.6z"/>
	</g>
</g>
</svg>
