<svg id="Layer_1" data-name="Layer 1" xmlns="http://www.w3.org/2000/svg" viewBox="0 0 144 144"><defs><style>.cls-1{fill:#77b058;}.cls-2{fill:#fcfcfc;}.cls-3{fill:#0c870c;}.cls-4{fill:#8dc63f;}</style></defs><title>Lesson Plan</title><circle class="cls-1" cx="72" cy="72" r="72"/><circle class="cls-2" cx="72" cy="72" r="61.05"/><path class="cls-3" d="M30.68,102.13l-1.05-40.7s0-6.83,7.61-5.25c0,0-1.05-5.52,6-5.52s18.38-.26,18.38-0.26l-3,7.88S54,59.45,52,62.8,30.68,102.13,30.68,102.13Z"/><path class="cls-2" d="M60.89,64.84l11.81-34s1.58-4.2,6-4.2,23.64,0.26,23.64.26l17.07,18.65-5,18.64-3.94,4.46L61.15,65.75"/><path class="cls-3" d="M111.36,70.67L61,67.72l0.16-2.78L59,64.19,70.86,30.14c0.08-.23,2.12-5.48,7.88-5.48,4.43,0,23.47.26,23.66,0.26h0.85L121.63,45l-5.39,20.13ZM63.3,63.91l46.37,2.71,3-3.4,4.59-17.15L101.5,28.85C97.73,28.8,82.6,28.6,78.74,28.6a4.68,4.68,0,0,0-4.19,2.91Z"/><path class="cls-3" d="M101.59,28.2L97.91,43.43s-0.53,4.73,4.73,4.2,15-1.58,15-1.58Z"/><path class="cls-3" d="M103.79,108.17a8.25,8.25,0,0,1-6.54,4.33H33.83c-2.39,0-3.34-1.94-2.13-4.33L52.78,66.81a8.25,8.25,0,0,1,6.54-4.33h63.42c2.39,0,3.34,1.94,2.13,4.33Z"/><path class="cls-4" d="M93.42,39.23c0,1.08-1.3,2-2.88,2H82.93c-1.58,0-2.88-.89-2.88-2s1.3-2,2.88-2h7.61C92.12,37.26,93.42,38.15,93.42,39.23Z"/><path class="cls-4" d="M94.23,47.63c0,1.08-1.3,2-2.88,2H77.42c-1.58,0-2.88-.89-2.88-2s1.3-2,2.88-2H91.35C92.94,45.67,94.23,46.55,94.23,47.63Z"/><path class="cls-4" d="M108.94,55.25c0,1.08-1.3,2-2.88,2H73c-1.58,0-2.88-.89-2.88-2s1.3-2,2.88-2h33.11C107.64,53.28,108.94,54.17,108.94,55.25Z"/></svg>