<?xml version="1.0" encoding="windows-1252"?>
<!-- Generator: Adobe Illustrator 19.0.0, SVG Export Plug-In . SVG Version: 6.00 Build 0)  -->
<svg version="1.1" id="Layer_1" xmlns="http://www.w3.org/2000/svg" xmlns:xlink="http://www.w3.org/1999/xlink" x="0px" y="0px" viewBox="0 0 476.869 476.869" style="enable-background:new 0 0 476.869 476.869;" xml:space="preserve">
<rect x="184.588" y="298.681" style="fill:#00233F;" width="109.875" height="170.26"/>
<polygon style="fill:#0C537A;" points="299.725,248.214 454.176,301.627 476.869,468.917 245.492,468.917 "/>
<polygon style="fill:#00233F;" points="299.725,248.214 419.635,316.656 446.606,468.917 245.492,468.917 "/>
<polygon style="fill:#037193;" points="177.144,248.214 22.693,301.627 0,468.917 231.385,468.917 "/>
<polygon style="fill:#0C537A;" points="157.854,344.241 22.693,301.627 0,468.917 231.385,468.917 "/>
<g>
	<polygon style="fill:#00233F;" points="177.144,248.214 57.234,316.656 30.263,468.917 231.385,468.917  "/>
	<path style="fill:#00233F;" d="M321.237,79.458c0,39.503-29.751,71.53-66.465,71.53h-32.673c-36.691,0-66.465-32.028-66.465-71.53   l0,0c0-39.519,29.767-71.53,66.465-71.53h32.673C291.478,7.928,321.237,39.948,321.237,79.458L321.237,79.458z"/>
</g>
<polygon style="fill:#F9BDA0;" points="297.85,277.933 179.035,277.933 186.959,179.495 289.926,179.495 "/>
<polygon style="fill:#E28F71;" points="297.85,277.933 238.238,277.933 179.035,179.495 289.926,179.495 "/>
<path style="fill:#FCCCB9;" d="M318.653,100.742c0,69.782-35.155,132.923-80.203,132.923c-45.064,0-80.234-63.141-80.234-132.923  c0-69.79,35.17-81.408,80.234-81.408C283.498,19.334,318.653,30.944,318.653,100.742z"/>
<path style="fill:#F9BDA0;" d="M238.45,19.334c45.048,0,80.203,11.618,80.203,81.408c0,69.782-35.155,132.923-80.203,132.923"/>
<polygon style="fill:#1BCDEA;" points="236.497,418.529 165.478,322.178 139.847,253.452 175.97,238.312 238.45,277.855   300.898,238.312 337.022,253.452 311.391,322.178 240.388,418.529 238.387,421.939 "/>
<polyline style="fill:#039DC1;" points="238.45,277.855 300.898,238.312 337.022,253.452 311.391,322.178 240.388,418.529   238.387,421.939 236.497,418.529 "/>
<g>
	<polygon style="fill:#33ECFF;" points="175.97,238.312 236.544,279.083 165.494,316.365  "/>
	<polygon style="fill:#33ECFF;" points="300.898,238.312 240.325,279.083 311.375,316.365  "/>
</g>
<g>
	<path style="fill:#00233F;" d="M158.681,90.163c-4.277-1.867-3.419-14.509,0.339-23.064c3.773-8.57,10.295-13.982,14.541-12.107   c4.277,1.875,7.814,12.587,0.906,18.897"/>
	<path style="fill:#00233F;" d="M318.173,89.974c4.277-1.883,3.458-14.517-0.276-23.072c-3.757-8.546-10.248-13.95-14.525-12.067   c-4.261,1.883-7.845,12.611-0.937,18.897"/>
	<path style="fill:#00233F;" d="M194.016,192.626c-0.197-0.221-0.307-0.37-0.307-0.37S193.788,192.469,194.016,192.626z"/>
	<path style="fill:#00233F;" d="M282.852,192.626c0.197-0.221,0.307-0.37,0.307-0.37S283.081,192.469,282.852,192.626z"/>
	<polygon style="fill:#00233F;" points="245.035,288.788 262.601,436.575 237.355,463.553 212.11,436.575 229.683,288.788  "/>
</g>
<polygon style="fill:#0C537A;" points="242.42,282.36 258.355,307.039 237.355,322.288 216.355,307.039 232.298,282.36 "/>
<g>
	<polyline style="fill:#00233F;" points="232.298,282.36 242.42,282.36 258.355,307.039 237.355,322.288  "/>
	<path style="fill:#00233F;" d="M285.57,38.302c0,0-31.508,53.169-114.215,35.446l-10.335-7.877c0,0,6.396-66.465,95.011-51.688   l34.958,10.335L285.57,38.302z"/>
	<path style="fill:#00233F;" d="M249.139,47.163c0,0,33.477,40.369,68.923,31.508c0,0-2.458-31.019-7.877-36.431   s-22.15-21.662-22.15-21.662l-8.365,0.985L249.139,47.163z"/>
</g>
<path style="fill:#FF5B1A;" d="M103.542,458.086c0,5.986-4.844,10.831-10.823,10.831H66.552c-5.979,0-10.823-4.844-10.823-10.831  V288.473c0-5.986,4.844-10.831,10.823-10.831h26.167c5.979,0,10.823,4.844,10.823,10.831  C103.542,288.473,103.542,458.086,103.542,458.086z"/>
<path style="fill:#D64505;" d="M95.082,458.086c0,5.986-3.119,10.831-6.995,10.831H71.184c-3.86,0-7.003-4.844-7.003-10.831V288.473  c0-5.986,3.135-10.831,7.003-10.831h16.904c3.868,0,6.995,4.844,6.995,10.831C95.082,288.473,95.082,458.086,95.082,458.086z"/>
<path style="fill:#AA2102;" d="M119.903,370.07c0,6.002-4.868,10.878-10.87,10.878H50.239c-6.01,0-10.87-4.876-10.87-10.878l0,0  c0-6.002,4.86-10.878,10.87-10.878h58.793C115.035,359.192,119.903,364.067,119.903,370.07L119.903,370.07z"/>
<path style="fill:#D64505;" d="M146.849,362.453c0,5.979-4.844,10.823-10.831,10.823H23.245c-5.979,0-10.823-4.844-10.823-10.823  V309.22c0-5.994,4.844-10.847,10.823-10.847h112.774c5.986,0,10.831,4.852,10.831,10.847L146.849,362.453L146.849,362.453z"/>
<path style="fill:#C63205;" d="M146.849,309.22v53.232c0,5.979-4.844,10.823-10.831,10.823H23.245  c-5.979,0-10.823-4.844-10.823-10.823"/>
<g>
	<path style="fill:#FF5B1A;" d="M12.422,309.22c0-5.994,4.844-10.847,10.823-10.847h112.774c5.986,0,10.831,4.852,10.831,10.847"/>
</g>
<path style="fill:#323535;" d="M130.158,264.101c0,27.908-22.615,23.457-50.515,23.457c-27.916,0-50.538,4.45-50.538-23.457  s22.623-50.523,50.538-50.523C107.544,213.579,130.158,236.193,130.158,264.101z"/>
<path d="M130.158,264.101c0,27.908-22.615,29.554-50.515,29.554c-27.916,0-50.538-1.646-50.538-29.554S51.728,225.3,79.644,225.3  C107.544,225.3,130.158,236.193,130.158,264.101z"/>
<path style="fill:#C63205;" d="M123.156,358.719c0,1.843-1.504,3.348-3.356,3.348H39.463c-1.851,0-3.356-1.497-3.356-3.348v-42.394  c0-1.859,1.497-3.356,3.356-3.356H119.8c1.843,0,3.356,1.489,3.356,3.356V358.719z"/>
<path style="fill:#AA2102;" d="M119.8,312.978c1.843,0,3.356,1.489,3.356,3.356v42.394c0,1.843-1.504,3.348-3.356,3.348H39.463  c-1.851,0-3.356-1.497-3.356-3.348"/>
<g>
	<path style="fill:#FFFFFF;" d="M65.363,323.084h-18.59c-0.583,0-1.063,0.48-1.063,1.063v27.246c0,0.591,0.48,1.079,1.063,1.079   h3.978c0.575,0,1.056-0.488,1.056-1.079v-11.429h6.719c0.599,0,1.079-0.473,1.079-1.063v-3.742c0-0.583-0.48-1.063-1.079-1.063   h-6.719v-5.065h13.564c0.591,0,1.063-0.488,1.063-1.079v-3.812C66.426,323.564,65.961,323.084,65.363,323.084z"/>
	<path style="fill:#FFFFFF;" d="M87.82,323.241c-0.158-0.402-0.551-0.662-0.985-0.662s-0.819,0.26-0.985,0.662l-9.799,23.607   c-0.197-0.244-0.488-0.41-0.819-0.41h-6.491v-22.292c0-0.583-0.473-1.063-1.063-1.063h-3.97c-0.591,0-1.063,0.48-1.063,1.063   v27.246c0,0.591,0.473,1.079,1.063,1.079h11.524l0.032-0.016l0.055,0.016h4.198c0.441,0,0.819-0.276,0.992-0.662l2.521-6.16h7.601   l2.536,6.16c0.158,0.386,0.551,0.662,0.985,0.662h4.198c0.016,0,0.016,0,0.016,0c0.599,0,1.063-0.488,1.063-1.079   c0-0.213-0.055-0.417-0.165-0.583L87.82,323.241z M86.835,335.86l1.631,4.143h-3.261L86.835,335.86z"/>
	<path style="fill:#FFFFFF;" d="M112.498,322.58H87.591c-0.591,0-1.063,0.473-1.063,1.063v3.812c0,0.599,0.473,1.079,1.063,1.079   h13.123v22.709c0,0.583,0.48,1.071,1.079,1.071h3.97c0.583,0,1.063-0.488,1.063-1.071v-22.709h5.679   c0.583,0,1.063-0.48,1.063-1.079v-3.812C113.554,323.044,113.081,322.58,112.498,322.58z"/>
</g>
<path style="fill:#FFE600;" d="M82.574,322.958c-0.079-0.11-0.189-0.173-0.315-0.173h-1.331c-0.165,0-0.307,0.102-0.354,0.244  l-1.134,2.836l-1.119-2.836c-0.063-0.15-0.197-0.244-0.354-0.244h-1.339c-0.016,0-0.047,0-0.047,0h-0.055h-4.529  c-0.213,0-0.386,0.173-0.386,0.378v1.284c0,0.205,0.165,0.394,0.386,0.394h1.229v4.868c0,0.205,0.173,0.386,0.386,0.386h1.331  c0.205,0,0.386-0.173,0.386-0.386v-4.868h1.197c0.134,0,0.244-0.079,0.315-0.181l2.245,5.364c0.063,0.15,0.197,0.236,0.347,0.236  c0.165,0,0.299-0.095,0.362-0.236l2.796-6.703C82.653,323.194,82.653,323.068,82.574,322.958z"/>
<g>
</g>
<g>
</g>
<g>
</g>
<g>
</g>
<g>
</g>
<g>
</g>
<g>
</g>
<g>
</g>
<g>
</g>
<g>
</g>
<g>
</g>
<g>
</g>
<g>
</g>
<g>
</g>
<g>
</g>
</svg>