<?xml version="1.0" encoding="windows-1252"?>
<!-- Generator: Adobe Illustrator 16.0.0, SVG Export Plug-In . SVG Version: 6.00 Build 0)  -->
<!DOCTYPE svg PUBLIC "-//W3C//DTD SVG 1.1//EN" "http://www.w3.org/Graphics/SVG/1.1/DTD/svg11.dtd">
<svg version="1.1" id="Capa_1" xmlns="http://www.w3.org/2000/svg" xmlns:xlink="http://www.w3.org/1999/xlink" x="0px" y="0px" width="461.68px" height="461.679px" viewBox="0 0 461.68 461.679" style="enable-background:new 0 0 461.68 461.679;" xml:space="preserve">
<g>
	<g>
		<path d="M116.029,50.899v361.088c0,1.635,1.328,2.96,2.963,2.96h221.263c1.635,0,2.961-1.325,2.961-2.96V50.899    c0-1.635-1.326-2.96-2.961-2.96H118.992C117.357,47.938,116.029,49.264,116.029,50.899z M121.955,53.862h215.34v355.164h-215.34    V53.862z"/>
		<path d="M246.647,418.141H214.74c-5.657,0-10.263,4.605-10.263,10.252v6.383c0,5.657,4.605,10.258,10.263,10.258h31.907    c5.657,0,10.263-4.605,10.263-10.258v-6.383C256.9,422.747,252.305,418.141,246.647,418.141z M250.979,434.776    c0,2.387-1.945,4.332-4.342,4.332h-31.905c-2.394,0-4.336-1.945-4.336-4.332v-6.383c0-2.387,1.942-4.326,4.336-4.326h31.905    c2.396,0,4.342,1.939,4.342,4.326V434.776z"/>
		<path d="M203.797,29.704h57.135c2.56,0,4.637-2.077,4.637-4.636c0-2.552-2.077-4.628-4.637-4.628h-57.135    c-2.557,0-4.636,2.077-4.636,4.628S201.24,29.704,203.797,29.704z M203.797,22.404h57.135c1.468,0,2.661,1.193,2.661,2.656    c0,1.46-1.193,2.661-2.661,2.661h-57.135c-1.467,0-2.661-1.193-2.661-2.661C201.136,23.589,202.33,22.404,203.797,22.404z"/>
		<circle cx="207.44" cy="25.067" r="1.328"/>
		<circle cx="211.32" cy="25.067" r="1.328"/>
		<circle cx="215.189" cy="25.067" r="1.328"/>
		<circle cx="219.062" cy="25.067" r="1.328"/>
		<circle cx="222.949" cy="25.067" r="1.328"/>
		<circle cx="226.818" cy="25.067" r="1.328"/>
		<circle cx="230.69" cy="25.067" r="1.328"/>
		<circle cx="234.562" cy="25.067" r="1.328"/>
		<path d="M238.441,23.74c0.731,0,1.325,0.594,1.325,1.328s-0.594,1.328-1.325,1.328c-0.736,0-1.33-0.594-1.33-1.328    S237.705,23.74,238.441,23.74z"/>
		<path d="M242.326,23.74c0.736,0,1.33,0.594,1.33,1.328s-0.594,1.328-1.33,1.328c-0.731,0-1.325-0.594-1.325-1.328    S241.595,23.74,242.326,23.74z"/>
		<path d="M246.195,23.74c0.736,0,1.331,0.594,1.331,1.328s-0.595,1.328-1.331,1.328c-0.731,0-1.325-0.594-1.325-1.328    S245.464,23.74,246.195,23.74z"/>
		<path d="M250.07,23.74c0.731,0,1.325,0.594,1.325,1.328s-0.594,1.328-1.325,1.328c-0.736,0-1.331-0.594-1.331-1.328    S249.334,23.74,250.07,23.74z"/>
		<path d="M253.939,23.74c0.736,0,1.325,0.594,1.325,1.328s-0.589,1.328-1.325,1.328c-0.731,0-1.325-0.594-1.325-1.328    S253.208,23.74,253.939,23.74z"/>
		<path d="M257.824,23.74c0.736,0,1.33,0.594,1.33,1.328s-0.594,1.328-1.33,1.328c-0.731,0-1.325-0.594-1.325-1.328    S257.093,23.74,257.824,23.74z"/>
		<path d="M310.143,23.25c1.777,0,3.22,1.444,3.22,3.225c0,1.78-1.442,3.222-3.22,3.222c-1.782,0-3.225-1.442-3.225-3.222    C306.918,24.694,308.36,23.25,310.143,23.25z"/>
		<path d="M170.003,426.514h-15.351c-0.482,0-0.861,0.387-0.861,0.863v7.927c0,0.478,0.386,0.863,0.861,0.863    s0.846-0.386,0.846-0.863v-7.078h13.652v7.078c0,0.478,0.394,0.863,0.853,0.863c0.473,0,0.861-0.386,0.861-0.863v-7.927    C170.872,426.901,170.476,426.514,170.003,426.514z"/>
		<path d="M165.87,429.84h-7.086c-0.472,0-0.853,0.386-0.853,0.858c0,0.478,0.389,0.858,0.853,0.858h7.086    c0.482,0,0.863-0.381,0.863-0.858C166.733,430.226,166.352,429.84,165.87,429.84z"/>
		<path d="M165.87,433.293h-7.086c-0.472,0-0.853,0.396-0.853,0.858c0,0.478,0.389,0.863,0.853,0.863h7.086    c0.482,0,0.863-0.386,0.863-0.863C166.733,433.69,166.352,433.293,165.87,433.293z"/>
		<path d="M300.51,428.317h-5.911l0.178-0.421l-3.011,1.274l3.011,1.27l-0.178-0.412h5.911c1.792,0,3.239,1.407,3.239,3.144    c0,1.742-1.452,3.148-3.239,3.148h-5.799c-0.473,0-0.843,0.386-0.843,0.854c0,0.472,0.37,0.858,0.843,0.858h5.799    c2.731,0,4.956-2.189,4.956-4.865C305.466,430.485,303.241,428.317,300.51,428.317z"/>
		<path d="M96.05,35.099v391.477c0,19.356,15.745,35.104,35.099,35.104H330.53c19.353,0,35.1-15.747,35.1-35.104V35.099    C365.63,15.744,349.883,0,330.53,0H131.149C111.794-0.007,96.05,15.737,96.05,35.099z M353.788,35.099v391.477    c0,12.821-10.431,23.252-23.247,23.252H131.149c-12.819,0-23.25-10.431-23.25-23.252V35.099c0-12.822,10.43-23.25,23.25-23.25    H330.53C343.357,11.842,353.788,22.277,353.788,35.099z"/>
	</g>
</g>
<g>
</g>
<g>
</g>
<g>
</g>
<g>
</g>
<g>
</g>
<g>
</g>
<g>
</g>
<g>
</g>
<g>
</g>
<g>
</g>
<g>
</g>
<g>
</g>
<g>
</g>
<g>
</g>
<g>
</g>
</svg>