<?xml version="1.0" encoding="UTF-8" standalone="no"?>
<svg
   xmlns:dc="http://purl.org/dc/elements/1.1/"
   xmlns:cc="http://creativecommons.org/ns#"
   xmlns:rdf="http://www.w3.org/1999/02/22-rdf-syntax-ns#"
   xmlns:svg="http://www.w3.org/2000/svg"
   xmlns="http://www.w3.org/2000/svg"
   xmlns:sodipodi="http://sodipodi.sourceforge.net/DTD/sodipodi-0.dtd"
   xmlns:inkscape="http://www.inkscape.org/namespaces/inkscape"
   version="1.0"
   width="608.000000pt"
   height="351.000000pt"
   viewBox="0 0 608.000000 351.000000"
   preserveAspectRatio="xMidYMid meet"
   id="svg60"
   sodipodi:docname="logodesoft.svg"
   inkscape:version="0.92.2 (5c3e80d, 2017-08-06)">
  <defs
     id="defs64" />
  <sodipodi:namedview
     pagecolor="#ffffff"
     bordercolor="#666666"
     borderopacity="1"
     objecttolerance="10"
     gridtolerance="10"
     guidetolerance="10"
     inkscape:pageopacity="0"
     inkscape:pageshadow="2"
     inkscape:window-width="1920"
     inkscape:window-height="1017"
     id="namedview62"
     showgrid="false"
     inkscape:zoom="1.2812533"
     inkscape:cx="424.18904"
     inkscape:cy="277.64712"
     inkscape:window-x="-8"
     inkscape:window-y="-8"
     inkscape:window-maximized="1"
     inkscape:current-layer="g58" />
  <metadata
     id="metadata38">
Created by potrace 1.15, written by Peter Selinger 2001-2017
<rdf:RDF>
  <cc:Work
     rdf:about="">
    <dc:format>image/svg+xml</dc:format>
    <dc:type
       rdf:resource="http://purl.org/dc/dcmitype/StillImage" />
  </cc:Work>
</rdf:RDF>
</metadata>
  <g
     transform="translate(0.000000,351.000000) scale(0.100000,-0.100000)"
     fill="#000000"
     stroke="none"
     id="g58">
    <path
       d="m 2330,2355 v -805 h 421 c 396,0 421,1 417,18 -9,31 -440,1106 -469,1169 -31,66 -36,93 -18,93 12,0 665,-265 824,-335 55,-24 161,-68 235,-99 74,-30 152,-62 173,-70 l 37,-16 v 425 425 h -810 -810 z"
       id="path40"
       inkscape:connector-curvature="0" />
    <path
       d="m 2914,2453 c 51,-126 148,-363 215,-528 68,-165 124,-301 125,-303 2,-1 25,51 51,115 27,65 63,152 82,193 18,41 39,88 46,103 11,25 38,38 217,109 113,44 208,83 212,87 4,4 -120,60 -275,125 -155,66 -310,132 -344,147 -67,31 -414,179 -419,179 -2,0 39,-102 90,-227 z"
       id="path42"
       inkscape:connector-curvature="0" />
    <path
       d="M5113 1911 c-191 -47 -289 -103 -338 -192 -28 -51 -30 -62 -35 -199 l-5 -145 -93 -3 -93 -3 3 -87 3 -87 93 -3 92 -3 0 -429 0 -430 105 0 105 0 0 430 0 430 130 0 130 0 0 90 0 90 -131 0 -131 0 4 129 c3 122 4 131 28 156 34 36 68 53 153 74 l72 19 3 91 c3 104 11 98 -95 72z"
       id="path44" />
    <path
       d="M837 1834 c-4 -4 -7 -124 -7 -267 l0 -259 -22 5 c-13 2 -70 18 -128 35 -412 121 -580 25 -621 -355 -19 -178 3 -396 52 -509 20 -49 81 -119 119 -139 50 -26 145 -37 225 -26 84 12 247 62 317 97 26 13 52 24 57 24 6 0 11 -24 13 -52 l3 -53 100 0 100 0 0 750 0 750 -101 3 c-55 1 -103 0 -107 -4z m-177 -644 c47 -10 103 -24 125 -32 l40 -13 3 -275 2 -275 -57 -23 c-85 -33 -150 -50 -233 -62 -148 -21 -225 19 -249 131 -31 145 -22 394 18 483 41 94 136 112 351 66z"
       id="path46" />
    <path
       d="M5500 1550 l0 -180 -95 0 -95 0 0 -90 0 -90 95 0 95 0 0 -312 c0 -340 7 -397 53 -467 16 -24 44 -48 74 -62 42 -21 61 -24 163 -23 63 0 132 4 153 8 l37 7 0 85 0 84 -100 -6 c-116 -8 -143 2 -159 63 -7 23 -11 158 -11 331 l0 292 135 0 135 0 0 90 0 90 -135 0 -135 0 0 180 0 180 -105 0 -105 0 0 -180z"
       id="path48" />
    <path
       d="M1620 1410 c-183 -33 -299 -146 -347 -337 -23 -94 -23 -332 0 -426 47 -188 145 -282 339 -323 90 -20 291 -13 418 13 l85 18 3 84 3 83 -33 -5 c-112 -20 -227 -29 -333 -25 -109 3 -125 6 -167 30 -72 43 -102 104 -114 233 l-7 75 357 0 356 0 0 103 c-1 230 -64 367 -200 437 -82 42 -246 60 -360 40z m245 -186 c54 -28 86 -92 93 -184 l5 -70 -242 0 -241 0 0 28 c0 15 6 51 14 79 35 131 98 175 247 170 62 -2 96 -8 124 -23z"
       id="path50" />
    <path
       d="M3771 1405 c-250 -46 -373 -223 -372 -540 0 -323 108 -487 358 -540 87 -19 239 -19 326 0 254 54 359 215 358 550 -1 324 -113 485 -369 531 -95 17 -204 16 -301 -1z m314 -192 c82 -43 120 -113 137 -253 22 -178 -15 -356 -88 -420 -47 -41 -103 -55 -219 -55 -117 1 -175 22 -225 83 -48 59 -62 112 -67 267 -9 241 34 343 165 391 58 22 245 14 297 -13z"
       id="path52" />
    <path
       d="M2658 1400 c-124 -21 -209 -73 -250 -154 -44 -86 -34 -274 19 -337 59 -70 130 -97 342 -129 232 -35 256 -50 255 -155 -1 -75 -19 -109 -72 -133 -68 -31 -386 -17 -549 24 -22 6 -23 4 -23 -70 0 -73 1 -77 26 -86 103 -39 453 -58 579 -31 175 38 249 134 249 322 -1 70 -5 95 -26 141 -48 104 -109 131 -393 173 -97 14 -178 31 -192 40 -29 19 -43 53 -43 105 0 89 41 125 155 135 65 6 271 -5 391 -22 l44 -6 0 81 c0 80 0 80 -27 86 -105 23 -390 32 -485 16z"
       id="path54" />
    <path
       d="M100 90 c0 -7 987 -10 2940 -10 1953 0 2940 3 2940 10 0 7 -987 10 -2940 10 -1953 0 -2940 -3 -2940 -10z"
       id="path56" />
  </g>
</svg>
