<?xml version="1.0" encoding="UTF-8" standalone="no"?>
<svg
   xmlns:dc="http://purl.org/dc/elements/1.1/"
   xmlns:cc="http://creativecommons.org/ns#"
   xmlns:rdf="http://www.w3.org/1999/02/22-rdf-syntax-ns#"
   xmlns:svg="http://www.w3.org/2000/svg"
   xmlns="http://www.w3.org/2000/svg"
   xmlns:sodipodi="http://sodipodi.sourceforge.net/DTD/sodipodi-0.dtd"
   xmlns:inkscape="http://www.inkscape.org/namespaces/inkscape"
   version="1.0"
   width="1980.000000pt"
   height="402.000000pt"
   viewBox="0 0 1980.000000 402.000000"
   preserveAspectRatio="xMidYMid meet"
   id="svg4047"
   sodipodi:docname="logo.text.ico.svg"
   inkscape:version="0.92.4 (5da689c313, 2019-01-14)">
  <metadata
     id="metadata4053">
    <rdf:RDF>
      <cc:Work
         rdf:about="">
        <dc:format>image/svg+xml</dc:format>
        <dc:type
           rdf:resource="http://purl.org/dc/dcmitype/StillImage" />
        <dc:title></dc:title>
      </cc:Work>
    </rdf:RDF>
  </metadata>
  <defs
     id="defs4051" />
  <sodipodi:namedview
     pagecolor="#ffffff"
     bordercolor="#666666"
     borderopacity="1"
     objecttolerance="10"
     gridtolerance="10"
     guidetolerance="10"
     inkscape:pageopacity="0"
     inkscape:pageshadow="2"
     inkscape:window-width="1920"
     inkscape:window-height="1017"
     id="namedview4049"
     showgrid="false"
     inkscape:snap-nodes="false"
     inkscape:zoom="0.37390949"
     inkscape:cx="1149.2823"
     inkscape:cy="439.63451"
     inkscape:window-x="-8"
     inkscape:window-y="-8"
     inkscape:window-maximized="1"
     inkscape:current-layer="svg4047" />
  <g
     transform="matrix(0.08564241,0,0,-0.1,106.06113,440.29512)"
     id="g4045"
     style="fill:#000000;stroke:none">
    <path
       id="path4005"
       transform="matrix(8.7573435,0,0,-7.5,-228.18724,4360.4011)"
       style="stroke-width:0.12339091"
       d="m 2002.2812,297.91797 c -0.4924,0.75472 -0.9799,1.51178 -1.4707,2.26758 0.055,0.0922 0.1418,0.26328 0.1602,0.26757 0.095,0 0.5883,-0.98516 1.3105,-2.53515 z"
       inkscape:connector-curvature="0" />
    <path
       id="path4007"
       transform="matrix(8.7573435,0,0,-7.5,-228.18724,4360.4011)"
       style="stroke-width:0.12339091"
       d="m 145.38477,69.386719 -30.375,35.599611 c -16.671743,19.73333 -32.087165,38.39961 -34.142582,41.59961 -16.100778,24.53333 -27.519659,54.6681 -32.658204,86.13476 -2.968937,17.73334 -2.740285,50.39948 0.457032,68.13282 13.474405,74.13333 56.524694,129.3332 117.730464,150.5332 16.21497,5.6 32.65804,7.73359 52.07032,6.93359 31.74478,-1.6 58.46434,-11.59987 85.52734,-32.5332 10.61966,-8 23.40874,-22.66654 160.55078,-182.5332 L 613.56445,69.386719 H 569.0293 524.49609 L 400.59961,213.78711 c -95.12017,110.93333 -125.95134,146.00013 -132.80273,151.4668 -14.73054,11.73333 -31.51646,19.86562 -49.33008,24.26562 -9.36357,2.26667 -35.85545,2.26667 -45.67578,0 -28.77585,-6.66667 -56.29639,-25.4651 -73.539067,-50.39844 C 66.251078,291.38776 61.226927,226.5862 86.462891,173.51953 c 7.536532,-16 18.727779,-30.93203 51.957029,-69.33203 16.10077,-18.666667 29.23242,-34.133724 29.23242,-34.400391 0,-0.266666 -5.02515,-0.40039 -11.1914,-0.40039 z"
       inkscape:connector-curvature="0" />
  </g>
  <g
     inkscape:groupmode="layer"
     id="layer1"
     inkscape:label="Layer 1"
     style="display:inline">
    <text
       xml:space="preserve"
       style="font-style:normal;font-weight:normal;font-size:30px;line-height:1.25;font-family:sans-serif;letter-spacing:0px;word-spacing:0px;fill:#000000;fill-opacity:1;stroke:none;stroke-width:0.75"
       x="392.87964"
       y="233.21777"
       id="text4975"><tspan
         sodipodi:role="line"
         id="tspan4973"
         x="392.87964"
         y="260.58768"
         style="stroke-width:0.75" /></text>
  </g>
  <path
     style="fill:#ffff00;stroke:#ffff00;stroke-width:0.94555873;stroke-opacity:1"
     d="m 291.11082,395.27573 c -28.0601,-4.98493 -60.3353,-27.0097 -77.44239,-52.84712 -27.59369,-41.67571 -34.74575,-95.12574 -19.14507,-143.07839 8.981,-27.6054 16.20103,-38.2938 62.43517,-92.42802 12.22409,-14.312832 23.36921,-27.398113 24.76694,-29.078405 l 2.54132,-3.055077 177.40335,0.238861 177.40337,0.23886 -87.27993,101.683641 C 427.69483,321.52871 393.7397,360.52532 384.78674,368.75321 c -9.19734,8.45249 -27.03795,18.27915 -42.64288,23.48784 -9.8466,3.28665 -10.29891,3.34551 -27.97404,3.6401 -9.88109,0.16468 -20.25764,-0.10775 -23.059,-0.60542 z"
     id="path5901"
     inkscape:connector-curvature="0"
     transform="scale(0.75)" />
  <path
     style="fill:#000080;fill-opacity:1;stroke:#000080;stroke-width:0.94555873;stroke-opacity:1"
     d="m 307.19638,462.589 c -24.25101,-3.11431 -51.63449,-15.30806 -73.54126,-32.74763 -28.93224,-23.03239 -50.70289,-56.74589 -63.05885,-97.65138 -9.83375,-32.55552 -11.44355,-71.38995 -4.35325,-105.01724 5.82131,-27.60887 18.93693,-59.07681 31.88084,-76.49083 4.61496,-6.20872 26.29335,-32.26315 47.79474,-57.442695 l 15.60221,-18.497493 4.54251,0.04353 c 1.21803,0.02584 4.9597,0.04762 6.68956,-0.01756 1.98223,-0.07469 1.30751,0.02612 2.77472,0.01756 l 7.46295,-0.04353 -23.979,28.189467 c -38.14451,44.84229 -49.94614,60.05875 -57.2832,75.48428 -27.47195,57.75736 -19.44894,128.20933 20.07576,176.28984 17.5198,21.31228 48.35476,38.95692 73.01636,41.78205 30.6977,3.51661 56.53303,-2.82891 81.43604,-20.00183 13.18955,-9.09541 23.28287,-20.53382 204.88249,-232.18614 l 59.42757,-69.262181 h 43.89464 43.89462 L 614.63216,207.65043 C 445.01917,405.43618 431.36387,421.05124 420.08968,430.11291 c -22.38132,17.98905 -46.56301,28.56802 -73.49546,32.1527 -11.16324,1.48582 -29.19367,1.63381 -39.39784,0.32339 z"
     id="path5905"
     inkscape:connector-curvature="0"
     transform="scale(0.75)"
     sodipodi:nodetypes="ssssssccsscsssssscccssss" />
  <text
     xml:space="preserve"
     style="font-style:normal;font-weight:normal;font-size:47.68876648px;line-height:1.25;font-family:sans-serif;letter-spacing:0px;word-spacing:0px;fill:#000000;fill-opacity:1;stroke:none;stroke-width:1.19221914"
     x="564.97064"
     y="236.88239"
     id="text5913"
     transform="scale(0.98448414,1.0157604)"><tspan
       sodipodi:role="line"
       id="tspan5911"
       x="564.97064"
       y="236.88239"
       style="font-style:normal;font-variant:normal;font-weight:normal;font-stretch:normal;font-size:270.23635864px;font-family:'Times New Roman';-inkscape-font-specification:'Times New Roman, ';stroke-width:1.19221914">LABIOFAM</tspan></text>
  <text
     xml:space="preserve"
     style="font-style:normal;font-weight:normal;font-size:50.40897369px;line-height:1.25;font-family:sans-serif;letter-spacing:0px;word-spacing:0px;fill:#000000;fill-opacity:1;stroke:none;stroke-width:1.26022398"
     x="454.88644"
     y="400.99756"
     id="text5917"
     transform="scale(1.209512,0.82677971)"><tspan
       sodipodi:role="line"
       id="tspan5915"
       x="454.88644"
       y="400.99756"
       style="font-size:120.98152161px;stroke-width:1.26022398">Empresa Cienfuegos</tspan></text>
</svg>
