<?xml version="1.0" encoding="UTF-8"?>
<!-- Generator: Adobe Illustrator 19.2.1, SVG Export Plug-In . SVG Version: 6.00 Build 0)  -->
<svg version="1.1" id="Art_Layer_1" xmlns="http://www.w3.org/2000/svg" xmlns:xlink="http://www.w3.org/1999/xlink" x="0px" y="0px" viewBox="0 0 77 108" style="enable-background:new 0 0 77 108;" xml:space="preserve">
<style type="text/css">
	.st0{fill:none;stroke:#000000;stroke-width:4;stroke-linejoin:bevel;stroke-miterlimit:10;}
	.st1{fill:#F0685E;stroke:#000000;stroke-width:4;stroke-miterlimit:10;}
	.st2{clip-path:url(#SVGID_2_);}
	.st3{fill:none;stroke:#F0685E;stroke-width:4;stroke-miterlimit:10;}
	.st4{fill:none;}
</style>
<line class="st0" x1="19" y1="74.5" x2="70.8" y2="102.1"/>
<line class="st0" x1="58.5" y1="74.5" x2="6.8" y2="102.1"/>
<line class="st0" x1="31.2" y1="47.9" x2="56.7" y2="72.2"/>
<line class="st0" x1="45.9" y1="47.9" x2="20.5" y2="72.2"/>
<circle class="st1" cx="38.5" cy="25.3" r="8"/>
<g>
	<defs>
		<path id="SVGID_1_" d="M-36.5-37.2l75,62.6l-75,62.6V-37.2z M38.5,25.3l75,62.6V-37.2L38.5,25.3z"/>
	</defs>
	<clipPath id="SVGID_2_">
		<use xlink:href="#SVGID_1_" style="overflow:visible;"/>
	</clipPath>
	<g class="st2">
		<circle class="st3" cx="38.5" cy="25.3" r="36.2"/>
		<circle class="st3" cx="38.5" cy="25.3" r="26.4"/>
		<circle class="st3" cx="38.5" cy="25.3" r="17.4"/>
	</g>
</g>
<polygon class="st4" points="6.1,107.2 71,107.2 38.5,37.8 "/>
<polygon points="38.5,37.8 71,107.2 75.4,107.2 40.3,32.2 36.7,32.2 1.7,107.2 6.1,107.2 "/>
</svg>