<svg xmlns="http://www.w3.org/2000/svg" viewBox="0 0 36 36" enable-background="new 0 0 36 36"><g opacity=".76" fill="#fd9e30"><path d="M28.1 35.1h-20c-3.3 0-6-2.7-6-6V17.3c0-3.3 2.7-6 6-6h20c3.3 0 6 2.7 6 6v11.8c0 3.3-2.7 6-6 6zM8.1 14c-1.9 0-3.4 1.5-3.4 3.4v11.8c0 1.9 1.5 3.4 3.4 3.4h20c1.9 0 3.4-1.5 3.4-3.4V17.3c0-1.9-1.5-3.4-3.4-3.4h-20v.1z"/><ellipse cx="18" cy="11.3" rx="2.9" ry="1.9"/><path d="M17.03 11.49L8.046 1.82 9.07.867l8.987 9.67zM18.302 10.496l8.986-9.67 1.026.954-8.987 9.67zM15.1 17.3v11.9l7.6-6z"/></g></svg>