<?xml version="1.0" encoding="UTF-8"?>
<!-- Generator: Adobe Illustrator 18.1.1, SVG Export Plug-In . SVG Version: 6.00 Build 0)  -->
<svg version="1.0" xmlns="http://www.w3.org/2000/svg" xmlns:xlink="http://www.w3.org/1999/xlink" x="0px" y="0px" viewBox="0 0 100 100" enable-background="new 0 0 100 100" xml:space="preserve">
<g id="fondo">
	<circle fill="#B4CC4D" cx="50" cy="50" r="48.3"/>
</g>
<g id="mail">
	<g id="Capa_4_1_">
		<g>
			<path fill="#FFFFFF" d="M61.4,72.5c-4.3,1.9-8.1,2.6-13.2,2.6c-12,0-22.5-8.6-22.5-22.7C25.7,37.6,36.4,25,52.6,25     c12.7,0,21.7,8.7,21.7,20.8c0,10.5-5.9,17.1-13.7,17.1c-3.4,0-5.8-1.7-6.2-5.5h-0.1c-2.2,3.7-5.5,5.5-9.3,5.5     c-4.7,0-8.1-3.5-8.1-9.4c0-8.8,6.5-16.8,16.8-16.8c3.2,0,6.8,0.8,8.6,1.8l-2.2,13.3c-0.7,4.2-0.2,6.2,1.8,6.3     c3.1,0.1,7-3.9,7-12.2c0-9.4-6-16.6-17.2-16.6c-11,0-20.7,8.6-20.7,22.4c0,12,7.7,18.9,18.4,18.9c3.7,0,7.6-0.8,10.4-2.3     L61.4,72.5z M55,42.7c-0.6-0.1-1.3-0.3-2.2-0.3c-4.8,0-8.5,4.7-8.5,10.2c0,2.7,1.2,4.5,3.6,4.5c2.7,0,5.5-3.4,6.1-7.6L55,42.7z"/>
		</g>
	</g>
</g>
</svg>