<?xml version="1.0" encoding="windows-1252"?>
<!-- Generator: Adobe Illustrator 19.0.0, SVG Export Plug-In . SVG Version: 6.00 Build 0)  -->
<svg version="1.1" id="Layer_1" xmlns="http://www.w3.org/2000/svg" xmlns:xlink="http://www.w3.org/1999/xlink" x="0px" y="0px" viewBox="0 0 462.251 462.251" style="enable-background:new 0 0 462.251 462.251;" xml:space="preserve">
<rect x="53.233" y="368.744" style="fill:#F9BDA0;" width="374.894" height="93.247"/>
<path style="fill:#542F08;" d="M148.126,122.338l73.893-15.132l4.474,102.408l-27.601,32.059l4.167,35.47  c0,0-32.831,19.692-43.323-0.654c-10.508-20.346-15.092-143.746-16.415-146.377C142.022,127.489,148.126,122.338,148.126,122.338z"/>
<path style="fill:#3D1F03;" d="M143.329,130.12c-1.308-2.631,4.797-7.775,4.797-7.775l73.893-15.132l4.474,102.408l-27.601,32.059  l4.167,35.47"/>
<path style="fill:#542F08;" d="M335.077,122.338l-73.909-15.132l-4.474,102.416l27.617,32.059l-4.167,35.47  c0,0,32.815,19.692,43.323-0.654c10.492-20.346,15.092-143.746,16.4-146.377C341.174,127.489,335.077,122.338,335.077,122.338z"/>
<path style="fill:#3D1F03;" d="M339.866,130.12c1.308-2.631-4.781-7.775-4.781-7.775l-73.909-15.132l-4.482,102.408l27.617,32.059  l-4.167,35.47"/>
<rect x="195.293" y="180.793" style="fill:#F9BDA0;" width="92.601" height="196.829"/>
<polygon style="fill:#EAA78C;" points="287.894,275.836 287.894,180.816 195.293,180.816 242.311,314.811 "/>
<path style="fill:#FCCCB9;" d="M315.401,100.55c0,71.129-36.061,135.499-73.799,135.499c-37.723,0-73.815-64.37-73.815-135.499  s36.092-82.991,73.815-82.991C279.34,17.559,315.401,29.422,315.401,100.55z"/>
<g>
	<path style="fill:#F9BDA0;" d="M241.602,17.559c37.738,0,73.799,11.863,73.799,82.991s-36.061,135.499-73.799,135.499"/>
	<polygon style="fill:#F9BDA0;" points="197.987,281.909 44.214,329.249 52.091,461.991 238.16,414.871  "/>
</g>
<polyline style="fill:#FCCCB9;" points="44.214,329.249 52.091,461.991 238.16,414.871 "/>
<polygon style="fill:#F9BDA0;" points="285.201,281.909 438.958,329.249 431.097,461.991 244.989,414.871 "/>
<polyline style="fill:#EAA78C;" points="438.958,329.249 431.097,461.991 244.989,414.871 "/>
<path style="fill:#663D0C;" d="M224.895,3.845c0,0,22.89,113.325,115.507,124.794c0,0,3.017-69.6-22.646-99.942  C292.077-1.629,252.322,2.112,252.322,2.112L224.895,3.845z"/>
<path style="fill:#894D0C;" d="M276.433,3.901c0,0,18.676,88.789-133.585,130.016c0,0-11.603-74.807,18.692-106.858  C191.82-5,246.123,0.332,246.123,0.332L276.433,3.901z"/>
<path style="fill:#663D0C;" d="M246.123,0.332l30.31,3.568c0,0,18.676,88.789-133.585,130.016"/>
<rect x="53.233" y="368.744" style="fill:#22C6E0;" width="374.894" height="93.247"/>
<rect x="53.233" y="379.606" style="fill:#039DC1;" width="374.894" height="82.416"/>
<polygon style="fill:#037193;" points="235.694,462.251 188.236,283.72 43.678,329.249 47.845,462.251 "/>
<polygon style="fill:#0C537A;" points="235.694,462.251 188.236,283.72 43.678,329.249 63.599,462.251 "/>
<g>
	<polygon style="fill:#00233F;" points="235.694,462.251 188.236,283.72 43.678,329.249 95.107,462.251  "/>
	<polygon style="fill:#00233F;" points="247.478,462.251 294.96,283.72 439.509,329.249 435.342,462.251  "/>
</g>
<path style="fill:#FF5B1A;" d="M113.862,451.42c0,5.986-4.844,10.831-10.815,10.831H76.88c-5.986,0-10.831-4.844-10.831-10.831  V281.806c0-5.986,4.844-10.831,10.831-10.831h26.167c5.971,0,10.815,4.844,10.815,10.831V451.42z"/>
<path style="fill:#D64505;" d="M105.402,451.42c0,5.986-3.119,10.831-6.987,10.831H81.511c-3.86,0-7.003-4.844-7.003-10.831V281.806  c0-5.986,3.135-10.831,7.003-10.831h16.904c3.86,0,6.987,4.844,6.987,10.831V451.42z"/>
<path style="fill:#AA2102;" d="M130.23,363.403c0,6.002-4.876,10.878-10.878,10.878H60.566c-6.018,0-10.878-4.876-10.878-10.878l0,0  c0-6.002,4.86-10.878,10.878-10.878h58.785C125.354,352.525,130.23,357.401,130.23,363.403L130.23,363.403z"/>
<path style="fill:#D64505;" d="M157.169,355.786c0,5.979-4.844,10.823-10.815,10.823H33.572c-5.986,0-10.831-4.844-10.831-10.823  v-53.232c0-5.994,4.844-10.847,10.831-10.847h112.782c5.971,0,10.815,4.852,10.815,10.847L157.169,355.786L157.169,355.786z"/>
<path style="fill:#C63205;" d="M157.169,302.554v53.232c0,5.979-4.844,10.823-10.815,10.823H33.572  c-5.986,0-10.831-4.844-10.831-10.823"/>
<g>
	<path style="fill:#FF5B1A;" d="M22.741,302.554c0-5.994,4.844-10.847,10.831-10.847h112.782c5.971,0,10.815,4.852,10.815,10.847"/>
</g>
<path style="fill:#323535;" d="M140.478,257.435c0,27.908-22.615,23.457-50.507,23.457c-27.924,0-50.538,4.45-50.538-23.457  s22.615-50.523,50.538-50.523C117.863,206.913,140.478,229.527,140.478,257.435z"/>
<path d="M140.478,257.435c0,27.908-22.615,29.554-50.507,29.554c-27.924,0-50.538-1.646-50.538-29.554s22.615-38.802,50.538-38.802  C117.863,218.633,140.478,229.527,140.478,257.435z"/>
<path style="fill:#C63205;" d="M133.483,352.061c0,1.843-1.504,3.348-3.356,3.348H49.791c-1.843,0-3.356-1.497-3.356-3.348v-42.394  c0-1.859,1.504-3.356,3.356-3.356h80.337c1.843,0,3.356,1.489,3.356,3.356L133.483,352.061L133.483,352.061z"/>
<path style="fill:#AA2102;" d="M130.127,306.311c1.843,0,3.356,1.489,3.356,3.356v42.394c0,1.843-1.504,3.348-3.356,3.348H49.791  c-1.843,0-3.356-1.497-3.356-3.348"/>
<g>
	<path style="fill:#FFFFFF;" d="M75.698,316.417H57.101c-0.583,0-1.063,0.48-1.063,1.063v27.246c0,0.591,0.48,1.079,1.063,1.079   h3.986c0.567,0,1.048-0.488,1.048-1.079v-11.429h6.727c0.599,0,1.079-0.473,1.079-1.063v-3.742c0-0.583-0.48-1.063-1.079-1.063   h-6.727v-5.065h13.572c0.583,0,1.063-0.488,1.063-1.079v-3.812C76.753,316.898,76.281,316.417,75.698,316.417z"/>
	<path style="fill:#FFFFFF;" d="M98.139,316.575c-0.158-0.402-0.551-0.662-0.985-0.662s-0.819,0.26-0.985,0.662l-9.799,23.607   c-0.197-0.244-0.48-0.41-0.819-0.41h-6.491v-22.292c0-0.583-0.465-1.063-1.063-1.063h-3.97c-0.583,0-1.063,0.48-1.063,1.063v27.246   c0,0.591,0.48,1.079,1.063,1.079h11.524l0.032-0.016c0,0,0.032,0.016,0.063,0.016h4.198c0.433,0,0.819-0.276,0.985-0.662   l2.521-6.16h7.601l2.536,6.16c0.158,0.386,0.551,0.662,0.985,0.662h4.198h0.032c0.583,0,1.063-0.488,1.063-1.079   c0-0.213-0.063-0.417-0.181-0.583L98.139,316.575z M97.155,329.194l1.631,4.143h-3.261L97.155,329.194z"/>
	<path style="fill:#FFFFFF;" d="M122.818,315.913H97.911c-0.583,0-1.063,0.473-1.063,1.063v3.812c0,0.599,0.48,1.079,1.063,1.079   h13.139v22.709c0,0.583,0.465,1.071,1.063,1.071h3.97c0.583,0,1.063-0.488,1.063-1.071v-22.709h5.679   c0.583,0,1.063-0.48,1.063-1.079v-3.812C123.881,316.378,123.401,315.913,122.818,315.913z"/>
</g>
<path style="fill:#FFE600;" d="M92.893,316.291c-0.063-0.11-0.181-0.173-0.307-0.173h-1.339c-0.165,0-0.307,0.102-0.354,0.244  l-1.126,2.836l-1.126-2.836c-0.063-0.15-0.197-0.244-0.354-0.244h-1.339l-0.063,0.008c-0.016,0-0.032-0.008-0.032-0.008h-4.537  c-0.213,0-0.386,0.173-0.386,0.378v1.284c0,0.205,0.165,0.394,0.386,0.394h1.229v4.868c0,0.205,0.181,0.386,0.386,0.386h1.339  c0.197,0,0.386-0.173,0.386-0.386v-4.868h1.197c0.126,0,0.244-0.079,0.307-0.181l2.245,5.364c0.063,0.15,0.197,0.236,0.354,0.236  s0.291-0.095,0.354-0.236l2.796-6.703C92.972,316.528,92.972,316.402,92.893,316.291z"/>
<g>
</g>
<g>
</g>
<g>
</g>
<g>
</g>
<g>
</g>
<g>
</g>
<g>
</g>
<g>
</g>
<g>
</g>
<g>
</g>
<g>
</g>
<g>
</g>
<g>
</g>
<g>
</g>
<g>
</g>
</svg>