<?xml version="1.0" encoding="utf-8"?>
<!-- Svg Vector Icons : http://www.onlinewebfonts.com/icon -->
<!DOCTYPE svg PUBLIC "-//W3C//DTD SVG 1.1//EN" "http://www.w3.org/Graphics/SVG/1.1/DTD/svg11.dtd">
<svg version="1.1" xmlns="http://www.w3.org/2000/svg" xmlns:xlink="http://www.w3.org/1999/xlink" x="0px" y="0px" viewBox="0 0 1000 1000" enable-background="new 0 0 1000 1000" xml:space="preserve">
<metadata> Svg Vector Icons : http://www.onlinewebfonts.com/icon </metadata>
<g><g><path d="M832.2,762.7c0,37.7-30.6,68.3-68.3,68.3s-68.3-30.6-68.3-68.3s30.6-68.3,68.3-68.3S832.2,725,832.2,762.7z M990,423.5v452.3c0,62.4-50.7,113.1-113.1,113.1H123.1C60.7,988.8,10,938.2,10,875.8V423.5c0-51.9,35.2-95.2,82.9-108.5c-0.1-1.6-0.5-3-0.5-4.6c0-37.7,30.6-68.3,68.3-68.3c9,0,17.5,1.9,25.3,5L841.5,65.4c0,0,0,0,0,0c0-29.9,24.3-54.2,54.2-54.2c29.9,0,54.2,24.3,54.2,54.2c0,29.9-24.3,54.2-54.2,54.2c-19.7,0-36.1-11-45.6-26.6L222.5,281.6c4.1,8.8,6.5,18.5,6.5,28.8h647.8C939.3,310.4,990,361.1,990,423.5z M650.8,536.6h226.1V385.8H650.8V536.6z M123.1,385.8v150.8h490V385.8H123.1z M160.8,668.5c0-10.4-8.4-18.8-18.8-18.8s-18.8,8.4-18.8,18.8v188.4c0,10.4,8.4,18.8,18.8,18.8s18.8-8.4,18.8-18.8V668.5z M236.1,668.5c0-10.4-8.4-18.8-18.8-18.8c-10.4,0-18.8,8.4-18.8,18.8v188.4c0,10.4,8.4,18.8,18.8,18.8c10.4,0,18.8-8.4,18.8-18.8V668.5z M311.6,668.5c0-10.4-8.4-18.8-18.8-18.8c-10.4,0-18.9,8.4-18.9,18.8v188.4c0,10.4,8.4,18.8,18.8,18.8c10.4,0,18.8-8.4,18.8-18.8L311.6,668.5L311.6,668.5z M386.9,668.5c0-10.4-8.4-18.8-18.8-18.8s-18.8,8.4-18.8,18.8v188.4c0,10.4,8.4,18.8,18.8,18.8s18.8-8.4,18.8-18.8V668.5z M462.3,668.5c0-10.4-8.4-18.8-18.8-18.8s-18.8,8.4-18.8,18.8v188.4c0,10.4,8.4,18.8,18.8,18.8s18.8-8.4,18.8-18.8V668.5z M537.7,668.5c0-10.4-8.4-18.8-18.8-18.8c-10.4,0-18.9,8.4-18.9,18.8v188.4c0,10.4,8.4,18.8,18.8,18.8s18.8-8.4,18.8-18.8L537.7,668.5L537.7,668.5z M883.2,762.7c0-65.9-53.4-119.3-119.3-119.3s-119.3,53.4-119.3,119.3c0,65.9,53.4,119.3,119.3,119.3S883.2,828.6,883.2,762.7z"/></g><g></g><g></g><g></g><g></g><g></g><g></g><g></g><g></g><g></g><g></g><g></g><g></g><g></g><g></g><g></g></g>
</svg>