<?xml version="1.0" encoding="UTF-8" standalone="no"?>
<!-- Created with Inkscape (http://www.inkscape.org/) -->
<svg xmlns:dc="http://purl.org/dc/elements/1.1/" xmlns:cc="http://web.resource.org/cc/" xmlns:rdf="http://www.w3.org/1999/02/22-rdf-syntax-ns#" xmlns:svg="http://www.w3.org/2000/svg" xmlns="http://www.w3.org/2000/svg" xmlns:sodipodi="http://sodipodi.sourceforge.net/DTD/sodipodi-0.dtd" xmlns:inkscape="http://www.inkscape.org/namespaces/inkscape" width="502.50137" height="513.30786" id="svg5126" sodipodi:version="0.32" inkscape:version="0.45" sodipodi:docbase="/home/evans/Desktop" sodipodi:docname="paulshannon_Old_Timey_Radio.svg" inkscape:output_extension="org.inkscape.output.svg.inkscape" sodipodi:modified="true" version="1.0">
  <defs id="defs5128"/>
  <sodipodi:namedview id="base" pagecolor="#ffffff" bordercolor="#666666" borderopacity="1.0" gridtolerance="10000" guidetolerance="10" objecttolerance="10" inkscape:pageopacity="0.0" inkscape:pageshadow="2" inkscape:zoom="0.93900763" inkscape:cx="251.25069" inkscape:cy="256.65393" inkscape:document-units="px" inkscape:current-layer="layer1" inkscape:window-width="1024" inkscape:window-height="697" inkscape:window-x="0" inkscape:window-y="24" inkscape:showpageshadow="false"/>
  <metadata id="metadata5131">
    <rdf:RDF>
      <cc:Work rdf:about="">
        <dc:format>image/svg+xml</dc:format>
        <dc:type rdf:resource="http://purl.org/dc/dcmitype/StillImage"/>
      </cc:Work>
    </rdf:RDF>
  </metadata>
  <g inkscape:label="Layer 1" inkscape:groupmode="layer" id="layer1" transform="translate(-118.87129,-196.84911)">
    <rect style="opacity:1;fill:#000000;fill-opacity:1;stroke:#000000;stroke-width:0;stroke-miterlimit:4;stroke-dasharray:none;stroke-opacity:1" id="rect5134" width="468.57144" height="305.71429" x="134.28572" y="366.64789" rx="95.150215" ry="84.285721"/>
    <rect ry="75.54879" rx="85.287086" y="381.19492" x="157.14287" height="274.02441" width="420" id="rect5136" style="opacity:1;fill:#ffffff;fill-opacity:1;stroke:#000000;stroke-width:0;stroke-miterlimit:4;stroke-dasharray:none;stroke-opacity:1"/>
    <g id="g7203">
      <g transform="matrix(0.8176944,0,0,0.8176944,146.43432,-101.76009)" id="g6133">
        <path transform="matrix(0.5,0,0,0.5,222.85714,437.60968)" d="M 445.71428 823.79077 A 51.42857 51.42857 0 1 1  342.85714,823.79077 A 51.42857 51.42857 0 1 1  445.71428 823.79077 z" sodipodi:ry="51.42857" sodipodi:rx="51.42857" sodipodi:cy="823.79077" sodipodi:cx="394.28571" id="path6135" style="opacity:1;fill:#000000;fill-opacity:1;stroke:#000000;stroke-width:0;stroke-miterlimit:4;stroke-dasharray:none;stroke-opacity:1" sodipodi:type="arc"/>
        <path transform="matrix(0.3611111,0,0,0.3611111,279.04762,553.45364)" sodipodi:type="arc" style="opacity:1;fill:#ffffff;fill-opacity:1;stroke:#000000;stroke-width:0;stroke-miterlimit:4;stroke-dasharray:none;stroke-opacity:1" id="path6137" sodipodi:cx="394.28571" sodipodi:cy="823.79077" sodipodi:rx="51.42857" sodipodi:ry="51.42857" d="M 445.71428 823.79077 A 51.42857 51.42857 0 1 1  342.85714,823.79077 A 51.42857 51.42857 0 1 1  445.71428 823.79077 z"/>
      </g>
      <g id="g6139" transform="matrix(0.8176944,0,0,0.8176944,81.585603,-101.76009)">
        <path sodipodi:type="arc" style="opacity:1;fill:#000000;fill-opacity:1;stroke:#000000;stroke-width:0;stroke-miterlimit:4;stroke-dasharray:none;stroke-opacity:1" id="path6141" sodipodi:cx="394.28571" sodipodi:cy="823.79077" sodipodi:rx="51.42857" sodipodi:ry="51.42857" d="M 445.71428 823.79077 A 51.42857 51.42857 0 1 1  342.85714,823.79077 A 51.42857 51.42857 0 1 1  445.71428 823.79077 z" transform="matrix(0.5,0,0,0.5,222.85714,437.60968)"/>
        <path d="M 445.71428 823.79077 A 51.42857 51.42857 0 1 1  342.85714,823.79077 A 51.42857 51.42857 0 1 1  445.71428 823.79077 z" sodipodi:ry="51.42857" sodipodi:rx="51.42857" sodipodi:cy="823.79077" sodipodi:cx="394.28571" id="path6143" style="opacity:1;fill:#ffffff;fill-opacity:1;stroke:#000000;stroke-width:0;stroke-miterlimit:4;stroke-dasharray:none;stroke-opacity:1" sodipodi:type="arc" transform="matrix(0.3611111,0,0,0.3611111,279.04762,553.45364)"/>
      </g>
      <g id="g7194">
        <g id="g6119" transform="translate(14.285714,-11.428571)">
          <rect style="opacity:1;fill:#000000;fill-opacity:1;stroke:#000000;stroke-width:0;stroke-miterlimit:4;stroke-dasharray:none;stroke-opacity:1" id="rect6107" width="152.77528" height="122.85714" x="367.2247" y="449.505" rx="31.023232" ry="33.871834"/>
          <rect ry="30.360729" rx="27.807409" y="455.35098" x="374.67715" height="110.12196" width="136.93883" id="rect6109" style="opacity:1;fill:#ffffff;fill-opacity:1;stroke:#000000;stroke-width:0;stroke-miterlimit:4;stroke-dasharray:none;stroke-opacity:1"/>
        </g>
        <g id="g7190" transform="translate(0,0.7813098)">
          <rect ry="22.098841" rx="20.240341" y="458.12048" x="407.18439" height="80.155106" width="99.674461" id="rect7184" style="fill:#000000;fill-opacity:1;stroke:#000000;stroke-width:0;stroke-miterlimit:4;stroke-dasharray:none;stroke-opacity:1"/>
          <rect style="fill:#ffffff;fill-opacity:1;stroke:#000000;stroke-width:0;stroke-miterlimit:4;stroke-dasharray:none;stroke-opacity:1" id="rect7186" width="95.592827" height="76.534218" x="408.92133" y="459.59061" rx="19.411507" ry="21.100554"/>
        </g>
        <rect style="opacity:1;fill:#000000;fill-opacity:1;stroke:#000000;stroke-width:0;stroke-miterlimit:4;stroke-dasharray:none;stroke-opacity:1" id="rect6145" width="147.66756" height="3.1252394" x="385.96707" y="497.6322" rx="0" ry="3.1252394"/>
      </g>
    </g>
    <rect style="opacity:1;fill:#000000;fill-opacity:1;stroke:#000000;stroke-width:0;stroke-miterlimit:4;stroke-dasharray:none;stroke-opacity:1" id="rect7219" width="1.3007236" height="61.038307" x="-856.42419" y="-614.84302" ry="0.96886194" transform="matrix(-3.6172866e-2,-0.9993455,-0.7672663,0.6413286,0,0)"/>
    <rect transform="matrix(-0.2899772,-0.9570335,-0.3146673,0.949202,0,0)" ry="0.73627537" y="-508.70734" x="-1027.587" height="46.385349" width="1.5276711" id="rect7221" style="opacity:1;fill:#000000;fill-opacity:1;stroke:#000000;stroke-width:0;stroke-miterlimit:4;stroke-dasharray:none;stroke-opacity:1"/>
    <g id="g7259">
      <rect ry="59.078781" rx="31.603416" y="412.36215" x="192.93898" height="214.28571" width="155.63243" id="rect6111" style="fill:#000000;fill-opacity:1;stroke:#000000;stroke-width:0;stroke-miterlimit:4;stroke-dasharray:none;stroke-opacity:1"/>
      <rect style="fill:#ffffff;fill-opacity:1;stroke:#000000;stroke-width:0;stroke-miterlimit:4;stroke-dasharray:none;stroke-opacity:1" id="rect6113" width="140.40034" height="192.0732" x="200.53081" y="422.55862" rx="28.510319" ry="52.954762"/>
      <rect ry="4.5027003" rx="0" y="465.21005" x="198.11882" height="4.5027003" width="144.98695" id="rect7223" style="fill:#000000;fill-opacity:1;stroke:#000000;stroke-width:0;stroke-miterlimit:4;stroke-dasharray:none;stroke-opacity:1"/>
      <rect style="fill:#000000;fill-opacity:1;stroke:#000000;stroke-width:0;stroke-miterlimit:4;stroke-dasharray:none;stroke-opacity:1" id="rect7225" width="144.98695" height="4.5027003" x="197.21828" y="491.32571" rx="0" ry="4.5027003"/>
      <rect style="fill:#000000;fill-opacity:1;stroke:#000000;stroke-width:0;stroke-miterlimit:4;stroke-dasharray:none;stroke-opacity:1" id="rect7227" width="144.98695" height="4.5027003" x="197.21828" y="516.54083" rx="0" ry="4.5027003"/>
      <rect ry="4.5027003" rx="0" y="541.75598" x="197.21828" height="4.5027003" width="144.98695" id="rect7229" style="fill:#000000;fill-opacity:1;stroke:#000000;stroke-width:0;stroke-miterlimit:4;stroke-dasharray:none;stroke-opacity:1"/>
      <rect ry="4.5027003" rx="0" y="565.58826" x="197.21828" height="4.5027003" width="144.98695" id="rect7231" style="fill:#000000;fill-opacity:1;stroke:#000000;stroke-width:0;stroke-miterlimit:4;stroke-dasharray:none;stroke-opacity:1"/>
    </g>
    <path sodipodi:type="arc" style="opacity:1;fill:#000000;fill-opacity:1;stroke:#000000;stroke-width:0;stroke-miterlimit:4;stroke-dasharray:none;stroke-opacity:1" id="path7244" sodipodi:cx="231.4388" sodipodi:cy="679.08832" sodipodi:rx="29.717823" sodipodi:ry="13.958371" d="M 261.15662 679.08832 A 29.717823 13.958371 0 1 1  201.72097,679.08832 A 29.717823 13.958371 0 1 1  261.15662 679.08832 z" transform="matrix(1.0606061,0,0,1.2903226,-12.225513,-193.10224)"/>
    <path transform="matrix(1.0606061,0,0,1.2903226,260.63813,-191.30116)" d="M 261.15662 679.08832 A 29.717823 13.958371 0 1 1  201.72097,679.08832 A 29.717823 13.958371 0 1 1  261.15662 679.08832 z" sodipodi:ry="13.958371" sodipodi:rx="29.717823" sodipodi:cy="679.08832" sodipodi:cx="231.4388" id="path7246" style="opacity:1;fill:#000000;fill-opacity:1;stroke:#000000;stroke-width:0;stroke-miterlimit:4;stroke-dasharray:none;stroke-opacity:1" sodipodi:type="arc"/>
    <rect style="opacity:1;fill:#000000;fill-opacity:1;stroke:#000000;stroke-width:0;stroke-miterlimit:4;stroke-dasharray:none;stroke-opacity:1" id="rect7248" width="6.6320119" height="229.30524" x="-34.243034" y="303.4187" rx="41.992748" ry="69.864838" transform="matrix(0.8945997,-0.4468683,0.7360832,0.6768911,0,0)"/>
    <rect transform="matrix(-0.8945997,-0.4468683,-0.7360832,0.6768911,0,0)" ry="69.864838" rx="41.992741" y="-45.40287" x="-552.54218" height="229.30524" width="6.6320109" id="rect7250" style="opacity:1;fill:#000000;fill-opacity:1;stroke:#000000;stroke-width:0;stroke-miterlimit:4;stroke-dasharray:none;stroke-opacity:1"/>
  </g>
</svg>