<?xml version="1.0" encoding="UTF-8"?>
<!-- Generator: Adobe Illustrator 21.0.0, SVG Export Plug-In . SVG Version: 6.00 Build 0)  -->
<svg version="1.1" id="Layer_1" xmlns="http://www.w3.org/2000/svg" xmlns:xlink="http://www.w3.org/1999/xlink" x="0px" y="0px" viewBox="0 0 100 100" style="enable-background:new 0 0 100 100;" xml:space="preserve">
<style type="text/css">
	.st0{fill:#00A1E0;}
</style>
<g>
	<rect x="15.6" y="46.7" class="st0" width="22" height="3"/>
	<rect x="25.2" y="34.6" class="st0" width="12.3" height="3"/>
	<rect x="15.6" y="40.6" class="st0" width="22" height="3"/>
	<rect x="15.6" y="52.7" class="st0" width="22" height="3"/>
	<rect x="15.6" y="58.7" class="st0" width="22" height="3"/>
	<path class="st0" d="M95.1,11.5H66.3c-9.4,0-14,2.2-16.3,4.5c-2.2-2.3-6.8-4.5-16.3-4.5H4.9c-1.4,0-2.4,1.2-2.4,2.6v68.2   c0,1.4,1.2,2.4,2.4,2.4h0.3h15.3h13.2c6,0,12.2,2.6,12.2,3l0,0c1.3,0.9,1.3,0.9,2.4,0.9h3.3c1.3,0,1.3,0,2.4-1.2   c0.3-0.4,6.4-2.7,12.1-2.7h13.4h15.3h0.3c1.4,0,2.4-1.2,2.4-2.4V14.1C97.5,12.6,96.5,11.5,95.1,11.5z M46.3,20.6V83   c0,0-5.3-3-12.5-3C32,80,7.5,80,7.5,80V16.1c0,0,24.6,0,26.3,0C47.7,16.1,46.3,20.6,46.3,20.6z M83.8,61.7h-22V34.6h22V61.7z"/>
</g>
</svg>