<?xml version="1.0" encoding="iso-8859-1"?>
<!-- Generator: Adobe Illustrator 19.0.0, SVG Export Plug-In . SVG Version: 6.00 Build 0)  -->
<svg version="1.1" id="Capa_1" xmlns="http://www.w3.org/2000/svg" xmlns:xlink="http://www.w3.org/1999/xlink" x="0px" y="0px"
	 viewBox="0 0 512 512" style="enable-background:new 0 0 512 512;" xml:space="preserve">
<path style="fill:#69D5FF;" d="M439.107,138.202H424.59c0-47.886-38.819-86.705-86.705-86.705c-14.303,0-27.784,3.485-39.676,9.618
	C286.765,47.575,272.361,36.621,256,29.236l-20.016,127.376L256,283.988h183.107c40.258,0,72.893-32.635,72.893-72.893
	C512,170.838,479.365,138.202,439.107,138.202z"/>
<path style="fill:#AEECFF;" d="M206.908,18.705c-65.997,0-119.497,53.501-119.497,119.497H72.893
	C32.635,138.202,0,170.838,0,211.095c0,40.258,32.635,72.893,72.893,72.893H256V29.236
	C241.023,22.476,224.408,18.705,206.908,18.705z"/>
<path style="fill:#007CD6;" d="M309.881,172.858H256l-20.016,140.985L256,493.295l0,0c79.907-43.634,129.614-96.41,129.614-201.817
	v-68.52L309.881,172.858z"/>
<path style="fill:#51B1F5;" d="M202.119,172.858l-75.734,50.1v68.52c0,105.406,49.708,158.183,129.614,201.817l0,0V172.858H202.119z
	"/>
<polygon style="fill:#D4FFD9;" points="279.055,290.789 279.055,248.553 256,248.553 235.984,313.844 256,379.136 279.055,379.136 
	279.055,336.9 321.292,336.9 321.292,290.789 "/>
<polygon style="fill:#FFFFFF;" points="232.945,248.553 232.945,290.789 190.708,290.789 190.708,336.9 232.945,336.9 
	232.945,379.136 256,379.136 256,248.553 "/>
<g>
</g>
<g>
</g>
<g>
</g>
<g>
</g>
<g>
</g>
<g>
</g>
<g>
</g>
<g>
</g>
<g>
</g>
<g>
</g>
<g>
</g>
<g>
</g>
<g>
</g>
<g>
</g>
<g>
</g>
</svg>
