<?xml version="1.0" encoding="iso-8859-1"?>
<!-- Generator: Adobe Illustrator 19.0.0, SVG Export Plug-In . SVG Version: 6.00 Build 0)  -->
<svg version="1.1" id="Layer_1" xmlns="http://www.w3.org/2000/svg" xmlns:xlink="http://www.w3.org/1999/xlink" x="0px" y="0px"
	 viewBox="0 0 512 512" style="enable-background:new 0 0 512 512;" xml:space="preserve">
<circle style="fill:#FFD15D;" cx="256" cy="256" r="256"/>
<path style="fill:#F9B54C;" d="M512,256c0-4.561-0.124-9.092-0.36-13.595L405.251,136.016L239.521,266.504L106.696,343.35
	l167.969,167.969C407.335,501.758,512,391.108,512,256z"/>
<rect x="210.23" y="326.163" style="fill:#2B3B4E;" width="91.539" height="61.026"/>
<rect x="254.862" y="326.163" style="fill:#213344;" width="46.925" height="61.026"/>
<path style="fill:#324A5E;" d="M397.626,346.505H114.378c-6.042,0-10.942-4.899-10.942-10.942V143.855
	c0-6.042,4.899-10.942,10.942-10.942h283.248c6.042,0,10.942,4.899,10.942,10.942v191.709
	C408.567,341.606,403.668,346.505,397.626,346.505z"/>
<path style="fill:#2B3B4E;" d="M397.626,132.913H254.852v213.592h142.774c6.042,0,10.942-4.899,10.942-10.942V143.855
	C408.567,137.811,403.668,132.913,397.626,132.913z"/>
<rect x="116.381" y="145.394" style="fill:#E6F3FF;" width="279.238" height="188.63"/>
<rect x="254.862" y="145.394" style="fill:#CFDBE6;" width="140.774" height="188.63"/>
<g>
	<rect x="194.974" y="377.018" style="fill:#324A5E;" width="122.053" height="30.513"/>
	<rect x="254.862" y="377.018" style="fill:#324A5E;" width="62.181" height="30.513"/>
</g>
<circle style="fill:#E6F3FF;" cx="312.889" cy="256" r="60.337"/>
<path style="fill:#FFFFFF;" d="M355.556,213.335c-23.273-23.274-60.821-23.543-84.446-0.84l85.285,85.285
	C379.097,274.156,378.828,236.609,355.556,213.335z"/>
<path style="fill:#2B9ED8;" d="M414.11,336.498l-44.458-44.46c6.808-10.674,10.471-23.073,10.471-36.04
	c0-17.958-6.994-34.842-19.69-47.54c-26.214-26.214-68.865-26.214-95.082,0c-12.698,12.698-19.692,29.582-19.692,47.54
	s6.994,34.842,19.69,47.54c13.109,13.109,30.322,19.659,47.542,19.659c12.54,0,25.074-3.496,36.028-10.45l44.47,44.47
	c2.862,2.862,6.609,4.293,10.361,4.293c3.749,0,7.501-1.431,10.361-4.293C419.833,351.497,419.833,342.221,414.11,336.498z
	 M351.289,294.398c-21.207,21.207-55.589,21.207-76.797,0s-21.206-55.589,0-76.797c21.207-21.207,55.589-21.207,76.797,0
	S372.495,273.191,351.289,294.398z"/>
<path style="fill:#31BAFD;" d="M351.289,217.602c20.918,20.918,21.187,54.644,0.84,75.912l62.8,62.8
	c4.879-5.756,4.613-14.384-0.819-19.816l-44.458-44.46c6.808-10.674,10.471-23.073,10.471-36.04c0-17.958-6.994-34.842-19.69-47.54
	c-25.924-25.924-67.915-26.193-94.198-0.841l9.142,9.142C296.645,196.415,330.371,196.684,351.289,217.602z"/>
<g>
	<path style="fill:#2B3B4E;" d="M307.515,229.026c-2.186-11.343-11.455-11.819-11.548-11.823l0.152-4.077
		c4.349,0.162,13.167,3.532,15.401,15.127L307.515,229.026z"/>
	<path style="fill:#2B3B4E;" d="M318.462,229.026l-4.006-0.772c2.234-11.595,11.052-14.965,15.401-15.127l0.152,4.077l-0.076-2.038
		l0.088,2.038C329.64,217.221,320.628,217.79,318.462,229.026z"/>
</g>
<g>
	<polygon style="fill:#324A5E;" points="302.07,244.819 277.852,238.27 274.687,243.421 270.439,240.809 275.558,232.484 
		303.371,240.006 	"/>
	<polygon style="fill:#324A5E;" points="273.715,267.693 268.857,266.569 271.062,257.048 299.825,255.333 300.122,260.311 
		275.078,261.804 	"/>
	<polygon style="fill:#324A5E;" points="278.754,292.978 275.453,283.779 298.708,266.768 301.652,270.791 281.405,285.603 
		283.446,291.294 	"/>
</g>
<g>
	<polygon style="fill:#2B3B4E;" points="323.906,244.819 322.605,240.006 350.42,232.484 355.538,240.809 351.291,243.421 
		348.124,238.27 	"/>
	<polygon style="fill:#2B3B4E;" points="352.261,267.693 350.898,261.804 325.856,260.311 326.153,255.333 354.914,257.048 
		357.119,266.569 	"/>
	<polygon style="fill:#2B3B4E;" points="347.224,292.978 342.53,291.294 344.573,285.603 324.325,270.791 327.268,266.768 
		350.523,283.779 	"/>
</g>
<g>
	<circle style="fill:#FC6F58;" cx="312.992" cy="232.934" r="11.23"/>
	<path style="fill:#FC6F58;" d="M301.759,232.927c0-6.203,5.027-11.23,11.23-11.23s11.23,5.027,11.23,11.23"/>
</g>
<path style="fill:#425F72;" d="M339.939,266.819c0,17.703-26.95,32.054-26.95,32.054s-26.95-14.352-26.95-32.054v-25.191
	c0-3.791,3.231-6.865,7.215-6.865h39.472c3.984,0,7.215,3.074,7.215,6.865v25.191H339.939z"/>
<path style="fill:#324A5E;" d="M332.724,234.765h-19.873v64.036c0.086,0.047,0.136,0.074,0.136,0.074s26.95-14.352,26.95-32.054
	V241.63C339.939,237.839,336.71,234.765,332.724,234.765z"/>
<g>
	<path style="fill:#2B3B4E;" d="M325.76,242.116h-25.541c-2.307,0-4.175-1.869-4.175-4.175v-5.125c0-2.307,1.869-4.175,4.175-4.175
		h25.541c2.307,0,4.175,1.869,4.175,4.175v5.125C329.935,240.245,328.064,242.116,325.76,242.116z"/>
	<path style="fill:#2B3B4E;" d="M329.935,232.815v5.125c0,2.307-1.869,4.175-4.175,4.175"/>
</g>
<g>
</g>
<g>
</g>
<g>
</g>
<g>
</g>
<g>
</g>
<g>
</g>
<g>
</g>
<g>
</g>
<g>
</g>
<g>
</g>
<g>
</g>
<g>
</g>
<g>
</g>
<g>
</g>
<g>
</g>
</svg>
