<?xml version="1.0" encoding="utf-8"?>
<!-- Generator: Adobe Illustrator 16.0.0, SVG Export Plug-In . SVG Version: 6.00 Build 0)  -->
<!DOCTYPE svg PUBLIC "-//W3C//DTD SVG 1.1//EN" "http://www.w3.org/Graphics/SVG/1.1/DTD/svg11.dtd">
<svg version="1.1" id="Layer_1" xmlns="http://www.w3.org/2000/svg" xmlns:xlink="http://www.w3.org/1999/xlink" x="0px" y="0px"
	 width="118px" height="48px" viewBox="0 0 118 48" enable-background="new 0 0 118 48" xml:space="preserve">
<g>
	<g>
		<path fill="#312C80" d="M0.098,31.417l6.896-16.663h4.09l6.896,16.663h-4.162l-1.611-3.857H5.871L4.26,31.417H0.098z
			 M9.045,18.758l-2.38,5.835h4.749L9.045,18.758z"/>
		<path fill="#312C80" d="M23.999,27.621l3.394-8.375h3.54l-5.249,12.17h-3.589l-4.858-12.17h3.65L23.999,27.621z"/>
		<path fill="#312C80" d="M32.74,18.001v-3.247h3.344v3.247H32.74z M32.74,19.247h3.344v12.17H32.74V19.247z"/>
		<path fill="#312C80" d="M42.736,31.417h-3.344V14.754h3.344V31.417z"/>
		<path fill="#312C80" d="M54.455,24.02c0-0.854-0.173-1.43-0.519-1.728c-0.347-0.297-1.023-0.445-2.032-0.445H46.24v-2.6h5.664
			c1.009,0,1.706,0.018,2.093,0.055c0.387,0.036,0.775,0.116,1.166,0.238c1.848,0.7,2.727,2.373,2.637,5.017v6.86h-7.056
			c-1.262,0-2.135-0.036-2.618-0.11c-0.484-0.072-0.909-0.231-1.276-0.476c-0.992-0.667-1.488-1.673-1.488-3.015
			c0-0.822,0.196-1.553,0.592-2.191c0.395-0.639,0.913-1.072,1.557-1.3c0.569-0.203,1.518-0.305,2.844-0.305H54.455z M54.455,26.619
			h-3.869l-0.563-0.012c-0.382,0-0.686,0.102-0.909,0.305c-0.224,0.204-0.335,0.477-0.335,0.818c0,0.398,0.136,0.68,0.408,0.842
			c0.272,0.164,0.738,0.244,1.398,0.244h3.869V26.619z"/>
	</g>
	<g>
		<path d="M93.027,28.816v-9.57h3.246v12.17h-6.395c-0.932,0-1.646-0.069-2.145-0.208c-0.496-0.138-0.943-0.395-1.338-0.769
			c-0.828-0.772-1.242-2.01-1.242-3.711v-7.483h3.244v7.825c0,0.546,0.139,0.973,0.414,1.282c0.277,0.309,0.66,0.463,1.148,0.463
			H93.027z"/>
		<path d="M99.471,18.001v-3.247h3.244v3.247H99.471z M99.471,19.247h3.244v12.17h-3.244V19.247z"/>
		<path d="M113.82,19.247v-4.492h3.244v16.663h-5.588c-1.137,0-1.99-0.089-2.559-0.269c-1.389-0.447-2.422-1.33-3.102-2.648
			c-0.457-0.896-0.688-1.979-0.688-3.248c0-2.091,0.68-3.714,2.037-4.87c0.885-0.757,2.084-1.135,3.6-1.135H113.82z M113.82,28.816
			v-6.97h-2.344c-1.035,0-1.82,0.354-2.355,1.062c-0.459,0.61-0.688,1.392-0.688,2.343c0,1.376,0.383,2.361,1.148,2.955
			c0.529,0.406,1.16,0.609,1.895,0.609H113.82z"/>
	</g>
	<g>
		
			<path fill="none" stroke="#000000" stroke-width="1.5" stroke-linecap="round" stroke-linejoin="round" stroke-miterlimit="10" d="
			M79.158,27.579c1.18-1.612,1.885-3.594,1.885-5.746c0-5.385-4.365-9.75-9.75-9.75s-9.75,4.366-9.75,9.75
			c0,5.385,4.365,9.75,9.75,9.75c0.846,0,1.662-0.119,2.443-0.321l-0.02,0.015l1.68,2.535l5.646-4.063l-1.867-2.184L79.158,27.579z"
			/>
		<g>
			<path d="M76.613,24.185c0,0,0.084,0.153,0.232,0.422c0.057,0.149,0.105,0.357,0.158,0.601c-0.01,0.287,0.059,0.43-0.025,0.773
				c-0.041,0.329-0.18,0.625-0.34,0.936c-0.1,0.143-0.203,0.292-0.318,0.438c-0.139,0.125-0.279,0.252-0.424,0.381
				c-0.16,0.107-0.33,0.211-0.508,0.307c-0.188,0.073-0.383,0.131-0.58,0.193c-0.201,0.035-0.41,0.053-0.617,0.075
				c-0.037-0.001,0.029,0.007-0.094-0.001l-0.031-0.004l-0.064-0.007l-0.127-0.015l-0.256-0.029
				c-0.205-0.047-0.436-0.123-0.646-0.195c-0.186-0.096-0.367-0.193-0.539-0.305c-0.154-0.135-0.311-0.266-0.451-0.405
				c-0.121-0.157-0.246-0.31-0.352-0.47c-0.088-0.172-0.166-0.344-0.238-0.51c-0.045-0.178-0.088-0.352-0.129-0.52
				c-0.027-0.17-0.018-0.341-0.021-0.5L71.24,25.23c0.002-0.116,0.014-0.09,0.018-0.141l0.039-0.194
				c0.023-0.238,0.174-0.531,0.264-0.745c0.121-0.203,0.25-0.357,0.348-0.485c0.242-0.211,0.381-0.332,0.381-0.332l0.152,0.152
				c0,0-0.08,0.144-0.219,0.396c-0.045,0.13-0.1,0.288-0.162,0.469c-0.02,0.189-0.076,0.333-0.061,0.616v0.197
				c0.002,0.016-0.008,0.109,0.006,0.061l0.02,0.087c0.029,0.116,0.045,0.235,0.078,0.353c0.047,0.113,0.094,0.229,0.141,0.347
				c0.07,0.106,0.141,0.214,0.211,0.323l0.264,0.292l0.318,0.239c0.123,0.055,0.24,0.121,0.357,0.181
				c0.117,0.024,0.211,0.065,0.336,0.101l0.451,0.037l0.396-0.035l0.375-0.111c0.113-0.065,0.234-0.109,0.348-0.168
				c0.105-0.076,0.207-0.15,0.307-0.224c0.082-0.095,0.172-0.178,0.26-0.263c0.143-0.195,0.273-0.391,0.348-0.566
				c0.113-0.14,0.125-0.488,0.189-0.609c0.014-0.184,0.027-0.344,0.037-0.476c-0.029-0.305-0.047-0.479-0.047-0.479L76.613,24.185z"
				/>
		</g>
		<path fill="#312C80" d="M70.209,17.218c0,0,4.035,4.321,4.701,6.481c4.25-7.026,10.549-14.116,10.549-14.116
			s-9.332,7.331-10.654,10.119C73.639,17.786,70.209,17.218,70.209,17.218z"/>
	</g>
</g>
<g>
</g>
<g>
</g>
<g>
</g>
<g>
</g>
<g>
</g>
<g>
</g>
</svg>
