<?xml version="1.0" encoding="utf-8"?>
<!-- Generator: Adobe Illustrator 16.0.0, SVG Export Plug-In . SVG Version: 6.00 Build 0)  -->
<!DOCTYPE svg PUBLIC "-//W3C//DTD SVG 1.1//EN" "http://www.w3.org/Graphics/SVG/1.1/DTD/svg11.dtd">
<svg version="1.1" id="Layer_1" xmlns="http://www.w3.org/2000/svg" xmlns:xlink="http://www.w3.org/1999/xlink" x="0px" y="0px"
	 width="170px" height="31px" viewBox="0 0 170 31" enable-background="new 0 0 170 31" xml:space="preserve">
<g>
	<g>
		<path fill="#223E7C" d="M32.066,19.507l6.782-16.386h4.021l6.783,16.386h-4.094l-1.584-3.793h-6.23l-1.584,3.793H32.066z
			 M40.865,7.058l-2.341,5.738h4.67L40.865,7.058z"/>
		<path fill="#223E7C" d="M55.57,15.773l3.337-8.235h3.481l-5.162,11.968h-3.529L48.92,7.539h3.589L55.57,15.773z"/>
		<path fill="#223E7C" d="M64.166,6.314V3.121h3.289v3.193H64.166z M64.166,7.539h3.289v11.968h-3.289V7.539z"/>
		<path fill="#223E7C" d="M73.997,19.507h-3.289V3.121h3.289V19.507z"/>
		<path fill="#223E7C" d="M84.439,12.232c0-0.84-0.17-1.406-0.51-1.698s-1.006-0.438-1.999-0.438h-5.57V7.539h5.57
			c0.992,0,1.678,0.018,2.059,0.054c0.38,0.036,0.762,0.114,1.146,0.234c1.816,0.688,2.681,2.333,2.593,4.934v6.747H80.79
			c-1.241,0-2.099-0.036-2.575-0.108c-0.477-0.071-0.895-0.228-1.254-0.468c-0.977-0.656-1.465-1.645-1.465-2.965
			c0-0.808,0.194-1.526,0.583-2.155c0.388-0.628,0.898-1.054,1.53-1.278c0.56-0.2,1.493-0.3,2.797-0.3H84.439z M84.439,14.789
			h-3.805l-0.552-0.012c-0.376,0-0.674,0.1-0.895,0.3c-0.22,0.2-0.33,0.468-0.33,0.804c0,0.392,0.134,0.668,0.402,0.829
			c0.268,0.16,0.726,0.24,1.375,0.24h3.805V14.789z"/>
	</g>
	<g>
		<path fill="#223E7C" d="M90.401,3.121h6.95c1.736,0,3.081,0.172,4.034,0.517c1.752,0.632,2.921,1.8,3.505,3.505
			c0.448,1.305,0.672,2.706,0.672,4.202c0,1.481-0.212,2.877-0.636,4.189c-0.425,1.345-1.133,2.333-2.125,2.965
			c-0.624,0.4-1.307,0.669-2.047,0.805s-1.875,0.204-3.403,0.204h-6.95V3.121z M93.883,6.038V16.59h3.469
			c1.521,0,2.577-0.34,3.17-1.021c0.359-0.416,0.649-1.01,0.87-1.783c0.22-0.772,0.33-1.594,0.33-2.467
			c0-0.96-0.131-1.845-0.391-2.653c-0.26-0.809-0.605-1.409-1.038-1.801c-0.624-0.552-1.604-0.828-2.941-0.828H93.883z"/>
		<path fill="#223E7C" d="M114.931,3.013c1.641,0,3.081,0.28,4.322,0.84c1.464,0.665,2.488,1.781,3.073,3.349
			c0.464,1.233,0.696,2.681,0.696,4.346s-0.284,3.109-0.853,4.333c-0.696,1.473-1.772,2.498-3.229,3.074
			c-1.088,0.432-2.341,0.647-3.757,0.647c-1.841,0-3.445-0.344-4.814-1.032c-1.145-0.576-2.019-1.479-2.623-2.707
			c-0.604-1.228-0.906-2.719-0.906-4.471c0-3.122,0.776-5.346,2.329-6.675C110.481,3.597,112.402,3.029,114.931,3.013z
			 M114.955,5.774c-1.608,0-2.761,0.524-3.457,1.572c-0.545,0.816-0.816,2.129-0.816,3.938c0,1.921,0.344,3.333,1.032,4.238
			c0.681,0.889,1.765,1.332,3.253,1.332c1.44,0,2.503-0.45,3.188-1.35c0.685-0.9,1.026-2.295,1.026-4.184
			c0-1.712-0.276-3.021-0.828-3.925C117.704,6.322,116.571,5.782,114.955,5.774z"/>
		<path fill="#223E7C" d="M137.648,16.59v2.917h-5.714c-1.089,0-1.921-0.056-2.497-0.168c-2.009-0.393-3.438-1.517-4.285-3.374
			c-0.561-1.24-0.841-2.777-0.841-4.609c0-2.201,0.429-3.994,1.285-5.378c0.616-0.992,1.442-1.717,2.479-2.173
			s2.379-0.685,4.027-0.685h5.546v2.917h-5.149c-1.561,0-2.705,0.416-3.434,1.248c-0.6,0.688-0.9,1.937-0.9,3.746
			c0,2.417,0.469,4.005,1.404,4.766c0.656,0.528,1.677,0.792,3.062,0.792H137.648z"/>
	</g>
	<g>
		<path fill="#BABABB" d="M24.436,9.744c1.391,11.066-3.024,14.393-3.024,14.393s-1.088,1.571-10.22-0.665
			c7.922,0.18,9.011-1.03,9.011-1.03S23.114,21.596,24.436,9.744z"/>
		<path fill="#BABABB" d="M9.197,20.084c1.45-7.166,0.484-14.332,0.484-14.332s5.744,0.423,9.433,0.423
			c-2.358,1.331-7.378,1.209-7.378,1.209S12.161,13.251,9.197,20.084z"/>
		<path fill="#BABABB" d="M20.536,5.752c0,0,0.999,0.822,1.496,1.194c0.495,0.373,1.951,0.973,1.951,0.973l-3.9,1.325
			c0,0,0.875-0.816,0.815-1.746C20.824,6.365,20.536,5.752,20.536,5.752z"/>
		<path fill="#BABABB" d="M15.122,12.465c0,0,7.318,1.512,7.318-1.572C20.083,11.955,15.122,12.465,15.122,12.465z"/>
		<path fill="#BABABB" d="M21.714,15.276c0,1.241-6.592,0.515-6.592,0.515S21.714,14.097,21.714,15.276z"/>
		<path fill="#BABABB" d="M12.885,19.357c0-1.317,3.956-1.364,4.506-1.026C17.119,20.084,14.156,19.357,12.885,19.357z"/>
		<circle fill="none" stroke="#BABABB" stroke-width="1.2292" stroke-miterlimit="10" cx="16.144" cy="15.213" r="14.171"/>
	</g>
	<g>
		<path fill="#983720" d="M140.607,7.707l-0.829,2.577h-1.567l2.374-7.373h3.679c0.67,0,1.137,0.046,1.396,0.14
			c0.432,0.162,0.704,0.499,0.821,1.01c0.087,0.378,0.058,0.794-0.089,1.248c-0.121,0.375-0.303,0.729-0.548,1.064
			c-0.244,0.335-0.524,0.61-0.839,0.827c-0.277,0.19-0.553,0.323-0.824,0.397c-0.272,0.073-0.623,0.11-1.051,0.11H140.607z
			 M141.03,6.394h2.139c0.382,0,0.67-0.062,0.864-0.184c0.289-0.183,0.507-0.502,0.653-0.956c0.16-0.497,0.088-0.816-0.216-0.957
			c-0.109-0.05-0.3-0.075-0.57-0.075h-2.171L141.03,6.394z"/>
		<path fill="#983720" d="M147.934,7.48l-0.902,2.803h-1.567l2.374-7.373h3.598c1.034,0,1.714,0.131,2.04,0.394
			c0.221,0.177,0.36,0.41,0.421,0.699c0.059,0.29,0.032,0.609-0.08,0.959c-0.226,0.702-0.578,1.242-1.057,1.621
			c-0.294,0.23-0.643,0.407-1.046,0.53c0.257,0.097,0.44,0.204,0.551,0.319c0.111,0.115,0.189,0.284,0.237,0.507
			c0.034,0.173,0.043,0.341,0.028,0.505c-0.015,0.165-0.062,0.406-0.139,0.727c-0.128,0.529-0.188,0.899-0.181,1.112h-1.761
			c0.002-0.173,0.06-0.522,0.175-1.047c0.097-0.432,0.125-0.763,0.085-0.992c-0.04-0.229-0.154-0.408-0.343-0.538
			c-0.234-0.155-0.625-0.23-1.17-0.227H147.934z M148.356,6.167h2.204c0.367,0,0.646-0.054,0.836-0.163
			c0.286-0.165,0.495-0.45,0.625-0.853c0.145-0.45,0.061-0.738-0.251-0.865c-0.108-0.042-0.304-0.064-0.584-0.064h-2.204
			L148.356,6.167z"/>
		<path fill="#983720" d="M158.59,2.861c0.738,0,1.346,0.126,1.823,0.378c0.563,0.299,0.862,0.801,0.897,1.507
			c0.031,0.555-0.074,1.207-0.315,1.956c-0.241,0.75-0.579,1.399-1.012,1.95c-0.527,0.663-1.16,1.124-1.899,1.383
			c-0.553,0.194-1.146,0.291-1.783,0.291c-0.829,0-1.502-0.154-2.018-0.464c-0.432-0.259-0.694-0.666-0.787-1.219
			c-0.096-0.552-0.015-1.223,0.239-2.012c0.452-1.404,1.124-2.405,2.015-3.004C156.503,3.124,157.45,2.868,158.59,2.861z
			 M158.2,4.104c-0.724,0-1.317,0.236-1.783,0.708c-0.362,0.367-0.676,0.958-0.938,1.772c-0.278,0.864-0.328,1.5-0.149,1.907
			c0.177,0.4,0.601,0.6,1.271,0.6c0.648,0,1.191-0.203,1.631-0.608c0.438-0.405,0.794-1.033,1.067-1.882
			c0.248-0.771,0.313-1.36,0.196-1.767C159.358,4.35,158.927,4.107,158.2,4.104z"/>
	</g>
	<path fill="#983720" d="M159.965,10.893c0,0-22.15,1.522-20.077,5.108c0.797,1.38,10.449,3.093,10.449,3.093
		s-4.713-2.446-3.382-3.881C148.59,13.454,159.965,10.893,159.965,10.893z"/>
	<g>
		<path fill="#CDCCCC" d="M160.58,23.908c0,1.357-1.102,2.459-2.459,2.459h-31.346c-1.357,0-2.459-1.102-2.459-2.459v-0.41
			c0-1.358,1.102-2.459,2.459-2.459h31.346c1.357,0,2.459,1.101,2.459,2.459V23.908z"/>
		
			<line fill="none" stroke="#CDCCCC" stroke-width="1.4751" stroke-miterlimit="10" x1="125.649" y1="23.908" x2="31.969" y2="23.908"/>
		<g>
			<path fill="#FFFFFF" d="M135.79,25.803h-1.642c-0.496,0-0.884-0.146-1.161-0.438c-0.278-0.292-0.417-0.699-0.417-1.221
				c0-0.215,0.028-0.411,0.087-0.59c0.058-0.18,0.146-0.343,0.264-0.491c0.141-0.178,0.309-0.306,0.506-0.383
				c0.197-0.076,0.457-0.115,0.778-0.115h0.732v-1.173h0.853V25.803z M134.938,25.109v-1.846h-0.516
				c-0.347,0-0.592,0.072-0.737,0.218c-0.145,0.146-0.218,0.387-0.218,0.725c0,0.328,0.067,0.561,0.2,0.698
				c0.133,0.137,0.361,0.205,0.686,0.205H134.938z"/>
			<path fill="#FFFFFF" d="M137.978,25.803c-0.536,0-0.941-0.137-1.217-0.409c-0.275-0.273-0.413-0.676-0.413-1.208
				s0.139-0.936,0.415-1.21c0.275-0.274,0.681-0.411,1.215-0.411h1.249v0.676h-1.132c-0.311,0-0.519,0.044-0.626,0.132
				c-0.106,0.088-0.164,0.247-0.172,0.477h1.93v0.676h-1.93c0.008,0.232,0.062,0.391,0.16,0.476s0.31,0.128,0.632,0.128h1.138v0.675
				H137.978z"/>
			<path fill="#FFFFFF" d="M139.722,25.128h1.804c0.16,0,0.276-0.025,0.35-0.075c0.072-0.05,0.109-0.13,0.109-0.24
				s-0.037-0.19-0.111-0.242c-0.074-0.051-0.189-0.076-0.348-0.076h-0.738c-0.438,0-0.734-0.066-0.889-0.201
				c-0.154-0.134-0.231-0.372-0.231-0.714c0-0.349,0.094-0.604,0.279-0.769c0.187-0.164,0.475-0.246,0.864-0.246h1.837v0.676h-1.51
				c-0.246,0-0.406,0.021-0.479,0.064c-0.074,0.043-0.111,0.119-0.111,0.229c0,0.1,0.032,0.173,0.098,0.221
				c0.064,0.047,0.167,0.07,0.308,0.07h0.774c0.354,0,0.624,0.082,0.81,0.247c0.187,0.165,0.279,0.404,0.279,0.716
				c0,0.301-0.082,0.545-0.247,0.732c-0.165,0.188-0.378,0.282-0.638,0.282h-2.209V25.128z"/>
			<path fill="#FFFFFF" d="M146.645,24.186c0,0.508-0.154,0.913-0.463,1.217c-0.31,0.303-0.727,0.454-1.25,0.454
				c-0.524,0-0.942-0.151-1.255-0.456c-0.312-0.304-0.468-0.709-0.468-1.215c0-0.509,0.156-0.915,0.468-1.221
				c0.313-0.305,0.73-0.457,1.255-0.457c0.52,0,0.936,0.152,1.247,0.457C146.489,23.271,146.645,23.677,146.645,24.186z
				 M144.106,24.186c0,0.308,0.071,0.548,0.216,0.72c0.144,0.172,0.345,0.258,0.604,0.258c0.256,0,0.457-0.086,0.603-0.258
				c0.146-0.172,0.22-0.412,0.22-0.72c0-0.309-0.073-0.548-0.218-0.719c-0.146-0.172-0.347-0.257-0.604-0.257
				c-0.257,0-0.457,0.086-0.603,0.258C144.179,23.64,144.106,23.879,144.106,24.186z"/>
			<path fill="#FFFFFF" d="M147.461,23.21h-0.615v-0.646h0.615v-0.333c0-0.33,0.062-0.553,0.184-0.668s0.355-0.172,0.702-0.172h0.81
				v0.624h-0.404c-0.146,0-0.251,0.022-0.313,0.067c-0.063,0.045-0.093,0.119-0.093,0.224v0.258h0.81v0.646h-0.81v2.593h-0.886
				V23.21z"/>
			<path fill="#FFFFFF" d="M149.256,22.564h0.604v-1.173h0.855v1.173h0.903v0.646h-0.903v1.309c0,0.24,0.041,0.406,0.123,0.499
				c0.082,0.094,0.225,0.14,0.429,0.14h0.352v0.646h-0.78c-0.316,0-0.559-0.088-0.727-0.263s-0.252-0.426-0.252-0.752V23.21h-0.604
				V22.564z"/>
		</g>
	</g>
</g>
<g>
</g>
<g>
</g>
<g>
</g>
<g>
</g>
<g>
</g>
<g>
</g>
</svg>
