<?xml version="1.0" encoding="utf-8"?>
<!-- Generator: Adobe Illustrator 16.0.0, SVG Export Plug-In . SVG Version: 6.00 Build 0)  -->
<!DOCTYPE svg PUBLIC "-//W3C//DTD SVG 1.1//EN" "http://www.w3.org/Graphics/SVG/1.1/DTD/svg11.dtd">
<svg version="1.1" id="Layer_1" xmlns="http://www.w3.org/2000/svg" xmlns:xlink="http://www.w3.org/1999/xlink" x="0px" y="0px"
	 width="135px" height="48px" viewBox="0 0 135 48" enable-background="new 0 0 135 48" xml:space="preserve">
<g>
	<g>
		<path fill="#312C80" d="M24.659,32.963l6.896-16.662h4.09l6.896,16.662h-4.162l-1.611-3.857h-6.336l-1.611,3.857H24.659z
			 M33.606,20.305l-2.38,5.835h4.749L33.606,20.305z"/>
		<path fill="#312C80" d="M48.56,29.167l3.394-8.374h3.54l-5.249,12.17h-3.589l-4.858-12.17h3.65L48.56,29.167z"/>
		<path fill="#312C80" d="M57.301,19.548v-3.247h3.344v3.247H57.301z M57.301,20.793h3.344v12.17h-3.344V20.793z"/>
		<path fill="#312C80" d="M67.297,32.963h-3.344V16.301h3.344V32.963z"/>
		<path fill="#312C80" d="M79.016,25.566c0-0.855-0.172-1.431-0.518-1.728c-0.348-0.297-1.023-0.445-2.033-0.445h-5.664v-2.6h5.664
			c1.01,0,1.707,0.018,2.094,0.055c0.387,0.036,0.775,0.116,1.166,0.238c1.848,0.7,2.727,2.373,2.637,5.018v6.859h-7.057
			c-1.262,0-2.135-0.036-2.617-0.109c-0.484-0.073-0.91-0.232-1.277-0.477c-0.992-0.666-1.488-1.672-1.488-3.015
			c0-0.821,0.197-1.552,0.592-2.19c0.395-0.64,0.914-1.072,1.557-1.301c0.57-0.203,1.518-0.305,2.844-0.305H79.016z M79.016,28.166
			h-3.869l-0.563-0.012c-0.381,0-0.686,0.102-0.908,0.305c-0.225,0.203-0.336,0.477-0.336,0.818c0,0.398,0.137,0.68,0.408,0.842
			c0.273,0.163,0.738,0.244,1.398,0.244h3.869V28.166z"/>
	</g>
	<g>
		<path d="M85.27,16.301h7.068c1.766,0,3.133,0.175,4.102,0.525c1.781,0.643,2.971,1.831,3.564,3.564
			c0.455,1.327,0.684,2.751,0.684,4.272c0,1.505-0.215,2.925-0.646,4.26c-0.432,1.367-1.152,2.372-2.162,3.015
			c-0.635,0.408-1.328,0.68-2.08,0.818c-0.754,0.139-1.906,0.207-3.461,0.207H85.27V16.301z M88.811,19.267v10.73h3.527
			c1.547,0,2.621-0.346,3.223-1.038c0.365-0.422,0.66-1.027,0.885-1.813s0.336-1.621,0.336-2.508c0-0.977-0.133-1.875-0.396-2.698
			c-0.266-0.822-0.617-1.432-1.057-1.831c-0.635-0.562-1.631-0.842-2.99-0.842H88.811z"/>
		<path d="M110.514,16.191c1.668,0,3.133,0.285,4.395,0.854c1.49,0.676,2.531,1.811,3.125,3.406
			c0.473,1.253,0.709,2.727,0.709,4.419s-0.289,3.161-0.867,4.407c-0.709,1.497-1.803,2.539-3.283,3.125
			c-1.107,0.439-2.381,0.658-3.822,0.658c-1.871,0-3.502-0.35-4.895-1.049c-1.164-0.586-2.053-1.504-2.666-2.754
			c-0.615-1.248-0.922-2.764-0.922-4.546c0-3.174,0.789-5.436,2.367-6.787C105.99,16.785,107.943,16.208,110.514,16.191z
			 M110.539,18.999c-1.637,0-2.809,0.533-3.516,1.599c-0.555,0.83-0.83,2.165-0.83,4.004c0,1.953,0.35,3.39,1.049,4.309
			c0.691,0.904,1.795,1.355,3.309,1.355c1.465,0,2.545-0.457,3.24-1.373c0.697-0.916,1.045-2.334,1.045-4.254
			c0-1.741-0.281-3.072-0.844-3.992C113.334,19.556,112.182,19.007,110.539,18.999z"/>
		<path d="M133.914,29.997v2.966h-5.811c-1.105,0-1.953-0.057-2.539-0.17c-2.041-0.398-3.494-1.543-4.357-3.431
			c-0.568-1.261-0.854-2.823-0.854-4.688c0-2.238,0.436-4.061,1.305-5.469c0.627-1.009,1.467-1.746,2.521-2.209
			s2.42-0.696,4.096-0.696h5.639v2.966h-5.236c-1.586,0-2.75,0.423-3.49,1.27c-0.611,0.7-0.916,1.97-0.916,3.809
			c0,2.458,0.477,4.073,1.428,4.846c0.668,0.537,1.705,0.806,3.113,0.806H133.914z"/>
	</g>
	<path d="M22.186,14.463c1.917,15.25-4.167,19.833-4.167,19.833s-1.5,2.166-14.083-0.916c10.917,0.25,12.417-1.418,12.417-1.418
		S20.364,30.797,22.186,14.463z"/>
	<path d="M1.186,28.713c2-9.875,0.667-19.75,0.667-19.75s7.916,0.583,13,0.583c-3.25,1.833-10.167,1.667-10.167,1.667
		S5.269,19.297,1.186,28.713z"/>
	<path d="M16.811,8.963c0,0,1.379,1.134,2.063,1.646s2.688,1.341,2.688,1.341l-5.375,1.825c0,0,1.209-1.125,1.126-2.406
		C17.21,9.807,16.811,8.963,16.811,8.963z"/>
	<path fill="#312C80" d="M9.353,18.213c0,0,10.083,2.083,10.083-2.167C16.186,17.511,9.353,18.213,9.353,18.213z"/>
	<path fill="#312C80" d="M18.436,22.088c0,1.709-9.083,0.709-9.083,0.709S18.436,20.463,18.436,22.088z"/>
	<path fill="#312C80" d="M6.269,27.713c0-1.815,5.45-1.881,6.209-1.416C12.103,28.713,8.02,27.713,6.269,27.713z"/>
</g>
<g>
</g>
<g>
</g>
<g>
</g>
<g>
</g>
<g>
</g>
<g>
</g>
</svg>
