<?xml version="1.0" encoding="utf-8"?>
<!-- Generator: Adobe Illustrator 16.0.0, SVG Export Plug-In . SVG Version: 6.00 Build 0)  -->
<!DOCTYPE svg PUBLIC "-//W3C//DTD SVG 1.1//EN" "http://www.w3.org/Graphics/SVG/1.1/DTD/svg11.dtd">
<svg version="1.1" id="Layer_1" xmlns="http://www.w3.org/2000/svg" xmlns:xlink="http://www.w3.org/1999/xlink" x="0px" y="0px"
	 width="153px" height="48px" viewBox="40.25 0 153 48" enable-background="new 40.25 0 153 48" xml:space="preserve">
<g>
	<g>
		<g>
			
				<linearGradient id="SVGID_1_" gradientUnits="userSpaceOnUse" x1="413.5488" y1="-258.2012" x2="421.9423" y2="-249.8077" gradientTransform="matrix(1 0 0 -1 -370.96 -224.6602)">
				<stop  offset="0" style="stop-color:#B72025"/>
				<stop  offset="0.5" style="stop-color:#D1181F"/>
				<stop  offset="1" style="stop-color:#CF6C51"/>
			</linearGradient>
			<path fill="url(#SVGID_1_)" d="M43.952,34.666c-0.319,0-0.578-0.26-0.578-0.578V24.6c0-0.316,0.26-0.576,0.578-0.576h5.668
				c0.317,0,0.576,0.26,0.576,0.576v9.488c0,0.319-0.259,0.579-0.576,0.579L43.952,34.666L43.952,34.666z"/>
			<g>
				<path fill="#FFFFFF" d="M49.62,24.168c0.239,0,0.432,0.193,0.432,0.432v9.488c0,0.242-0.194,0.436-0.432,0.436h-5.668
					c-0.24,0-0.434-0.193-0.434-0.436V24.6c0-0.238,0.194-0.432,0.434-0.432H49.62 M49.62,23.881h-5.668
					c-0.399,0-0.722,0.321-0.722,0.719v9.488c0,0.399,0.323,0.723,0.722,0.723h5.668c0.398,0,0.721-0.323,0.721-0.723V24.6
					C50.34,24.202,50.018,23.881,49.62,23.881L49.62,23.881z"/>
			</g>
			<path fill="none" stroke="#BE1E2D" stroke-width="0.2882" stroke-miterlimit="10" d="M50.34,34.088
				c0,0.399-0.323,0.723-0.721,0.723h-5.668c-0.399,0-0.722-0.323-0.722-0.723V24.6c0-0.396,0.323-0.719,0.722-0.719h5.668
				c0.398,0,0.721,0.322,0.721,0.719V34.088z"/>
		</g>
		<g>
			
				<linearGradient id="SVGID_2_" gradientUnits="userSpaceOnUse" x1="419.0791" y1="-255.4692" x2="432.9374" y2="-241.6109" gradientTransform="matrix(1 0 0 -1 -370.96 -224.6602)">
				<stop  offset="0" style="stop-color:#00773E"/>
				<stop  offset="0.5" style="stop-color:#00984A"/>
				<stop  offset="1" style="stop-color:#64C18B"/>
			</linearGradient>
			<path fill="url(#SVGID_2_)" d="M52.214,34.666c-0.319,0-0.578-0.26-0.578-0.578V13.671c0-0.318,0.259-0.577,0.578-0.577h5.668
				c0.318,0,0.577,0.259,0.577,0.577v20.417c0,0.318-0.259,0.578-0.577,0.578H52.214z"/>
			<g>
				<path fill="#FFFFFF" d="M57.882,13.238c0.238,0,0.434,0.195,0.434,0.433v20.417c0,0.239-0.195,0.435-0.434,0.435h-5.668
					c-0.24,0-0.434-0.195-0.434-0.435V13.671c0-0.238,0.196-0.433,0.434-0.433H57.882 M57.882,12.95h-5.668
					c-0.399,0-0.723,0.323-0.723,0.721v20.417c0,0.399,0.324,0.723,0.723,0.723h5.668c0.398,0,0.721-0.323,0.721-0.723V13.671
					C58.604,13.273,58.281,12.95,57.882,12.95L57.882,12.95z"/>
			</g>
			<path fill="none" stroke="#006838" stroke-width="0.2882" stroke-miterlimit="10" d="M58.604,34.088
				c0,0.399-0.323,0.723-0.721,0.723h-5.667c-0.399,0-0.723-0.323-0.723-0.723V13.671c0-0.398,0.323-0.721,0.723-0.721h5.667
				c0.398,0,0.721,0.323,0.721,0.721V34.088z"/>
		</g>
		<g>
			
				<linearGradient id="SVGID_3_" gradientUnits="userSpaceOnUse" x1="428.751" y1="-256.6855" x2="440.1765" y2="-245.26" gradientTransform="matrix(1 0 0 -1 -370.96 -224.6602)">
				<stop  offset="0" style="stop-color:#F06322"/>
				<stop  offset="0.5" style="stop-color:#F7981C"/>
				<stop  offset="1" style="stop-color:#FFE7A3"/>
			</linearGradient>
			<path fill="url(#SVGID_3_)" d="M60.668,34.666c-0.317,0-0.577-0.26-0.577-0.578V18.537c0-0.318,0.259-0.577,0.577-0.577h5.668
				c0.319,0,0.577,0.259,0.577,0.577v15.551c0,0.319-0.258,0.579-0.577,0.579L60.668,34.666L60.668,34.666z"/>
			<g>
				<path fill="#FFFFFF" d="M66.338,18.104c0.239,0,0.433,0.195,0.433,0.434v15.551c0,0.242-0.194,0.436-0.433,0.436h-5.669
					c-0.238,0-0.432-0.193-0.432-0.436V18.537c0-0.239,0.194-0.434,0.432-0.434H66.338 M66.338,17.816h-5.669
					c-0.398,0-0.72,0.323-0.72,0.721v15.551c0,0.399,0.322,0.723,0.72,0.723h5.669c0.399,0,0.721-0.323,0.721-0.723V18.537
					C67.059,18.139,66.737,17.816,66.338,17.816L66.338,17.816z"/>
			</g>
			<path fill="none" stroke="#F7941E" stroke-width="0.2882" stroke-miterlimit="10" d="M67.059,34.088
				c0,0.399-0.322,0.723-0.721,0.723h-5.669c-0.398,0-0.72-0.323-0.72-0.723V18.537c0-0.398,0.322-0.721,0.72-0.721h5.669
				c0.399,0,0.721,0.323,0.721,0.721V34.088z"/>
		</g>
		<polyline fill="none" stroke="#58595B" stroke-width="1.0304" stroke-miterlimit="10" points="63.503,20.974 55.048,15.595 
			46.786,26.019 		"/>
		<circle fill="#58595B" cx="55.048" cy="15.595" r="1.374"/>
		<circle fill="#58595B" cx="46.787" cy="26.018" r="1.375"/>
		<circle fill="#58595B" cx="63.503" cy="20.974" r="1.374"/>
	</g>
	<g>
		<g>
			<path fill="#1C479E" d="M73.429,12.908h9.289c2.321,0,4.119,0.23,5.392,0.69c2.343,0.845,3.905,2.406,4.685,4.686
				c0.599,1.743,0.9,3.615,0.9,5.616c0,1.979-0.284,3.847-0.851,5.6c-0.566,1.797-1.513,3.118-2.839,3.964
				c-0.834,0.534-1.746,0.893-2.736,1.074c-0.99,0.184-2.505,0.273-4.549,0.273h-9.29L73.429,12.908L73.429,12.908z M78.082,16.807
				V30.91h4.637c2.033,0,3.444-0.453,4.236-1.363c0.482-0.556,0.87-1.35,1.164-2.382c0.294-1.032,0.441-2.131,0.441-3.296
				c0-1.285-0.174-2.466-0.521-3.547c-0.348-1.08-0.811-1.882-1.388-2.406c-0.834-0.738-2.146-1.108-3.932-1.108L78.082,16.807
				L78.082,16.807z"/>
			<path fill="#1C479E" d="M109.964,25.087v3.418h-9.275c0.086,1.048,0.425,1.792,1.02,2.23s1.554,0.657,2.88,0.657h5.375v3.418
				h-5.857c-1.273,0-2.308-0.111-3.104-0.337c-0.796-0.225-1.554-0.61-2.271-1.156c-1.937-1.497-2.905-3.731-2.905-6.706
				c0-1.947,0.514-3.637,1.541-5.071c0.706-0.983,1.551-1.685,2.536-2.103c0.984-0.417,2.278-0.625,3.882-0.625h6.178v3.417h-5.857
				c-1.197,0-2.04,0.203-2.526,0.61c-0.487,0.406-0.784,1.156-0.891,2.246L109.964,25.087L109.964,25.087z"/>
			<path fill="#1C479E" d="M126.939,18.813v3.417h-5.277c-1.755,0-2.98,0.396-3.676,1.189c-0.652,0.749-0.978,1.883-0.978,3.402
				c0,1.721,0.534,2.968,1.604,3.737c0.437,0.321,0.913,0.54,1.427,0.656c0.514,0.119,1.23,0.178,2.15,0.178h4.748v3.418h-6.016
				c-1.615,0-2.895-0.164-3.835-0.489c-0.941-0.327-1.781-0.9-2.52-1.726c-1.369-1.53-2.054-3.471-2.054-5.824
				c0-2.845,0.823-4.974,2.47-6.386c0.652-0.566,1.439-0.971,2.36-1.211c0.92-0.241,2.112-0.361,3.577-0.361H126.939z"/>
			<path fill="#1C479E" d="M130.343,17.176v-4.268h4.396v4.268H130.343z M130.343,18.813h4.396v15.998h-4.396V18.813z"/>
			<path fill="#1C479E" d="M152.966,18.813v3.417h-7.798c-0.888,0-1.455,0.044-1.701,0.129c-0.502,0.172-0.753,0.6-0.753,1.284
				c0,0.566,0.24,1,0.723,1.299c0.256,0.172,0.967,0.257,2.134,0.257h2.599c1.656,0,2.968,0.358,3.932,1.075
				c1.07,0.792,1.604,1.952,1.604,3.482c0,1.154-0.32,2.219-0.962,3.192c-0.493,0.749-1.086,1.247-1.781,1.493
				c-0.697,0.246-1.845,0.368-3.45,0.368h-9.098v-3.417h7.832c0.971,0,1.635-0.016,1.988-0.048c0.781-0.086,1.172-0.523,1.172-1.315
				c0-0.664-0.258-1.117-0.771-1.364c-0.277-0.14-0.919-0.21-1.926-0.21h-2.664c-1.037,0-1.837-0.063-2.398-0.192
				c-0.563-0.128-1.083-0.361-1.565-0.705c-0.589-0.428-1.053-1.006-1.396-1.732c-0.342-0.729-0.512-1.515-0.512-2.36
				c0-1.604,0.582-2.877,1.748-3.818c0.695-0.557,1.909-0.835,3.644-0.835L152.966,18.813L152.966,18.813z"/>
			<path fill="#1C479E" d="M164.486,18.572c2.954,0,5.135,0.856,6.547,2.567c1.294,1.563,1.941,3.52,1.941,5.874
				c0,2.502-0.812,4.498-2.438,5.983c-1.485,1.37-3.524,2.054-6.113,2.054c-2.674,0-4.77-0.764-6.29-2.293
				c-1.39-1.4-2.086-3.418-2.086-6.049c0-2.246,0.669-4.113,2.005-5.6C159.539,19.449,161.685,18.604,164.486,18.572z
				 M164.519,21.942c-2.642,0-3.962,1.643-3.962,4.926c0,1.337,0.213,2.353,0.642,3.049c0.718,1.176,1.835,1.764,3.354,1.764
				c2.61,0,3.915-1.63,3.915-4.894C168.466,23.589,167.149,21.974,164.519,21.942z"/>
			<path fill="#1C479E" d="M176.248,18.813h6.514c1.328,0,2.357,0.091,3.09,0.273c0.732,0.183,1.345,0.498,1.836,0.948
				c0.482,0.438,0.819,0.984,1.013,1.636c0.192,0.652,0.288,1.588,0.288,2.807v1.556h-4.221v-0.866c0-1.133-0.2-1.905-0.601-2.318
				c-0.401-0.412-1.154-0.618-2.257-0.618h-1.266v12.58h-4.396V18.813z"/>
		</g>
	</g>
</g>
</svg>
