<?xml version="1.0" encoding="UTF-8"?>
<!-- Generator: Adobe Illustrator 21.1.0, SVG Export Plug-In . SVG Version: 6.00 Build 0)  -->
<svg version="1.1" id="Warstwa_1" xmlns="http://www.w3.org/2000/svg" xmlns:xlink="http://www.w3.org/1999/xlink" x="0px" y="0px" viewBox="0 0 165 165" style="enable-background:new 0 0 165 165;" xml:space="preserve">
<style type="text/css">
	.st0{clip-path:url(#SVGID_2_);fill:#004871;}
	.st1{clip-path:url(#SVGID_4_);fill:#F5F2F0;}
	.st2{clip-path:url(#SVGID_6_);fill:none;stroke:#004871;stroke-width:2.8;stroke-miterlimit:10;}
	.st3{fill:#004871;}
	.st4{fill:#44ACBB;}
</style>
<g>
	<g>
		<g>
			<g>
				<g>
					<g>
						<g>
							<g>
								<g>
									<g>
										<g>
											<g>
												<g>
													<defs>
														<rect id="SVGID_1_" x="0.3" y="0" width="164.1" height="163.7"/>
													</defs>
													<clipPath id="SVGID_2_">
														<use xlink:href="#SVGID_1_" style="overflow:visible;"/>
													</clipPath>
													<path class="st0" d="M85.1,5c43.8,0,79.4,35.5,79.4,79.4c0,43.8-35.5,79.4-79.4,79.4S5.7,128.2,5.7,84.4               C5.7,40.5,41.3,5,85.1,5"/>
												</g>
											</g>
										</g>
									</g>
								</g>
							</g>
						</g>
					</g>
				</g>
			</g>
		</g>
	</g>
	<g>
		<g>
			<g>
				<g>
					<g>
						<g>
							<g>
								<g>
									<g>
										<g>
											<g>
												<g>
													<defs>
														<rect id="SVGID_3_" x="0.3" y="0" width="164.1" height="163.7"/>
													</defs>
													<clipPath id="SVGID_4_">
														<use xlink:href="#SVGID_3_" style="overflow:visible;"/>
													</clipPath>
													<path class="st1" d="M81.1,1.4c43.8,0,79.4,35.5,79.4,79.4c0,43.8-35.5,79.4-79.4,79.4S1.7,124.8,1.7,80.9               S37.3,1.4,81.1,1.4"/>
												</g>
											</g>
										</g>
									</g>
								</g>
							</g>
						</g>
					</g>
				</g>
			</g>
		</g>
	</g>
	<g>
		<g>
			<g>
				<g>
					<g>
						<g>
							<g>
								<g>
									<g>
										<g>
											<g>
												<g>
													<defs>
														<rect id="SVGID_5_" x="0.3" y="0" width="164.1" height="163.7"/>
													</defs>
													<clipPath id="SVGID_6_">
														<use xlink:href="#SVGID_5_" style="overflow:visible;"/>
													</clipPath>
													<circle class="st2" cx="81.1" cy="80.9" r="79.4"/>
												</g>
											</g>
										</g>
									</g>
								</g>
							</g>
						</g>
					</g>
				</g>
			</g>
		</g>
	</g>
</g>
<g id="miu">
	<g id="Artboard-1" transform="translate(-863.000000, -551.000000)">
		<g id="slice" transform="translate(215.000000, 119.000000)">
		</g>
	</g>
</g>
<g>
	<path id="editor-open-folder-outline-stroke" class="st3" d="M46.8,119.1c0.5,0.9,1.7,1.7,2.6,1.7H120c0.9,0,1.3-0.8,0.7-1.7   l-16.6-29.7c-0.5-0.9-1.7-1.7-2.6-1.7H30.9c-0.9,0-1.3,0.8-0.7,1.7L46.8,119.1z M115.2,116.7L99.7,91.9H36.5l13.8,24.8H115.2z    M50.6,85.6V46.3h20.7v8.4h45.6v49.6l4.1,8.3V52.7c0-1.2-0.9-2.1-2.1-2.1H75.5v-6.3c0-1.1-0.9-2.1-2.1-2.1H48.6   c-1.1,0-2.1,0.9-2.1,2.1v41.3H50.6z"/>
	<rect x="54.5" y="60.8" class="st4" width="58" height="4.1"/>
	<rect x="54.5" y="69.1" class="st4" width="58" height="4.1"/>
	<rect x="54.5" y="77.4" class="st4" width="58" height="4.1"/>
</g>
</svg>