<?xml version="1.0" encoding="utf-8"?>
<!-- Generator: Adobe Illustrator 16.0.0, SVG Export Plug-In . SVG Version: 6.00 Build 0)  -->
<!DOCTYPE svg PUBLIC "-//W3C//DTD SVG 1.1//EN" "http://www.w3.org/Graphics/SVG/1.1/DTD/svg11.dtd">
<svg version="1.1" id="Layer_1" xmlns="http://www.w3.org/2000/svg" xmlns:xlink="http://www.w3.org/1999/xlink" x="0px" y="0px"
	 width="191px" height="54px" viewBox="0 0 191 54" enable-background="new 0 0 191 54" xml:space="preserve">
<g>
	<g>
		<path fill="#243E85" stroke="#243E84" stroke-width="0.9329" stroke-miterlimit="10" d="M75.847,30.109H70.15l-0.844,1.658
			c-0.116,0.23-0.174,0.412-0.174,0.545c0,0.253,0.205,0.429,0.614,0.526v0.276H65.6v-0.276c0.245-0.046,0.432-0.127,0.56-0.242
			c0.128-0.114,0.275-0.339,0.441-0.673l4.61-9.06c0.147-0.288,0.22-0.518,0.22-0.691c0-0.265-0.178-0.455-0.533-0.57v-0.276h4.445
			v0.276c-0.361,0.098-0.542,0.268-0.542,0.509c0,0.167,0.058,0.357,0.174,0.57l4.775,9.085c0.202,0.386,0.379,0.649,0.533,0.791
			c0.153,0.141,0.358,0.234,0.615,0.28v0.276h-4.615v-0.276c0.405-0.063,0.608-0.242,0.608-0.535c0-0.121-0.062-0.3-0.184-0.536
			L75.847,30.109z M75.06,28.495l-2.033-4.2l-2.065,4.2H75.06z"/>
		<path fill="#243E85" stroke="#243E84" stroke-width="0.9329" stroke-miterlimit="10" d="M94.489,28.875h-3.095
			c-0.19,0-0.332,0.04-0.427,0.121c-0.095,0.08-0.173,0.224-0.234,0.432h-0.294v-2.747h0.294c0.061,0.213,0.139,0.358,0.233,0.436
			c0.095,0.078,0.237,0.117,0.427,0.117h5.942v0.276c-0.217,0.058-0.369,0.132-0.456,0.225c-0.088,0.092-0.131,0.228-0.131,0.406
			v2.418c0,0.179,0.042,0.314,0.126,0.406c0.085,0.092,0.238,0.167,0.461,0.225v0.216c-2.379,1.278-4.686,1.917-6.919,1.917
			c-2.025,0-3.677-0.452-4.956-1.355c-1.609-1.141-2.414-2.724-2.414-4.75c0-1.888,0.716-3.391,2.149-4.508
			c1.359-1.06,3.165-1.589,5.418-1.589c0.716,0,1.392,0.062,2.025,0.186c0.634,0.124,1.354,0.333,2.163,0.626
			c0.417,0.155,0.713,0.233,0.891,0.233c0.128,0,0.278-0.066,0.45-0.198l0.257,0.129l-1.474,2.824l-0.266-0.129
			c-0.006-0.189-0.034-0.325-0.083-0.408c-0.049-0.083-0.159-0.185-0.331-0.305c-0.374-0.264-0.921-0.489-1.643-0.675
			c-0.722-0.187-1.404-0.279-2.047-0.279c-1.309,0-2.396,0.345-3.258,1.035c-0.973,0.782-1.459,1.814-1.459,3.097
			c0,1.243,0.474,2.246,1.423,3.011c0.869,0.701,2.014,1.053,3.435,1.053c0.691,0,1.374-0.075,2.048-0.225
			c0.673-0.15,1.255-0.354,1.745-0.613V28.875z"/>
		<path fill="#243E85" stroke="#243E84" stroke-width="0.9329" stroke-miterlimit="10" d="M105.113,27.942v3.23h8.063
			c0.184,0,0.324-0.04,0.422-0.121c0.099-0.08,0.178-0.225,0.239-0.432h0.294v3.049h-0.294c-0.062-0.207-0.141-0.352-0.239-0.432
			c-0.098-0.081-0.238-0.121-0.422-0.121h-11.387v-0.276c0.22-0.058,0.373-0.133,0.459-0.225s0.128-0.228,0.128-0.406v-9.975
			c0-0.179-0.042-0.314-0.128-0.406c-0.086-0.092-0.239-0.167-0.459-0.225v-0.276h11.166c0.184,0,0.324-0.041,0.423-0.124
			c0.098-0.082,0.178-0.225,0.238-0.429h0.294v3.048h-0.294c-0.061-0.205-0.141-0.348-0.238-0.43
			c-0.099-0.082-0.239-0.123-0.423-0.123h-7.842v2.798h5.087c0.184,0,0.324-0.04,0.423-0.121c0.098-0.081,0.177-0.224,0.238-0.432
			h0.294v2.98h-0.294c-0.062-0.202-0.141-0.345-0.238-0.428c-0.099-0.083-0.239-0.125-0.423-0.125H105.113z"/>
		<path fill="#243E85" stroke="#243E84" stroke-width="0.9329" stroke-miterlimit="10" d="M121.485,25.04v7.168
			c0,0.179,0.042,0.314,0.128,0.406s0.239,0.167,0.459,0.225v0.276h-3.682v-0.276c0.22-0.058,0.373-0.133,0.459-0.225
			s0.128-0.228,0.128-0.406v-9.983c0-0.173-0.042-0.305-0.128-0.397c-0.086-0.092-0.239-0.167-0.459-0.225v-0.276h4.261v0.276
			c-0.264,0.063-0.396,0.196-0.396,0.397c0,0.138,0.086,0.291,0.258,0.458l6.915,6.762v-6.995c0-0.173-0.043-0.305-0.129-0.397
			c-0.086-0.092-0.239-0.167-0.459-0.225v-0.276h3.683v0.276c-0.221,0.058-0.374,0.132-0.46,0.225
			c-0.086,0.092-0.128,0.224-0.128,0.397v9.983c0,0.179,0.042,0.314,0.128,0.406s0.239,0.167,0.46,0.225v0.276h-3.949v-0.276
			c0.257-0.052,0.386-0.176,0.386-0.371c0-0.115-0.15-0.316-0.45-0.604L121.485,25.04z"/>
		<path fill="#243E85" stroke="#243E84" stroke-width="0.9329" stroke-miterlimit="10" d="M137.683,32.208v-9.975
			c0-0.179-0.042-0.314-0.128-0.406c-0.086-0.092-0.239-0.167-0.459-0.225v-0.276h6.992c1.532,0,2.708,0.164,3.529,0.492
			c1.176,0.478,2.046,1.267,2.609,2.366c0.447,0.864,0.671,1.874,0.671,3.031c0,2.033-0.665,3.582-1.994,4.647
			c-0.558,0.449-1.21,0.77-1.957,0.963c-0.748,0.192-1.7,0.289-2.858,0.289h-6.992v-0.276c0.22-0.058,0.373-0.133,0.459-0.225
			S137.683,32.387,137.683,32.208z M140.42,31.172h3.438c1.097,0,1.921-0.141,2.473-0.423c1.184-0.604,1.774-1.782,1.774-3.533
			c0-1.266-0.318-2.237-0.956-2.91c-0.355-0.375-0.784-0.641-1.287-0.799s-1.171-0.238-2.004-0.238h-3.438V31.172z"/>
		<path fill="#243E85" stroke="#243E84" stroke-width="0.9329" stroke-miterlimit="10" d="M163.504,30.109h-5.697l-0.844,1.658
			c-0.116,0.23-0.174,0.412-0.174,0.545c0,0.253,0.204,0.429,0.613,0.526v0.276h-4.146v-0.276c0.244-0.046,0.432-0.127,0.56-0.242
			c0.129-0.114,0.276-0.339,0.441-0.673l4.609-9.06c0.147-0.288,0.221-0.518,0.221-0.691c0-0.265-0.178-0.455-0.532-0.57v-0.276H163
			v0.276c-0.361,0.098-0.542,0.268-0.542,0.509c0,0.167,0.059,0.357,0.175,0.57l4.775,9.085c0.201,0.386,0.379,0.649,0.532,0.791
			c0.153,0.141,0.358,0.234,0.615,0.28v0.276h-4.614v-0.276c0.405-0.063,0.607-0.242,0.607-0.535c0-0.121-0.061-0.3-0.184-0.536
			L163.504,30.109z M162.717,28.495l-2.033-4.2l-2.065,4.2H162.717z"/>
	</g>
	<g>
		<path fill-rule="evenodd" clip-rule="evenodd" fill="#243169" d="M31.745,2.745c0,0-17.311,19.072-5.287,43.431
			c-1.348-17.517,10.676-32.34,10.676-32.34L31.745,2.745z"/>
		<path fill-rule="evenodd" clip-rule="evenodd" fill="#BDCBD6" d="M53.616,10.519c0,0-20.627,4.146-24.877,25.292
			c8.396-13.58,22.7-15.549,22.7-15.549L53.616,10.519z"/>
		<path fill-rule="evenodd" clip-rule="evenodd" fill="#BDCBD6" d="M62.011,28.141c0,0-19.487-5.494-33.272,12.023
			c12.438-8.291,27.157-4.353,27.157-4.353L62.011,28.141z"/>
		<path fill-rule="evenodd" clip-rule="evenodd" fill="#BDCBD6" d="M63.981,47.109c0,0-15.341-13.994-34.828-3.731
			c14.097-2.28,25.914,7.877,25.914,7.877L63.981,47.109z"/>
	</g>
	<g>
		<path d="M66.663,39.807h3.073v1.049h-2.009v1.018h2.009v1.029h-2.009v1.481h2.009v1.052h-3.073V39.807z"/>
		<path d="M82.311,39.807h1.206l1.183,1.808l1.186-1.808h1.204l-1.786,2.729l1.898,2.899h-1.206L84.7,43.457l-1.295,1.979h-1.213
			l1.904-2.901L82.311,39.807z"/>
		<path d="M99.944,39.807h1.137c0.614,0,1.058,0.058,1.33,0.171c0.271,0.113,0.485,0.297,0.643,0.551
			c0.156,0.254,0.235,0.558,0.235,0.913c0,0.393-0.103,0.719-0.309,0.979c-0.205,0.26-0.483,0.44-0.836,0.543
			c-0.206,0.059-0.583,0.088-1.129,0.088v2.384h-1.071V39.807z M101.016,42.007h0.341c0.268,0,0.454-0.019,0.559-0.058
			c0.104-0.038,0.187-0.102,0.247-0.189c0.06-0.089,0.09-0.195,0.09-0.32c0-0.218-0.084-0.377-0.253-0.477
			c-0.122-0.074-0.35-0.111-0.681-0.111h-0.303V42.007z"/>
		<path d="M116.353,39.807h1.135c0.622,0,1.064,0.056,1.328,0.167s0.476,0.295,0.637,0.553c0.16,0.258,0.24,0.563,0.24,0.915
			c0,0.369-0.089,0.679-0.266,0.928c-0.178,0.248-0.444,0.437-0.802,0.564l1.333,2.502h-1.171l-1.266-2.384h-0.098v2.384h-1.071
			V39.807z M117.424,42.007h0.336c0.34,0,0.575-0.044,0.703-0.134c0.129-0.09,0.192-0.238,0.192-0.445
			c0-0.123-0.031-0.229-0.095-0.32s-0.149-0.156-0.256-0.196s-0.303-0.06-0.587-0.06h-0.294V42.007z"/>
		<path d="M132.771,39.807h3.072v1.049h-2.009v1.018h2.009v1.029h-2.009v1.481h2.009v1.052h-3.072V39.807z"/>
		<path d="M151.739,40.572l-0.794,0.7c-0.278-0.388-0.562-0.581-0.851-0.581c-0.141,0-0.256,0.037-0.345,0.112
			c-0.09,0.075-0.135,0.16-0.135,0.255c0,0.094,0.032,0.184,0.097,0.268c0.087,0.112,0.349,0.354,0.785,0.723
			c0.409,0.343,0.657,0.558,0.744,0.647c0.217,0.219,0.371,0.429,0.462,0.629c0.09,0.2,0.136,0.419,0.136,0.656
			c0,0.462-0.16,0.843-0.479,1.145c-0.319,0.301-0.735,0.451-1.249,0.451c-0.401,0-0.75-0.099-1.048-0.295
			c-0.297-0.196-0.552-0.505-0.764-0.926l0.9-0.543c0.271,0.497,0.582,0.746,0.935,0.746c0.185,0,0.339-0.054,0.464-0.161
			s0.188-0.23,0.188-0.371c0-0.127-0.047-0.255-0.142-0.383c-0.095-0.127-0.303-0.322-0.625-0.585
			c-0.613-0.5-1.009-0.886-1.188-1.157c-0.179-0.272-0.269-0.543-0.269-0.813c0-0.391,0.148-0.725,0.446-1.004
			s0.665-0.419,1.102-0.419c0.28,0,0.548,0.064,0.803,0.194C151.168,39.991,151.443,40.228,151.739,40.572z"/>
		<path d="M167.756,40.572l-0.794,0.7c-0.278-0.388-0.562-0.581-0.851-0.581c-0.141,0-0.256,0.037-0.345,0.112
			c-0.09,0.075-0.135,0.16-0.135,0.255c0,0.094,0.032,0.184,0.097,0.268c0.087,0.112,0.349,0.354,0.785,0.723
			c0.409,0.343,0.657,0.558,0.744,0.647c0.217,0.219,0.371,0.429,0.462,0.629c0.09,0.2,0.136,0.419,0.136,0.656
			c0,0.462-0.16,0.843-0.479,1.145c-0.319,0.301-0.735,0.451-1.249,0.451c-0.401,0-0.75-0.099-1.048-0.295
			c-0.297-0.196-0.552-0.505-0.764-0.926l0.9-0.543c0.271,0.497,0.582,0.746,0.935,0.746c0.185,0,0.339-0.054,0.464-0.161
			s0.188-0.23,0.188-0.371c0-0.127-0.047-0.255-0.142-0.383c-0.095-0.127-0.303-0.322-0.625-0.585
			c-0.613-0.5-1.009-0.886-1.188-1.157c-0.179-0.272-0.269-0.543-0.269-0.813c0-0.391,0.148-0.725,0.446-1.004
			s0.665-0.419,1.102-0.419c0.28,0,0.548,0.064,0.803,0.194C167.185,39.991,167.46,40.228,167.756,40.572z"/>
	</g>
</g>
<g>
</g>
<g>
</g>
<g>
</g>
<g>
</g>
<g>
</g>
<g>
</g>
</svg>
