<?xml version="1.0" encoding="utf-8"?>
<!-- Generator: Adobe Illustrator 16.0.0, SVG Export Plug-In . SVG Version: 6.00 Build 0)  -->
<!DOCTYPE svg PUBLIC "-//W3C//DTD SVG 1.1//EN" "http://www.w3.org/Graphics/SVG/1.1/DTD/svg11.dtd">
<svg version="1.1" id="Layer_1" xmlns="http://www.w3.org/2000/svg" xmlns:xlink="http://www.w3.org/1999/xlink" x="0px" y="0px"
	 width="87.333px" height="48px" viewBox="-4.333 0 87.333 48" enable-background="new -4.333 0 87.333 48" xml:space="preserve">
<g>
	<path fill="#312C81" d="M-2.556,17.981h9.389c2.188,0,3.791,0.439,4.811,1.319c1.02,0.88,1.53,2.258,1.53,4.133
		c0,1.391-0.315,2.525-0.944,3.403c-0.629,0.881-1.537,1.448-2.721,1.702l4.528,7.575H9.742l-3.997-7.13H1.257v7.13h-3.813V17.981z
		 M5.932,21.213H1.257v4.563h4.675c1.266,0,2.146-0.171,2.64-0.517s0.74-0.938,0.74-1.777c0-0.831-0.24-1.417-0.721-1.758
		C8.109,21.383,7.223,21.213,5.932,21.213z"/>
	<path fill="#312C81" d="M23.869,21.077c-1.579,0-2.716,0.501-3.412,1.505c-0.695,1.004-1.042,2.652-1.042,4.946
		c0,1.99,0.333,3.393,0.999,4.205c0.666,0.815,1.817,1.223,3.454,1.223h6.268v3.157h-6.453c-1.424,0-2.542-0.121-3.355-0.363
		c-0.813-0.243-1.578-0.65-2.294-1.227c-0.929-0.74-1.626-1.704-2.09-2.894c-0.465-1.188-0.696-2.608-0.696-4.262
		c0-3.206,0.694-5.574,2.084-7.1c1.389-1.525,3.545-2.288,6.464-2.288h6.341v3.096H23.869z"/>
</g>
<path fill="#010101" d="M36.38,21.162h-4.712v-3.158h15.691v3.158h-7.03l-4.042,14.952H32.34L36.38,21.162z"/>
<path fill="#010101" d="M54.708,21.149c-1.38,0-2.498,0.346-3.357,1.036c-0.856,0.691-1.484,1.747-1.88,3.17l10.545,0.014
	l-0.714,3.159H48.73c-0.348,1.578-0.27,2.713,0.236,3.402c0.503,0.689,1.53,1.037,3.073,1.037h6.259l-0.714,3.158h-6.443
	c-1.423,0-2.511-0.12-3.271-0.363c-0.759-0.242-1.431-0.652-2.018-1.229c-0.762-0.739-1.24-1.703-1.435-2.892
	c-0.198-1.189-0.109-2.609,0.265-4.264c0.726-3.205,1.954-5.573,3.687-7.099c1.734-1.526,4.061-2.289,6.977-2.289h6.336
	l-0.715,3.158H54.708z"/>
<path fill="#010101" d="M67.631,36.114c-1.695,0-2.92-0.142-3.664-0.427c-0.748-0.28-1.354-0.772-1.816-1.472
	c-0.433-0.623-0.667-1.329-0.699-2.117c-0.036-0.789,0.14-1.898,0.523-3.326l2.904-10.768h3.818l-2.872,10.644
	c-0.285,1.06-0.438,1.805-0.458,2.237c-0.022,0.43,0.047,0.776,0.207,1.039c0.247,0.428,0.61,0.73,1.087,0.911
	c0.479,0.183,1.183,0.271,2.114,0.271h4.496l-0.811,3.007H67.631z"/>
<g>
	<path opacity="0.4" fill="#010101" enable-background="new    " d="M72.971,22.825c0,0,0.219-0.323,0.604-0.886
		c0.229-0.267,0.322-0.662,0.526-1.06c0.045-0.102,0.092-0.207,0.14-0.313c0.028-0.117,0.059-0.237,0.088-0.362
		c0.064-0.244,0.132-0.501,0.202-0.769c0.062-0.268,0.041-0.563,0.069-0.857c0.007-0.147,0.016-0.298,0.023-0.45l0.008-0.114
		c0.003,0.047-0.01-0.057-0.016-0.077l-0.034-0.247c-0.045-0.332-0.09-0.672-0.137-1.02c-0.103-0.297-0.209-0.6-0.314-0.909
		c-0.068-0.314-0.309-0.596-0.454-0.906c-0.087-0.149-0.157-0.31-0.258-0.453L73.076,14c-0.223-0.274-0.445-0.554-0.739-0.764
		c-0.287-0.21-0.518-0.506-0.854-0.647c-0.318-0.162-0.619-0.371-0.951-0.5c-0.34-0.112-0.681-0.223-1.019-0.332
		c-0.347-0.066-0.7-0.089-1.046-0.139l-0.262-0.034c-0.009-0.014-0.162,0.006-0.236,0.007l-0.55,0.033
		c-0.384-0.008-0.669,0.098-0.988,0.153c-0.313,0.041-0.614,0.179-0.909,0.288c-0.306,0.095-0.572,0.247-0.829,0.402
		c-0.263,0.142-0.512,0.29-0.719,0.478c-0.457,0.326-0.811,0.699-1.123,1.036c-0.298,0.349-0.505,0.698-0.701,0.968
		c-0.305,0.598-0.478,0.94-0.478,0.94l-0.006,0.01c-0.02,0.036-0.063,0.05-0.098,0.032c-0.033-0.017-0.048-0.053-0.037-0.087
		c0,0,0.125-0.376,0.343-1.035c0.168-0.302,0.345-0.693,0.616-1.101c0.292-0.391,0.61-0.854,1.085-1.244
		c0.213-0.221,0.472-0.405,0.751-0.583c0.271-0.19,0.556-0.38,0.885-0.513c0.602-0.317,1.411-0.555,2.135-0.656l0.548-0.057
		c0.111-0.005,0.143-0.025,0.318-0.02l0.298,0.023c0.398,0.038,0.809,0.053,1.212,0.117c0.395,0.117,0.791,0.234,1.19,0.353
		c0.389,0.146,0.744,0.377,1.115,0.565c0.39,0.167,0.671,0.496,1.009,0.74c0.345,0.242,0.597,0.574,0.854,0.897l0.388,0.478
		c0.114,0.167,0.198,0.354,0.298,0.53c0.174,0.368,0.419,0.681,0.501,1.09c0.107,0.389,0.214,0.771,0.317,1.143
		c0.023,0.352,0.047,0.694,0.07,1.027l0.015,0.249l0.008,0.167l-0.019,0.129c-0.024,0.171-0.049,0.338-0.072,0.505
		c-0.058,0.327-0.069,0.65-0.163,0.944c-0.236,0.571-0.323,1.131-0.645,1.541c-0.286,0.41-0.471,0.82-0.729,1.042
		c-0.479,0.487-0.753,0.764-0.753,0.764c-0.035,0.035-0.093,0.036-0.127,0.001C72.949,22.909,72.947,22.86,72.971,22.825z"/>
</g>
<g>
	<path opacity="0.6" fill="#010101" enable-background="new    " d="M75.113,25.484c0,0,0.087-0.111,0.251-0.318
		c0.167-0.204,0.405-0.513,0.664-0.92c0.14-0.197,0.273-0.428,0.406-0.688c0.143-0.256,0.287-0.534,0.406-0.85
		c0.271-0.612,0.49-1.336,0.654-2.136c0.139-0.803,0.222-1.688,0.125-2.614c-0.022-0.499-0.133-0.938-0.203-1.408
		c-0.131-0.466-0.242-0.95-0.444-1.411c-0.375-0.929-0.873-1.85-1.548-2.659c-0.679-0.804-1.482-1.521-2.389-2.091
		c-0.904-0.564-1.903-0.995-2.937-1.217c-0.517-0.097-1.033-0.199-1.552-0.21l-0.387-0.024c-0.054-0.014-0.247,0.013-0.362,0.018
		c-0.266,0.019-0.533,0.038-0.796,0.058c-0.548-0.006-0.988,0.151-1.463,0.242c-0.472,0.068-0.91,0.274-1.344,0.441
		c-0.446,0.146-0.84,0.373-1.214,0.606c-0.385,0.214-0.749,0.436-1.051,0.716c-0.305,0.272-0.651,0.48-0.896,0.763
		c-0.258,0.275-0.5,0.538-0.729,0.784c-0.425,0.517-0.72,1.032-1.002,1.43c-0.423,0.881-0.666,1.385-0.666,1.385l-0.004,0.007
		c-0.011,0.023-0.04,0.034-0.063,0.022c-0.023-0.01-0.033-0.036-0.023-0.059c0,0,0.189-0.537,0.521-1.476
		c0.25-0.428,0.508-0.987,0.904-1.563c0.428-0.554,0.896-1.206,1.576-1.755c0.309-0.313,0.682-0.57,1.08-0.819
		c0.387-0.269,0.797-0.534,1.267-0.717c0.458-0.205,0.915-0.448,1.451-0.559c0.517-0.131,1.067-0.326,1.583-0.344
		c0.263-0.024,0.528-0.048,0.795-0.072c0.151-0.008,0.227-0.033,0.444-0.027l0.424,0.019c0.568,0.003,1.139,0.103,1.71,0.202
		c1.141,0.227,2.251,0.681,3.263,1.29c2.046,1.203,3.593,3.181,4.317,5.271c0.202,0.516,0.309,1.051,0.434,1.568
		c0.072,0.535,0.161,1.075,0.145,1.546c0.038,1.007-0.113,1.956-0.318,2.802c-0.23,0.841-0.503,1.597-0.87,2.201
		c-0.16,0.314-0.341,0.587-0.517,0.835c-0.165,0.253-0.329,0.479-0.5,0.667c-0.311,0.402-0.593,0.664-0.787,0.842
		c-0.191,0.183-0.293,0.281-0.293,0.281c-0.019,0.017-0.045,0.017-0.063-0.003C75.1,25.527,75.1,25.503,75.113,25.484z"/>
</g>
<g>
	<path opacity="0.8" fill="#010101" enable-background="new    " d="M77.279,28.201c0,0,0.116-0.147,0.335-0.419
		c0.224-0.27,0.541-0.677,0.88-1.213c0.188-0.257,0.366-0.562,0.545-0.906c0.189-0.336,0.383-0.703,0.541-1.118
		c0.085-0.204,0.174-0.414,0.264-0.631c0.072-0.223,0.146-0.452,0.221-0.688c0.177-0.463,0.267-0.976,0.389-1.501
		c0.188-1.061,0.302-2.233,0.175-3.459c-0.023-0.659-0.175-1.242-0.266-1.864c-0.173-0.618-0.318-1.258-0.586-1.869
		c-0.492-1.232-1.159-2.448-2.051-3.521c-0.897-1.065-1.972-2.008-3.165-2.765c-1.198-0.747-2.52-1.314-3.887-1.61
		c-0.685-0.127-1.368-0.261-2.055-0.276L68.107,6.33c-0.075-0.018-0.327,0.018-0.481,0.024c-0.354,0.026-0.703,0.051-1.051,0.077
		c-0.725,0-1.309,0.205-1.934,0.327c-0.624,0.091-1.204,0.364-1.778,0.587c-0.282,0.121-0.58,0.207-0.84,0.353
		C61.765,7.849,61.511,8,61.262,8.148c-0.253,0.148-0.5,0.293-0.741,0.435c-0.236,0.151-0.435,0.347-0.647,0.513
		c-0.403,0.361-0.857,0.638-1.183,1.012c-0.337,0.365-0.656,0.711-0.957,1.038c-0.562,0.686-0.948,1.366-1.318,1.894
		c-0.554,1.164-0.873,1.829-0.873,1.829l-0.006,0.011c-0.021,0.04-0.066,0.057-0.106,0.038c-0.038-0.018-0.056-0.062-0.042-0.099
		c0,0,0.253-0.709,0.696-1.95c0.329-0.566,0.677-1.302,1.202-2.063c0.287-0.365,0.592-0.755,0.914-1.164
		c0.308-0.424,0.76-0.75,1.174-1.149c0.216-0.187,0.421-0.404,0.663-0.577c0.251-0.166,0.504-0.333,0.764-0.504
		c0.261-0.17,0.524-0.344,0.793-0.521c0.272-0.169,0.583-0.28,0.88-0.424c0.607-0.271,1.21-0.589,1.918-0.736
		c0.684-0.17,1.407-0.432,2.091-0.447c0.347-0.031,0.696-0.063,1.051-0.094c0.198-0.01,0.3-0.043,0.583-0.035l0.559,0.024
		c0.75,0.005,1.503,0.135,2.256,0.267c1.504,0.3,2.969,0.899,4.305,1.702c1.339,0.801,2.531,1.844,3.497,3.04
		c0.971,1.193,1.703,2.541,2.19,3.915c0.269,0.682,0.411,1.386,0.575,2.067c0.1,0.707,0.21,1.416,0.193,2.041
		c0.054,1.329-0.143,2.581-0.41,3.698c-0.3,1.111-0.663,2.108-1.142,2.909c-0.209,0.416-0.447,0.78-0.677,1.106
		c-0.215,0.336-0.432,0.633-0.654,0.884c-0.407,0.531-0.779,0.881-1.035,1.119c-0.251,0.243-0.386,0.374-0.386,0.374
		c-0.028,0.025-0.075,0.025-0.104-0.002C77.259,28.271,77.257,28.229,77.279,28.201z"/>
</g>
</svg>
