<?xml version="1.0" encoding="utf-8"?>
<!-- Generator: Adobe Illustrator 16.0.0, SVG Export Plug-In . SVG Version: 6.00 Build 0)  -->
<!DOCTYPE svg PUBLIC "-//W3C//DTD SVG 1.1//EN" "http://www.w3.org/Graphics/SVG/1.1/DTD/svg11.dtd">
<svg version="1.1" id="Layer_1" xmlns="http://www.w3.org/2000/svg" xmlns:xlink="http://www.w3.org/1999/xlink" x="0px" y="0px"
	 width="144.75px" height="48px" viewBox="0 0 144.75 48" enable-background="new 0 0 144.75 48" xml:space="preserve">
<g>
	<g>
		<path fill="#312C80" d="M4.742,33.5v-3.56h9.126c1.465,0,2.441-0.146,2.93-0.439c0.703-0.42,1.055-1.05,1.055-1.89
			c0-0.967-0.41-1.675-1.23-2.124c-0.469-0.254-1.216-0.381-2.241-0.381h-3.706c-2.266,0-3.896-0.41-4.893-1.23
			c-0.625-0.518-1.113-1.169-1.465-1.956S3.79,20.297,3.79,19.408c0-1.406,0.41-2.69,1.23-3.853
			c0.801-1.123,2.085-1.777,3.853-1.963c0.596-0.059,1.484-0.088,2.666-0.088h9.917v3.56h-8.95c-1.338,0.01-2.227,0.068-2.666,0.176
			c-0.898,0.225-1.348,0.903-1.348,2.036c0,0.957,0.376,1.602,1.128,1.934c0.508,0.225,1.348,0.337,2.52,0.337h3.208
			c1.641,0,2.866,0.142,3.677,0.425c1.416,0.479,2.388,1.318,2.915,2.52c0.43,0.967,0.645,2.002,0.645,3.105
			c0,1.211-0.278,2.3-0.835,3.267c-0.781,1.367-1.958,2.183-3.53,2.446c-0.762,0.127-1.904,0.19-3.428,0.19H4.742z"/>
		<path fill="#312C80" d="M35.68,24.623c0-1.025-0.208-1.716-0.623-2.073s-1.228-0.535-2.439-0.535h-6.797v-3.12h6.797
			c1.211,0,2.048,0.022,2.512,0.066s0.93,0.139,1.399,0.286c2.217,0.84,3.271,2.847,3.164,6.021V33.5h-8.467
			c-1.514,0-2.561-0.044-3.142-0.132s-1.091-0.278-1.531-0.571c-1.191-0.801-1.787-2.007-1.787-3.618c0-0.986,0.237-1.862,0.71-2.63
			c0.474-0.766,1.096-1.286,1.868-1.56c0.684-0.244,1.821-0.366,3.413-0.366H35.68z M35.68,27.743h-4.644l-0.674-0.015
			c-0.459,0-0.823,0.122-1.091,0.366s-0.403,0.571-0.403,0.981c0,0.479,0.164,0.815,0.491,1.011s0.886,0.293,1.677,0.293h4.644
			V27.743z"/>
		<path fill="#312C80" d="M43.443,18.896h5.947c1.211,0,2.151,0.083,2.82,0.249s1.228,0.454,1.677,0.864
			c0.439,0.4,0.747,0.898,0.923,1.494s0.264,1.45,0.264,2.563v1.421h-3.853v-0.791c0-1.035-0.183-1.741-0.549-2.117
			s-1.052-0.564-2.058-0.564h-1.157V33.5h-4.014V18.896z"/>
		<path fill="#312C80" d="M69.942,18.896v3.12h-4.819c-1.602,0-2.72,0.361-3.354,1.084c-0.596,0.684-0.894,1.719-0.894,3.105
			c0,1.572,0.488,2.71,1.465,3.413c0.4,0.293,0.835,0.493,1.304,0.601s1.123,0.161,1.963,0.161h4.336v3.12h-5.493
			c-1.475,0-2.642-0.148-3.501-0.447c-0.859-0.297-1.626-0.822-2.3-1.574c-1.25-1.396-1.875-3.169-1.875-5.317
			c0-2.598,0.752-4.541,2.256-5.83c0.596-0.518,1.313-0.886,2.153-1.106s1.929-0.33,3.267-0.33H69.942z"/>
		<path fill="#312C80" d="M73.048,17.401v-3.896h4.014v3.896H73.048z M73.048,18.896h4.014V33.5h-4.014V18.896z"/>
		<path fill="#312C80" d="M87.755,18.676c2.695,0,4.688,0.781,5.977,2.344c1.182,1.426,1.772,3.213,1.772,5.361
			c0,2.285-0.742,4.106-2.227,5.464c-1.357,1.25-3.218,1.875-5.581,1.875c-2.441,0-4.355-0.698-5.742-2.095
			c-1.27-1.279-1.904-3.12-1.904-5.522c0-2.051,0.61-3.755,1.831-5.112C83.238,19.477,85.196,18.705,87.755,18.676z M87.784,21.752
			c-2.412,0-3.618,1.499-3.618,4.497c0,1.221,0.195,2.148,0.586,2.783c0.654,1.074,1.675,1.611,3.062,1.611
			c2.383,0,3.574-1.489,3.574-4.468C91.388,23.256,90.187,21.781,87.784,21.752z"/>
		<path fill="#312C80" d="M110.68,18.896v3.12h-4.819c-1.602,0-2.72,0.361-3.354,1.084c-0.596,0.684-0.894,1.719-0.894,3.105
			c0,1.572,0.488,2.71,1.465,3.413c0.4,0.293,0.835,0.493,1.304,0.601s1.123,0.161,1.963,0.161h4.336v3.12h-5.493
			c-1.475,0-2.642-0.148-3.501-0.447c-0.859-0.297-1.626-0.822-2.3-1.574c-1.25-1.396-1.875-3.169-1.875-5.317
			c0-2.598,0.752-4.541,2.256-5.83c0.596-0.518,1.313-0.886,2.153-1.106s1.929-0.33,3.267-0.33H110.68z"/>
		<path fill="#312C80" d="M121.358,33.5V13.505h4.248V33.5H121.358z"/>
		<path fill="#312C80" d="M129.693,33.5V13.505h4.248V33.5H129.693z"/>
		<path fill="#312C80" d="M138.028,33.5V13.505h4.248V33.5H138.028z"/>
	</g>
</g>
</svg>
