<?xml version="1.0" standalone="no"?>
<!DOCTYPE svg PUBLIC "-//W3C//DTD SVG 20010904//EN"
 "http://www.w3.org/TR/2001/REC-SVG-20010904/DTD/svg10.dtd">
<svg version="1.0" xmlns="http://www.w3.org/2000/svg"
 width="656.000000pt" height="656.000000pt" viewBox="0 0 656.000000 656.000000"
 preserveAspectRatio="xMidYMid meet">
<metadata>
Created by potrace 1.15, written by Peter Selinger 2001-2017
</metadata>
<g transform="translate(0.000000,656.000000) scale(0.100000,-0.100000)"
fill="#000000" stroke="none">
<path d="M3100 6380 c-36 -5 -110 -14 -165 -21 -55 -6 -122 -17 -150 -24 -27
-7 -86 -21 -130 -30 -44 -9 -95 -23 -113 -31 -18 -8 -42 -14 -52 -14 -11 0
-28 -4 -38 -9 -9 -5 -62 -23 -117 -41 -55 -17 -104 -35 -110 -39 -5 -4 -37
-18 -70 -31 -86 -33 -356 -168 -381 -191 -11 -10 -24 -19 -29 -19 -5 0 -35
-18 -66 -40 -32 -22 -60 -40 -63 -40 -3 0 -25 -14 -48 -30 -24 -17 -64 -45
-90 -63 -27 -17 -48 -37 -48 -44 0 -7 -7 -13 -16 -13 -8 0 -44 -28 -80 -62
-36 -35 -69 -62 -73 -61 -17 4 -381 -379 -381 -402 0 -3 -12 -18 -26 -33 -14
-15 -38 -44 -52 -66 -44 -64 -81 -119 -100 -149 -9 -16 -38 -62 -64 -103 -27
-41 -48 -81 -48 -89 0 -8 -4 -15 -9 -15 -9 0 -94 -167 -106 -210 -4 -14 -18
-45 -30 -70 -24 -47 -55 -128 -76 -195 -6 -22 -15 -49 -19 -60 -19 -54 -30
-93 -30 -113 0 -11 -4 -23 -9 -26 -5 -3 -11 -23 -14 -43 -3 -21 -10 -58 -16
-83 -16 -65 -32 -148 -37 -200 -3 -25 -11 -92 -18 -150 -13 -107 -14 -508 -1
-549 3 -12 11 -56 16 -99 8 -73 18 -130 40 -247 6 -27 12 -65 16 -83 3 -18 9
-35 14 -38 5 -3 9 -17 9 -31 0 -25 34 -142 51 -175 5 -10 9 -25 9 -33 0 -8 4
-23 9 -33 9 -18 28 -63 41 -97 4 -11 22 -50 40 -88 36 -74 33 -74 96 -13 18
17 62 58 100 91 37 33 113 104 168 157 198 190 237 227 246 230 5 2 51 44 102
94 51 50 120 114 153 144 33 29 109 101 170 159 60 58 128 121 150 140 46 38
201 182 379 352 252 239 282 268 321 301 22 18 74 67 116 108 41 41 113 109
159 150 47 41 127 117 179 167 52 51 98 94 102 95 8 3 194 177 333 311 32 31
60 57 61 57 1 0 31 28 66 63 35 34 98 92 139 127 40 36 112 102 158 148 46 45
86 82 88 82 4 0 49 42 249 233 72 68 153 143 180 167 28 25 100 92 160 150 61
58 155 146 209 195 179 165 200 185 193 191 -8 9 -71 42 -197 104 -120 60
-274 120 -307 120 -13 0 -23 5 -23 10 0 6 -13 10 -30 10 -16 0 -30 5 -30 10 0
6 -10 10 -23 10 -13 0 -27 4 -32 9 -6 6 -21 12 -35 15 -14 4 -54 13 -90 22
-36 8 -83 20 -105 25 -43 10 -128 24 -240 40 -98 13 -457 19 -535 9z"/>
<path d="M4022 3812 l-1032 -2 -43 -31 c-23 -16 -107 -94 -187 -172 -80 -78
-158 -153 -175 -165 -16 -13 -94 -86 -173 -162 -78 -76 -146 -140 -152 -142
-5 -2 -69 -61 -142 -133 -73 -71 -171 -164 -217 -205 -46 -41 -119 -109 -161
-150 -43 -41 -99 -95 -126 -119 -27 -24 -107 -101 -179 -171 -71 -70 -152
-146 -180 -170 -27 -24 -108 -97 -179 -164 -149 -140 -248 -232 -325 -303
l-54 -49 62 -91 c34 -50 70 -98 81 -108 11 -10 20 -24 20 -31 0 -7 29 -41 65
-76 36 -36 65 -69 65 -74 0 -13 284 -294 297 -294 5 0 41 -31 79 -70 38 -38
76 -70 85 -70 9 0 19 -6 22 -14 6 -15 141 -126 153 -126 5 0 23 -14 40 -31
l33 -32 103 93 c57 51 155 143 218 205 63 61 147 138 185 172 39 33 111 99
160 148 50 48 117 111 149 139 32 28 93 84 135 124 42 41 119 111 171 157 52
47 130 120 172 164 43 43 82 81 87 83 5 1 60 51 123 109 62 59 133 125 158
148 25 23 105 99 179 169 187 178 202 192 208 192 3 0 54 48 115 108 60 59
120 114 134 122 13 8 24 20 24 28 0 7 8 16 17 19 10 4 27 16 39 28 11 11 70
65 129 120 60 55 145 134 189 176 45 42 108 102 141 132 33 31 92 85 130 121
39 36 147 136 242 223 157 144 184 176 157 177 -5 1 -474 0 -1042 -2z"/>
<path d="M5061 2222 l-1084 -2 -74 -66 c-40 -36 -134 -125 -207 -197 -74 -73
-160 -154 -192 -182 -31 -27 -100 -93 -153 -145 -115 -113 -291 -280 -296
-280 -3 0 -58 -53 -124 -117 -66 -65 -154 -149 -196 -188 -130 -119 -138 -126
-296 -280 -85 -82 -190 -182 -234 -221 l-79 -72 39 -17 c22 -9 45 -18 51 -19
7 -1 18 -7 25 -13 8 -6 30 -14 49 -18 19 -4 60 -18 90 -30 59 -24 123 -43 245
-73 22 -6 58 -15 80 -20 92 -24 215 -42 410 -63 175 -19 547 -1 730 34 44 8
94 18 110 21 42 7 101 21 165 40 30 9 62 18 70 19 8 2 26 8 40 14 14 6 68 24
121 41 52 17 122 43 155 57 32 15 75 34 94 42 19 8 44 20 55 26 11 6 58 31
105 55 47 25 102 56 122 69 21 12 41 23 46 23 5 0 17 9 27 20 11 12 34 28 52
36 18 9 52 34 77 55 24 21 49 39 54 39 6 0 26 16 45 35 19 19 38 35 43 35 12
0 143 117 224 201 121 126 235 249 239 260 2 6 16 24 32 40 16 16 29 34 29 39
0 5 14 24 30 42 17 18 30 38 30 45 0 7 4 13 9 13 9 0 81 104 81 118 0 5 8 17
18 28 22 26 42 61 42 75 0 7 6 17 14 23 18 14 86 141 86 161 0 8 4 15 8 15 5
0 16 17 25 38 9 20 21 44 26 52 17 27 51 110 51 124 0 8 5 18 10 21 13 8 13
45 1 45 -5 0 -15 1 -23 3 -7 1 -501 1 -1097 -1z"/>
</g>
</svg>
